<?xml version="1.0" encoding="utf-8"?>
<!-- Generator: Adobe Illustrator 27.4.0, SVG Export Plug-In . SVG Version: 6.00 Build 0)  -->
<svg version="1.1" id="Layer_1" xmlns="http://www.w3.org/2000/svg" xmlns:xlink="http://www.w3.org/1999/xlink" x="0px" y="0px"
	 viewBox="0 0 262.4 96.9" style="enable-background:new 0 0 262.4 96.9;" xml:space="preserve">
<style type="text/css">
	.st0{fill:#C18A00;}
	.st1{fill:#242A2A;}
	.st2{fill:#CCCCCD;}
	.st3{fill:#22201E;}
	.st4{fill:#E8E8EB;}
	.st5{fill:#C62302;}
	.st6{fill:#990000;}
	.st7{fill:url(#SVGID_1_);}
	.st8{fill:url(#SVGID_00000036223175638510432310000002749357941371266182_);}
	.st9{fill:#4F1717;}
	.st10{fill:#8E2525;}
	.st11{clip-path:url(#SVGID_00000113325982979768060800000013041924960778493620_);}
	.st12{fill:#FF0303;}
	.st13{fill:#A31A04;}
	.st14{fill:#FDBA00;}
	.st15{display:none;}
	.st16{display:inline;}
</style>
<path class="st0" d="M43.3,85l45.5,2.8l57-8.7l25.1,8.7l45.5-2.8l7.3-16.3c0,0-38.3-6.8-41.7-7.3c-3.4-0.4-123.7,3.5-123.7,3.5
	l-25.4,8.7L43.3,85z"/>
<g>
	<circle class="st1" cx="66.5" cy="79.1" r="17.7"/>
	<circle class="st2" cx="66.5" cy="79.1" r="10.5"/>
	<circle class="st3" cx="66.5" cy="79.1" r="8.3"/>
	<circle class="st4" cx="66.5" cy="79.1" r="7.9"/>
</g>
<g>
	<circle class="st1" cx="192.7" cy="79.1" r="17.7"/>
	<circle class="st2" cx="192.7" cy="79.1" r="10.5"/>
	<circle class="st3" cx="192.7" cy="79.1" r="8.3"/>
	<circle class="st4" cx="192.7" cy="79.1" r="7.9"/>
</g>
<path class="st5" d="M233.7,56.2c-67.4,10.1-136,10.1-203.5,0C15.3,54,5.4,40.6,8.1,27.1c0,0,0,0,0,0C10.8,13.5,24,4.7,37.6,6.8
	c62.5,9.4,126.1,9.4,188.6,0c13.7-2,26.8,6.8,29.5,20.3c0,0,0,0,0,0C258.5,40.6,248.6,54,233.7,56.2z"/>
<g>
	<path class="st6" d="M205.3,50.7c-0.6,0.1-1.2,0.1-1.7,0.1L186,51.4c-0.5,0.2-2.2,0.7-3.1,0.8c-0.1,0-0.1,0-0.2,0l-1,0L181,21.5
		c0,0-0.1-1,0.7-2c0.8-0.9,2-1.5,3.8-1.7l0.2,0c2-0.1,18.9-0.5,22.6,0.6c0.9,0.1,8.2,1.5,13.4,7.9l9.8,10.8l0.1,0.1
		c0.2,0.3,1.9,3.5,0.7,5.8c-0.7,1.3-2,2-4,2.2c-0.5,0-1,0.1-1.6,0c-1.1,0.5-6.1,2.6-9.8,2.9c-1.2,0.1-2.2,0-2.9-0.2
		C212.7,48.6,209.1,50.4,205.3,50.7z"/>
	
		<linearGradient id="SVGID_1_" gradientUnits="userSpaceOnUse" x1="182.2383" y1="63.2572" x2="231.5188" y2="63.2572" gradientTransform="matrix(0.9991 -4.127270e-02 -4.127270e-02 -0.9991 2.5613 105.7623)">
		<stop  offset="0" style="stop-color:#CAE7F9"/>
		<stop  offset="1" style="stop-color:#B7E2E7"/>
	</linearGradient>
	<path class="st7" d="M182,21.4c0,0-0.2-2.4,3.8-2.7c0,0,18.9-0.5,22.3,0.6c0,0,7.7,1.1,12.8,7.6l9.8,10.8c0,0,4,7-4.2,6.6
		c0,0-9.5,4.3-12.6,2.6c0,0-5.2,3-10.2,2.9l-17.8,0.6c0,0-2.3,0.7-3.1,0.8L182,21.4z"/>
</g>
<g>
	<path class="st6" d="M168.3,50.6c-2.4,0.1-4.4-1.8-4.5-4.2l-0.7-23.1c-0.1-2.4,1.8-4.4,4.2-4.5l6.7-0.2c2.4-0.1,4.4,1.8,4.5,4.2
		l0.7,23.1c0.1,2.4-1.8,4.4-4.2,4.5L168.3,50.6z"/>
	
		<linearGradient id="SVGID_00000143606185056980179970000016497001399272161432_" gradientUnits="userSpaceOnUse" x1="164.4074" y1="34.5908" x2="178.0026" y2="34.6851" gradientTransform="matrix(0.9996 -2.958251e-02 2.958251e-02 0.9996 -0.9647 5.0796)">
		<stop  offset="0" style="stop-color:#CAE7F9"/>
		<stop  offset="1" style="stop-color:#B7E2E7"/>
	</linearGradient>
	<path style="fill:url(#SVGID_00000143606185056980179970000016497001399272161432_);" d="M175,49.4l-6.7,0.2
		c-1.9,0.1-3.4-1.4-3.5-3.3l-0.7-23.1c-0.1-1.9,1.4-3.4,3.3-3.5l6.7-0.2c1.9-0.1,3.4,1.4,3.5,3.3l0.7,23.1
		C178.3,47.8,176.8,49.4,175,49.4z"/>
</g>
<path class="st9" d="M215.8,45.6L215.8,45.6c-0.5-0.1-0.8-0.7-0.7-1.2l2.3-8.9c0.1-0.5,0.7-0.8,1.2-0.7l0,0c0.5,0.1,0.8,0.7,0.7,1.2
	l-2.3,8.9C216.8,45.4,216.3,45.8,215.8,45.6z"/>
<path class="st10" d="M207.6,29.5C207.6,29.4,207.6,29.4,207.6,29.5c-0.1-0.1-0.1-0.1-0.1-0.1c-0.6-1.5-2.3-4.3-6.4-4.6
	c-5.6-0.4-6.8,3.9-6.8,5.4v3.6c0,0.4,0.2,0.8,0.5,1.1h-0.1v2.8l9.2,1.6v-0.4l2.3,1c0.6,0.2,1.2,0,1.6-0.5c0.5-0.8,0.8-1.8,1-2.7
	c0,0,0,0,0,0c0,0,0-0.1,0-0.1C209.2,32.9,207.7,29.6,207.6,29.5z M197.2,32c0.5,0,0.9,0.4,0.9,0.9s-0.4,0.9-0.9,0.9
	s-0.9-0.4-0.9-0.9S196.7,32,197.2,32L197.2,32z M207.9,35.7c-0.8,0-2-0.2-3.5-1.2c-1.7-1.2-2.5-2.9-2.9-4c-0.2-0.5,0-1.5,0.6-1.4
	c0.4,0,0.9,0.2,1.6,0.7c1.1,0.8,2.3,0.9,3.2,0.8c0.1,0,0.3-0.1,0.4-0.1c0.6,1.7,1,3.5,1,5.3C208.1,35.7,208,35.7,207.9,35.7
	L207.9,35.7z"/>
<g>
	<defs>
		<path id="SVGID_00000083073720845716165150000000562488147243321514_" d="M207.6,29.5C207.6,29.4,207.6,29.4,207.6,29.5
			c-0.1-0.1-0.1-0.1-0.1-0.1c-0.6-1.5-2.3-4.3-6.4-4.6c-5.6-0.4-6.8,3.9-6.8,5.4v3.6c0,0.4,0.2,0.8,0.5,1.1h-0.1v2.8l9.2,1.6v-0.4
			l2.3,1c0.6,0.2,1.2,0,1.6-0.5c0.5-0.8,0.8-1.8,1-2.7c0,0,0,0,0,0c0,0,0-0.1,0-0.1C209.2,32.9,207.7,29.6,207.6,29.5z M197.2,32
			c0.5,0,0.9,0.4,0.9,0.9s-0.4,0.9-0.9,0.9s-0.9-0.4-0.9-0.9S196.7,32,197.2,32L197.2,32z M207.9,35.7c-0.8,0-2-0.2-3.5-1.2
			c-1.7-1.2-2.5-2.9-2.9-4c-0.2-0.5,0-1.5,0.6-1.4c0.4,0,0.9,0.2,1.6,0.7c1.1,0.8,2.3,0.9,3.2,0.8c0.1,0,0.3-0.1,0.4-0.1
			c0.6,1.7,1,3.5,1,5.3C208.1,35.7,208,35.7,207.9,35.7L207.9,35.7z"/>
	</defs>
	<clipPath id="SVGID_00000001645840320338065710000016169212129971623815_">
		<use xlink:href="#SVGID_00000083073720845716165150000000562488147243321514_"  style="overflow:visible;"/>
	</clipPath>
	<g style="clip-path:url(#SVGID_00000001645840320338065710000016169212129971623815_);">
		<polygon class="st12" points="181.2,16.5 180,18.1 198.8,31.4 198.8,54.6 200.8,54.6 200.8,30.5 		"/>
	</g>
</g>
<polygon class="st10" points="191.6,54.3 194.8,37.6 204,39.2 206,51.5 "/>
<path class="st13" d="M252.1,55.6L252.1,55.6c-1.5-10-11.7-17-22.8-16c-66.1,6.2-132.8,6.2-198.9,0c-11.2-1-21.4,6-22.8,16v0
	c-1.5,10,6.9,19.2,18.6,20.3c6.6,0.6,13.3,1.2,20,1.7c0.7-5.2,5.6-9.2,11.5-9.2h21.1c6.4,0,11.6,4.6,11.6,10.4c0,0.4,0,0.8-0.1,1.3
	c26.5,0.9,52.9,0.9,79.4,0c-0.1-0.4-0.1-0.8-0.1-1.3c0-5.7,5.2-10.4,11.6-10.4h21.1c5.9,0,10.8,4,11.5,9.2c6.7-0.5,13.3-1,20-1.7
	C245.3,74.8,253.6,65.6,252.1,55.6z"/>
<path class="st14" d="M256.2,59.7L256.2,59.7c-1.5-11.5-12-19.6-23.6-18.4c-68.4,7.2-137.3,7.2-205.6,0C15.5,40,5,48.2,3.5,59.7v0
	C2,71.2,10.5,81.8,22.7,83c6.9,0.7,13.7,1.3,20.6,1.9C44,79,49,74.4,55.2,74.4h21.8c6.6,0,12,5.4,12,12c0,0.5,0,1-0.1,1.4
	c27.4,1.1,54.7,1.1,82.1,0c-0.1-0.5-0.1-1-0.1-1.4c0-6.6,5.4-12,12-12h21.8c6.1,0,11.2,4.6,11.9,10.6c6.9-0.6,13.8-1.2,20.6-1.9
	C249.2,81.8,257.7,71.2,256.2,59.7z"/>
<g id="Layer_1_00000183935778995807130720000014273140309510693295_" class="st15">
	<g id="Layer_3" class="st16">
	</g>
</g>
<path class="st14" d="M29,14.2c-0.5,0.4-1.1,0.9-1,1.6c0.1,0.7,0.7,1.1,1.3,1.4c8.6,3.6,17.4-5.9,26.7-5.7
	c9.3,0.2,16.6,10.1,25.9,9.2c7-0.7,13-7.5,19.8-5.9c2,0.5,3.8,1.7,5.6,2.7c7.8,4.2,17.5,4.7,25.7,1.1c3.5-1.5,6.9-3.8,10.7-4
	c4.3-0.3,8.3,2.1,12.4,3.5c7.6,2.7,16.2,2.2,23.4-1.3c3.8-1.8,7.3-4.5,11.5-5.1c6.1-0.9,11.7,2.6,17.4,4.9
	c6.4,2.6,13.5,3.7,20.3,2.3c1.4-0.3,3-1,3.1-2.4c0.1-2-2.7-2.5-4.7-2.5c-7.8,0.1-15.4-2.6-22.9-4.7c-7.6-2.1-15.8-3.5-23.1-0.8
	c-4.9,1.8-9.2,5.4-14.4,5.7c-4.6,0.3-8.8-2-13.2-3.4c-7.6-2.4-16.1-2-23.4,1.1c-3.1,1.3-6.2,3.2-9.6,3.1c-2.3,0-4.4-1-6.5-1.8
	C105.7,10,96.1,7.7,88.5,12c-2.7,1.5-5.4,3.9-8.5,3.3c-1.5-0.3-2.7-1.2-3.9-2C62.5,4,42.2,4.1,29,14.2z"/>
<g id="Layer_2">
</g>
</svg>
