<?xml version="1.0" encoding="utf-8"?>
<!-- Generator: Adobe Illustrator 26.5.0, SVG Export Plug-In . SVG Version: 6.00 Build 0)  -->
<svg version="1.1" id="Layer_1" xmlns="http://www.w3.org/2000/svg" xmlns:xlink="http://www.w3.org/1999/xlink" x="0px" y="0px"
	 viewBox="0 0 309.5 132.1" style="enable-background:new 0 0 309.5 132.1;" xml:space="preserve">
<style type="text/css">
	.st0{fill:#A119F9;}
	.st1{fill:#FFD400;}
	.st2{fill:#FFFFFF;}
	.st3{fill:#FF8B00;}
	.st4{fill:#474757;}
	.st5{opacity:0.13;}
	.st6{fill:#32323F;}
	.st7{fill:#DDDDDD;}
	.st8{fill:#BAC0D8;}
	.st9{fill:#ACAFBC;}
	.st10{clip-path:url(#SVGID_00000014635601081614496310000015589053791116314038_);}
	.st11{fill:#AAFFF9;}
	.st12{clip-path:url(#SVGID_00000003090814117959370270000009512505743301774217_);}
	.st13{fill:#ABFEF9;}
</style>
<g id="Layer_2_00000100359504156409024890000012030712121540968348_">
	<g id="PumpkinCar_Free">
		<g id="Basic_DarkRed">
			<g id="Layer_2-2">
				<g id="Premium">
					<g id="premium-water">
						<path class="st0" d="M219.2,37.1h34.9c27.3,0.1,49.3,15.7,49.2,45.4V102c3.5,0,6.3,3.1,6.3,6.9s-2.8,6.9-6.3,6.9l-225-0.8
							L6,102.2c-3.3,0-6-2.9-6-6.6c-0.1-3.4,2.6-6.3,6-6.5V46.3c0.1-8.6,6.5-15.5,14.3-15.5h2.2c32.9,0.1,56.1-8.1,84.9-23.9
							l6.2-3.4c3.6-1.8,7.4-2.9,11.3-3.4c6.4-0.6,50.7,1.6,50.7,1.6s14-2,21.5,11.1s22.7,25,22.7,25"/>
						<g>
							<path class="st1" d="M32.7,42.5L14.1,53c-2.7,1.5-3.2,5.3-0.9,7.5l9.8,9.1c2.3,2.2,6.1,1.4,7.4-1.5l8.9-19.5
								C41.1,44.4,36.7,40.4,32.7,42.5z"/>
							<path class="st2" d="M27.9,45.3c0,0,0.2,8.3,9,8.4l2.3-5.1c0,0,1.6-2.8-1-5.3c0,0-2.5-2.4-5.5-0.7L27.9,45.3z"/>
							<path class="st3" d="M27.9,45.3l-9.1,5.1c0,0,1.2,11.8,13.8,12.8l4.3-9.5C36.9,53.6,30.2,53.4,27.9,45.3z"/>
						</g>
						<g>
							<path class="st1" d="M105.2,64.1l8.2,19.8c1.2,2.9,4.9,3.8,7.3,1.8l10.2-8.6c2.4-2,2.1-5.9-0.6-7.5l-18.3-11.2
								C108.1,56.1,103.5,60,105.2,64.1z"/>
							<path class="st2" d="M107.3,69.3c0,0,8.2,0.8,9.4-8l-4.8-2.9c0,0-2.6-1.9-5.3,0.4c0,0-2.7,2.2-1.4,5.4L107.3,69.3z"/>
							<path class="st3" d="M107.3,69.3l4,9.6c0,0,11.9,0.2,14.3-12.1l-8.9-5.4C116.7,61.3,115.6,68,107.3,69.3z"/>
						</g>
						<g>
							<path class="st1" d="M212.3,82.2l-6.3,20.4c-0.9,3,1.3,6.1,4.5,6l13.3-0.1c3.2,0,5.4-3.2,4.3-6.2l-7-20.3
								C219.6,77.8,213.6,77.9,212.3,82.2z"/>
							<path class="st2" d="M210.6,87.5c0,0,5.8,5.8,12.3-0.1l-1.8-5.3c0,0-0.8-3.2-4.3-3.1c0,0-3.4,0-4.5,3.3L210.6,87.5z"/>
							<path class="st3" d="M210.6,87.5l-3.1,9.9c0,0,9.1,7.7,18.8-0.2l-3.4-9.9C222.9,87.3,217.9,91.8,210.6,87.5z"/>
						</g>
						<g>
							<path class="st1" d="M243.3,52.4l-20.7-5.3c-3.1-0.8-6,1.7-5.8,4.8l0.9,13.3c0.2,3.2,3.4,5.2,6.4,4l19.9-8.1
								C248,59.5,247.6,53.5,243.3,52.4z"/>
							<path class="st2" d="M237.9,51c0,0-5.5,6.1,0.8,12.3l5.2-2.1c0,0,3.1-0.9,2.9-4.5c0,0-0.1-3.4-3.5-4.3L237.9,51z"/>
							<path class="st3" d="M237.9,51l-10.1-2.6c0,0-7.2,9.5,1.2,18.7l9.7-3.9C238.6,63.3,233.9,58.5,237.9,51z"/>
						</g>
						<g>
							<path class="st1" d="M280.8,48.8l-17.8,11.9c-2.6,1.8-2.8,5.6-0.3,7.5l10.5,8.3c2.5,2,6.2,0.9,7.2-2.1l7.3-20.2
								C289.3,50,284.6,46.3,280.8,48.8z"/>
							<path class="st2" d="M276.2,51.9c0,0,0.9,8.2,9.7,7.6l1.9-5.3c0,0,1.4-3-1.4-5.2c0,0-2.7-2.2-5.5-0.3L276.2,51.9z"/>
							<path class="st3" d="M276.2,51.9l-8.6,5.8c0,0,2.2,11.7,14.7,11.6l3.5-9.8C285.9,59.5,279.2,59.8,276.2,51.9z"/>
						</g>
						<g>
							<path class="st1" d="M277.9,103.5l19.7-8.5c2.9-1.2,3.7-5,1.7-7.3l-8.8-10c-2.1-2.4-5.9-2-7.5,0.7l-10.9,18.5
								C269.8,100.8,273.8,105.3,277.9,103.5z"/>
							<path class="st2" d="M283,101.3c0,0,0.6-8.2-8.1-9.3l-2.8,4.8c0,0-1.9,2.7,0.5,5.3c0,0,2.2,2.6,5.4,1.3L283,101.3z"/>
							<path class="st3" d="M283,101.3l9.5-4.1c0,0,0-11.9-12.4-14.1l-5.3,9C274.9,92.1,281.6,93,283,101.3z"/>
						</g>
						<g>
							<path class="st1" d="M188.2,83.6l19.7-8.5c2.9-1.2,3.7-5,1.7-7.3l-8.8-10c-2.1-2.4-5.9-2-7.5,0.7L182.3,77
								C180.1,80.9,184.1,85.4,188.2,83.6z"/>
							<path class="st2" d="M193.3,81.4c0,0,0.6-8.2-8.1-9.3l-2.8,4.8c0,0-1.9,2.7,0.5,5.3c0,0,2.2,2.6,5.4,1.3L193.3,81.4z"/>
							<path class="st3" d="M193.3,81.4l9.5-4.1c0,0,0-11.9-12.4-14.1l-5.3,9C185.2,72.2,191.8,73.1,193.3,81.4z"/>
						</g>
						<g>
							<path class="st1" d="M88.3,43.7l19.7-8.5c2.9-1.2,3.7-5,1.7-7.3l-8.8-10c-2.1-2.4-5.9-2-7.5,0.7L82.5,37
								C80.2,40.9,84.2,45.4,88.3,43.7z"/>
							<path class="st2" d="M93.4,41.5c0,0,0.6-8.2-8.1-9.3L82.5,37c0,0-1.9,2.7,0.5,5.3c0,0,2.2,2.6,5.4,1.3L93.4,41.5z"/>
							<path class="st3" d="M93.4,41.5l9.5-4.1c0,0,0-11.9-12.4-14.1l-5.3,9C85.3,32.2,92,33.2,93.4,41.5z"/>
						</g>
						<g>
							<path class="st1" d="M191.9,96.7l-17.8-11.9c-2.6-1.7-6.2-0.4-7,2.6l-3.6,12.8c-0.9,3,1.5,6,4.7,5.9l21.4-1
								C194,105,195.7,99.2,191.9,96.7z"/>
							<path class="st2" d="M187.3,93.6c0,0-7.3,4-3.4,11.8l5.6-0.2c0,0,3.3,0.1,4.2-3.3c0,0,1-3.3-1.9-5.2L187.3,93.6z"/>
							<path class="st3" d="M187.3,93.6l-8.6-5.8c0,0-10,6.5-5.1,18.1l10.4-0.5C183.9,105.4,181.1,99.3,187.3,93.6z"/>
						</g>
						<g>
							<path class="st1" d="M154.7,57.8l15.2,15c2.2,2.2,6,1.6,7.4-1.2l6-11.9c1.4-2.8-0.3-6.2-3.5-6.7l-21.2-3.1
								C154.2,49.3,151.5,54.7,154.7,57.8z"/>
							<path class="st2" d="M158.7,61.7c0,0,7.9-2.5,5.5-11l-5.6-0.8c0,0-3.2-0.8-4.8,2.4c0,0-1.6,3,0.8,5.5L158.7,61.7z"/>
							<path class="st3" d="M158.7,61.7l7.4,7.3c0,0,11-4.5,8.4-16.8l-10.3-1.5C164.2,50.7,165.9,57.2,158.7,61.7z"/>
						</g>
						<g>
							<path class="st1" d="M153.1,95.2l7.9-19.9c1.2-2.9-0.9-6.1-4-6.4l-13.3-0.9c-3.2-0.2-5.6,2.7-4.8,5.8l5.4,20.8
								C145.5,99,151.5,99.4,153.1,95.2z"/>
							<path class="st2" d="M155.2,90c0,0-5.4-6.3-12.3-0.8l1.4,5.4c0,0,0.5,3.2,4.1,3.5c0,0,3.4,0.3,4.7-2.9L155.2,90z"/>
							<path class="st3" d="M155.2,90l3.9-9.6c0,0-8.4-8.4-18.7-1.3l2.6,10.1C142.9,89.2,148.3,85.2,155.2,90z"/>
						</g>
						<g>
							<path class="st1" d="M143.8,55.8l-11.7-12.9c-1.7-1.9-4.8-1.6-6.1,0.6l-5.4,9.4c-1.3,2.2,0,5.1,2.5,5.6l17.1,3.5
								C143.8,62.8,146.2,58.5,143.8,55.8z"/>
							<path class="st2" d="M140.8,52.4c0,0-6.5,1.7-5,8.7l4.5,0.9c0,0,2.5,0.8,4-1.7c0,0,1.5-2.4-0.4-4.5L140.8,52.4z"/>
							<path class="st3" d="M140.8,52.4l-5.7-6.3c0,0-9.2,3.1-7.7,13.2l8.3,1.7C135.7,61.1,134.7,55.7,140.8,52.4z"/>
						</g>
						<g>
							<path class="st1" d="M113,91.7l-11.7-12.9c-1.7-1.9-4.8-1.6-6.1,0.6l-5.4,9.4c-1.3,2.2,0,5.1,2.5,5.6l17.1,3.5
								C113.1,98.7,115.5,94.5,113,91.7z"/>
							<path class="st2" d="M110,88.4c0,0-6.5,1.7-5,8.7l4.5,0.9c0,0,2.5,0.8,4-1.7c0,0,1.5-2.4-0.4-4.5L110,88.4z"/>
							<path class="st3" d="M110,88.4l-5.7-6.3c0,0-9.2,3.1-7.7,13.2l8.3,1.7C105,97.1,104,91.7,110,88.4z"/>
						</g>
						<g>
							<path class="st1" d="M127.1,85.6l-5.2,16.6c-0.8,2.4,1.1,4.9,3.6,4.9l10.9-0.1c2.6,0,4.4-2.6,3.6-5l-5.6-16.5
								C133.2,82.1,128.2,82.1,127.1,85.6z"/>
							<path class="st2" d="M125.8,89.9c0,0,4.7,4.8,10-0.1l-1.5-4.3c0,0-0.6-2.6-3.5-2.6c0,0-2.8,0-3.7,2.6L125.8,89.9z"/>
							<path class="st3" d="M125.8,89.9l-2.5,8.1c0,0,7.3,6.3,15.3-0.1l-2.7-8C135.8,89.9,131.7,93.5,125.8,89.9z"/>
						</g>
						<g>
							<path class="st1" d="M93.9,48.6L81.7,61c-1.8,1.8-1.3,4.9,1,6l9.7,4.9c2.3,1.2,5.1-0.3,5.4-2.8l2.5-17.3
								C100.9,48.1,96.5,46,93.9,48.6z"/>
							<path class="st2" d="M90.8,51.8c0,0,2.1,6.4,9,4.5l0.7-4.5c0,0,0.6-2.6-2-3.9c0,0-2.5-1.3-4.5,0.7L90.8,51.8z"/>
							<path class="st3" d="M90.8,51.8l-5.9,6c0,0,3.7,9,13.7,6.8l1.2-8.4C99.7,56.3,94.4,57.6,90.8,51.8z"/>
						</g>
						<g>
							<path class="st1" d="M126.6,5l-12.2,12.4c-1.8,1.8-1.3,4.9,1,6l9.7,4.9c2.3,1.2,5.1-0.3,5.4-2.8l2.5-17.3
								C133.6,4.5,129.2,2.4,126.6,5z"/>
							<path class="st2" d="M123.4,8.2c0,0,2.1,6.4,9,4.5l0.7-4.5c0,0,0.6-2.6-2-3.9c0,0-2.5-1.3-4.5,0.7L123.4,8.2z"/>
							<path class="st3" d="M123.4,8.2l-5.9,6c0,0,3.7,9,13.7,6.8l1.2-8.4C132.4,12.7,127.1,14,123.4,8.2z"/>
						</g>
						<g>
							<path class="st1" d="M166.3,20.4l-5.7-16.5c-0.8-2.4-3.8-3.3-5.8-1.8l-8.7,6.5c-2.1,1.5-2,4.7,0.1,6.1l14.4,9.9
								C163.6,26.8,167.5,23.9,166.3,20.4z"/>
							<path class="st2" d="M164.8,16.1c0,0-6.6-1-8,6l3.8,2.6c0,0,2,1.7,4.4,0c0,0,2.3-1.6,1.4-4.3L164.8,16.1z"/>
							<path class="st3" d="M164.8,16.1l-2.8-8c0,0-9.7-0.7-12.2,9.2l7,4.8C156.8,22.1,158,16.8,164.8,16.1z"/>
						</g>
						<g>
							<path class="st1" d="M202.7,38.6l-13.5-11c-2-1.6-5-0.8-5.9,1.6l-3.9,10.1c-0.9,2.4,0.8,5,3.3,5.1l17.5,0.9
								C203.7,45.5,205.5,40.9,202.7,38.6z"/>
							<path class="st2" d="M199.1,35.7c0,0-6.2,2.6-3.6,9.3l4.6,0.2c0,0,2.6,0.4,3.7-2.3c0,0,1.1-2.6-1.1-4.4L199.1,35.7z"/>
							<path class="st3" d="M199.1,35.7l-6.6-5.3c0,0-8.6,4.5-5.5,14.2l8.5,0.4C195.5,45.1,193.7,39.9,199.1,35.7z"/>
						</g>
						<g>
							<path class="st1" d="M175,19.9l14.1-0.9c2.1-0.1,3.4-2.3,2.7-4.2l-3.3-8.2c-0.8-1.9-3.2-2.6-4.8-1.2l-10.9,9.1
								C170.6,16.4,172,20.1,175,19.9z"/>
							<path class="st2" d="M178.7,19.7c0,0,2.2-5-3-7.6l-2.8,2.4c0,0-1.8,1.2-0.9,3.4c0,0,0.8,2.1,3.1,2L178.7,19.7z"/>
							<path class="st3" d="M178.7,19.7l6.9-0.4c0,0,2.6-7.4-4.6-11.6l-5.3,4.4C175.7,12.1,179.6,14.2,178.7,19.7z"/>
						</g>
						<g>
							<path class="st1" d="M20.8,95.5l14.1-0.9c2.1-0.1,3.4-2.3,2.7-4.2l-3.3-8.2c-0.8-1.9-3.2-2.6-4.8-1.2L18.6,90
								C16.3,91.9,17.8,95.6,20.8,95.5z"/>
							<path class="st2" d="M24.5,95.2c0,0,2.2-5-3-7.6L18.6,90c0,0-1.8,1.2-0.9,3.4c0,0,0.8,2.1,3.1,2L24.5,95.2z"/>
							<path class="st3" d="M24.5,95.2l6.9-0.4c0,0,2.6-7.4-4.6-11.6l-5.3,4.4C21.5,87.6,25.4,89.7,24.5,95.2z"/>
						</g>
						<g>
							<path class="st1" d="M50.4,57.9l0,14.2c0,2.1,2,3.6,4,2.9l8.4-2.7c2-0.6,2.8-3,1.5-4.7L56,56.1
								C54.2,53.7,50.4,54.9,50.4,57.9z"/>
							<path class="st2" d="M50.4,61.6c0,0,4.8,2.5,7.8-2.5l-2.2-3c0,0-1.1-1.9-3.4-1.1c0,0-2.2,0.7-2.2,2.9L50.4,61.6z"/>
							<path class="st3" d="M50.4,61.6l0,6.9c0,0,7.2,3.1,11.8-3.8l-4.1-5.6C58.2,59.1,55.8,62.9,50.4,61.6z"/>
						</g>
						<g>
							<path class="st1" d="M77.2,57.5l-4.7-13.4c-0.7-2-3.1-2.7-4.8-1.4l-7,5.3c-1.7,1.3-1.6,3.8,0.1,5l11.7,8
								C75,62.7,78.1,60.3,77.2,57.5z"/>
							<path class="st2" d="M76,54c0,0-5.4-0.8-6.5,4.9l3.1,2.1c0,0,1.7,1.4,3.5,0c0,0,1.8-1.3,1.1-3.5L76,54z"/>
							<path class="st3" d="M76,54l-2.3-6.5c0,0-7.9-0.5-9.9,7.5l5.7,3.9C69.5,58.9,70.4,54.5,76,54z"/>
						</g>
						<g>
							<path class="st1" d="M67.4,40l11.9-3.5c1.7-0.5,2.5-2.6,1.5-4.1L76.4,26c-1-1.5-3.2-1.6-4.4-0.1l-7.6,9.9
								C62.9,37.8,64.9,40.7,67.4,40z"/>
							<path class="st2" d="M70.4,39.1c0,0,0.9-4.7-4-5.9l-2,2.6c0,0-1.3,1.4-0.1,3.1c0,0,1.1,1.7,3,1.1L70.4,39.1z"/>
							<path class="st3" d="M70.4,39.1l5.8-1.7c0,0,0.8-6.8-6.1-9l-3.7,4.8C66.4,33.2,70.2,34.2,70.4,39.1z"/>
						</g>
						<g>
							<path class="st1" d="M53.4,46.6l2.8-12.1c0.4-1.8-1-3.4-2.8-3.3l-7.7,0.7c-1.8,0.2-3,2.1-2.2,3.7L48.3,47
								C49.3,49.4,52.8,49.1,53.4,46.6z"/>
							<path class="st2" d="M54.1,43.4c0,0-3.6-3.1-7.1,0.6l1.3,3c0,0,0.6,1.8,2.6,1.6c0,0,2-0.1,2.4-2.1L54.1,43.4z"/>
							<path class="st3" d="M54.1,43.4l1.4-5.9c0,0-5.6-4.1-10.8,0.9L47,44C47,44,49.7,41.3,54.1,43.4z"/>
						</g>
						<path class="st4" d="M303.2,102c3.5,0,6.3,3.1,6.3,6.9s-2.8,6.9-6.3,6.9l-225-0.8L6,102.2c-3.3,0-6-2.9-6-6.6
							c-0.1-3.4,2.6-6.3,6-6.5L5.8,58l13.3,13.9l-0.7,17.3v4.1l58,9.9L303.2,102z"/>
						<g class="st5">
							<path d="M303.3,86.1c0,0-18.2-45.3-84.8-25.5L5.9,46.3c0.1-8.6,6.5-15.5,14.3-15.5L63.4,31c8.9,0,141.8,18.5,141.8,18.5
								l14-12.4h34.9C254.1,37.1,303.3,35.5,303.3,86.1z"/>
						</g>
						
							<ellipse transform="matrix(0.9954 -9.583629e-02 9.583629e-02 0.9954 -8.2525 25.0609)" class="st6" cx="256.8" cy="98.4" rx="33.7" ry="33.5"/>
						
							<ellipse transform="matrix(0.9954 -9.585521e-02 9.585521e-02 0.9954 -8.2539 25.0659)" class="st4" cx="256.8" cy="98.4" rx="32.8" ry="32.6"/>
						
							<ellipse transform="matrix(0.9954 -9.583630e-02 9.583630e-02 0.9954 -8.2525 25.0609)" cx="256.8" cy="98.4" rx="24.7" ry="24.5"/>
						
							<ellipse transform="matrix(0.9954 -9.584575e-02 9.584575e-02 0.9954 -8.2532 25.0634)" class="st2" cx="256.8" cy="98.4" rx="23.5" ry="23.3"/>
						
							<ellipse transform="matrix(0.9954 -9.585520e-02 9.585520e-02 0.9954 -8.2539 25.0659)" class="st7" cx="256.8" cy="98.4" rx="22.3" ry="22.1"/>
						
							<ellipse transform="matrix(6.483675e-02 -0.9979 0.9979 6.483675e-02 141.8852 348.2881)" class="st8" cx="256.8" cy="98.4" rx="13.8" ry="13.8"/>
						
							<ellipse transform="matrix(0.995 -9.950367e-02 9.950367e-02 0.995 -8.4533 26.1913)" class="st9" cx="258.3" cy="97.8" rx="12.7" ry="12.7"/>
						<g>
							<defs>
								<path id="SVGID_1_" d="M191.9,48c-18.2-36.6-27.7-35.3-27.7-35.3s-24.1-0.8-31.7-0.1s-10.2,5.5-10.2,5.5l-7.6,11.7
									c0,0-5.1,6.9,7.6,8.3C132.4,39.3,191.9,48,191.9,48z"/>
							</defs>
							<clipPath id="SVGID_00000114062336918075751670000015303941566807101568_">
								<use xlink:href="#SVGID_1_"  style="overflow:visible;"/>
							</clipPath>
							<g style="clip-path:url(#SVGID_00000114062336918075751670000015303941566807101568_);">
								<path class="st11" d="M190.8,11.4h-81.2V48h82.3V11.4H190.8z"/>
							</g>
						</g>
						<g>
							<defs>
								<path id="SVGID_00000182498101646913997980000010891373391974029983_" d="M197.1,12.8l22.7,24.3l-12.7,11.7l-20.8-29.1
									c0,0-3.8-4.2,0-6.2L197.1,12.8z"/>
							</defs>
							<clipPath id="SVGID_00000023979616352671642140000007620995786682775945_">
								<use xlink:href="#SVGID_00000182498101646913997980000010891373391974029983_"  style="overflow:visible;"/>
							</clipPath>
							<g style="clip-path:url(#SVGID_00000023979616352671642140000007620995786682775945_);">
								<path class="st13" d="M219,12.8h-36.5v36h37.3v-36L219,12.8z"/>
							</g>
						</g>
					</g>
				</g>
			</g>
			
				<ellipse transform="matrix(0.9954 -9.584812e-02 9.584812e-02 0.9954 -9.1417 6.765)" class="st6" cx="65.8" cy="98.5" rx="33.7" ry="33.5"/>
			
				<ellipse transform="matrix(0.9954 -9.584338e-02 9.584338e-02 0.9954 -9.1412 6.7647)" class="st4" cx="65.8" cy="98.5" rx="32.8" ry="32.6"/>
			<ellipse transform="matrix(0.9954 -9.584811e-02 9.584811e-02 0.9954 -9.1417 6.765)" cx="65.8" cy="98.5" rx="24.7" ry="24.5"/>
			
				<ellipse transform="matrix(0.9954 -9.584575e-02 9.584575e-02 0.9954 -9.1414 6.7649)" class="st2" cx="65.8" cy="98.5" rx="23.5" ry="23.3"/>
			
				<ellipse transform="matrix(0.9954 -9.584339e-02 9.584339e-02 0.9954 -9.1412 6.7647)" class="st7" cx="65.8" cy="98.5" rx="22.3" ry="22.1"/>
			<ellipse class="st8" cx="65.8" cy="98.5" rx="13.8" ry="13.8"/>
			<ellipse class="st9" cx="65.8" cy="98.5" rx="12.6" ry="12.6"/>
		</g>
	</g>
</g>
</svg>
