<?xml version="1.0" encoding="utf-8"?>
<!-- Generator: Adobe Illustrator 27.0.1, SVG Export Plug-In . SVG Version: 6.00 Build 0)  -->
<svg version="1.1" id="Layer_1" xmlns="http://www.w3.org/2000/svg" xmlns:xlink="http://www.w3.org/1999/xlink" x="0px" y="0px"
	 viewBox="0 0 318.7 135.7" style="enable-background:new 0 0 318.7 135.7;" xml:space="preserve">
<style type="text/css">
	.st0{fill:#474757;}
	.st1{fill:#FFFFFF;}
	.st2{clip-path:url(#SVGID_00000176748910444122232770000015042699280739311535_);}
	.st3{fill:#E41E26;}
	.st4{opacity:0.13;}
	.st5{fill:#32323F;}
	.st6{fill:#DDDDDD;}
	.st7{fill:#BAC0D7;}
	.st8{fill:#ADB0BC;}
	.st9{clip-path:url(#SVGID_00000018941328390372259660000013156608966019296910_);}
	.st10{fill:#B6E2E7;}
	.st11{clip-path:url(#SVGID_00000029037531735417415220000018158301743888157102_);}
	.st12{fill:#B7E2E8;}
</style>
<g id="Layer_2_00000100359504156409024890000012030712121540968348_">
	<g id="PumpkinCar_Free">
		<g id="Basic_DarkRed">
			<g id="Layer_2-2">
				<g id="Premium">
					<g id="premium-water">
						<path class="st0" d="M308.2,121.4L83,120.6h-0.2l-72.1-12.8c-4.3-0.1-7.8-3.9-7.8-8.6c-0.1-3.8,2.5-7.1,6-8.2V49.9
							c0.1-9.7,7.4-17.5,16.3-17.5h2.2c0.2,0,0.4,0,0.6,0c33.5,0,56.8-9.1,83.4-23.7l6.2-3.4c3.8-1.9,7.8-3.1,12-3.6
							c6.4-0.6,47.4,1.4,50.9,1.6c1.9-0.2,15.6-1.3,23.3,12.1c5.9,10.3,17,20.1,20.8,23.3H259c14.5,0.1,27,4.2,36.2,12.1
							c9.9,8.5,15.1,20.7,15,35.3v17.8c3.6,1,6.3,4.5,6.3,8.6C316.5,117.4,312.8,121.4,308.2,121.4z M83.4,116.6l224.8,0.8
							c2.4,0,4.3-2.2,4.3-4.9c0-2.7-1.9-4.9-4.3-4.9h-2V86.1c0.1-26.3-18.4-43.3-47.2-43.4h-34.9v-0.5l-0.6,0.8
							c-0.6-0.5-15.6-12.3-23.2-25.6c-6.7-11.7-19-10.2-19.5-10.1h-0.2h-0.2c-0.4,0-44.2-2.2-50.4-1.6c-3.7,0.5-7.3,1.6-10.6,3.2
							l-6.1,3.4C86.1,27.2,62.3,36.4,28,36.4c-0.2,0-0.4,0-0.6,0h-2.2c-6.7,0-12.2,6.1-12.3,13.5v44.7L11,94.7
							c-2.3,0.1-4.2,2.1-4.1,4.4c0,2.6,1.8,4.7,4,4.7h0.3L83.4,116.6z"/>
						<path class="st1" d="M224.1,40.7H259c27.3,0.1,49.3,15.7,49.2,45.4v19.5c3.5,0,6.3,3.1,6.3,6.9s-2.8,6.9-6.3,6.9l-225-0.8
							l-72.3-12.8c-3.3,0-6-2.9-6-6.6c-0.1-3.4,2.6-6.3,6-6.5V49.9c0.1-8.6,6.5-15.5,14.3-15.5h2.2c32.9,0.1,56.1-8.1,84.9-23.9
							l6.2-3.4c3.6-1.8,7.4-2.9,11.3-3.4c6.4-0.6,50.7,1.6,50.7,1.6s14-2,21.5,11.1s22.7,25,22.7,25"/>
						<g>
							<g>
								<defs>
									<path id="SVGID_1_" d="M224.1,40.7H259c27.3,0.1,49.3,15.7,49.2,45.4v19.5c3.5,0,6.3,3.1,6.3,6.9s-2.8,6.9-6.3,6.9
										l-225-0.8l-72.3-12.8c-3.3,0-6-2.9-6-6.6c-0.1-3.4,2.6-6.3,6-6.5V49.9c0.1-8.6,6.5-15.5,14.3-15.5h2.2
										c32.9,0.1,56.1-8.1,84.9-23.9l6.2-3.4c3.6-1.8,7.4-2.9,11.3-3.4c6.4-0.6,50.7,1.6,50.7,1.6s14-2,21.5,11.1s22.7,25,22.7,25
										"/>
								</defs>
								<clipPath id="SVGID_00000007395009300548579580000015882170173059865988_">
									<use xlink:href="#SVGID_1_"  style="overflow:visible;"/>
								</clipPath>
								<g style="clip-path:url(#SVGID_00000007395009300548579580000015882170173059865988_);">
									<path class="st3" d="M144.4,78.2c8.5-8.3,20.5-14.5,33.3-20.6c10.9-5.2,22.3-10.4,33-17c9.7-5.9,18.6-12.9,26.2-21.1
										c2.8-3,5.4-6.2,7.9-9.5c-2.2,0.1-4.5,0.1-6.7,0.2c-5.6,7.8-12.1,14.6-19.5,20.5c-13.3,10.7-29.2,18-44.5,25.2
										C158,63.4,143,71,133.7,82.7c-5.4,6.8-9,14.9-10.3,25c2.4,0,4.9,0,7.3,0.1C131.8,95.3,136.7,85.8,144.4,78.2z"/>
									<path class="st3" d="M95.9,68.1c11.7-9,25.2-15.9,38.3-22.1c11.1-5.3,21.8-10.2,30.6-16.2c8-5.4,14.5-11.7,18.5-19.8
										c1.5-2.9,2.6-6.1,3.5-9.5c-2.3-0.1-4.6-0.1-7-0.2c-1.6,7.9-5.2,14.4-10.4,19.8c-9.3,9.9-23.6,16.6-38.9,24.1
										C114.1,52.1,97,60.9,83.1,73.5C74.9,80.7,67.8,89,61.7,98.3c2.3-0.1,4.7-0.2,7-0.2C76,86.3,85.2,76.3,95.9,68.1z"/>
									<path class="st3" d="M90,46c11.4-6.5,22.6-11.9,31.7-17.7c8.3-5.2,15-10.6,18.8-17.2c1.4-2.4,2.4-5,3-7.9
										c-2.4-0.1-4.8-0.2-7.2-0.4c-1.2,6.5-4.9,11.8-10.3,16.7c-9.8,8.7-25,15.9-40.8,25.1c-16.9,9.6-34.1,21.8-48.4,36
										c-8.3,8.2-15.7,16.9-22.6,25c2.5-0.2,5-0.4,7.5-0.5c8.6-10.7,18.3-21.8,29.2-31.6C62.9,62.7,76.6,53.6,90,46z"/>
									<path class="st3" d="M231.5,51.9c20.6-11.6,40.4-27.8,55.6-46.3c0,0,0.1-0.1,0.1-0.1c-2.5,0.2-4.9,0.5-7.3,0.7
										c-1.3,1.5-2.6,3.1-3.8,4.5c-12.2,14.2-27,26.4-42.8,36c-20.2,12.6-41.8,20.9-55,32c-8.4,7.1-13.2,15.7-12.5,27.7
										c2.4,0.1,4.9,0.1,7.3,0.2c-1.1-12.1,3.9-20.6,12.7-27.9C197.2,69.4,214.3,62,231.5,51.9z"/>
									<path class="st3" d="M75.7,43.3c17.9-10.8,35-18.9,43.8-29.5c2.2-2.7,3.9-5.6,4.9-8.7c-2.5-0.1-5-0.3-7.5-0.4
										c-3.4,10.4-14.5,17.8-28.3,26.2C75.9,38.5,61,47,47.1,57.3C32.3,68,19,80.8,7.7,93.3c-0.1,0.1-0.2,0.2-0.4,0.4
										C7.1,96.3,7,99,7,101.6c0.9-1.1,2-2.1,3-3.2C27.3,77.8,51.3,57.2,75.7,43.3z"/>
									<path class="st3" d="M271.1,54.6c14-9.3,27.9-20.6,39.7-32.3c0.1-0.1,0.4-0.4,0.5-0.5c0.1-2.5,0.3-5.2,0.4-7.7
										c-2.1,2.1-4.1,4.3-6.3,6.4c-13,13-28.3,25.1-43.8,35c-13.8,9-27.6,16.5-37.6,23.9c-10.7,8-17.2,16.1-15.2,27.9
										c2.5,0.1,5.1,0.1,7.6,0.2c-1.1-7.6,1.5-13.8,6.8-19.5C233.1,77.1,252.3,67.5,271.1,54.6z"/>
									<path class="st3" d="M67,11c3-2.9,5.3-5.8,6.9-8.8c-2.9-0.1-5.7-0.2-8.7-0.2C59,12.1,44.1,21.4,27.5,32.8
										C20.8,37.5,13.8,42.4,7,47.7c-0.1,2.5-0.2,5-0.3,7.5c4.1-3.4,8.2-6.5,12.4-9.6C37.3,32,56.1,21.5,67,11z"/>
									<path class="st3" d="M88.4,5.3c-1.9-0.1-3.9-0.2-5.8-0.2c-1.9,3.2-4.6,6.2-8,9.1C63.3,24,45.4,34,28.1,46.8
										C18.7,53.5,9.6,60.9,1.2,68.6c-0.3,0.2-0.4,0.4-0.7,0.5c0,1.8,0,3.5,0,5.3c0.3-0.1,0.4-0.3,0.6-0.5
										c11.8-11.4,25.5-22.2,39.1-31.5C60.8,28.2,81.2,17.9,88.4,5.3z"/>
									<path class="st3" d="M306.1,70.6c1.9-1.3,3.7-2.6,5.6-3.8c0-2.6,0.1-5.1,0.1-7.6c-6.4,4.7-12.6,9-18.7,13.2
										c-14.8,10.3-27.8,18.8-33,28.3c-1.3,2.5-2.2,5-2.4,7.6c2.7,0,5.4,0.1,8.1,0.1c0.6-2.8,1.9-5.5,3.7-8.2
										C276.2,90.7,290.5,81.7,306.1,70.6z"/>
									<path class="st3" d="M280.6,61.6c10.6-7.2,21.5-15.3,31.5-23.9c0.1-0.1,0.4-0.4,0.7-0.5c0.1-1.8,0.2-3.5,0.2-5.3
										c-2.1,2-4.5,3.9-6.7,5.8c-18.8,16.5-41.3,29.5-57.7,40.9c-12.7,9-21.3,17.4-19.7,29.3c1.8,0,3.6,0.1,5.5,0.1
										c-0.7-6.8,2.1-12.5,7.1-18C250,80.9,264.9,72.3,280.6,61.6z"/>
									<path class="st3" d="M241,34.4c3.1-2.3,6.1-4.8,9-7.4c5.7-5.1,11.2-10.8,16.2-16.8c1.8-2.2,3.6-4.4,5.4-6.7
										c-3.5,0.2-7,0.4-10.5,0.6c-2.3,3.3-4.8,6.4-7.3,9.5c-16.3,20.1-40.2,33.5-62.3,44c-26.8,12.9-49,24.2-47.6,53.2
										c3.6,0,7.3,0.1,11,0.1c0-0.4-0.1-0.9-0.1-1.3c-1.1-12.6,3.1-22,10.5-29.3C182,63.9,215.2,54.7,241,34.4z"/>
									<path class="st3" d="M124.3,83c25.3-31.4,85.4-34.9,107.6-77.6c-4.2,0-8.3,0-12.4,0c-0.3,0.5-0.5,1-0.8,1.5
										c-2.7,5-6.1,9.6-9.9,13.8c-9.6,10.6-23,18.3-36.9,24.9c-33.4,14.9-67,29.1-73.7,68.7c4.7,0,9.4,0,14,0
										c0.1-0.6,0.1-1.3,0.2-1.9c1-8,3.2-15.1,6.3-21C120.4,88.5,122.3,85.7,124.3,83z"/>
									<path class="st3" d="M99.4,88.2c2.1-3.1,4.4-5.9,6.8-8.6c29.8-32.8,89.5-35,105.2-77.3c-4.2,0-8.4-0.1-12.6-0.2
										c-0.2,0.5-0.4,1-0.5,1.5c-1.9,5-4.4,9.6-7.6,13.7c-8,10.4-20.5,17.8-34.1,24.3c-32.8,14.5-68.2,31.1-81.6,69.1
										c4.6,0,9.1-0.1,13.7-0.1c0.2-0.6,0.4-1.2,0.6-1.8C91.9,101.2,95.3,94.2,99.4,88.2z"/>
									<path class="st3" d="M208.9,80.5c12.1-9.9,31.2-18.7,49.4-31c18.4-12,35.8-27.5,49.5-43.2c2.7-3,5.4-5.9,7.9-8.8
										c-4.8,0.5-9.5,1-14.1,1.5c-18.7,25.1-48.2,46.5-75.1,61.1c-26.3,15.7-50.1,24.6-42.7,51.3c4.6,0,9.3,0.1,13.9,0.1
										c-0.2-0.5-0.3-1-0.4-1.5c-2.3-8.7-0.6-15.5,3.5-21.3C202.8,85.9,205.6,83.2,208.9,80.5z"/>
									<path class="st3" d="M87.1,60.4c34.4-23.8,77.3-30.4,78.6-63.8c0.2-3.3,0-6.8-0.6-10.6c-4.7,0-9.4,0-14,0
										c7.6,29.2-14.3,39-40.1,53.4C84.8,52.9,54.7,71,35.9,97.3c4.5-0.4,8.9-0.7,13.3-1c0.4-0.5,0.8-1,1.2-1.6
										c6.8-9,14.8-17.3,23.2-24.3C77.9,66.9,82.4,63.5,87.1,60.4z"/>
									<path class="st3" d="M30.6,63.4c8.1-6.6,16.6-12.8,25.1-18.3c12.8-8.3,25.5-15.4,35.2-22.2c4.9-3.5,9.2-7,12.3-10.7
										c1.7-2,3-4.1,4-6.3c-2.9-0.1-5.8-0.3-8.7-0.4C86.8,26.3,37.9,44,8.1,76.3c-1.1,1.1-2.2,2.2-3.4,3.3
										c-0.3,0.2-0.5,0.5-0.8,0.8c-0.1,2.9-0.2,5.7-0.2,8.6c1.2-1.3,2.5-2.6,3.8-4c0.2-0.1,0.4-0.3,0.5-0.5
										C14.9,77.2,22.5,70,30.6,63.4z"/>
									<path class="st3" d="M272,111.7c4.8,0,9.6,0.1,14.4,0.1c3.1-9.7,15.1-18.3,30-28.6c0-4.6-0.1-9.1,0-13.7
										c-19.6,13.9-37.6,24.5-42.9,36.5C272.7,107.8,272.2,109.7,272,111.7z"/>
									<path class="st3" d="M314.4,42.1c-0.4,0.2-0.8,0.5-1,0.6c0,0-0.1,0-0.1,0.1c-33.2,29.8-78,43.7-71.7,69.1
										c2.8,0,5.7,0,8.5,0.1c0-0.2-0.1-0.4-0.1-0.6c-0.1-0.5-0.1-1.1-0.1-1.6c0-0.6,0-1.2,0-1.8c0.7-20.3,37-34.5,66.9-59.7
										c0,0,0.1-0.1,0.1-0.1c0.3-0.2,0.5-0.3,0.8-0.5c0.3-0.2,0.6-0.5,0.9-0.7c0-2.3,0-4.6,0-6.9
										C317.1,40.7,315.8,41.4,314.4,42.1z"/>
								</g>
							</g>
						</g>
						<path class="st0" d="M308.1,105.6c3.5,0,6.3,3.1,6.3,6.9s-2.8,6.9-6.3,6.9l-225-0.8l-72.2-12.8c-3.3,0-6-2.9-6-6.6
							c-0.1-3.4,2.6-6.3,6-6.5l-0.2-31.1L24,75.5l-0.7,17.3v4.1l58,9.9L308.1,105.6z"/>
						<g class="st4">
							<path d="M308.2,89.7c0,0-18.2-45.3-84.8-25.5L10.8,49.9c0.1-8.6,6.5-15.5,14.3-15.5l43.2,0.2c8.9,0,141.8,18.5,141.8,18.5
								l14-12.4H259C259,40.7,308.2,39.1,308.2,89.7z"/>
						</g>
						
							<ellipse transform="matrix(0.9954 -9.581690e-02 9.581690e-02 0.9954 -8.5692 25.5445)" class="st5" cx="261.7" cy="102" rx="33.7" ry="33.5"/>
						
							<ellipse transform="matrix(0.9954 -9.587316e-02 9.587316e-02 0.9954 -8.5736 25.5598)" class="st0" cx="261.7" cy="102" rx="32.8" ry="32.6"/>
						
							<ellipse transform="matrix(0.9954 -9.581693e-02 9.581693e-02 0.9954 -8.5692 25.5445)" cx="261.7" cy="102" rx="24.7" ry="24.5"/>
						
							<ellipse transform="matrix(0.9954 -9.584503e-02 9.584503e-02 0.9954 -8.5714 25.5521)" class="st1" cx="261.7" cy="102" rx="23.5" ry="23.3"/>
						
							<ellipse transform="matrix(0.9954 -9.587312e-02 9.587312e-02 0.9954 -8.5735 25.5598)" class="st6" cx="261.7" cy="102" rx="22.3" ry="22.1"/>
						
							<ellipse transform="matrix(0.377 -0.9262 0.9262 0.377 68.4359 305.8437)" class="st7" cx="261.6" cy="102" rx="13.8" ry="13.8"/>
						
							<ellipse transform="matrix(0.2203 -0.9754 0.9754 0.2203 106.2756 335.7694)" class="st8" cx="263.2" cy="101.4" rx="12.7" ry="12.7"/>
						<g>
							<g>
								<g>
									<defs>
										<path id="SVGID_00000074404998927697848900000000671384602163293871_" d="M196.8,51.6c-18.2-36.6-27.7-35.3-27.7-35.3
											s-24.1-0.8-31.7-0.1c-7.6,0.7-10.2,5.5-10.2,5.5l-7.6,11.7c0,0-5.1,6.9,7.6,8.3C137.3,42.9,196.8,51.6,196.8,51.6z"/>
									</defs>
									<clipPath id="SVGID_00000129194715792141383930000008470819233683681421_">
										<use xlink:href="#SVGID_00000074404998927697848900000000671384602163293871_"  style="overflow:visible;"/>
									</clipPath>
									<g style="clip-path:url(#SVGID_00000129194715792141383930000008470819233683681421_);">
										<path class="st10" d="M195.7,15h-81.2v36.6h82.3V15H195.7z"/>
									</g>
								</g>
							</g>
						</g>
						<g>
							<g>
								<g>
									<defs>
										<path id="SVGID_00000110430369691111110290000013992850569872823952_" d="M202,16.4l22.7,24.3L212,52.4l-20.8-29.1
											c0,0-3.8-4.2,0-6.2L202,16.4z"/>
									</defs>
									<clipPath id="SVGID_00000039132805933851205650000017461053596876801953_">
										<use xlink:href="#SVGID_00000110430369691111110290000013992850569872823952_"  style="overflow:visible;"/>
									</clipPath>
									<g style="clip-path:url(#SVGID_00000039132805933851205650000017461053596876801953_);">
										<path class="st12" d="M223.9,16.4h-36.5v36h37.3v-36L223.9,16.4z"/>
									</g>
								</g>
							</g>
						</g>
					</g>
				</g>
			</g>
			
				<ellipse transform="matrix(0.9954 -9.585206e-02 9.585206e-02 0.9954 -9.461 7.2466)" class="st5" cx="70.7" cy="102.1" rx="33.7" ry="33.5"/>
			
				<ellipse transform="matrix(0.9954 -9.583800e-02 9.583800e-02 0.9954 -9.4596 7.2455)" class="st0" cx="70.7" cy="102.1" rx="32.8" ry="32.6"/>
			
				<ellipse transform="matrix(0.9954 -9.585205e-02 9.585205e-02 0.9954 -9.461 7.2466)" cx="70.7" cy="102.1" rx="24.7" ry="24.5"/>
			
				<ellipse transform="matrix(0.9954 -9.584503e-02 9.584503e-02 0.9954 -9.4603 7.2461)" class="st1" cx="70.7" cy="102.1" rx="23.5" ry="23.3"/>
			
				<ellipse transform="matrix(0.9954 -9.583801e-02 9.583801e-02 0.9954 -9.4596 7.2455)" class="st6" cx="70.7" cy="102.1" rx="22.3" ry="22.1"/>
			<ellipse class="st7" cx="70.7" cy="102.1" rx="13.8" ry="13.8"/>
			<ellipse class="st8" cx="70.7" cy="102.1" rx="12.6" ry="12.6"/>
		</g>
	</g>
</g>
</svg>
