<?xml version="1.0" encoding="UTF-8"?>
<svg xmlns="http://www.w3.org/2000/svg" xmlns:xlink="http://www.w3.org/1999/xlink" width="3744" height="2592" viewBox="0 0 3744 2592">
<rect x="-374.4" y="-259.2" width="4492.8" height="3110.4" fill="rgb(100%, 100%, 100%)" fill-opacity="1"/>
<path fill-rule="nonzero" fill="rgb(0%, 0%, 0%)" fill-opacity="1" d="M 2802.691406 1769.617188 L 2802.699219 1769.621094 L 2802.699219 1769.617188 L 2802.699219 1769.621094 Z M 2802.691406 1769.617188 "/>
<path fill-rule="nonzero" fill="rgb(0%, 0%, 0%)" fill-opacity="1" d="M 2660.03125 1340.191406 C 2781.5 1340.191406 2879.96875 1438.660156 2879.96875 1560.121094 C 2879.96875 1681.589844 2781.5 1780.058594 2660.03125 1780.058594 C 2556.078125 1780.058594 2468.980469 1707.941406 2446.019531 1611.015625 C 2460.25 1610.816406 2474.199219 1610.625 2487.878906 1610.429688 C 2509.628906 1684.96875 2578.46875 1739.429688 2660.03125 1739.429688 C 2759.058594 1739.429688 2839.339844 1659.152344 2839.339844 1560.121094 C 2839.339844 1461.101562 2759.058594 1380.820312 2660.03125 1380.820312 C 2561 1380.820312 2480.730469 1461.101562 2480.730469 1560.121094 C 2480.730469 1563.398438 2480.808594 1566.660156 2480.988281 1569.890625 C 2467.699219 1570.078125 2454.140625 1570.269531 2440.339844 1570.460938 C 2440.179688 1567.039062 2440.101562 1563.589844 2440.101562 1560.121094 C 2440.101562 1438.660156 2538.558594 1340.191406 2660.03125 1340.191406 Z M 2104.820312 843.78125 C 2191.210938 843.78125 2276.640625 849.730469 2348.429688 864.019531 C 2513.890625 896.941406 2604.421875 973.691406 2690.96875 1048.320312 C 2800.351562 1075.769531 2917.390625 1105.058594 2973.980469 1154.160156 C 3011.359375 1186.578125 3022.308594 1226.5 3026.53125 1261.339844 C 3027.949219 1273.078125 3028.640625 1284.5 3029.269531 1294.738281 C 3029.839844 1304.25 3030.359375 1312.550781 3031.269531 1320.101562 C 3033.691406 1340.050781 3039.050781 1355.648438 3044.898438 1372.519531 C 3050.539062 1388.75 3056.820312 1406.648438 3059.109375 1428.5 C 3063.589844 1471.230469 3052.53125 1527.101562 3045.820312 1555.238281 C 3045.070312 1558.371094 3043.851562 1563.710938 3041.230469 1568.898438 C 3038.980469 1573.378906 3035.800781 1577.609375 3031.308594 1581.308594 C 3015.140625 1594.605469 2977.019531 1600.039062 2875.699219 1603.421875 C 2878.359375 1590.140625 2879.808594 1576.421875 2879.949219 1562.378906 C 2973.128906 1559.238281 2997.890625 1555.589844 3005.109375 1550.230469 C 3005.308594 1549.710938 3005.640625 1548.570312 3006.300781 1545.820312 C 3012.980469 1517.789062 3022.390625 1467.910156 3018.710938 1432.730469 C 3016.96875 1416.160156 3012.269531 1402.398438 3006.519531 1385.839844 C 3000.679688 1369.019531 2993.929688 1349.71875 2990.941406 1324.988281 C 2989.851562 1316 2989.269531 1306.429688 2988.710938 1297.199219 C 2988.078125 1286.808594 2987.449219 1276.570312 2986.199219 1266.230469 C 2982.570312 1236.261719 2973.96875 1207.929688 2947.359375 1184.839844 C 2899.199219 1143.058594 2792.238281 1115.628906 2676.410156 1086.558594 C 2673.328125 1085.789062 2670.480469 1084.308594 2668.089844 1082.238281 L 2667.910156 1082.089844 C 2581 1007.121094 2497.109375 935.019531 2340.5 903.871094 C 2272.230469 890.28125 2189.660156 884.410156 2104.820312 884.410156 C 2104.808594 884.410156 2104.808594 884.410156 2104.808594 884.410156 C 1993.148438 884.410156 1878.761719 894.578125 1789.75 910.078125 C 1634.210938 937.179688 1556.339844 980.5 1488.5 1023.660156 C 1419.691406 1067.421875 1361.539062 1110.878906 1302.769531 1154.808594 C 1300.230469 1156.710938 1297.28125 1157.988281 1294.160156 1158.539062 L 1293.25 1158.699219 C 1167.070312 1181.160156 1043.210938 1203.289062 958.035156 1231.21875 C 873.265625 1259.019531 830.8125 1291.328125 808.109375 1333.890625 C 784.554688 1378.039062 780.1875 1436.949219 787.003906 1484.339844 C 792.984375 1525.929688 807.394531 1557.378906 823.789062 1589.78125 C 873.074219 1589.21875 922.355469 1588.660156 971.511719 1588.101562 L 971.527344 1588.101562 L 971.511719 1588.101562 L 971.527344 1588.109375 C 971.527344 1588.109375 971.527344 1588.109375 971.527344 1588.101562 C 985.1875 1587.941406 998.835938 1587.789062 1012.480469 1587.640625 L 1012.488281 1587.640625 L 1012.480469 1587.640625 L 1012.488281 1587.640625 C 1014.660156 1601.75 1018.480469 1615.316406 1023.738281 1628.140625 L 1023.730469 1628.140625 C 1009.378906 1628.300781 995.015625 1628.464844 980.640625 1628.628906 C 980.640625 1628.628906 980.640625 1628.628906 980.644531 1628.628906 L 980.628906 1628.632812 C 924.410156 1629.269531 868.027344 1629.910156 811.644531 1630.550781 C 811.566406 1630.550781 811.488281 1630.550781 811.410156 1630.550781 C 803.792969 1630.550781 796.804688 1626.285156 793.328125 1619.488281 C 774.695312 1583.070312 754.523438 1543.898438 746.789062 1490.121094 C 739.203125 1437.378906 743.34375 1368.96875 772.261719 1314.769531 C 802.027344 1258.96875 856.007812 1221.921875 945.375 1192.609375 C 1033 1163.878906 1158.480469 1141.429688 1282.289062 1119.390625 L 1282.300781 1119.390625 C 1339.71875 1076.46875 1397.949219 1033.089844 1466.691406 989.371094 C 1537.929688 944.070312 1620.789062 898.269531 1782.78125 870.058594 C 1874.25 854.121094 1990.980469 843.78125 2104.820312 843.78125 Z M 1189.691406 1340.191406 C 1311.160156 1340.191406 1409.628906 1438.660156 1409.628906 1560.121094 C 1409.628906 1567.890625 1409.230469 1575.550781 1408.441406 1583.109375 L 1408.429688 1583.109375 C 1394.820312 1583.261719 1381.171875 1583.421875 1367.480469 1583.578125 C 1368.480469 1575.898438 1369 1568.070312 1369 1560.121094 C 1369 1461.101562 1288.71875 1380.820312 1189.691406 1380.820312 C 1090.671875 1380.820312 1010.390625 1461.101562 1010.390625 1560.121094 C 1010.390625 1569.480469 1011.109375 1578.671875 1012.488281 1587.640625 L 1012.480469 1587.640625 C 998.835938 1587.789062 985.1875 1587.941406 971.527344 1588.101562 C 970.363281 1578.941406 969.761719 1569.601562 969.761719 1560.121094 C 969.761719 1438.660156 1068.230469 1340.191406 1189.691406 1340.191406 Z M 1400.261719 1623.832031 L 1400.261719 1623.835938 C 1372.941406 1714.234375 1289.011719 1780.058594 1189.691406 1780.058594 C 1092.148438 1780.058594 1009.441406 1716.550781 980.640625 1628.628906 C 995.015625 1628.464844 1009.378906 1628.300781 1023.730469 1628.140625 L 1023.738281 1628.140625 C 1050.539062 1693.441406 1114.75 1739.429688 1189.691406 1739.429688 C 1266.101562 1739.429688 1331.339844 1691.644531 1357.160156 1624.328125 C 1371.570312 1624.164062 1385.929688 1623.996094 1400.25 1623.832031 Z M 2480.988281 1569.890625 C 2481.738281 1583.890625 2484.101562 1597.464844 2487.878906 1610.429688 C 2474.199219 1610.625 2460.25 1610.816406 2446.019531 1611.015625 C 2174.800781 1614.753906 1803.601562 1619.183594 1400.261719 1623.832031 L 1400.25 1623.832031 C 1385.929688 1623.996094 1371.570312 1624.164062 1357.160156 1624.328125 C 1362.128906 1611.398438 1365.628906 1597.75 1367.480469 1583.578125 C 1381.171875 1583.421875 1394.820312 1583.261719 1408.429688 1583.109375 L 1408.441406 1583.109375 C 1805.910156 1578.519531 2171.589844 1574.160156 2440.339844 1570.460938 C 2454.140625 1570.269531 2467.699219 1570.078125 2480.980469 1569.890625 Z M 2480.988281 1569.890625 "/>
<path fill-rule="nonzero" fill="rgb(0%, 0%, 0%)" fill-opacity="1" d="M 2022.230469 951.371094 L 2021.390625 1122.089844 L 2021.308594 1137.859375 C 2021.25 1149.039062 2012.171875 1158.070312 2001 1158.070312 C 2000.96875 1158.070312 2000.929688 1158.070312 2000.890625 1158.070312 C 1989.679688 1158.019531 1980.628906 1148.871094 1980.679688 1137.660156 L 1980.75 1123.109375 L 1981.589844 952.671875 C 1995.121094 952.019531 2008.679688 951.589844 2022.230469 951.371094 Z M 2043.128906 910.570312 C 2125.359375 910.570312 2206.019531 918.300781 2272.601562 934.078125 C 2420.410156 969.109375 2496.550781 1043.371094 2569.640625 1114.460938 C 2575.5 1120.160156 2577.378906 1128.820312 2574.390625 1136.429688 C 2571.410156 1144.039062 2564.160156 1149.121094 2555.988281 1149.328125 L 1432.511719 1177.488281 C 1432.339844 1177.5 1432.171875 1177.5 1432 1177.5 C 1423.589844 1177.5 1416.03125 1172.308594 1413.019531 1164.429688 C 1409.949219 1156.378906 1412.289062 1147.269531 1418.859375 1141.699219 C 1509.308594 1064.898438 1602.71875 985.378906 1758.410156 944.03125 C 1842.691406 921.648438 1944.671875 910.570312 2043.128906 910.570312 Z M 2043.128906 951.191406 C 2036.171875 951.191406 2029.199219 951.25 2022.230469 951.371094 C 2008.679688 951.589844 1995.121094 952.019531 1981.589844 952.671875 C 1906.140625 956.300781 1831.851562 966.558594 1768.839844 983.300781 C 1646.671875 1015.75 1565.578125 1072.78125 1489.480469 1135.421875 L 1980.75 1123.109375 L 1980.679688 1137.660156 C 1980.628906 1148.871094 1989.679688 1158.019531 2000.890625 1158.070312 C 2000.929688 1158.070312 2000.96875 1158.070312 2001 1158.070312 C 2012.171875 1158.070312 2021.25 1149.039062 2021.308594 1137.859375 L 2021.390625 1122.089844 L 2506.269531 1109.929688 C 2444.820312 1052.410156 2377.578125 1000.710938 2263.230469 973.609375 C 2200.511719 958.75 2123.140625 951.191406 2043.128906 951.191406 Z M 2043.128906 951.191406 "/>
</svg>
