<?xml version="1.0" encoding="utf-8"?>
<!-- Generator: Adobe Illustrator 27.9.0, SVG Export Plug-In . SVG Version: 6.00 Build 0)  -->
<svg version="1.1" id="Layer_1" xmlns="http://www.w3.org/2000/svg" xmlns:xlink="http://www.w3.org/1999/xlink" x="0px" y="0px"
	 viewBox="0 0 322.5 167.6" style="enable-background:new 0 0 322.5 167.6;" xml:space="preserve">
<style type="text/css">
	.st0{fill:#D15423;}
	.st1{fill:#474757;}
	.st2{opacity:0.13;}
	.st3{fill:#32323F;}
	.st4{fill:#FFFFFF;}
	.st5{fill:#DDDDDD;}
	.st6{fill:#BAC0D8;}
	.st7{fill:#ACAFBC;}
	.st8{clip-path:url(#SVGID_00000021832605373375376050000017618203726331175102_);}
	.st9{fill:#AAFFF9;}
	.st10{clip-path:url(#SVGID_00000127758147665663206900000016830873870545062845_);}
	.st11{fill:#ABFEF9;}
	.st12{fill:#713729;}
</style>
<g id="Layer_2_00000104677501208473528040000017177914661483840695_">
	<g id="SkullCar_Free">
		<g id="Basic_DarkRed">
			<g id="premium-water">
				<path class="st0" d="M232.2,72.6h34.9c27.3,0.1,49.3,15.7,49.2,45.4v19.4c3.5,0,6.3,3.1,6.3,6.9s-2.8,6.9-6.3,6.9l-225-0.8
					L19,137.7c-3.4-0.2-6.1-3.1-6-6.5c0-3.7,2.7-6.6,6-6.6V81.8c0-8.6,6.5-15.5,14.3-15.5h2.2c32.9,0.2,56.1-8.1,84.9-23.8l6.2-3.4
					c3.5-1.8,7.4-3,11.3-3.5c6.4-0.6,50.7,1.6,50.7,1.6s14-2,21.5,11.1s22.7,25,22.7,25"/>
				<g>
					<g>
						<g>
							<defs>
								<path id="SVGID_1_" d="M232.2,72.6h34.9c27.3,0.1,49.3,15.7,49.2,45.4v19.4c3.5,0,6.3,3.1,6.3,6.9s-2.8,6.9-6.3,6.9
									l-225-0.8L19,137.7c-3.4-0.2-6.1-3.1-6-6.5c0-3.7,2.7-6.6,6-6.6V81.8c0-8.6,6.5-15.5,14.3-15.5h2.2
									c32.9,0.2,56.1-8.1,84.9-23.8l6.2-3.4c3.5-1.8,7.4-3,11.3-3.5c6.4-0.6,50.7,1.6,50.7,1.6s14-2,21.5,11.1s22.7,25,22.7,25"/>
							</defs>
							<clipPath id="SVGID_00000091017209333970450060000011503029362809808824_">
								<use xlink:href="#SVGID_1_"  style="overflow:visible;"/>
							</clipPath>
						</g>
					</g>
				</g>
				<path class="st1" d="M316.2,137.5c3.5,0,6.3,3.1,6.3,6.9s-2.8,6.9-6.3,6.9l-225-0.8L19,137.7c-3.4-0.2-6.1-3.1-6-6.5
					c0-3.7,2.7-6.6,6-6.6l-0.2-31.1l13.3,13.9l-0.7,17.3v4.1l58,9.9L316.2,137.5z"/>
				<g class="st2">
					<path d="M316.3,121.6c0,0-18.2-45.3-84.8-25.5L18.9,81.8c0-8.6,6.5-15.5,14.3-15.5l43.2,0.2C85.3,66.6,218.2,85,218.2,85
						l14-12.4h34.9C267.1,72.6,316.3,71,316.3,121.6z"/>
				</g>
				
					<ellipse transform="matrix(0.9954 -9.578848e-02 9.578848e-02 0.9954 -11.5847 26.4594)" class="st3" cx="269.8" cy="133.9" rx="33.7" ry="33.5"/>
				
					<ellipse transform="matrix(0.9954 -9.589947e-02 9.589947e-02 0.9954 -11.5968 26.491)" class="st1" cx="269.8" cy="133.9" rx="32.8" ry="32.6"/>
				
					<ellipse transform="matrix(0.9954 -9.578854e-02 9.578854e-02 0.9954 -11.5847 26.4594)" cx="269.8" cy="133.9" rx="24.7" ry="24.5"/>
				
					<ellipse transform="matrix(0.9954 -9.584397e-02 9.584397e-02 0.9954 -11.5908 26.4752)" class="st4" cx="269.8" cy="133.9" rx="23.5" ry="23.3"/>
				
					<ellipse transform="matrix(0.9954 -9.589937e-02 9.589937e-02 0.9954 -11.5968 26.491)" class="st5" cx="269.8" cy="133.9" rx="22.3" ry="22.1"/>
				
					<ellipse transform="matrix(0.7638 -0.6455 0.6455 0.7638 -22.5869 205.7514)" class="st6" cx="269.8" cy="133.7" rx="13.8" ry="13.8"/>
				
					<ellipse transform="matrix(0.995 -9.952153e-02 9.952153e-02 0.995 -11.9853 27.5147)" class="st7" cx="269.8" cy="133.9" rx="12.7" ry="12.7"/>
				<g>
					<g>
						<g>
							<g>
								<g>
									<g>
										<defs>
											<path id="SVGID_00000152944333903778123560000017757746042906486950_" d="M204.9,83.6c-18.2-36.7-27.7-35.4-27.7-35.4
												s-24.1-0.8-31.7-0.1c-7.6,0.7-10.2,5.5-10.2,5.5l-7.6,11.7c0,0-5.1,6.9,7.5,8.3C145.4,74.8,204.9,83.6,204.9,83.6z"/>
										</defs>
										<clipPath id="SVGID_00000029744183756862928660000016006478604799742095_">
											<use xlink:href="#SVGID_00000152944333903778123560000017757746042906486950_"  style="overflow:visible;"/>
										</clipPath>
										<g style="clip-path:url(#SVGID_00000029744183756862928660000016006478604799742095_);">
											<path class="st9" d="M203.8,46.9h-81.2v36.7h82.3V46.9H203.8z"/>
										</g>
									</g>
								</g>
							</g>
						</g>
					</g>
				</g>
				<g>
					<g>
						<g>
							<g>
								<g>
									<g>
										<defs>
											<path id="SVGID_00000086693523671574113970000002189548515165174687_" d="M210.1,48.3l22.7,24.3l-12.7,11.7l-20.8-29.1
												c0,0-3.8-4.2,0-6.2L210.1,48.3z"/>
										</defs>
										<clipPath id="SVGID_00000150099471043713869680000003040448938501773979_">
											<use xlink:href="#SVGID_00000086693523671574113970000002189548515165174687_"  style="overflow:visible;"/>
										</clipPath>
										<g style="clip-path:url(#SVGID_00000150099471043713869680000003040448938501773979_);">
											<path class="st11" d="M232,48.3h-36.5v36h37.3v-36H232z"/>
										</g>
									</g>
								</g>
							</g>
						</g>
					</g>
				</g>
			</g>
			
				<ellipse transform="matrix(0.9954 -9.585784e-02 9.585784e-02 0.9954 -12.491 8.1711)" class="st3" cx="78.8" cy="134.1" rx="33.7" ry="33.5"/>
			
				<ellipse transform="matrix(0.9954 -9.583011e-02 9.583011e-02 0.9954 -12.4874 8.1686)" class="st1" cx="78.8" cy="134.1" rx="32.8" ry="32.6"/>
			
				<ellipse transform="matrix(0.9954 -9.585781e-02 9.585781e-02 0.9954 -12.491 8.1711)" cx="78.8" cy="134.1" rx="24.7" ry="24.5"/>
			
				<ellipse transform="matrix(0.9954 -9.584397e-02 9.584397e-02 0.9954 -12.4892 8.1698)" class="st4" cx="78.8" cy="134.1" rx="23.5" ry="23.3"/>
			
				<ellipse transform="matrix(0.9954 -9.583012e-02 9.583012e-02 0.9954 -12.4874 8.1686)" class="st5" cx="78.8" cy="134.1" rx="22.3" ry="22.1"/>
			<ellipse class="st6" cx="79.6" cy="134.2" rx="13.9" ry="13.9"/>
			<ellipse class="st7" cx="79.6" cy="134.2" rx="12.6" ry="12.6"/>
		</g>
	</g>
</g>
<path class="st12" d="M105.3,37.6c-1.7,3.7-2.5,8.2-0.6,11.8c1.8,3.6,7,5.6,10.2,3.2c1-0.8,1.7-1.8,2.7-2.6c2.2-1.7,5.4-1.5,8.2-2.1
	c2.8-0.5,5.9-2.8,5.1-5.6c2.3-2,5.2,1.7,8.2,2.1c4.2,0.6,7-5.4,11.3-5.3c3.2,0.1,5.2,3.7,8.2,4.7c5.2,1.8,10.7-4.3,16-2.8
	c2.4,0.7,4.5,3,7,2.7c2.1-0.2,4.2-2.3,6.1-1.4c0.9,0.4,1.4,1.5,2.2,2.1c2.9,2.1,6.5-1.9,10.1-1.9c3.8-0.1,6.2,4.1,9.7,5.6
	c5,2.2,11.2-2.4,11.8-7.9s-3-10.7-7.7-13.6c-4.7-2.8-10.3-3.7-15.8-4.4c-19.2-2.3-39.1-3.2-58.3-1.6
	C126.5,21.6,111.5,24.1,105.3,37.6z"/>
<path class="st12" d="M160.5,14.3c-1.2-2.2-3.1-3.9-5.4-4.8c-1.9-0.8-2.1-3.4-0.3-4.4c1.4-0.8,3-1.3,4.6-1.8c1.5-0.4,3.2-0.8,4.5,0
	c0.9,0.6,1.4,1.6,1.9,2.7c1.5,3.7,3.7,11.5,0.3,14.9C161,25.7,162.1,17.3,160.5,14.3z"/>
</svg>
