<?xml version="1.0" encoding="utf-8"?>
<!-- Generator: Adobe Illustrator 27.9.0, SVG Export Plug-In . SVG Version: 6.00 Build 0)  -->
<svg version="1.1" id="Layer_1" xmlns="http://www.w3.org/2000/svg" xmlns:xlink="http://www.w3.org/1999/xlink" x="0px" y="0px"
	 viewBox="0 0 322.5 136" style="enable-background:new 0 0 322.5 136;" xml:space="preserve">
<style type="text/css">
	.st0{fill:#DB9E46;}
	.st1{clip-path:url(#SVGID_00000152944070093689710220000013060447737656245947_);fill:#F29D02;}
	.st2{clip-path:url(#SVGID_00000152944070093689710220000013060447737656245947_);fill:#FB5B0D;}
	.st3{clip-path:url(#SVGID_00000152944070093689710220000013060447737656245947_);fill:#95191B;}
	.st4{clip-path:url(#SVGID_00000152944070093689710220000013060447737656245947_);fill:#96181B;}
	.st5{clip-path:url(#SVGID_00000152944070093689710220000013060447737656245947_);fill:#FFC700;}
	.st6{fill:#474757;}
	.st7{opacity:0.13;}
	.st8{fill:#32323F;}
	.st9{fill:#FFFFFF;}
	.st10{fill:#DDDDDD;}
	.st11{fill:#BAC0D8;}
	.st12{fill:#ACAFBC;}
	.st13{clip-path:url(#SVGID_00000044150188063678112890000012599936708638682005_);}
	.st14{fill:#AAFFF9;}
	.st15{clip-path:url(#SVGID_00000148642688122136935440000002472308995721544891_);}
	.st16{fill:#ABFEF9;}
</style>
<g id="Layer_2_00000104677501208473528040000017177914661483840695_">
	<g id="SkullCar_Free">
		<g id="Basic_DarkRed">
			<g id="premium-water">
				<path class="st0" d="M232.2,41h34.9c27.3,0.1,49.3,15.7,49.2,45.4v19.4c3.5,0,6.3,3.1,6.3,6.9s-2.8,6.9-6.3,6.9l-225-0.8
					L19,106.1c-3.4-0.2-6.1-3.1-6-6.5c0-3.7,2.7-6.6,6-6.6V50.2c0-8.6,6.5-15.5,14.3-15.5h2.2c32.9,0.2,56.1-8.1,84.9-23.8l6.2-3.4
					c3.5-1.8,7.4-3,11.3-3.5c6.4-0.6,50.7,1.6,50.7,1.6s14-2,21.5,11.1s22.7,25,22.7,25"/>
				<g>
					<g>
						<g>
							<defs>
								<path id="SVGID_1_" d="M232.2,41h34.9c27.3,0.1,49.3,15.7,49.2,45.4v19.4c3.5,0,6.3,3.1,6.3,6.9s-2.8,6.9-6.3,6.9l-225-0.8
									L19,106.1c-3.4-0.2-6.1-3.1-6-6.5c0-3.7,2.7-6.6,6-6.6V50.2c0-8.6,6.5-15.5,14.3-15.5h2.2c32.9,0.2,56.1-8.1,84.9-23.8
									l6.2-3.4c3.5-1.8,7.4-3,11.3-3.5c6.4-0.6,50.7,1.6,50.7,1.6s14-2,21.5,11.1s22.7,25,22.7,25"/>
							</defs>
							<clipPath id="SVGID_00000135672635870414551940000001077541685111200683_">
								<use xlink:href="#SVGID_1_"  style="overflow:visible;"/>
							</clipPath>
							<path style="clip-path:url(#SVGID_00000135672635870414551940000001077541685111200683_);fill:#F29D02;" d="M125.6,61.5
								c0.9-0.2,1.7-0.7,2.5-1.2c2.9-1.5,6.6-1.5,9.6-0.1s5.4,4,6.7,7.1c-2.2,1.1-4.5,2.3-7,2.4c-1.8,0-3.5-0.5-5.1-1.1
								c-1.4-0.5-2.9-1.1-4.1-2s-2.3-2.1-2.8-3.5c-0.1-0.2-0.1-0.4-0.3-0.5c-0.2-0.2-0.5-0.1-0.7-0.1c-1.4,0.2-2.7,0.5-4.1,0.6
								C119.6,60,124,61.8,125.6,61.5z"/>
							<path style="clip-path:url(#SVGID_00000135672635870414551940000001077541685111200683_);fill:#F29D02;" d="M236.9,52.5
								c0.9,0.1,1.8-0.1,2.7-0.3c3.3-0.5,6.7,0.8,9.1,3.1c2.4,2.3,3.8,5.6,4,8.9c-2.5,0.4-5,0.7-7.4-0.1c-1.7-0.6-3.1-1.6-4.5-2.8
								c-1.2-1-2.3-2-3.2-3.2s-1.5-2.7-1.4-4.3c0-0.2,0-0.4-0.1-0.6c-0.1-0.2-0.4-0.3-0.7-0.3c-1.3-0.3-2.8-0.4-4.1-0.8
								C231.8,49.2,235.4,52.3,236.9,52.5z"/>
							<path style="clip-path:url(#SVGID_00000135672635870414551940000001077541685111200683_);fill:#F29D02;" d="M189.6,69.8
								c0.9-0.2,1.7-0.7,2.5-1.2c2.9-1.5,6.6-1.5,9.6-0.1c3,1.4,5.4,4,6.7,7.1c-2.2,1.1-4.5,2.3-7,2.4c-1.8,0-3.5-0.5-5.1-1.1
								c-1.4-0.5-2.9-1.1-4.1-2s-2.3-2.1-2.8-3.5c-0.1-0.2-0.1-0.4-0.3-0.5c-0.2-0.2-0.5-0.1-0.7-0.1c-1.4,0.2-2.7,0.5-4.1,0.6
								C183.7,68.4,188.1,70.2,189.6,69.8z"/>
							<path style="clip-path:url(#SVGID_00000135672635870414551940000001077541685111200683_);fill:#FB5B0D;" d="M36.5,75.9
								c-0.9,0.9-2.2,1.7-3.5,1.8c-0.5,0-1.1,0-1.6-0.3s-0.8-0.8-0.8-1.3c0-0.6,0.4-1.2,0.3-1.8c-0.1-0.5-0.7-0.8-1.2-0.8
								c-0.5,0-1,0.1-1.5,0.2c-1,0.2-2.1,0.2-2.9-0.4c-0.8-0.6-1.2-1.8-0.7-2.7c0.2-0.3,0.5-0.5,0.6-0.9c0.3-0.6-0.2-1.4-0.8-1.7
								s-1.4-0.2-2,0s-1.4,0.3-2.1,0.1c-0.7-0.2-1.3-0.8-1.2-1.5c0.1-1,1.5-1.5,1.5-2.4c0-0.9-1.2-1.7-1.8-2.3
								c-0.5-0.6-1-1.4-0.8-2.2c0.1-0.4,0.4-0.8,0.7-1.2c0.4-0.5,0.8-0.9,1.3-1.1c0.9-0.4,2.1-0.2,2.8,0.6c0.2,0.3,0.2,0.7,0.6,0.8
								c0.6,0.2,0.9-0.5,0.9-1c0-0.4-0.2-0.7-0.1-1.1c0.1-0.9,1.2-1.4,2.1-1.2c0.9,0.3,1.5,1,2,1.8c0.4,0.6,0.7,1.2,0.8,1.9
								c0.2,1.2-0.1,2.6,0.6,3.5c0.1,0.1,0.2,0.2,0.3,0.2c0.4,0.1,0.6-0.4,0.8-0.7c0.5-0.8,1.5-1.1,2.4-0.9c0.9,0.2,1.6,1,1.9,1.8
								c0.3,0.8,0.4,1.8,0.3,2.7c-0.1,0.7-0.2,1.5,0.1,2.2c0.1,0.3,0.3,0.5,0.6,0.5c0.1,0,0.3,0,0.4-0.1c1-0.5,1.6-1.8,2.7-1.6
								c0.5,0.1,0.9,0.5,1.1,1c0.7,1.4,0.1,3-0.8,4.2c-0.6,0.8-1.2,1.2-0.5,2c0.7,0.8,1.4,1.5,2.1,2.2c0.6,0.5,1.2,1.1,1.4,1.9
								c-0.2,0.1-0.4,0.4-0.7,0.4c-0.1,0-0.2-0.1-0.2-0.1c-1.1-0.9-2.1-1.7-3.1-2.7C37.5,74.6,37.4,75,36.5,75.9z"/>
							<path style="clip-path:url(#SVGID_00000135672635870414551940000001077541685111200683_);fill:#FB5B0D;" d="M219.3,66.9
								c-0.9,0.9-2.2,1.7-3.5,1.8c-0.5,0-1.1,0-1.6-0.3s-0.8-0.8-0.8-1.3c0-0.6,0.4-1.2,0.3-1.8c-0.1-0.5-0.7-0.8-1.2-0.8
								c-0.5,0-1,0.1-1.5,0.2c-1,0.2-2.1,0.2-2.9-0.4c-0.8-0.6-1.2-1.8-0.7-2.7c0.2-0.3,0.5-0.5,0.6-0.9c0.3-0.6-0.2-1.4-0.8-1.7
								c-0.6-0.3-1.4-0.2-2,0s-1.4,0.3-2.1,0.1c-0.7-0.2-1.3-0.8-1.2-1.5c0.1-1,1.5-1.5,1.5-2.4c0-0.9-1.2-1.7-1.8-2.3
								c-0.5-0.6-1-1.4-0.8-2.2c0.1-0.4,0.4-0.8,0.7-1.2c0.4-0.5,0.8-0.9,1.3-1.1c0.9-0.4,2.1-0.2,2.8,0.6c0.2,0.3,0.2,0.7,0.6,0.8
								c0.6,0.2,0.9-0.5,0.9-1c0-0.4-0.2-0.7-0.1-1.1c0.1-0.9,1.2-1.4,2.1-1.2c0.9,0.3,1.5,1,2,1.8c0.4,0.6,0.7,1.2,0.8,1.9
								c0.2,1.2-0.1,2.6,0.6,3.5c0.1,0.1,0.2,0.2,0.3,0.2c0.4,0.1,0.6-0.4,0.8-0.7c0.5-0.8,1.5-1.1,2.4-0.9c0.9,0.2,1.6,1,1.9,1.8
								c0.3,0.8,0.4,1.8,0.3,2.7c-0.1,0.7-0.2,1.5,0.1,2.2c0.1,0.3,0.3,0.5,0.6,0.5c0.1,0,0.3,0,0.4-0.1c1-0.5,1.6-1.8,2.7-1.6
								c0.5,0.1,0.9,0.5,1.1,1c0.7,1.4,0.1,3-0.8,4.2c-0.6,0.8-1.2,1.2-0.5,2c0.7,0.8,1.4,1.5,2.1,2.2c0.6,0.5,1.2,1.1,1.4,1.9
								c-0.2,0.1-0.4,0.4-0.7,0.4c-0.1,0-0.2-0.1-0.2-0.1c-1.1-0.9-2.1-1.7-3.1-2.7C220.3,65.6,220.2,66.1,219.3,66.9z"/>
							<path style="clip-path:url(#SVGID_00000135672635870414551940000001077541685111200683_);fill:#FB5B0D;" d="M137.1,99.4
								c-0.9,0.9-2.2,1.7-3.5,1.8c-0.5,0-1.1,0-1.6-0.3c-0.5-0.3-0.8-0.8-0.8-1.3c0-0.6,0.4-1.2,0.3-1.8c-0.1-0.5-0.7-0.8-1.2-0.8
								c-0.5,0-1,0.1-1.5,0.2c-1,0.2-2.1,0.2-2.9-0.4c-0.8-0.6-1.2-1.8-0.7-2.7c0.2-0.3,0.5-0.5,0.6-0.9c0.3-0.6-0.2-1.4-0.8-1.7
								c-0.6-0.3-1.4-0.2-2,0c-0.7,0.1-1.4,0.3-2.1,0.1c-0.7-0.2-1.3-0.8-1.2-1.5c0.1-1,1.5-1.5,1.5-2.4c0-0.9-1.2-1.7-1.8-2.3
								c-0.5-0.6-1-1.4-0.8-2.2c0.1-0.4,0.4-0.8,0.7-1.2c0.4-0.5,0.8-0.9,1.3-1.1c0.9-0.4,2.1-0.2,2.8,0.6c0.2,0.3,0.2,0.7,0.6,0.8
								c0.6,0.2,0.9-0.5,0.9-1c0-0.4-0.2-0.7-0.1-1.1c0.1-0.9,1.2-1.4,2.1-1.2c0.9,0.3,1.5,1,2,1.8c0.4,0.6,0.7,1.2,0.8,1.9
								c0.2,1.2-0.1,2.6,0.6,3.5c0.1,0.1,0.2,0.2,0.3,0.2c0.4,0.1,0.6-0.4,0.8-0.7c0.5-0.8,1.5-1.1,2.4-0.9c0.9,0.2,1.6,1,1.9,1.8
								c0.3,0.8,0.4,1.8,0.3,2.7c-0.1,0.7-0.2,1.5,0.1,2.2c0.1,0.3,0.3,0.5,0.6,0.5c0.1,0,0.3,0,0.4-0.1c1-0.5,1.6-1.8,2.7-1.6
								c0.5,0.1,0.9,0.5,1.1,1c0.7,1.4,0.1,3-0.8,4.2c-0.6,0.8-1.2,1.2-0.5,2c0.7,0.8,1.4,1.5,2.1,2.2c0.6,0.5,1.2,1.1,1.4,1.9
								c-0.2,0.1-0.4,0.4-0.7,0.4c-0.1,0-0.2-0.1-0.2-0.1c-1.1-0.9-2.1-1.7-3.1-2.7C138.1,98.1,138,98.6,137.1,99.4z"/>
							<path style="clip-path:url(#SVGID_00000135672635870414551940000001077541685111200683_);fill:#FB5B0D;" d="M297.2,96.7
								c-0.9,0.9-2.2,1.7-3.5,1.8c-0.5,0-1.1,0-1.6-0.3s-0.8-0.8-0.8-1.3c0-0.6,0.4-1.2,0.3-1.8c-0.1-0.5-0.7-0.8-1.2-0.8
								c-0.5,0-1,0.1-1.5,0.2c-1,0.2-2.1,0.2-2.9-0.4s-1.2-1.8-0.7-2.7c0.2-0.3,0.5-0.5,0.6-0.9c0.3-0.6-0.2-1.4-0.8-1.7
								c-0.6-0.3-1.4-0.2-2,0c-0.7,0.1-1.4,0.3-2.1,0.1c-0.7-0.2-1.3-0.8-1.2-1.5c0.1-1,1.5-1.5,1.5-2.4c0-0.9-1.2-1.7-1.8-2.3
								c-0.5-0.6-1-1.4-0.8-2.2c0.1-0.4,0.4-0.8,0.7-1.2c0.4-0.5,0.8-0.9,1.3-1.1c0.9-0.4,2.1-0.2,2.8,0.6c0.2,0.3,0.2,0.7,0.6,0.8
								c0.6,0.2,0.9-0.5,0.9-1c0-0.4-0.2-0.7-0.1-1.1c0.1-0.9,1.2-1.4,2.1-1.2s1.5,1,2,1.8c0.4,0.6,0.7,1.2,0.8,1.9
								c0.2,1.2-0.1,2.6,0.6,3.5c0.1,0.1,0.2,0.2,0.3,0.2c0.4,0.1,0.6-0.4,0.8-0.7c0.5-0.8,1.5-1.1,2.4-0.9c0.9,0.2,1.6,1,1.9,1.8
								s0.4,1.8,0.3,2.7c-0.1,0.7-0.2,1.5,0.1,2.2c0.1,0.3,0.3,0.5,0.6,0.5c0.1,0,0.3,0,0.4-0.1c1-0.5,1.6-1.8,2.7-1.6
								c0.5,0.1,0.9,0.5,1.1,1c0.7,1.4,0.1,3-0.8,4.2c-0.6,0.8-1.2,1.2-0.5,2c0.7,0.8,1.4,1.5,2.1,2.2c0.6,0.5,1.2,1.1,1.4,1.9
								c-0.2,0.1-0.4,0.4-0.7,0.4c-0.1,0-0.2-0.1-0.2-0.1c-1.1-0.9-2.1-1.7-3.1-2.7C298.2,95.4,298.1,95.8,297.2,96.7z"/>
							<path style="clip-path:url(#SVGID_00000135672635870414551940000001077541685111200683_);fill:#95191B;" d="M102.7,54
								c1.5,1.9,2.4,4.3,2.5,6.7c4.1-2.4,8.2-4.8,12.4-7.1c-0.7,2-1.4,3.9-2.2,5.9c-0.5,1.2-1.1,2.5-1.9,3.5c-1.1,1.4-2.5,2.4-4,3.4
								c1.4,0.6,2.8,1.3,3.8,2.4c0.8,0.9,1.3,2,2.1,2.8c0.5,0.5,1.2,0.8,1.8,1.1c1.1,0.6,2.3,1.1,3.4,1.6c-1.1,1.1-2.6,1.4-4.1,1.6
								c-3.6,0.3-7.3-0.7-10.4-2.7c0.6,3.3,1,6.7,1.1,10.1c-3.7-0.9-6.8-3.9-7.6-7.6c-3,1.8-6.1,3.5-9.2,5.1
								c0.5-1.1,1.1-2.3,1.4-3.5c0.5-1.6,0.6-3.4,1.4-4.9c1.1-2,3.5-3.3,4.1-5.6c-2.9-1-5.9-1.9-8.9-2.7c0.2-0.5,0.5-1,0.8-1.4
								c0,0,7.5,3,8.3,3.1c0.3-0.9,0.7-1.5,1.2-2.3c0.5-1,0.5-2.2,0.8-3.2C100.4,58,101.4,55.9,102.7,54z"/>
							<path style="clip-path:url(#SVGID_00000135672635870414551940000001077541685111200683_);fill:#95191B;" d="M188,63.6
								c-2.4,0-4.8-0.9-6.8-2.3c-0.7,4.7-1.5,9.4-2.4,14.1c-1.1-1.8-2.2-3.6-3.2-5.4c-0.6-1.2-1.2-2.4-1.5-3.7
								c-0.4-1.7-0.3-3.5-0.1-5.2c-1.4,0.7-2.8,1.3-4.3,1.4c-1.2,0-2.4-0.3-3.6-0.1c-0.7,0.1-1.4,0.4-2,0.7
								c-1.1,0.5-2.3,1.1-3.4,1.6c-0.2-1.5,0.5-2.9,1.4-4.2c2.1-3,5.2-5.2,8.7-6.3c-3-1.7-5.8-3.5-8.5-5.5c3-2.3,7.3-2.7,10.7-1.1
								c0.6-3.5,1.2-6.9,1.9-10.3c0.6,1.1,1.1,2.3,1.8,3.3c1,1.4,2.3,2.6,2.9,4.2c0.8,2.2,0.4,4.8,1.7,6.7c2.6-1.7,5.2-3.4,7.7-5.2
								c0.3,0.5,0.5,1,0.6,1.6c0,0-7.1,3.9-7.7,4.5c0.5,0.8,0.7,1.5,1.1,2.4c0.4,1,1.4,1.8,2,2.7C186.4,59.3,187.4,61.4,188,63.6z"
								/>
							<path style="clip-path:url(#SVGID_00000135672635870414551940000001077541685111200683_);fill:#95191B;" d="M297.4,60.3
								c-2.4,0-4.8-0.9-6.8-2.3c-0.7,4.7-1.5,9.4-2.4,14.1c-1.1-1.8-2.2-3.6-3.2-5.4c-0.6-1.2-1.2-2.4-1.5-3.7
								c-0.4-1.7-0.3-3.5-0.1-5.2c-1.4,0.7-2.8,1.3-4.3,1.4c-1.2,0-2.4-0.3-3.6-0.1c-0.7,0.1-1.4,0.4-2,0.7
								c-1.1,0.5-2.3,1.1-3.4,1.6c-0.2-1.5,0.5-2.9,1.4-4.2c2.1-3,5.2-5.2,8.7-6.3c-3-1.7-5.8-3.5-8.5-5.5c3-2.3,7.3-2.7,10.7-1.1
								c0.6-3.5,1.2-6.9,1.9-10.3c0.6,1.1,1.1,2.3,1.8,3.3c1,1.4,2.3,2.6,2.9,4.2c0.8,2.2,0.4,4.8,1.7,6.7c2.6-1.7,5.2-3.4,7.7-5.2
								c0.3,0.5,0.5,1,0.6,1.6c0,0-7.1,3.9-7.7,4.5c0.5,0.8,0.7,1.5,1.1,2.4c0.4,1,1.4,1.8,2,2.7C295.8,55.9,296.8,58.1,297.4,60.3z
								"/>
							<path style="clip-path:url(#SVGID_00000135672635870414551940000001077541685111200683_);fill:#96181B;" d="M56,91.8
								c0.1,0.4,0.2,0.9,0.2,1.3c-0.1,1.1-1,1.9-2,2.3c-1.2,0.5-2.6,0.6-3.9,0.7c-6.1,0.2-12.3-0.4-17.9-2.7
								c-0.9-0.4-1.8-0.9-2.1-1.8c2.2-2.8,4.9-5.1,7.7-7.4c1.8-1.4,3.7-2.8,5.8-3.8s4.5-1.5,6.8-1.2c1.3,0.2,2.7,0.8,3.4,2
								c0.4,0.6,0.5,1.4,0.5,2.1c0.1,0.9,0.2,1.7,0.3,2.6c2-0.5,4-1.3,5.9-2.2c0.3,0.7,0.4,1.4,0.4,2.2c0,0.5-4.6,1.1-5.2,1.5
								C54.3,88.5,55.6,90.5,56,91.8z"/>
							<path style="clip-path:url(#SVGID_00000135672635870414551940000001077541685111200683_);fill:#96181B;" d="M233,85.3
								c0.1,0.4,0.2,0.9,0.2,1.3c-0.1,1.1-1,1.9-2,2.3c-1.2,0.5-2.6,0.6-3.9,0.7c-6.1,0.2-12.3-0.4-17.9-2.7
								c-0.9-0.4-1.8-0.9-2.1-1.8c2.2-2.8,4.9-5.1,7.7-7.4c1.8-1.4,3.7-2.8,5.8-3.8c2.1-1,4.5-1.5,6.8-1.2c1.3,0.2,2.7,0.8,3.4,2
								c0.4,0.6,0.5,1.4,0.5,2.1c0.1,0.9,0.2,1.7,0.3,2.6c2-0.5,4-1.3,5.9-2.2c0.3,0.7,0.4,1.4,0.4,2.2c0,0.5-4.6,1.1-5.2,1.5
								C231.4,82,232.7,84,233,85.3z"/>
							<path style="clip-path:url(#SVGID_00000135672635870414551940000001077541685111200683_);fill:#96181B;" d="M143.3,77
								c-0.2-0.4-0.4-0.8-0.4-1.3c-0.1-1.1,0.6-2.1,1.5-2.7c1.1-0.8,2.4-1.1,3.7-1.4c5.9-1.4,12.1-2.1,18.1-0.9
								c0.9,0.2,2,0.5,2.4,1.3c-1.6,3.2-3.8,6-6.1,8.7c-1.5,1.8-3.1,3.5-4.9,4.9s-4.1,2.4-6.4,2.5c-1.4,0.1-2.8-0.2-3.7-1.3
								c-0.5-0.6-0.7-1.3-0.9-2c-0.3-0.8-0.6-1.7-0.8-2.5c-1.9,0.9-3.7,2-5.3,3.3c-0.4-0.6-0.7-1.3-0.8-2.1c-0.1-0.4,4.3-2,4.8-2.5
								C145.6,79.9,143.9,78.2,143.3,77z"/>
							<path style="clip-path:url(#SVGID_00000135672635870414551940000001077541685111200683_);fill:#FFC700;" d="M58.5,68.1
								c0.2,0,0.5,0,0.7,0.1c0.2,0.1,0.4,0.2,0.5,0.4c1.4,1.7,1.3,4.1,1.7,6.2c0.9,4.4,4.9,8,9.4,8.5c0.3-4-1.5-8-4.5-10.6
								c-0.6-0.5-1.3-1-2.1-1.2c-0.6-0.2-1.2-0.2-1.7-0.4c-1.3-0.5-2.1-1.9-2.4-3.2c3.1,1.2,6.5,1.1,9.6,0c0.4-0.2,0.9-0.4,1.3-0.4
								c0.3,0,0.7,0,1,0.1c0.9,0.2,1.8,0.4,2.7,0.5c1.1,0.2,2.3,0.5,3.5,0.4c3-0.3,5.4-2.7,6.5-5.4c-2.2-0.9-4.5-1.7-6.8-1.7
								c-2.4,0-4.8,1-6.1,3c-0.3,0.5-0.6,1.1-1,1.6c-0.9,1-2.3,1.3-3.6,1.4c-4.8,0.6-9.7,0.2-14.4-1.2c1-0.5,2.2-0.9,3.3-1.1
								c1.1-0.2,2.1-0.3,3.2-0.5c1.8-0.4,3.5-1.4,5-2.5c1.9-1.4,3.7-3.1,4-5.4c-2.6-0.1-5.3,0.1-7.7,1s-4.6,2.8-5.5,5.3
								c-0.2,0.4-0.3,0.9-0.5,1.3c-0.7,1.3-2.4,1.7-3.8,1.5c-1.4-0.3-2.6-1.1-3.8-1.9c-0.3-0.2-1.3-1-1.6-0.8
								c-0.3,0.3,0.2,0.8,0.4,1c0.9,0.9,2.6,1.6,3.8,2.1c1.3,0.6,2.6,1,4,1.4C55.3,67.9,56.9,68.1,58.5,68.1z"/>
							<path style="clip-path:url(#SVGID_00000135672635870414551940000001077541685111200683_);fill:#FFC700;" d="M175.1,90.5
								c0.2,0,0.5,0,0.7,0.1c0.2,0.1,0.4,0.2,0.5,0.4c1.4,1.7,1.3,4.1,1.7,6.2c0.9,4.4,4.9,8,9.4,8.5c0.3-4-1.5-8-4.5-10.6
								c-0.6-0.5-1.3-1-2.1-1.2c-0.6-0.2-1.2-0.2-1.7-0.4c-1.3-0.5-2.1-1.9-2.4-3.2c3.1,1.2,6.5,1.1,9.6,0c0.4-0.2,0.9-0.4,1.3-0.4
								c0.3,0,0.7,0,1,0.1c0.9,0.2,1.8,0.4,2.7,0.5c1.1,0.2,2.3,0.5,3.5,0.4c3-0.3,5.4-2.7,6.5-5.4c-2.2-0.9-4.5-1.7-6.8-1.7
								c-2.4,0-4.8,1-6.1,3c-0.3,0.5-0.6,1.1-1,1.6c-0.9,1-2.3,1.3-3.6,1.4c-4.8,0.6-9.7,0.2-14.4-1.2c1-0.5,2.2-0.9,3.3-1.1
								c1.1-0.2,2.1-0.3,3.2-0.5c1.8-0.4,3.5-1.4,5-2.5c1.9-1.4,3.7-3.1,4-5.4c-2.6-0.1-5.3,0.1-7.7,1c-2.4,1-4.6,2.8-5.5,5.3
								c-0.2,0.4-0.3,0.9-0.5,1.3c-0.7,1.3-2.4,1.7-3.8,1.5c-1.4-0.3-2.6-1.1-3.8-1.9c-0.3-0.2-1.3-1-1.6-0.8
								c-0.3,0.3,0.2,0.8,0.4,1c0.9,0.9,2.6,1.6,3.8,2.1c1.3,0.6,2.6,1,4,1.4C172,90.3,173.6,90.5,175.1,90.5z"/>
							<path style="clip-path:url(#SVGID_00000135672635870414551940000001077541685111200683_);fill:#FFC700;" d="M256.5,83.4
								c0.1-0.2,0.2-0.4,0.4-0.5c0.2-0.1,0.4-0.2,0.6-0.2c2.1-0.4,4.2,0.9,6.3,1.6c4.3,1.4,9.4-0.3,12.1-4
								c-3.3-2.2-7.7-2.7-11.4-1.3c-0.8,0.3-1.5,0.7-2.1,1.2c-0.4,0.4-0.7,0.9-1.2,1.3c-1.1,0.9-2.7,1-4,0.5
								c2.5-2.1,4.2-5.1,4.7-8.4c0.1-0.5,0.1-0.9,0.3-1.3c0.1-0.3,0.4-0.6,0.6-0.8c0.6-0.7,1.2-1.4,1.8-2.1c0.8-0.9,1.5-1.8,2-2.9
								c1.2-2.7,0.3-6-1.5-8.4c-1.9,1.4-3.7,3-4.8,5.1s-1.5,4.7-0.4,6.8c0.3,0.5,0.7,1,0.9,1.6c0.4,1.2,0,2.6-0.5,3.8
								c-1.9,4.5-4.6,8.5-8.1,11.9c0.1-1.2,0.3-2.3,0.6-3.4c0.3-1,0.8-2,1.1-3.1c0.5-1.8,0.5-3.7,0.3-5.6c-0.3-2.3-0.9-4.8-2.7-6.2
								c-1.4,2.2-2.5,4.6-2.9,7.2c-0.4,2.6,0.2,5.4,1.9,7.4c0.3,0.4,0.7,0.7,0.9,1.1c0.8,1.2,0.3,2.9-0.6,4
								c-0.9,1.1-2.2,1.7-3.5,2.4c-0.3,0.1-1.5,0.6-1.4,1c0.1,0.4,0.8,0.3,1.1,0.2c1.3-0.3,2.6-1.5,3.7-2.2c1.1-0.8,2.2-1.8,3.2-2.8
								C254.7,86,255.7,84.7,256.5,83.4z"/>
						</g>
					</g>
				</g>
				<path class="st6" d="M316.2,105.9c3.5,0,6.3,3.1,6.3,6.9s-2.8,6.9-6.3,6.9l-225-0.8L19,106.1c-3.4-0.2-6.1-3.1-6-6.5
					c0-3.7,2.7-6.6,6-6.6l-0.2-31.1l13.3,13.9l-0.7,17.3v4.1l58,9.9L316.2,105.9z"/>
				<g class="st7">
					<path d="M316.3,90c0,0-18.2-45.3-84.8-25.5L18.9,50.2c0-8.6,6.5-15.5,14.3-15.5l43.2,0.2c8.9,0.1,141.8,18.5,141.8,18.5
						l14-12.4h34.9C267.1,41,316.3,39.4,316.3,90z"/>
				</g>
				
					<ellipse transform="matrix(0.9954 -9.578848e-02 9.578848e-02 0.9954 -8.5541 26.3139)" class="st8" cx="269.8" cy="102.3" rx="33.7" ry="33.5"/>
				
					<ellipse transform="matrix(0.9954 -9.589947e-02 9.589947e-02 0.9954 -8.5627 26.3452)" class="st6" cx="269.8" cy="102.3" rx="32.8" ry="32.6"/>
				
					<ellipse transform="matrix(0.9954 -9.578854e-02 9.578854e-02 0.9954 -8.5541 26.3139)" cx="269.8" cy="102.3" rx="24.7" ry="24.5"/>
				
					<ellipse transform="matrix(0.9954 -9.584397e-02 9.584397e-02 0.9954 -8.5584 26.3295)" class="st9" cx="269.8" cy="102.3" rx="23.5" ry="23.3"/>
				
					<ellipse transform="matrix(0.9954 -9.589937e-02 9.589937e-02 0.9954 -8.5627 26.3451)" class="st10" cx="269.8" cy="102.3" rx="22.3" ry="22.1"/>
				
					<ellipse transform="matrix(0.7638 -0.6455 0.6455 0.7638 -2.1645 198.2772)" class="st11" cx="269.8" cy="102.1" rx="13.8" ry="13.8"/>
				
					<ellipse transform="matrix(0.995 -9.952153e-02 9.952153e-02 0.995 -8.8366 27.3576)" class="st12" cx="269.8" cy="102.2" rx="12.7" ry="12.7"/>
				<g>
					<g>
						<g>
							<g>
								<g>
									<g>
										<defs>
											<path id="SVGID_00000028316477202715941470000010524766165841423017_" d="M204.9,52c-18.2-36.7-27.7-35.4-27.7-35.4
												s-24.1-0.8-31.7-0.1c-7.6,0.7-10.2,5.5-10.2,5.5l-7.6,11.7c0,0-5.1,6.9,7.5,8.3C145.4,43.2,204.9,52,204.9,52z"/>
										</defs>
										<clipPath id="SVGID_00000088830212674337065350000004300734483228428430_">
											<use xlink:href="#SVGID_00000028316477202715941470000010524766165841423017_"  style="overflow:visible;"/>
										</clipPath>
										<g style="clip-path:url(#SVGID_00000088830212674337065350000004300734483228428430_);">
											<path class="st14" d="M203.8,15.3h-81.2V52h82.3V15.3H203.8z"/>
										</g>
									</g>
								</g>
							</g>
						</g>
					</g>
				</g>
				<g>
					<g>
						<g>
							<g>
								<g>
									<g>
										<defs>
											<path id="SVGID_00000028320922551359271520000013717785549692074934_" d="M210.1,16.7L232.8,41l-12.7,11.7l-20.8-29.1
												c0,0-3.8-4.2,0-6.2L210.1,16.7z"/>
										</defs>
										<clipPath id="SVGID_00000150069429787107393620000003186990279791956381_">
											<use xlink:href="#SVGID_00000028320922551359271520000013717785549692074934_"  style="overflow:visible;"/>
										</clipPath>
										<g style="clip-path:url(#SVGID_00000150069429787107393620000003186990279791956381_);">
											<path class="st16" d="M232,16.7h-36.5v36h37.3v-36L232,16.7z"/>
										</g>
									</g>
								</g>
							</g>
						</g>
					</g>
				</g>
			</g>
			
				<ellipse transform="matrix(0.9954 -9.585784e-02 9.585784e-02 0.9954 -9.4582 8.0254)" class="st8" cx="78.8" cy="102.5" rx="33.7" ry="33.5"/>
			
				<ellipse transform="matrix(0.9954 -9.583011e-02 9.583011e-02 0.9954 -9.4555 8.023)" class="st6" cx="78.8" cy="102.5" rx="32.8" ry="32.6"/>
			
				<ellipse transform="matrix(0.9954 -9.585781e-02 9.585781e-02 0.9954 -9.4582 8.0254)" cx="78.8" cy="102.5" rx="24.7" ry="24.5"/>
			
				<ellipse transform="matrix(0.9954 -9.584397e-02 9.584397e-02 0.9954 -9.4569 8.0242)" class="st9" cx="78.8" cy="102.5" rx="23.5" ry="23.3"/>
			
				<ellipse transform="matrix(0.9954 -9.583012e-02 9.583012e-02 0.9954 -9.4555 8.023)" class="st10" cx="78.8" cy="102.5" rx="22.3" ry="22.1"/>
			<ellipse class="st11" cx="79.6" cy="102.6" rx="13.9" ry="13.9"/>
			<ellipse class="st12" cx="79.6" cy="102.6" rx="12.6" ry="12.6"/>
		</g>
	</g>
</g>
</svg>
