<?xml version="1.0" encoding="utf-8"?>
<!-- Generator: Adobe Illustrator 27.7.0, SVG Export Plug-In . SVG Version: 6.00 Build 0)  -->
<svg version="1.1" id="Layer_1" xmlns="http://www.w3.org/2000/svg" xmlns:xlink="http://www.w3.org/1999/xlink" x="0px" y="0px"
	 viewBox="0 0 833.3 382.9" style="enable-background:new 0 0 833.3 382.9;" xml:space="preserve">
<style type="text/css">
	.st0{fill:#D84848;}
	.st1{clip-path:url(#SVGID_00000154420437137875812880000008657162842039066036_);}
	.st2{fill:#F29D02;}
	.st3{fill:#FB5B0D;}
	.st4{fill:#95191B;}
	.st5{fill:#96181B;}
	.st6{fill:#FFC700;}
	.st7{clip-path:url(#SVGID_00000070083232508848857240000017344780397585154176_);}
	.st8{opacity:0.14;}
	.st9{opacity:0.14;enable-background:new    ;}
	.st10{fill:#663023;}
	.st11{fill:#32323F;}
	.st12{fill:#474757;}
	.st13{fill:#FFFFFF;}
	.st14{fill:#DDDDDD;}
	.st15{fill:#BAC0D8;}
	.st16{fill:#ACAFBC;}
	.st17{fill:url(#SVGID_00000031922950980111464950000001089714660800473011_);}
	.st18{fill:url(#SVGID_00000119080871670039283240000018314525557845106340_);}
	.st19{fill:#3D3D3D;}
	.st20{fill:url(#SVGID_00000099622082960475477760000011545266213309253268_);stroke:#77176A;stroke-width:2;stroke-miterlimit:10;}
	.st21{fill:url(#SVGID_00000047024275386473173160000009291575059963674547_);stroke:#77176A;stroke-miterlimit:10;}
</style>
<g id="Layer_2_00000011724733005255785540000000886859147656485532_">
	<g id="Premium">
		<g id="premium-truck-green">
			<path class="st0" d="M772.7,138l-157.5-10c-0.8,0-1.5,0-2.3,0.1V128l-19-77c-54-10-91.1-13-137.8-13H391
				c-8.4,0-15.1,6.8-15.1,15.1l0,0V148h-333c-11.5,0-20.9,9.3-20.9,20.9l0,0v93.2c0,11.5,9.3,20.9,20.9,20.9l0,0h72.7
				c0.1-1.9,0.4-3.7,0.9-5.5l6.6-23.9c2.9-10.4,12.4-17.6,23.2-17.6h103.4c10.8,0,20.3,7.2,23.2,17.6l6.6,23.9
				c0.5,1.8,0.8,3.6,0.9,5.5h277.2c0.1-1.9,0.4-3.7,0.9-5.5l6.6-23.9c2.9-10.4,12.4-17.6,23.2-17.6h103.4c10.8,0,20.3,7.2,23.2,17.6
				l6.6,23.9c0.5,1.8,0.8,3.6,0.9,5.5h50.3c12.3,0,22.3-10,22.3-22.2l0,0V160.3C795,148,785,138,772.7,138
				C772.8,138,772.7,138,772.7,138z"/>
			<g>
				<g>
					<g>
						<defs>
							<path id="SVGID_1_" d="M772.7,138l-157.5-10c-0.8,0-1.5,0-2.3,0.1V128l-19-77c-54-10-91.1-13-137.8-13H391
								c-8.4,0-15.1,6.8-15.1,15.1l0,0V148h-333c-11.5,0-20.9,9.3-20.9,20.9l0,0v93.2c0,11.5,9.3,20.9,20.9,20.9l0,0h72.7
								c0.1-1.9,0.4-3.7,0.9-5.5l6.6-23.9c2.9-10.4,12.4-17.6,23.2-17.6h103.4c10.8,0,20.3,7.2,23.2,17.6l6.6,23.9
								c0.5,1.8,0.8,3.6,0.9,5.5h277.2c0.1-1.9,0.4-3.7,0.9-5.5l6.6-23.9c2.9-10.4,12.4-17.6,23.2-17.6h103.4
								c10.8,0,20.3,7.2,23.2,17.6l6.6,23.9c0.5,1.8,0.8,3.6,0.9,5.5h50.3c12.3,0,22.3-10,22.3-22.2l0,0V160.3
								C795,148,785,138,772.7,138C772.8,138,772.7,138,772.7,138z"/>
						</defs>
						<clipPath id="SVGID_00000140015677881406812380000006507810074120923285_">
							<use xlink:href="#SVGID_1_"  style="overflow:visible;"/>
						</clipPath>
						<g style="clip-path:url(#SVGID_00000140015677881406812380000006507810074120923285_);">
							<path class="st2" d="M311,161.1c2.4-0.5,4.4-2,6.6-3.1c7.9-4.1,17.7-4,25.8-0.3c8.1,3.7,14.5,10.7,18,18.9
								c-5.9,3.1-12.1,6.2-18.8,6.4c-4.7,0.1-9.3-1.4-13.8-3c-3.8-1.4-7.7-3-11-5.4s-6.2-5.6-7.4-9.5c-0.2-0.5-0.3-1-0.7-1.3
								c-0.5-0.4-1.3-0.4-2-0.3c-3.6,0.5-7.4,1.3-11,1.5C295.1,157.2,307,162,311,161.1z"/>
							<path class="st2" d="M610.1,137c2.4,0.3,4.8-0.4,7.3-0.7c8.8-1.2,18,2.1,24.5,8.3s10.1,14.9,10.7,23.8
								c-6.6,0.9-13.5,1.9-19.9-0.2c-4.5-1.5-8.3-4.4-12-7.4c-3.1-2.6-6.2-5.4-8.6-8.7c-2.4-3.3-4-7.3-3.8-11.4c0-0.5,0-1.1-0.2-1.5
								c-0.4-0.6-1.1-0.8-1.8-0.9c-3.6-0.7-7.4-1.2-10.9-2.3C596.3,128,605.9,136.5,610.1,137z"/>
							<path class="st2" d="M483,183.6c2.4-0.5,4.4-2,6.6-3.1c7.9-4.1,17.7-4,25.8-0.3c8.1,3.7,14.5,10.7,18,18.9
								c-5.9,3.1-12.1,6.2-18.8,6.4c-4.7,0.1-9.3-1.4-13.8-3c-3.8-1.4-7.7-3-11-5.4s-6.2-5.6-7.4-9.5c-0.2-0.5-0.3-1-0.7-1.3
								c-0.5-0.4-1.3-0.4-2-0.3c-3.6,0.5-7.4,1.3-11,1.5C467.1,179.7,479,184.5,483,183.6z"/>
							<path class="st3" d="M71.9,199.8c-2.5,2.5-5.8,4.4-9.3,4.7c-1.4,0.1-3,0-4.2-0.7c-1.3-0.7-2.2-2-2.2-3.5
								c0-1.7,1.2-3.3,0.7-4.8c-0.4-1.3-1.9-2.1-3.2-2.2c-1.4-0.1-2.7,0.3-4.1,0.6c-2.7,0.5-5.7,0.4-7.9-1.2c-2.2-1.6-3.3-5-1.7-7.2
								c0.5-0.8,1.4-1.4,1.7-2.3c0.7-1.7-0.6-3.7-2.3-4.4s-3.7-0.5-5.5-0.1c-1.8,0.3-3.7,0.7-5.5,0.3c-1.8-0.5-3.5-2.1-3.2-3.9
								c0.3-2.6,3.9-3.9,4-6.6c0.1-2.5-3.4-4.6-4.8-6.3c-1.5-1.6-2.6-3.7-2.2-5.9c0.2-1.2,1-2.2,1.7-3.2c1-1.2,2.2-2.4,3.6-3.1
								c2.4-1.1,5.7-0.4,7.5,1.6c0.7,0.8,0.7,1.9,1.7,2.2c1.7,0.5,2.5-1.2,2.4-2.6c-0.1-1-0.4-2-0.3-2.9c0.2-2.5,3.3-3.9,5.7-3.2
								s4.1,2.8,5.4,4.9c1,1.6,1.8,3.2,2.2,5c0.6,3.2-0.4,7,1.7,9.5c0.2,0.3,0.4,0.5,0.8,0.6c1,0.3,1.7-1,2.2-2c1.2-2.1,4-3,6.3-2.3
								c2.3,0.6,4.2,2.6,5.1,4.8s1,4.7,0.8,7.2c-0.2,2-0.6,4.1,0.2,5.8c0.3,0.7,0.9,1.3,1.7,1.4c0.4,0,0.8-0.1,1.1-0.3
								c2.6-1.2,4.3-4.8,7.2-4.4c1.4,0.2,2.5,1.3,3.1,2.6c1.8,3.8,0.3,8.1-2.1,11.2c-1.7,2.2-3.2,3.1-1.3,5.4c1.8,2.1,3.7,4,5.8,5.8
								c1.6,1.4,3.3,3,3.8,5.1c-0.7,0.3-1.2,1.1-1.9,1c-0.2,0-0.4-0.2-0.6-0.3c-2.9-2.3-5.7-4.7-8.4-7.2
								C74.6,196.3,74.3,197.4,71.9,199.8z"/>
							<path class="st3" d="M562.9,175.8c-2.5,2.5-5.8,4.4-9.3,4.7c-1.4,0.1-3,0-4.2-0.7c-1.3-0.7-2.2-2-2.2-3.5
								c0-1.7,1.2-3.3,0.7-4.8c-0.4-1.3-1.9-2.1-3.2-2.2c-1.4-0.1-2.7,0.3-4.1,0.6c-2.7,0.5-5.7,0.4-7.9-1.2c-2.2-1.6-3.3-5-1.7-7.2
								c0.5-0.8,1.4-1.4,1.7-2.3c0.7-1.7-0.6-3.7-2.3-4.4s-3.7-0.5-5.5-0.1c-1.8,0.3-3.7,0.7-5.5,0.3c-1.8-0.5-3.5-2.1-3.2-3.9
								c0.3-2.6,3.9-3.9,4-6.6c0.1-2.5-3.4-4.6-4.8-6.3c-1.5-1.6-2.6-3.7-2.2-5.9c0.2-1.2,1-2.2,1.7-3.2c1-1.2,2.2-2.4,3.6-3.1
								c2.4-1.1,5.7-0.4,7.5,1.6c0.7,0.8,0.7,1.9,1.7,2.2c1.7,0.5,2.5-1.2,2.4-2.6c-0.1-1-0.4-2-0.3-2.9c0.2-2.5,3.3-3.9,5.7-3.2
								s4.1,2.8,5.4,4.9c1,1.6,1.8,3.2,2.2,5c0.6,3.2-0.4,7,1.7,9.5c0.2,0.3,0.4,0.5,0.8,0.6c1,0.3,1.7-1,2.2-2c1.2-2.1,4-3,6.3-2.3
								c2.3,0.6,4.2,2.6,5.1,4.8c0.9,2.2,1,4.7,0.8,7.2c-0.2,2-0.6,4.1,0.2,5.8c0.3,0.7,0.9,1.3,1.7,1.4c0.4,0,0.8-0.1,1.1-0.3
								c2.6-1.2,4.3-4.8,7.2-4.4c1.4,0.2,2.5,1.3,3.1,2.6c1.8,3.8,0.3,8.1-2.1,11.2c-1.7,2.2-3.2,3.1-1.3,5.4c1.8,2.1,3.7,4,5.8,5.8
								c1.6,1.4,3.3,3,3.8,5.1c-0.7,0.3-1.2,1.1-1.9,1c-0.2,0-0.4-0.2-0.6-0.3c-2.9-2.3-5.7-4.7-8.4-7.2
								C565.5,172.3,565.3,173.4,562.9,175.8z"/>
							<path class="st3" d="M341.9,263.1c-2.5,2.5-5.8,4.4-9.3,4.7c-1.4,0.1-3,0-4.2-0.7c-1.3-0.7-2.2-2-2.2-3.5
								c0-1.7,1.2-3.3,0.7-4.8c-0.4-1.3-1.9-2.1-3.2-2.2c-1.4-0.1-2.7,0.3-4.1,0.6c-2.7,0.5-5.7,0.4-7.9-1.2c-2.2-1.6-3.3-5-1.7-7.2
								c0.5-0.8,1.4-1.4,1.7-2.3c0.7-1.7-0.6-3.7-2.3-4.4c-1.7-0.7-3.7-0.5-5.5-0.1s-3.7,0.7-5.5,0.3c-1.8-0.5-3.5-2.1-3.2-3.9
								c0.3-2.6,3.9-3.9,4-6.6c0.1-2.5-3.4-4.6-4.8-6.3c-1.5-1.6-2.6-3.7-2.2-5.9c0.2-1.2,1-2.2,1.7-3.2c1-1.2,2.2-2.4,3.6-3.1
								c2.4-1.1,5.7-0.4,7.5,1.6c0.7,0.8,0.7,1.9,1.7,2.2c1.7,0.5,2.5-1.2,2.4-2.6c-0.1-1-0.4-2-0.3-2.9c0.2-2.5,3.3-3.9,5.7-3.2
								s4.1,2.8,5.4,4.9c1,1.6,1.8,3.2,2.2,5c0.6,3.2-0.4,7,1.7,9.5c0.2,0.3,0.4,0.5,0.8,0.6c1,0.3,1.7-1,2.2-2c1.2-2.1,4-3,6.3-2.3
								c2.3,0.6,4.2,2.6,5.1,4.8s1,4.7,0.8,7.2c-0.2,2-0.6,4.1,0.2,5.8c0.3,0.7,0.9,1.3,1.7,1.4c0.4,0,0.8-0.1,1.1-0.3
								c2.6-1.2,4.3-4.8,7.2-4.4c1.4,0.2,2.5,1.3,3.1,2.6c1.8,3.8,0.3,8.1-2.1,11.2c-1.7,2.2-3.2,3.1-1.3,5.4c1.8,2.1,3.7,4,5.8,5.8
								c1.6,1.4,3.3,3,3.8,5.1c-0.7,0.3-1.2,1.1-1.9,1c-0.2,0-0.4-0.2-0.6-0.3c-2.9-2.3-5.7-4.7-8.4-7.2
								C344.6,259.6,344.3,260.7,341.9,263.1z"/>
							<path class="st3" d="M771.8,255.6c-2.5,2.5-5.8,4.4-9.3,4.7c-1.4,0.1-3,0-4.2-0.7c-1.3-0.7-2.2-2-2.2-3.5
								c0-1.7,1.2-3.3,0.7-4.8c-0.4-1.3-1.9-2.1-3.2-2.2c-1.4-0.1-2.7,0.3-4.1,0.6c-2.7,0.5-5.7,0.4-7.9-1.2c-2.2-1.6-3.3-5-1.7-7.2
								c0.5-0.8,1.4-1.4,1.7-2.3c0.7-1.7-0.6-3.7-2.3-4.4s-3.7-0.5-5.5-0.1s-3.7,0.7-5.5,0.3c-1.8-0.5-3.5-2.1-3.2-3.9
								c0.3-2.6,3.9-3.9,4-6.6c0.1-2.5-3.4-4.6-4.8-6.3c-1.5-1.6-2.6-3.7-2.2-5.9c0.2-1.2,1-2.2,1.7-3.2c1-1.2,2.2-2.4,3.6-3.1
								c2.4-1.1,5.7-0.4,7.5,1.6c0.7,0.8,0.7,1.9,1.7,2.2c1.7,0.5,2.5-1.2,2.4-2.6c-0.1-1-0.4-2-0.3-2.9c0.2-2.5,3.3-3.9,5.7-3.2
								s4.1,2.8,5.4,4.9c1,1.6,1.8,3.2,2.2,5c0.6,3.2-0.4,7,1.7,9.5c0.2,0.3,0.4,0.5,0.8,0.6c1,0.3,1.7-1,2.2-2c1.2-2.1,4-3,6.3-2.3
								c2.3,0.6,4.2,2.6,5.1,4.8c0.9,2.2,1,4.7,0.8,7.2c-0.2,2-0.6,4.1,0.2,5.8c0.3,0.7,0.9,1.3,1.7,1.4c0.4,0,0.8-0.1,1.1-0.3
								c2.6-1.2,4.3-4.8,7.2-4.4c1.4,0.2,2.5,1.3,3.1,2.6c1.8,3.8,0.3,8.1-2.1,11.2c-1.7,2.2-3.2,3.1-1.3,5.4c1.8,2.1,3.7,4,5.8,5.8
								c1.6,1.4,3.3,3,3.8,5.1c-0.7,0.3-1.2,1.1-1.9,1c-0.2,0-0.4-0.2-0.6-0.3c-2.9-2.3-5.7-4.7-8.4-7.2
								C774.5,252.1,774.2,253.2,771.8,255.6z"/>
							<path class="st4" d="M249.7,141.1c4.1,5.1,6.4,11.5,6.7,18.1c11-6.6,22.1-12.9,33.4-19c-1.8,5.3-3.7,10.6-5.9,15.8
								c-1.4,3.3-2.9,6.6-5.1,9.5c-2.9,3.7-6.8,6.5-10.6,9.2c3.7,1.7,7.5,3.5,10.2,6.6c2.1,2.4,3.4,5.4,5.8,7.6
								c1.4,1.3,3.1,2.2,4.8,3.1c3,1.5,6,2.9,9.1,4.2c-2.8,2.9-7.1,3.9-11.1,4.2c-9.7,0.8-19.7-1.9-27.8-7.3c1.6,9,2.6,18,3.1,27.1
								c-9.9-2.3-18.2-10.6-20.5-20.5c-8.1,4.7-16.4,9.3-24.7,13.6c1.4-3.1,2.8-6.2,3.8-9.4c1.2-4.4,1.6-9.1,3.8-13.1
								c3-5.4,9.3-8.9,10.9-15c-7.9-2.6-15.8-5-23.8-7.1c0.5-1.4,1.3-2.7,2.2-3.9c0,0,20.2,8,22.4,8.2c0.8-2.4,2-4.1,3.1-6.3
								c1.3-2.6,1.4-5.9,2.2-8.7C243.5,151.9,246.2,146.2,249.7,141.1z"/>
							<path class="st4" d="M478.7,166.9c-6.5-0.1-13-2.3-18.2-6.2c-1.9,12.7-4.1,25.3-6.5,37.9c-2.9-4.8-5.9-9.6-8.5-14.5
								c-1.7-3.2-3.3-6.5-4.1-10c-1-4.6-0.7-9.4-0.4-14c-3.7,1.8-7.5,3.6-11.6,3.8c-3.2,0.1-6.4-0.8-9.5-0.4c-1.9,0.3-3.7,1-5.4,1.8
								c-3.1,1.4-6.1,2.8-9,4.4c-0.4-4,1.5-7.9,3.8-11.2c5.6-8,13.9-14.1,23.3-16.9c-7.9-4.5-15.6-9.4-22.9-14.8
								c8.1-6.2,19.7-7.4,28.8-2.9c1.5-9.3,3.2-18.6,5.1-27.8c1.5,3.1,3,6.1,4.9,8.9c2.6,3.7,6.1,7,7.7,11.3
								c2.3,5.8,1,12.9,4.6,17.9c7-4.4,13.9-9.1,20.6-13.9c0.7,1.3,1.3,2.7,1.6,4.2c0,0-18.9,10.6-20.6,12.1
								c1.4,2.1,1.9,4.1,2.9,6.4c1.2,2.6,3.7,4.8,5.4,7.2C474.3,155.3,477,161,478.7,166.9z"/>
							<path class="st4" d="M772.6,157.9c-6.5-0.1-13-2.3-18.2-6.2c-1.9,12.7-4.1,25.3-6.5,37.9c-2.9-4.8-5.9-9.6-8.5-14.5
								c-1.7-3.2-3.3-6.5-4.1-10c-1-4.6-0.7-9.4-0.4-14c-3.7,1.8-7.5,3.6-11.6,3.8c-3.2,0.1-6.4-0.8-9.5-0.4c-1.9,0.3-3.7,1-5.4,1.8
								c-3.1,1.4-6.1,2.8-9,4.4c-0.4-4,1.5-7.9,3.8-11.2c5.6-8,13.9-14.1,23.3-16.9c-7.9-4.5-15.6-9.4-22.9-14.8
								c8.1-6.2,19.7-7.4,28.8-2.9c1.5-9.3,3.2-18.6,5.1-27.8c1.5,3.1,3,6.1,4.9,8.9c2.6,3.7,6.1,7,7.7,11.3
								c2.3,5.8,1,12.9,4.6,17.9c7-4.4,13.9-9.1,20.6-13.9c0.7,1.3,1.3,2.7,1.6,4.2c0,0-18.9,10.6-20.6,12.1
								c1.4,2.1,1.9,4.1,2.9,6.4c1.2,2.6,3.7,4.8,5.4,7.2C768.2,146.3,770.9,151.9,772.6,157.9z"/>
							<path class="st5" d="M124.2,242.6c0.3,1.2,0.6,2.4,0.4,3.6c-0.3,2.9-2.8,5.1-5.4,6.2c-3.3,1.4-7,1.7-10.6,1.8
								c-16.3,0.6-33-1-48.1-7.4c-2.4-1-4.9-2.4-5.6-4.8c5.9-7.5,13.2-13.8,20.7-19.7c4.9-3.9,10-7.6,15.6-10.2
								c5.7-2.6,12-4.1,18.2-3.1c3.6,0.5,7.3,2.1,9.1,5.3c0.9,1.7,1.2,3.7,1.5,5.7c0.3,2.3,0.6,4.7,0.9,7c5.4-1.4,10.7-3.4,15.8-5.8
								c0.7,1.9,1,3.9,1.1,5.9c0,1.2-12.3,2.9-14,4C119.7,233.7,123.3,239.1,124.2,242.6z"/>
							<path class="st5" d="M599.6,225.1c0.3,1.2,0.6,2.4,0.4,3.6c-0.3,2.9-2.8,5.1-5.4,6.2c-3.3,1.4-7,1.7-10.6,1.8
								c-16.3,0.6-33-1-48.1-7.4c-2.4-1-4.9-2.4-5.6-4.8c5.9-7.5,13.2-13.8,20.7-19.7c4.9-3.9,10-7.6,15.6-10.2s12-4.1,18.2-3.1
								c3.6,0.5,7.3,2.1,9.1,5.3c0.9,1.7,1.2,3.7,1.5,5.7c0.3,2.3,0.6,4.7,0.9,7c5.4-1.4,10.7-3.4,15.8-5.8c0.7,1.9,1,3.9,1.1,5.9
								c0,1.2-12.3,2.9-14,4C595.1,216.2,598.7,221.6,599.6,225.1z"/>
							<path class="st5" d="M358.6,202.7c-0.5-1.1-1-2.2-1.1-3.4c-0.3-2.9,1.7-5.5,4.1-7.2c2.9-2.1,6.5-3,10-3.9
								c15.9-3.8,32.6-5.6,48.6-2.3c2.5,0.5,5.3,1.3,6.5,3.6c-4.3,8.5-10.2,16.2-16.4,23.4c-4,4.8-8.2,9.4-13.3,13.1
								c-5,3.7-11,6.4-17.2,6.7c-3.6,0.2-7.6-0.6-10-3.4c-1.3-1.5-1.9-3.4-2.5-5.3c-0.8-2.2-1.5-4.5-2.3-6.7
								c-5,2.5-9.8,5.4-14.3,8.8c-1-1.7-1.8-3.6-2.2-5.5c-0.2-1.2,11.5-5.3,12.9-6.7C364.7,210.5,360.2,205.9,358.6,202.7z"/>
							<path class="st6" d="M130.9,179c0.6,0,1.3,0,1.8,0.3c0.5,0.2,0.9,0.7,1.3,1.1c3.7,4.5,3.4,11,4.6,16.7
								c2.5,11.9,13.2,21.6,25.3,22.9c0.7-10.7-4-21.5-12.2-28.4c-1.7-1.4-3.5-2.6-5.6-3.3c-1.5-0.4-3.1-0.6-4.6-1.1
								c-3.5-1.3-5.7-5-6.5-8.7c8.2,3.1,17.6,3.1,25.8-0.1c1.1-0.4,2.3-1,3.5-1c0.9-0.1,1.9,0.1,2.8,0.3c2.4,0.5,4.8,1,7.3,1.4
								c3.1,0.6,6.2,1.2,9.3,0.9c8-0.7,14.6-7.2,17.6-14.6c-5.8-2.5-12-4.7-18.3-4.6c-6.3,0.1-12.9,2.8-16.3,8.1
								c-0.9,1.4-1.6,2.9-2.6,4.2c-2.3,2.6-6.1,3.4-9.6,3.8c-12.9,1.5-26.1,0.4-38.6-3.2c2.8-1.4,5.8-2.4,8.8-3
								c2.9-0.6,5.8-0.8,8.6-1.5c4.9-1.2,9.4-3.8,13.5-6.8c5-3.7,9.9-8.5,10.9-14.6c-7-0.2-14.2,0.2-20.8,2.8
								c-6.5,2.6-12.4,7.6-14.7,14.2c-0.4,1.2-0.7,2.4-1.3,3.5c-1.9,3.4-6.3,4.6-10.2,3.9c-3.8-0.7-7-2.9-10.2-5
								c-0.7-0.4-3.4-2.8-4.2-2.1c-0.9,0.7,0.5,2.3,1,2.7c2.4,2.5,6.9,4.2,10.1,5.6c3.5,1.5,7.1,2.8,10.7,3.6
								C122.4,178.3,126.6,178.8,130.9,179z"/>
							<path class="st6" d="M444.2,239.1c0.6,0,1.3,0,1.8,0.3c0.5,0.2,0.9,0.7,1.3,1.1c3.7,4.5,3.4,11,4.6,16.7
								c2.5,11.9,13.2,21.6,25.3,22.9c0.7-10.7-4-21.5-12.2-28.4c-1.7-1.4-3.5-2.6-5.6-3.3c-1.5-0.4-3.1-0.6-4.6-1.1
								c-3.5-1.3-5.7-5-6.5-8.7c8.2,3.1,17.6,3.1,25.8-0.1c1.1-0.4,2.3-1,3.5-1c0.9-0.1,1.9,0.1,2.8,0.3c2.4,0.5,4.8,1,7.3,1.4
								c3.1,0.6,6.2,1.2,9.3,0.9c8-0.7,14.6-7.2,17.6-14.6c-5.8-2.5-12-4.7-18.3-4.6c-6.3,0.1-12.9,2.8-16.3,8.1
								c-0.9,1.4-1.6,2.9-2.6,4.2c-2.3,2.6-6.1,3.4-9.6,3.8c-12.9,1.5-26.1,0.4-38.6-3.2c2.8-1.4,5.8-2.4,8.8-3
								c2.9-0.6,5.8-0.8,8.6-1.5c4.9-1.2,9.4-3.8,13.5-6.8c5-3.7,9.9-8.5,10.9-14.6c-7-0.2-14.2,0.2-20.8,2.8
								c-6.5,2.6-12.4,7.6-14.7,14.2c-0.4,1.2-0.7,2.4-1.3,3.5c-1.9,3.4-6.3,4.6-10.2,3.9c-3.8-0.7-7-2.9-10.2-5
								c-0.7-0.4-3.4-2.8-4.2-2.1c-0.9,0.7,0.5,2.3,1,2.7c2.4,2.5,6.9,4.2,10.1,5.6c3.5,1.5,7.1,2.8,10.7,3.6
								C435.7,238.4,439.9,239,444.2,239.1z"/>
							<path class="st6" d="M662.6,219.9c0.3-0.5,0.7-1.1,1.2-1.5c0.5-0.3,1-0.5,1.6-0.6c5.8-1,11.2,2.4,16.8,4.2
								c11.6,3.6,25.3-0.9,32.4-10.8c-8.9-5.9-20.7-7.2-30.7-3.4c-2,0.8-4,1.8-5.6,3.3c-1.1,1.1-2,2.4-3.2,3.4
								c-2.9,2.4-7.2,2.6-10.8,1.4c6.7-5.6,11.3-13.8,12.6-22.5c0.2-1.2,0.3-2.5,0.8-3.6c0.4-0.8,1-1.6,1.6-2.3
								c1.6-1.9,3.2-3.7,4.8-5.6c2-2.4,4.1-4.8,5.4-7.7c3.3-7.3,0.9-16.2-4.1-22.5c-5.1,3.8-9.9,8.1-13,13.7c-3,5.6-4,12.6-1,18.2
								c0.8,1.5,1.8,2.8,2.3,4.4c1.2,3.3,0,7-1.4,10.2c-5,12-12.5,22.9-21.8,32c0.2-3.1,0.8-6.2,1.7-9.2c0.9-2.8,2.2-5.4,2.9-8.2
								c1.4-4.9,1.3-10.1,0.8-15.1c-0.7-6.2-2.5-12.8-7.4-16.6c-3.7,6-6.8,12.5-7.8,19.4c-1,7,0.5,14.5,5.1,19.8
								c0.8,0.9,1.8,1.8,2.4,2.9c2,3.3,0.9,7.8-1.6,10.8c-2.5,2.9-6,4.7-9.3,6.4c-0.7,0.4-4.1,1.6-3.9,2.6c0.2,1.1,2.2,0.7,2.8,0.5
								c3.4-0.9,7.1-4,9.9-6c3-2.3,5.9-4.8,8.5-7.6C657.8,226.9,660.4,223.5,662.6,219.9z"/>
						</g>
					</g>
				</g>
				<g>
					<g>
						<defs>
							<path id="SVGID_00000100352056911711271940000002698238973586791354_" d="M772.7,138l-157.5-10c-0.8,0-1.5,0-2.3,0.1V128
								l-19-77c-54-10-91.1-13-137.8-13H391c-8.4,0-15.1,6.8-15.1,15.1l0,0V148h-333c-11.5,0-20.9,9.3-20.9,20.9l0,0v93.2
								c0,11.5,9.3,20.9,20.9,20.9l0,0h72.7c0.1-1.9,0.4-3.7,0.9-5.5l6.6-23.9c2.9-10.4,12.4-17.6,23.2-17.6h103.4
								c10.8,0,20.3,7.2,23.2,17.6l6.6,23.9c0.5,1.8,0.8,3.6,0.9,5.5h277.2c0.1-1.9,0.4-3.7,0.9-5.5l6.6-23.9
								c2.9-10.4,12.4-17.6,23.2-17.6h103.4c10.8,0,20.3,7.2,23.2,17.6l6.6,23.9c0.5,1.8,0.8,3.6,0.9,5.5h50.3
								c12.3,0,22.3-10,22.3-22.2l0,0V160.3C795,148,785,138,772.7,138C772.8,138,772.7,138,772.7,138z"/>
						</defs>
						<clipPath id="SVGID_00000140723965096558276190000000261506243627850903_">
							<use xlink:href="#SVGID_00000100352056911711271940000002698238973586791354_"  style="overflow:visible;"/>
						</clipPath>
						<g style="clip-path:url(#SVGID_00000140723965096558276190000000261506243627850903_);">
							<g class="st8">
								<path d="M812,302L0,295l10-116l365-1l179,22l156-1l55-34c-0.8,3.1,55.3-5.4,65,22C843.5,225.1,812,302,812,302z"/>
							</g>
							<path class="st9" d="M376,148c0,0,214,3,273-18l1-74L588,0H385l-45,90L376,148z"/>
						</g>
					</g>
				</g>
			</g>
			<path class="st10" d="M26.5,256h766c7.5,0,13.5,6,13.5,13.5l0,0c0,7.5-6,13.5-13.5,13.5h-766C19,283,13,277,13,269.5l0,0
				C13,262,19,256,26.5,256z"/>
			
				<ellipse transform="matrix(4.204172e-02 -0.9991 0.9991 4.204172e-02 -123.0278 489.4178)" class="st11" cx="193.7" cy="308.9" rx="74" ry="74.5"/>
			
				<ellipse transform="matrix(4.204376e-02 -0.9991 0.9991 4.204376e-02 -123.0282 489.4172)" class="st12" cx="193.7" cy="308.9" rx="72" ry="72.5"/>
			
				<ellipse transform="matrix(4.205140e-02 -0.9991 0.9991 4.205140e-02 -123.0295 489.4148)" cx="193.7" cy="308.9" rx="54.2" ry="54.5"/>
			
				<ellipse transform="matrix(4.205140e-02 -0.9991 0.9991 4.205140e-02 -123.0295 489.4148)" class="st13" cx="193.7" cy="308.9" rx="51.5" ry="51.9"/>
			
				<ellipse transform="matrix(4.205140e-02 -0.9991 0.9991 4.205140e-02 -123.0295 489.4148)" class="st14" cx="193.7" cy="308.9" rx="48.9" ry="49.2"/>
			
				<ellipse transform="matrix(4.205140e-02 -0.9991 0.9991 4.205140e-02 -123.0295 489.4148)" class="st15" cx="193.7" cy="308.9" rx="30.4" ry="30.6"/>
			
				<ellipse transform="matrix(4.205140e-02 -0.9991 0.9991 4.205140e-02 -123.0295 489.4148)" class="st16" cx="193.7" cy="308.9" rx="27.8" ry="27.9"/>
			
				<ellipse transform="matrix(4.205140e-02 -0.9991 0.9991 4.205140e-02 298.4257 929.0543)" class="st11" cx="633.7" cy="308.9" rx="74" ry="74.5"/>
			
				<ellipse transform="matrix(4.205140e-02 -0.9991 0.9991 4.205140e-02 298.4257 929.0543)" class="st12" cx="633.7" cy="308.9" rx="72" ry="72.5"/>
			
				<ellipse transform="matrix(4.205140e-02 -0.9991 0.9991 4.205140e-02 298.4257 929.0543)" cx="633.7" cy="308.9" rx="54.2" ry="54.5"/>
			
				<ellipse transform="matrix(4.205140e-02 -0.9991 0.9991 4.205140e-02 298.4257 929.0543)" class="st13" cx="633.7" cy="308.9" rx="51.5" ry="51.9"/>
			
				<ellipse transform="matrix(3.996812e-02 -0.9992 0.9992 3.996812e-02 300.0296 927.5476)" class="st14" cx="632.7" cy="307.6" rx="48.9" ry="49.2"/>
			
				<ellipse transform="matrix(4.205140e-02 -0.9991 0.9991 4.205140e-02 298.4257 929.0543)" class="st15" cx="633.7" cy="308.9" rx="30.4" ry="30.6"/>
			
				<ellipse transform="matrix(4.205140e-02 -0.9991 0.9991 4.205140e-02 298.4257 929.0543)" class="st16" cx="633.7" cy="308.9" rx="27.8" ry="27.9"/>
			
				<linearGradient id="SVGID_00000017490672269047304490000012298722410626236604_" gradientUnits="userSpaceOnUse" x1="391.9001" y1="177.6844" x2="567.3415" y2="177.6844" gradientTransform="matrix(1 0 0 -1 0 268)">
				<stop  offset="0" style="stop-color:#C9E7F9"/>
				<stop  offset="1" style="stop-color:#AAFFF9"/>
			</linearGradient>
			<path style="fill:url(#SVGID_00000017490672269047304490000012298722410626236604_);" d="M567.2,124.4l-17.1-64.3
				c-0.6-2.5-2.6-4.3-5.1-4.7c-16.8-2.6-82.2-11.4-147.5-5.2c-3.2,0.3-5.6,3-5.6,6.2l3,70c0,3.4,2.7,6.2,6.1,6.2l0,0l160.1-0.5
				c3.4,0,6.2-2.8,6.2-6.2C567.4,125.4,567.3,124.9,567.2,124.4z"/>
			
				<linearGradient id="SVGID_00000059998230889742678600000001835286315305040031_" gradientUnits="userSpaceOnUse" x1="562.625" y1="174.4617" x2="613" y2="174.4617" gradientTransform="matrix(1 0 0 -1 0 268)">
				<stop  offset="0" style="stop-color:#C9E7F9"/>
				<stop  offset="1" style="stop-color:#AAFFF9"/>
			</linearGradient>
			<path style="fill:url(#SVGID_00000059998230889742678600000001835286315305040031_);" d="M562.7,59.7L583,131l30-3l-17-70
				l-30.1-1.9c-1.6-0.2-3,0.9-3.2,2.4C562.6,58.9,562.6,59.3,562.7,59.7z"/>
			<path class="st19" d="M290.8,274l-11.6-30.9c-1.6-4.3-5.1-7.7-9.5-9.2c-2.5-1.6-5.3-2.4-8.2-2.4h-134c-2.6,0-5.2,0.7-7.4,1.9
				c-5.2,1.1-9.4,4.8-11.3,9.7L97.2,274c-3,8,1,17,9,20c0,0,0,0,0.1,0l0,0c8,3,17-1,20-9c0,0,0,0,0-0.1l8.4-22.4h118.7l8.4,22.4
				c2.7,8.1,11.4,12.6,19.5,9.9s12.6-11.4,9.9-19.5C291.1,274.9,290.9,274.5,290.8,274L290.8,274z"/>
			<path class="st19" d="M732.8,274.5l-11.6-30.9c-3.6-6.6-10.3-10.9-17.7-11.6h-134c-7.7,0.7-14.6,5-18.7,11.6l-11.6,30.9
				c-3,8,1,17,9,20c0,0,0,0,0.1,0l0,0c8,3,17-1,20-9c0,0,0,0,0-0.1l8.3-22.4h118.8l8.4,22.4c3.4,7.9,12.5,11.5,20.3,8.2
				C731.5,290.4,735.3,282.2,732.8,274.5L732.8,274.5z"/>
			
				<linearGradient id="SVGID_00000180360162150753311000000013784055185406144647_" gradientUnits="userSpaceOnUse" x1="755.0421" y1="78.4679" x2="795" y2="78.4679" gradientTransform="matrix(1 0 0 -1 0 268)">
				<stop  offset="0" style="stop-color:#FFFFFF"/>
				<stop  offset="1" style="stop-color:#FFF994"/>
			</linearGradient>
			
				<path style="fill:url(#SVGID_00000180360162150753311000000013784055185406144647_);stroke:#77176A;stroke-width:2;stroke-miterlimit:10;" d="
				M764.8,165.1l30.2,2.6V214l-25.1-1.4c-3.9-0.1-7.3-2.8-8.2-6.6l-6.5-31.3C754.1,169.4,758.9,164.6,764.8,165.1z"/>
			
				<linearGradient id="SVGID_00000005988369009230150900000017790639264978469555_" gradientUnits="userSpaceOnUse" x1="-2053.9778" y1="81.0152" x2="-2019.96" y2="81.0152" gradientTransform="matrix(-1 0 0 -1 -1997.96 268)">
				<stop  offset="0" style="stop-color:#7F1100"/>
				<stop  offset="1" style="stop-color:#FF5955"/>
			</linearGradient>
			<path style="fill:url(#SVGID_00000005988369009230150900000017790639264978469555_);stroke:#77176A;stroke-miterlimit:10;" d="
				M47.7,169L22,171v34l21.3-1c3.5-0.2,6.3-2.2,7-4.8l5.5-23.1C56.8,172.2,52.7,168.6,47.7,169z"/>
			<path class="st10" d="M791.8,220h6.2l0,0v38l0,0h-38l0,0v-6.2C760,234.2,774.2,220,791.8,220z"/>
			<path class="st10" d="M57,258H19l0,0v-50l0,0h1.5c20.1,0,36.5,16.3,36.5,36.5V258L57,258z"/>
		</g>
	</g>
</g>
</svg>
