<?xml version="1.0" encoding="utf-8"?>
<!-- Generator: Adobe Illustrator 28.0.0, SVG Export Plug-In . SVG Version: 6.00 Build 0)  -->
<svg version="1.1" id="Layer_1" xmlns="http://www.w3.org/2000/svg" xmlns:xlink="http://www.w3.org/1999/xlink" x="0px" y="0px"
	 viewBox="0 0 364.6 160" style="enable-background:new 0 0 364.6 160;" xml:space="preserve">
<style type="text/css">
	.st0{fill:#C61414;}
	.st1{fill:#910300;}
	.st2{fill:#4F0000;}
	.st3{fill:url(#SVGID_1_);}
	.st4{fill:#2B9CEF;}
	.st5{fill:#17608C;}
	.st6{fill:url(#SVGID_00000170240533363991401730000016467231736963149751_);}
</style>
<path class="st0" d="M358.9,80.1C327,46.3,285.3,29,243.4,28.2l0,0c-25.8,2.7-97.9,10.8-124.7,13.6c-3,0.3-5.2,2.8-5.2,5.8v65
	c0,3,2.3,5.5,5.2,5.8L242.1,132l0,0C284.5,131.6,326.6,114.3,358.9,80.1L358.9,80.1z"/>
<path class="st1" d="M296.6,38.4c-17.2-6.4-35.2-9.8-53.2-10.2c-25.8,2.7-97.9,10.8-124.7,13.6c-3,0.3-5.2,2.8-5.2,5.8v19.9
	C160.5,55.1,222.4,43.1,296.6,38.4z"/>
<path class="st2" d="M117.9,121.7L117.9,121.7c-2.5,0-4.4-2-4.4-4.4V41.7c0-2.5,2-4.4,4.4-4.4l0,0c2.5,0,4.4,2,4.4,4.4v75.5
	C122.4,119.7,120.4,121.7,117.9,121.7z"/>
<g>
	<g>
		
			<linearGradient id="SVGID_1_" gradientUnits="userSpaceOnUse" x1="0" y1="81.9481" x2="110" y2="81.9481" gradientTransform="matrix(1 0 0 -1 0 162)">
			<stop  offset="0" style="stop-color:#D40000"/>
			<stop  offset="1" style="stop-color:#FFC900"/>
		</linearGradient>
		<path class="st3" d="M110,88.6c-0.1,6.3,0,12.6-0.3,18.9c-0.1,1-1.7,2.4-2.9,2.7c-19.4,5.7-38.8,4.9-57.9-1.2
			c-17.3-5.6-32.6-14.6-46.4-26.4C1.8,81.9,1.1,81.1,0,80c15.4-14,32.7-24.2,52.4-29.9c19.1-5.5,38.2-5.5,56.9,0.6
			c0,7.2,0,14.1-0.1,21.1c-4.9,1.3-10.1,2.6-15.3,3.9c-2.4,0.6-4.8,1.3-4.9,4.2c-0.1,3.3,2.5,3.9,5,4.5
			C99.3,85.8,104.5,87.2,110,88.6z"/>
		<g>
			<path class="st4" d="M93.7,1c29.3-3.7,73.8,15.5,83.2,35.3c-15.5,3.3-31,6.6-46.9,9.9C124.4,26.6,112.4,11.6,93.7,1z"/>
			<path class="st5" d="M132.7,41.6c-5-14.9-13.7-27.2-26.1-36.8c24.4,1.7,53.2,14.8,63.9,28.8L132.7,41.6z"/>
			<path class="st4" d="M177,124c-15.5,23-47.9,36-83.5,35.4c18.7-10.7,30.8-25.7,36.4-45.4C145.8,117.3,161.3,120.6,177,124z"/>
			<path class="st5" d="M107.2,154.9c12.1-9.7,20.6-21.8,25.5-36.3l37.3,7.9C156.8,142.3,133.8,152.6,107.2,154.9z"/>
			<path class="st4" d="M183.4,80c-4.8,4.6-10.1,6.6-15.8,7.8c-12.6,2.6-25.3,2-37.8,0c-11.1-1.8-22-4.3-33-6.6
				c-0.7-0.1-1.4-0.5-2.7-1c0.9-0.5,1.2-0.8,1.7-0.9c19.3-5.1,38.7-9,58.8-8.4c8.7,0.2,17.2,1.3,24.8,6.1
				C180.6,77.8,181.8,78.8,183.4,80z"/>
			<path class="st5" d="M149.8,85.5c-6,0-12.3-0.6-19.4-1.7c-6.8-1.1-13.7-2.5-20.4-3.9c12.2-2.7,26.2-5.1,40.5-5.1
				c1.3,0,2.5,0,3.8,0.1c7.5,0.2,15.4,1,22.4,5.2c-2.8,1.7-5.9,2.9-10,3.7C161.4,85,155.8,85.5,149.8,85.5z"/>
		</g>
	</g>
</g>
<circle class="st5" cx="252.4" cy="80" r="33"/>
<circle class="st4" cx="256.7" cy="80" r="33"/>
<linearGradient id="SVGID_00000056400092066444121010000001762313742265965440_" gradientUnits="userSpaceOnUse" x1="233.4" y1="82" x2="280" y2="82" gradientTransform="matrix(1 0 0 -1 0 162)">
	<stop  offset="0" style="stop-color:#C9E7F9"/>
	<stop  offset="1" style="stop-color:#AAFFF9"/>
</linearGradient>
<circle style="fill:url(#SVGID_00000056400092066444121010000001762313742265965440_);" cx="256.7" cy="80" r="23.3"/>
<path class="st5" d="M329.7,55.4c0,0,14.8,27.1,0,49.4l32.9-24.7L329.7,55.4z"/>
<path class="st4" d="M331.7,56.8c0,0,14.8,25.6,0,46.8l32.9-23.3L331.7,56.8z"/>
</svg>
