<?xml version="1.0" encoding="utf-8"?>
<!-- Generator: Adobe Illustrator 25.4.0, SVG Export Plug-In . SVG Version: 6.00 Build 0)  -->
<svg version="1.1" id="Layer_1" xmlns="http://www.w3.org/2000/svg" xmlns:xlink="http://www.w3.org/1999/xlink" x="0px" y="0px"
	 viewBox="0 0 911.7 455.3" style="enable-background:new 0 0 911.7 455.3;" xml:space="preserve">
<style type="text/css">
	.st0{fill:url(#SVGID_1_);}
	.st1{fill:#562500;}
	.st2{clip-path:url(#SVGID_00000130634647189503185850000006312338120864738205_);}
	.st3{fill:#FFE0C7;}
	.st4{fill:#9B9B9B;}
	.st5{fill:#191919;}
	.st6{fill:#D6D6D6;}
	.st7{fill:#FE7D00;}
	.st8{clip-path:url(#SVGID_00000160875326117377414610000002768784799244632228_);}
	.st9{fill:#843C00;}
	.st10{fill:#5E5E5E;}
	.st11{fill:#777777;}
	.st12{fill:#32323F;}
	.st13{fill:#474757;}
	.st14{fill:#FFFFFF;}
	.st15{fill:#DDDDDD;}
	.st16{fill:#BAC0D8;}
	.st17{fill:#ACAFBC;}
</style>
<g id="Layer_2_00000055672596854901685010000004351994754947622312_">
	<g id="Premium">
		<g id="premium-drag-red">
			
				<linearGradient id="SVGID_1_" gradientUnits="userSpaceOnUse" x1="419.73" y1="237.34" x2="479.51" y2="237.34" gradientTransform="matrix(1 0 0 -1 0 458)">
				<stop  offset="0" style="stop-color:#C9E7F9"/>
				<stop  offset="1" style="stop-color:#AAFFF9"/>
			</linearGradient>
			<polygon class="st0" points="479.5,237.1 419.7,241.6 435.4,199.7 475,211.7 			"/>
			<path class="st1" d="M475.5,209.5c-0.1-0.1-0.1-0.2-0.2-0.3c0-0.1,0-0.1,0-0.1c-2.7-6.5-9.9-18.2-26.8-19.5
				c-23.4-1.8-28.8,16.6-28.8,22.5v15.1c0.1,1.7,0.8,3.4,2,4.6h-0.5v12l38.9,6.7v-1.9l9.8,4.1c2.4,1,5.1,0.2,6.6-1.9
				c2.1-3.5,3.6-7.4,4.2-11.5c0,0,0-0.1,0-0.1c0.1-0.2,0.1-0.4,0.2-0.6C482,223.9,475.8,210.1,475.5,209.5z M431.6,220.1
				c2.2,0,4,1.8,4,4s-1.8,4-4,4s-4-1.8-4-4S429.4,220.1,431.6,220.1L431.6,220.1z M476.4,235.6c-3.4,0-8.5-0.9-14.6-5.1
				c-7-4.9-10.5-12.2-12.1-16.8c-0.8-2.3,0.2-6.2,2.6-6.1c1.6,0.1,3.7,0.8,6.5,3c4.5,3.4,9.8,3.8,13.4,3.5c0.6,0,1.1-0.2,1.6-0.6
				c2.7,7.1,4.1,14.7,4.1,22.3C477.5,235.7,477,235.6,476.4,235.6L476.4,235.6z"/>
			<g>
				<defs>
					<path id="SVGID_00000156587933545189594500000008259963500927730618_" d="M475.5,209.5c-0.1-0.1-0.1-0.2-0.2-0.3
						c0-0.1,0-0.1,0-0.1c-2.7-6.5-9.9-18.2-26.8-19.5c-23.4-1.8-28.8,16.6-28.8,22.5v15.1c0.1,1.7,0.8,3.4,2,4.6h-0.5v12l38.9,6.7
						v-1.9l9.8,4.1c2.4,1,5.1,0.2,6.6-1.9c2.1-3.5,3.6-7.4,4.2-11.5c0,0,0-0.1,0-0.1c0.1-0.2,0.1-0.4,0.2-0.6
						C482,223.9,475.8,210.1,475.5,209.5z M431.6,220.1c2.2,0,4,1.8,4,4s-1.8,4-4,4s-4-1.8-4-4S429.4,220.1,431.6,220.1L431.6,220.1
						z M476.4,235.6c-3.4,0-8.5-0.9-14.6-5.1c-7-4.9-10.5-12.2-12.1-16.8c-0.8-2.3,0.2-6.2,2.6-6.1c1.6,0.1,3.7,0.8,6.5,3
						c4.5,3.4,9.8,3.8,13.4,3.5c0.6,0,1.1-0.2,1.6-0.6c2.7,7.1,4.1,14.7,4.1,22.3C477.5,235.7,477,235.6,476.4,235.6L476.4,235.6z"
						/>
				</defs>
				<clipPath id="SVGID_00000086690389138752983710000018299721071044062137_">
					<use xlink:href="#SVGID_00000156587933545189594500000008259963500927730618_"  style="overflow:visible;"/>
				</clipPath>
				<g style="clip-path:url(#SVGID_00000086690389138752983710000018299721071044062137_);">
					<polygon class="st3" points="364,155 359.3,161.7 438.4,217.8 438.4,315.6 446.6,315.6 446.6,213.9 					"/>
				</g>
			</g>
			<rect x="726.8" y="262.5" class="st4" width="101.6" height="44.1"/>
			<polygon class="st4" points="807.5,268.5 747.8,268.5 747.8,237.9 822.5,235.6 			"/>
			<path class="st5" d="M822.5,235.6l-12.2,26.9C810.3,262.5,806,248.3,822.5,235.6z"/>
			<path class="st6" d="M726.8,262.5l62.4,0.1c0,0-25.8,6.6-62.4,5.8V262.5z"/>
			
				<rect x="810.9" y="260.7" transform="matrix(0.1893 -0.9819 0.9819 0.1893 392.0681 1017.1571)" class="st5" width="2.2" height="20.9"/>
			
				<rect x="808.6" y="265.2" transform="matrix(0.1893 -0.9819 0.9819 0.1893 385.8502 1018.5963)" class="st5" width="2.2" height="20.9"/>
			<polygon class="st7" points="448.1,166.9 212,127.3 212,259.5 444.4,274.5 407.8,188.5 			"/>
			<path class="st7" d="M843.6,401.7l-722.8-54.5c-35-2.6-61.2-33.1-58.6-68.1c0,0,0,0,0,0l0,0c2.6-35,33.1-61.2,68.1-58.6
				c0,0,0,0,0,0l519.5,39.8c35,2.6,224.9,50.8,261.8,82.8l0,0C909.1,378.1,878.6,404.3,843.6,401.7z"/>
			<g>
				<defs>
					<path id="SVGID_00000155129064751838346820000000435184702929017776_" d="M843.6,401.7l-722.8-54.5
						c-35-2.6-61.2-33.1-58.6-68.1c0,0,0,0,0,0l0,0c2.6-35,33.1-61.2,68.1-58.6c0,0,0,0,0,0l81.8,18.4L212,127.3l236.1,39.6
						l-40.4,21.7l23.8,55l218.3,16.7c35,2.6,224.9,50.8,261.8,82.8l0,0C909.1,378.1,878.6,404.3,843.6,401.7z"/>
				</defs>
				<clipPath id="SVGID_00000016787090020831606480000013163226858833108354_">
					<use xlink:href="#SVGID_00000155129064751838346820000000435184702929017776_"  style="overflow:visible;"/>
				</clipPath>
				<g style="clip-path:url(#SVGID_00000016787090020831606480000013163226858833108354_);">
					<path class="st9" d="M238.4,348.9l22.3,6c-7.2-16.1,34.5-192.2,34.5-192.2C260.4,186.8,238.4,348.9,238.4,348.9z"/>
					<path class="st9" d="M340.5,145.9c0,0-14.1,110.9-5.7,134.8c0,0,15.7-106.8,34.3-134.8H340.5z"/>
					<path class="st9" d="M369.1,267.3c-18.6,10.7-22,86.4-22,86.4s23.6,10.4,22,1.3C367.5,345.9,369.1,267.3,369.1,267.3z"/>
					<path class="st9" d="M413.1,358.1l23.2,0.6c12.8-56.3-17.5-93.6-17.5-93.6C428,285.2,413.1,358.1,413.1,358.1z"/>
					<path class="st9" d="M476.4,225.2c0,0-20.9,43.6-14.3,73.8c0,0,27.3-57.4,42.4-65.5L476.4,225.2z"/>
					<path class="st9" d="M500.8,362.9l23.8-5.3c12.3-27.7-0.3-85.8-0.3-85.8C527.8,299.3,500.8,362.9,500.8,362.9z"/>
					<path class="st9" d="M558.7,302.8l19.2-61.9l-17.3-8.9C560.6,232,555.4,287.7,558.7,302.8z"/>
					<path class="st9" d="M645,249.5c0,0,23.5,49,48,77.5l-24-81.8L645,249.5z"/>
					<path class="st9" d="M714.8,373.4l29.2,5.7c-4.7-5.7-17-76.3-17-76.3C719.5,308.4,714.8,370.6,714.8,373.4z"/>
					<path class="st9" d="M759.1,307.1l34.8,72h26.4C830.8,348.9,759.1,307.1,759.1,307.1z"/>
				</g>
			</g>
			<path class="st1" d="M109.1,325.2L893.8,371c10.3,0.6,18.2,9.4,17.6,19.7l0,0c-0.6,10.3-9.4,18.2-19.7,17.6l-784.7-45.8
				c-10.3-0.6-18.2-9.4-17.6-19.7l0,0C90,332.5,98.8,324.6,109.1,325.2z"/>
			
				<rect x="290.6" y="254" transform="matrix(0.9362 -0.3515 0.3515 0.9362 -71.2012 123.3263)" class="st10" width="26.9" height="7.6"/>
			
				<rect x="297.9" y="273.4" transform="matrix(0.9362 -0.3515 0.3515 0.9362 -77.5555 127.1248)" class="st10" width="26.9" height="7.6"/>
			
				<rect x="278.6" y="61" transform="matrix(0.9362 -0.3515 0.3515 0.9362 -34.1986 111.1603)" class="st11" width="20.9" height="177.5"/>
			
				<ellipse transform="matrix(0.9362 -0.3515 0.3515 0.9362 -7.8273 95.3956)" class="st10" cx="258.8" cy="69.3" rx="10.5" ry="9.7"/>
			
				<ellipse transform="matrix(0.9371 -0.3489 0.3489 0.9371 -7.2267 94.5114)" class="st4" cx="258.7" cy="67.3" rx="10.5" ry="9.7"/>
			<ellipse transform="matrix(0.9362 -0.3515 0.3515 0.9362 -6.9805 94.8908)" class="st5" cx="257.8" cy="66.7" rx="9" ry="8.3"/>
			
				<rect x="316.5" y="195.1" transform="matrix(0.9362 -0.3515 0.3515 0.9362 -73.8083 134.8391)" class="st4" width="35.9" height="151.3"/>
			
				<rect x="233.8" y="77.8" transform="matrix(0.9362 -0.3515 0.3515 0.9362 -42.963 96.494)" class="st11" width="20.9" height="177.5"/>
			
				<ellipse transform="matrix(0.9362 -0.3515 0.3515 0.9362 -16.5918 80.7287)" class="st10" cx="214" cy="86.1" rx="10.5" ry="9.7"/>
			
				<ellipse transform="matrix(0.9362 -0.3515 0.3515 0.9362 -15.7484 80.2252)" class="st4" cx="213.1" cy="83.5" rx="10.5" ry="9.7"/>
			<ellipse transform="matrix(0.9362 -0.3515 0.3515 0.9362 -15.7484 80.2252)" class="st5" cx="213.1" cy="83.5" rx="9" ry="8.3"/>
			
				<rect x="271.8" y="211.9" transform="matrix(0.9362 -0.3515 0.3515 0.9362 -82.5756 120.177)" class="st4" width="35.9" height="151.3"/>
			
				<rect x="92.5" y="209.5" transform="matrix(0.9362 -0.3515 0.3515 0.9362 -68.3001 50.8789)" class="st10" width="26.9" height="8.1"/>
			
				<rect x="100.3" y="230.2" transform="matrix(0.9362 -0.3515 0.3515 0.9362 -75.0761 54.9329)" class="st10" width="26.9" height="8.1"/>
			
				<rect x="78" y="4.3" transform="matrix(0.9362 -0.3515 0.3515 0.9362 -29.1297 37.4206)" class="st11" width="20.9" height="189.3"/>
			
				<ellipse transform="matrix(0.9362 -0.3515 0.3515 0.9362 -1.0122 20.6088)" class="st10" cx="56.3" cy="13.1" rx="10.5" ry="10.3"/>
			
				<ellipse transform="matrix(0.9371 -0.3489 0.3489 0.9371 -0.1646 19.9924)" class="st4" cx="55.4" cy="10.5" rx="10.5" ry="10.3"/>
			<ellipse transform="matrix(0.9362 -0.3515 0.3515 0.9362 -0.1074 20.0689)" class="st5" cx="55.2" cy="10.3" rx="9" ry="8.8"/>
			
				<rect x="119" y="147.2" transform="matrix(0.9362 -0.3515 0.3515 0.9362 -71.3687 62.6679)" class="st4" width="35.9" height="161.3"/>
			
				<rect x="33.3" y="21.1" transform="matrix(0.9362 -0.3515 0.3515 0.9362 -37.8994 22.7519)" class="st11" width="20.9" height="189.3"/>
			
				<ellipse transform="matrix(0.9362 -0.3515 0.3515 0.9362 -9.7766 5.9425)" class="st10" cx="11.5" cy="29.9" rx="10.5" ry="10.3"/>
			
				<ellipse transform="matrix(0.9362 -0.3515 0.3515 0.9362 -8.8711 5.4061)" class="st4" cx="10.5" cy="27.1" rx="10.5" ry="10.3"/>
			<ellipse transform="matrix(0.9362 -0.3515 0.3515 0.9362 -8.8711 5.4061)" class="st5" cx="10.5" cy="27.1" rx="9" ry="8.8"/>
			
				<rect x="74.2" y="164.1" transform="matrix(0.9362 -0.3515 0.3515 0.9362 -80.1378 48.0027)" class="st4" width="35.9" height="161.3"/>
			
				<rect x="193.4" y="240.2" transform="matrix(0.9371 -0.3489 0.3489 0.9371 -72.2369 87.5325)" class="st10" width="27" height="8.2"/>
			
				<rect x="200.8" y="259.9" transform="matrix(0.9362 -0.3515 0.3515 0.9362 -79.1112 92.1696)" class="st10" width="26.9" height="8.2"/>
			
				<rect x="178" y="31.5" transform="matrix(0.9362 -0.3515 0.3515 0.9362 -32.6872 74.3681)" class="st11" width="20.9" height="191.5"/>
			
				<ellipse transform="matrix(0.9362 -0.3515 0.3515 0.9362 -4.2364 57.361)" class="st10" cx="155.9" cy="40.3" rx="10.5" ry="10.4"/>
			
				<ellipse transform="matrix(0.9371 -0.3489 0.3489 0.9371 -3.4708 56.5903)" class="st4" cx="155.3" cy="37.9" rx="10.5" ry="10.5"/>
			<ellipse transform="matrix(0.9362 -0.3515 0.3515 0.9362 -3.3201 56.8154)" class="st5" cx="154.8" cy="37.6" rx="9" ry="8.9"/>
			
				<rect x="219.5" y="176.1" transform="matrix(0.9362 -0.3515 0.3515 0.9362 -75.4142 99.915)" class="st4" width="35.9" height="163.2"/>
			
				<rect x="133.2" y="48.3" transform="matrix(0.9362 -0.3515 0.3515 0.9362 -41.4514 59.7042)" class="st11" width="20.9" height="191.5"/>
			
				<ellipse transform="matrix(0.9362 -0.3515 0.3515 0.9362 -13.0002 42.6982)" class="st10" cx="111.1" cy="57.2" rx="10.5" ry="10.4"/>
			
				<ellipse transform="matrix(0.9362 -0.3515 0.3515 0.9362 -12.0892 42.1502)" class="st4" cx="110" cy="54.4" rx="10.5" ry="10.4"/>
			<ellipse transform="matrix(0.9362 -0.3515 0.3515 0.9362 -12.0892 42.1502)" class="st5" cx="110" cy="54.4" rx="9" ry="8.9"/>
			
				<rect x="175" y="194" transform="matrix(0.9371 -0.3489 0.3489 0.9371 -84.1062 84.6803)" class="st4" width="36" height="163.7"/>
			
				<ellipse transform="matrix(4.205132e-02 -0.9991 0.9991 4.205132e-02 -155.8205 459.4636)" class="st12" cx="161.7" cy="311" rx="124" ry="124.8"/>
			
				<ellipse transform="matrix(4.204758e-02 -0.9991 0.9991 4.204758e-02 -155.82 459.4648)" class="st13" cx="161.7" cy="311" rx="120.7" ry="121.5"/>
			
				<ellipse transform="matrix(4.205010e-02 -0.9991 0.9991 4.205010e-02 -155.8203 459.464)" cx="161.7" cy="311" rx="90.8" ry="91.4"/>
			
				<ellipse transform="matrix(4.205183e-02 -0.9991 0.9991 4.205183e-02 -155.8206 459.4634)" class="st14" cx="161.7" cy="311" rx="86.4" ry="86.9"/>
			
				<ellipse transform="matrix(4.205010e-02 -0.9991 0.9991 4.205010e-02 -155.8203 459.464)" class="st15" cx="161.7" cy="311" rx="81.9" ry="82.5"/>
			
				<ellipse transform="matrix(4.205010e-02 -0.9991 0.9991 4.205010e-02 -155.8203 459.464)" class="st16" cx="161.7" cy="311" rx="50.9" ry="51.3"/>
			
				<ellipse transform="matrix(4.205010e-02 -0.9991 0.9991 4.205010e-02 -155.8203 459.464)" class="st17" cx="161.7" cy="311" rx="46.5" ry="46.8"/>
			
				<ellipse transform="matrix(4.205010e-02 -0.9991 0.9991 4.205010e-02 291.2779 1026.7384)" class="st12" cx="681.1" cy="361.5" rx="71.3" ry="71.7"/>
			
				<ellipse transform="matrix(4.205010e-02 -0.9991 0.9991 4.205010e-02 291.2779 1026.7384)" class="st13" cx="681.1" cy="361.5" rx="69.4" ry="69.8"/>
			
				<ellipse transform="matrix(4.205010e-02 -0.9991 0.9991 4.205010e-02 291.2779 1026.7384)" cx="681.1" cy="361.5" rx="52.2" ry="52.5"/>
			
				<ellipse transform="matrix(4.205010e-02 -0.9991 0.9991 4.205010e-02 291.2779 1026.7384)" class="st14" cx="681.1" cy="361.5" rx="49.6" ry="50"/>
			
				<ellipse transform="matrix(4.205010e-02 -0.9991 0.9991 4.205010e-02 291.2779 1026.7384)" class="st15" cx="681.1" cy="361.5" rx="47.1" ry="47.4"/>
			
				<ellipse transform="matrix(3.996804e-02 -0.9992 0.9992 3.996804e-02 292.9738 1025.1838)" class="st16" cx="680" cy="360.1" rx="29.3" ry="29.5"/>
			
				<ellipse transform="matrix(4.205010e-02 -0.9991 0.9991 4.205010e-02 291.2779 1026.7384)" class="st17" cx="681.1" cy="361.5" rx="26.7" ry="26.9"/>
		</g>
	</g>
</g>
<g id="Layer_2">
</g>
<path class="st7" d="M1020.9-495.6l-337.6-62.2c-30.4-5.4-50.7-34.5-45.3-64.9l21.7-121.8c9.6-54.1,62-89.7,115.9-78.7l112.7,23
	c30.1,6.2,56.3,24.6,72.2,50.9l9.4,24c7.3,18.7,20.2,34.8,37,45.7c33.6,22,64.3,60,67,96.1l-11.9,50.8
	C1055.7-509.9,1043.4-491.6,1020.9-495.6z"/>
<path class="st3" d="M758.3-711c-3,0-6-0.3-8.9-1l-39.8-9.3c-5.3-1.2-9.8-4.5-12.7-9.1c-2.9-4.6-3.8-10.1-2.5-15.4l23.1-99
	c2.6-11.2,12.4-18.9,23.8-18.9c1.9,0,3.7,0.2,5.6,0.6c40.8,9.5,66.3,50.5,56.8,91.3l-7.1,30.5C792.3-723.5,776.6-711,758.3-711z"/>
<path class="st9" d="M753.7-710.8l-39.8-9.3c-5.6-1.3-9-6.9-7.7-12.4l23.1-99c1.8-7.8,9.6-12.6,17.4-10.8h0
	c35.5,8.3,57.6,43.8,49.3,79.3l-7.1,30.5C785.1-716.9,769.4-707.1,753.7-710.8z"/>
<polygon class="st9" points="855.5,-806.9 855.5,-737.5 877.2,-802.4 "/>
<path class="st9" d="M774.4-541.6c0,0,20-76.9,75-96.9c0,0-52.9,85.2-42.9,102.6L774.4-541.6z"/>
<path class="st9" d="M639.6-596.5c0,0,46.8-74,38.8-106c0,0,4.2,104.6-18.9,134.3C659.5-568.2,641.9-574.9,639.6-596.5z"/>
<path class="st3" d="M944.5-666.3c-6.8-10-18.8-30.6-18.1-51.1c0.1-1.7,0.3-3.3,0.5-4.9c0.7-4.6,0.3-21.2-39.9-31.8
	c0,0-66.7,64,54.4,92.4C944.1-661.2,946-664.1,944.5-666.3z"/>
<path class="st9" d="M1038.2-612.3l35.8,28.8l-7.4,31.6l-31.5-57.8C1033.9-611.7,1036.4-613.7,1038.2-612.3z"/>
<ellipse class="st9" cx="921.3" cy="-689.8" rx="10.9" ry="9"/>
</svg>
