<?xml version="1.0" encoding="utf-8"?>
<!-- Generator: Adobe Illustrator 25.4.0, SVG Export Plug-In . SVG Version: 6.00 Build 0)  -->
<svg version="1.1" id="Layer_1" xmlns="http://www.w3.org/2000/svg" xmlns:xlink="http://www.w3.org/1999/xlink" x="0px" y="0px"
	 viewBox="0 0 911.7 434.9" style="enable-background:new 0 0 911.7 434.9;" xml:space="preserve">
<style type="text/css">
	.st0{fill:url(#SVGID_1_);}
	.st1{fill:#562500;}
	.st2{clip-path:url(#SVGID_00000102546704756691733680000008079847755584911251_);}
	.st3{fill:#FFE0C7;}
	.st4{fill:#9B9B9B;}
	.st5{fill:#191919;}
	.st6{fill:#D6D6D6;}
	.st7{fill:#CB0001;}
	.st8{clip-path:url(#SVGID_00000100341360593779617570000001862336497962218880_);}
	.st9{fill:#FFD8C2;}
	.st10{fill:#FE7D00;}
	.st11{fill:#740000;}
	.st12{fill:#5E5E5E;}
	.st13{fill:#777777;}
	.st14{fill:#32323F;}
	.st15{fill:#474757;}
	.st16{fill:#FFFFFF;}
	.st17{fill:#DDDDDD;}
	.st18{fill:#BAC0D8;}
	.st19{fill:#ACAFBC;}
</style>
<g id="Layer_2_00000065770712135312825980000012685271524207345031_">
	<g id="Layer_1-2">
		<g>
			<g id="Layer_2-2">
				<g id="Premium">
					<g id="premium-drag-red">
						
							<linearGradient id="SVGID_1_" gradientUnits="userSpaceOnUse" x1="419.7" y1="554.73" x2="479.5" y2="554.73" gradientTransform="matrix(1 0 0 1 0 -334.18)">
							<stop  offset="0" style="stop-color:#C9E7F9"/>
							<stop  offset="1" style="stop-color:#AAFFF9"/>
						</linearGradient>
						<polygon class="st0" points="479.5,237 419.7,241.5 435.4,199.6 475,211.6 						"/>
						<path class="st1" d="M475.5,209.4l-0.2-0.3l0,0c-2.7-6.5-9.9-18.2-26.8-19.5c-23.4-1.8-28.7,16.6-28.7,22.5v15.1
							c0,1.8,0.8,3.4,2,4.7h-0.5v12l38.8,6.7v-1.9l9.8,4.1c2.4,1,5.2,0.2,6.7-1.9c2.1-3.5,3.5-7.4,4.2-11.5l0,0
							c0-0.2,0.1-0.3,0.1-0.5C482,223.8,475.8,210,475.5,209.4z M431.6,220c2.2,0,4,1.8,4,4s-1.8,4-4,4s-4-1.8-4-4
							S429.4,220,431.6,220z M476.4,235.5c-3.4,0-8.5-0.8-14.6-5.1s-10.5-12.2-12.1-16.8c-0.8-2.3,0.2-6.2,2.6-6s3.8,0.8,6.6,3
							c4.5,3.4,9.8,3.7,13.4,3.4c0.6,0,1.1-0.2,1.6-0.5c2.7,7.1,4.1,14.6,4.1,22.2L476.4,235.5L476.4,235.5z"/>
						<g>
							<defs>
								<path id="SVGID_00000101085576192285402360000008642209340753200806_" d="M475.5,209.4l-0.2-0.3l0,0
									c-2.7-6.5-9.9-18.2-26.8-19.5c-23.4-1.8-28.7,16.6-28.7,22.5v15.1c0,1.8,0.8,3.4,2,4.7h-0.5v12l38.8,6.7v-1.9l9.8,4.1
									c2.4,1,5.2,0.2,6.7-1.9c2.1-3.5,3.5-7.4,4.2-11.5l0,0c0-0.2,0.1-0.3,0.1-0.5C482,223.8,475.8,210,475.5,209.4z M431.6,220
									c2.2,0,4,1.8,4,4s-1.8,4-4,4s-4-1.8-4-4S429.4,220,431.6,220z M476.4,235.5c-3.4,0-8.5-0.8-14.6-5.1s-10.5-12.2-12.1-16.8
									c-0.8-2.3,0.2-6.2,2.6-6s3.8,0.8,6.6,3c4.5,3.4,9.8,3.7,13.4,3.4c0.6,0,1.1-0.2,1.6-0.5c2.7,7.1,4.1,14.6,4.1,22.2
									L476.4,235.5L476.4,235.5z"/>
							</defs>
							<clipPath id="SVGID_00000096780825587265076500000007875992582926411411_">
								<use xlink:href="#SVGID_00000101085576192285402360000008642209340753200806_"  style="overflow:visible;"/>
							</clipPath>
							<g style="clip-path:url(#SVGID_00000096780825587265076500000007875992582926411411_);">
								<polygon class="st3" points="364,154.9 359.3,161.6 438.4,217.7 438.4,315.5 446.6,315.5 446.6,213.8 								"/>
							</g>
						</g>
						<rect x="726.8" y="262.4" class="st4" width="101.6" height="44.1"/>
						<polygon class="st4" points="807.5,268.4 747.8,268.4 747.8,237.8 822.5,235.5 						"/>
						<path class="st5" d="M822.5,235.5l-12.2,26.9C810.3,262.4,806,248.2,822.5,235.5z"/>
						<path class="st6" d="M726.8,262.4l62.5,0.2c0,0-25.8,6.5-62.5,5.8V262.4z"/>
						
							<rect x="810.7" y="260.5" transform="matrix(0.1891 -0.982 0.982 0.1891 392.1883 1016.9288)" class="st5" width="2.2" height="20.9"/>
						
							<rect x="808.5" y="265.1" transform="matrix(0.1891 -0.982 0.982 0.1891 385.963 1018.4095)" class="st5" width="2.2" height="20.9"/>
						<polygon class="st7" points="448.1,166.8 212,127.2 212,259.4 444.4,274.4 407.8,188.4 						"/>
						<path class="st7" d="M843.6,401.6l-722.8-54.5c-34.9-2.6-61.1-33-58.5-67.9c0-0.1,0-0.1,0-0.2l0,0c2.6-35,33.1-61.2,68-58.6
							c0,0,0,0,0.1,0l0,0l519.5,39.8c35,2.6,224.9,50.8,261.8,82.8l0,0C909.1,378,878.6,404.2,843.6,401.6
							C843.6,401.6,843.6,401.6,843.6,401.6z"/>
						<g>
							<defs>
								<path id="SVGID_00000155133739338001813410000009405351286912989096_" d="M843.6,401.6l-722.8-54.5
									c-34.9-2.6-61.1-33-58.5-67.9c0-0.1,0-0.1,0-0.2l0,0c2.6-35,33.1-61.2,68-58.6c0,0,0,0,0.1,0l0,0l81.7,18.4V127.2
									l236.1,39.6l-40.3,21.6l23.8,55.1L650,260.2c35,2.6,224.9,50.8,261.8,82.8l0,0c-2.6,35-33.1,61.2-68,58.6
									C843.7,401.6,843.7,401.6,843.6,401.6z"/>
							</defs>
							<clipPath id="SVGID_00000024694551569932532500000000603976246509446058_">
								<use xlink:href="#SVGID_00000155133739338001813410000009405351286912989096_"  style="overflow:visible;"/>
							</clipPath>
							<g style="clip-path:url(#SVGID_00000024694551569932532500000000603976246509446058_);">
								<g>
									<polygon class="st9" points="370.7,163.9 379.7,180.4 396.1,189.4 379.7,198.4 370.7,214.8 361.7,198.4 345.2,189.4 
										361.7,180.4 									"/>
									<polygon class="st9" points="593.2,266.6 602.2,283 618.7,292 602.2,301 593.2,317.5 584.2,301 567.8,292 584.2,283 
																			"/>
									<polygon class="st10" points="427.6,281.2 436.6,297.7 453.1,306.7 436.6,315.7 427.6,332.1 418.6,315.7 402.2,306.7 
										418.6,297.7 									"/>
									<path class="st10" d="M556.3,288.9h-18.8l17.4-7.2l-2.4-5.8l-17.6,7.3l13.4-13.5l-4.4-4.4l-13.3,13.2l7.3-17.3l-5.8-2.4
										l-7.4,17.6v-19.1h-6.3v18.8l-7.1-17.4l-5.8,2.4l7.2,17.6l-13.4-13.4l-4.5,4.4l13.3,13.3l-17.3-7.3l-2.4,5.8l17.5,7.4h-19
										v6.3h18.8l-17.4,7.1l2.4,5.8l17.6-7.2l-13.5,13.4l4.5,4.5l13.2-13.3l-7.2,17.3l5.8,2.5l7.3-17.6v19h6.3v-18.8l7.2,17.4
										l5.8-2.4l-7.3-17.6l13.5,13.5l4.4-4.5l-13.2-13.2l17.3,7.2l2.4-5.8l-17.6-7.3h19.1V288.9z M521.6,303.1
										c-6.1,0.1-11.1-4.9-11.2-11c-0.1-6.1,4.9-11.1,11-11.2s11.1,4.9,11.2,11c0,0,0,0.1,0,0.1
										C532.6,298.1,527.7,303,521.6,303.1z"/>
									<path class="st10" d="M387.4,256.8h-18.8l17.4-7.1l-2.4-5.8l-17.6,7.2l13.4-13.5l-4.4-4.4l-13.3,13.3l7.3-17.4l-5.8-2.4
										l-7.4,17.6v-19h-6.3V244l-7.1-17.3l-5.8,2.3l7.2,17.7l-13.4-13.5l-4.5,4.4l13.3,13.3l-17.3-7.2l-2.5,5.8l17.6,7.3h-19v6.3
										h18.8l-17.4,7.1l2.4,5.8l17.6-7.2l-13.5,13.5l4.5,4.4l13.2-13.3l-7.2,17.4l5.8,2.4l7.3-17.6v19.1h6.3v-18.8l7.1,17.4
										l5.9-2.4l-7.3-17.7l13.5,13.5l4.4-4.4L366.1,269l17.4,7.2l2.4-5.8l-17.6-7.3h19.1V256.8z M352.7,271
										c-6.1,0.1-11.1-4.9-11.2-11c-0.1-6.1,4.9-11.1,11-11.2c6.1-0.1,11.1,4.9,11.2,11c0,0.1,0,0.1,0,0.2
										C363.6,266.1,358.8,270.9,352.7,271z"/>
									<path class="st9" d="M301.4,178.7h-18.8l17.4-7.1l-2.4-5.8L280,173l13.5-13.4l-4.5-4.5l-13.2,13.3l7.2-17.3l-5.8-2.4
										l-7.3,17.5v-19h-6.3V166l-7.1-17.4l-5.9,2.4l7.3,17.6l-13.5-13.5l-4.4,4.5l13.2,13.2l-17.3-7.2l-2.4,5.8l17.6,7.3H232v6.3
										h18.8l-17.4,7.2l2.4,5.8l17.6-7.3L240,204.2l4.4,4.4l13.3-13.2l-7.3,17.3l5.8,2.4l7.4-17.6v19.1h6.3v-18.8l7.1,17.4
										l5.8-2.4l-7.2-17.6l13.4,13.4l4.5-4.4l-13.3-13.3l17.3,7.3l2.5-5.8l-17.6-7.4h19V178.7z M266.7,192.9
										c-6.1-0.6-10.6-6-10-12.1c0.5-5.3,4.7-9.5,10-10c6.1-0.6,11.5,3.9,12.1,10c0.6,6.1-3.9,11.5-10,12.1
										C268.1,193,267.4,193,266.7,192.9z"/>
									<path class="st9" d="M836.2,354.3h-18.8l17.4-7.2l-2.4-5.8l-17.6,7.3l13.5-13.5l-4.5-4.4l-13.3,13.2l7.3-17.3l-5.8-2.4
										l-7.3,17.6v-19.1h-6.3v18.8l-7.2-17.4l-5.8,2.4l7.3,17.6l-13.5-13.4l-4.4,4.4l13.2,13.3l-17.3-7.3l-2.4,5.8l17.6,7.4h-19.1
										v6.3h18.8l-17.4,7.1l2.4,5.8l17.6-7.2l-13.4,13.4l4.4,4.5l13.3-13.3l-7.3,17.3l5.8,2.4l7.4-17.5v19h6.3v-18.8l7.1,17.4
										l5.8-2.4l-7.2-17.6l13.4,13.5l4.5-4.5L815,366.4l17.3,7.3l2.4-5.8l-17.5-7.3h19V354.3z M801.5,368.4c-6.1,0-11-4.9-11-11
										s4.9-11,11-11s11,4.9,11,11l0,0C812.5,363.5,807.6,368.4,801.5,368.4z"/>
								</g>
							</g>
						</g>
						<path class="st11" d="M109.1,325.1l784.6,45.8c10.3,0.6,18.2,9.5,17.6,19.8l0,0c-0.6,10.3-9.4,18.1-19.6,17.5c0,0,0,0-0.1,0
							l-784.7-45.8c-10.3-0.6-18.1-9.4-17.5-19.6c0,0,0,0,0-0.1l0,0C90,332.4,98.8,324.5,109.1,325.1z"/>
						
							<rect x="290.6" y="253.7" transform="matrix(0.9361 -0.3518 0.3518 0.9361 -71.1722 123.455)" class="st12" width="26.9" height="7.6"/>
						
							<rect x="298" y="273.1" transform="matrix(0.9361 -0.3518 0.3518 0.9361 -77.5242 127.2841)" class="st12" width="26.9" height="7.6"/>
						
							<rect x="278.6" y="60.8" transform="matrix(0.9361 -0.3518 0.3518 0.9361 -34.1535 111.2567)" class="st13" width="20.9" height="177.5"/>
						
							<ellipse transform="matrix(0.9361 -0.3518 0.3518 0.9361 -7.7711 95.476)" class="st12" cx="258.8" cy="69.1" rx="10.5" ry="9.7"/>
						
							<ellipse transform="matrix(0.9373 -0.3486 0.3486 0.9373 -7.2372 94.3967)" class="st4" cx="258.7" cy="67.3" rx="10.5" ry="9.7"/>
						
							<ellipse transform="matrix(0.9361 -0.3518 0.3518 0.9361 -6.9234 94.9763)" class="st5" cx="257.8" cy="66.5" rx="9" ry="8.3"/>
						
							<rect x="316.5" y="194.8" transform="matrix(0.9361 -0.3518 0.3518 0.9361 -73.7724 134.9801)" class="st4" width="35.9" height="151.3"/>
						
							<rect x="233.9" y="77.6" transform="matrix(0.9361 -0.3518 0.3518 0.9361 -42.92 96.5942)" class="st13" width="20.9" height="177.5"/>
						
							<ellipse transform="matrix(0.9361 -0.3518 0.3518 0.9361 -16.544 80.7783)" class="st12" cx="214" cy="85.9" rx="10.5" ry="9.7"/>
						
							<ellipse transform="matrix(0.9361 -0.3518 0.3518 0.9361 -15.678 80.3093)" class="st4" cx="213.1" cy="83.3" rx="10.5" ry="9.7"/>
						
							<ellipse transform="matrix(0.9361 -0.3518 0.3518 0.9361 -15.678 80.3093)" class="st5" cx="213.1" cy="83.3" rx="9" ry="8.3"/>
						
							<rect x="271.8" y="211.7" transform="matrix(0.9361 -0.3518 0.3518 0.9361 -82.5741 120.324)" class="st4" width="35.9" height="151.3"/>
						
							<rect x="92.5" y="209.4" transform="matrix(0.9361 -0.3518 0.3518 0.9361 -68.3154 50.9333)" class="st12" width="26.9" height="8.1"/>
						
							<rect x="100.4" y="230" transform="matrix(0.9361 -0.3518 0.3518 0.9361 -75.0705 55.0265)" class="st12" width="26.9" height="8.1"/>
						
							<rect x="78" y="4.2" transform="matrix(0.9361 -0.3518 0.3518 0.9361 -29.1096 37.4477)" class="st13" width="20.9" height="189.3"/>
						
							<ellipse transform="matrix(0.9361 -0.3518 0.3518 0.9361 -0.9801 20.5977)" class="st12" cx="56.2" cy="13" rx="10.5" ry="10.3"/>
						
							<ellipse transform="matrix(0.9373 -0.3486 0.3486 0.9373 -0.1602 19.9831)" class="st4" cx="55.5" cy="10.4" rx="10.5" ry="10.3"/>
						
							<ellipse transform="matrix(0.9361 -0.3518 0.3518 0.9361 -7.105209e-02 20.0613)" class="st5" cx="55.2" cy="10.2" rx="9" ry="8.8"/>
						
							<rect x="119.1" y="147.1" transform="matrix(0.9361 -0.3518 0.3518 0.9361 -71.3554 62.7715)" class="st4" width="35.9" height="161.3"/>
						
							<rect x="33.2" y="20.9" transform="matrix(0.9361 -0.3518 0.3518 0.9361 -37.8825 22.75)" class="st13" width="20.9" height="189.3"/>
						
							<ellipse transform="matrix(0.9361 -0.3518 0.3518 0.9361 -9.7282 5.9657)" class="st12" cx="11.5" cy="29.7" rx="10.5" ry="10.3"/>
						
							<ellipse transform="matrix(0.9361 -0.3518 0.3518 0.9361 -8.8376 5.3987)" class="st4" cx="10.4" cy="27" rx="10.5" ry="10.3"/>
						<ellipse transform="matrix(0.9361 -0.3518 0.3518 0.9361 -8.8376 5.3987)" class="st5" cx="10.4" cy="27" rx="9" ry="8.8"/>
						
							<rect x="74.3" y="163.9" transform="matrix(0.9361 -0.3518 0.3518 0.9361 -80.159 48.0922)" class="st4" width="35.9" height="161.3"/>
						
							<rect x="193.3" y="240.2" transform="matrix(0.9373 -0.3486 0.3486 0.9373 -72.174 87.422)" class="st12" width="27" height="8.2"/>
						
							<rect x="200.9" y="259.7" transform="matrix(0.9361 -0.3518 0.3518 0.9361 -79.1288 92.2706)" class="st12" width="26.9" height="8.2"/>
						
							<rect x="178" y="31.4" transform="matrix(0.9361 -0.3518 0.3518 0.9361 -32.6773 74.4287)" class="st13" width="20.9" height="191.5"/>
						
							<ellipse transform="matrix(0.9361 -0.3518 0.3518 0.9361 -4.2184 57.4002)" class="st12" cx="155.8" cy="40.3" rx="10.5" ry="10.4"/>
						<ellipse class="st4" cx="155.8" cy="37.8" rx="10.5" ry="10.5"/>
						
							<ellipse transform="matrix(0.9361 -0.3518 0.3518 0.9361 -3.2742 56.8575)" class="st5" cx="154.8" cy="37.4" rx="9" ry="8.9"/>
						
							<rect x="219.5" y="175.9" transform="matrix(0.9361 -0.3518 0.3518 0.9361 -75.4061 100.0257)" class="st4" width="35.9" height="163.2"/>
						
							<rect x="133.3" y="48.2" transform="matrix(0.9361 -0.3518 0.3518 0.9361 -41.4438 59.7663)" class="st13" width="20.9" height="191.5"/>
						
							<ellipse transform="matrix(0.9361 -0.3518 0.3518 0.9361 -12.973 42.7332)" class="st12" cx="111.1" cy="57.1" rx="10.5" ry="10.4"/>
						
							<ellipse transform="matrix(0.9361 -0.3518 0.3518 0.9361 -12.0471 42.1598)" class="st4" cx="110" cy="54.2" rx="10.5" ry="10.4"/>
						
							<ellipse transform="matrix(0.9371 -0.3489 0.3489 0.9371 -12.145 41.9405)" class="st5" cx="110.3" cy="54.7" rx="9" ry="8.9"/>
						
							<rect x="174.9" y="194" transform="matrix(0.9373 -0.3486 0.3486 0.9373 -84.0637 84.5463)" class="st4" width="36" height="163.7"/>
						
							<ellipse transform="matrix(4.187329e-02 -0.9991 0.9991 4.187329e-02 -155.6606 459.401)" class="st14" cx="161.7" cy="310.9" rx="124" ry="124.8"/>
						
							<ellipse transform="matrix(4.187568e-02 -0.9991 0.9991 4.187568e-02 -155.6609 459.4002)" class="st15" cx="161.7" cy="310.9" rx="120.7" ry="121.5"/>
						
							<ellipse transform="matrix(4.187568e-02 -0.9991 0.9991 4.187568e-02 -155.6609 459.4002)" cx="161.7" cy="310.9" rx="90.8" ry="91.4"/>
						
							<ellipse transform="matrix(4.187377e-02 -0.9991 0.9991 4.187377e-02 -155.6607 459.4008)" class="st16" cx="161.7" cy="310.9" rx="86.4" ry="86.9"/>
						
							<ellipse transform="matrix(4.187408e-02 -0.9991 0.9991 4.187408e-02 -155.6607 459.4007)" class="st17" cx="161.7" cy="310.9" rx="81.9" ry="82.5"/>
						
							<ellipse transform="matrix(4.187329e-02 -0.9991 0.9991 4.187329e-02 -155.6606 459.401)" class="st18" cx="161.7" cy="310.9" rx="50.9" ry="51.3"/>
						
							<ellipse transform="matrix(4.187568e-02 -0.9991 0.9991 4.187568e-02 -155.6609 459.4002)" class="st19" cx="161.7" cy="310.9" rx="46.5" ry="46.8"/>
						
							<ellipse transform="matrix(4.187568e-02 -0.9991 0.9991 4.187568e-02 291.5726 1026.5116)" class="st14" cx="681" cy="361.2" rx="71.3" ry="71.7"/>
						
							<ellipse transform="matrix(4.187568e-02 -0.9991 0.9991 4.187568e-02 291.5726 1026.5116)" class="st15" cx="681" cy="361.2" rx="69.4" ry="69.8"/>
						
							<ellipse transform="matrix(4.187568e-02 -0.9991 0.9991 4.187568e-02 291.5726 1026.5116)" cx="681" cy="361.2" rx="52.2" ry="52.5"/>
						
							<ellipse transform="matrix(4.187568e-02 -0.9991 0.9991 4.187568e-02 291.5726 1026.5116)" class="st16" cx="681" cy="361.2" rx="49.6" ry="50"/>
						
							<ellipse transform="matrix(4.187568e-02 -0.9991 0.9991 4.187568e-02 291.5726 1026.5116)" class="st17" cx="681" cy="361.2" rx="47.1" ry="47.4"/>
						
							<ellipse transform="matrix(4.013184e-02 -0.9992 0.9992 4.013184e-02 293.0008 1025.1957)" class="st18" cx="680.1" cy="360.1" rx="29.3" ry="29.5"/>
						
							<ellipse transform="matrix(4.187568e-02 -0.9991 0.9991 4.187568e-02 291.5726 1026.5116)" class="st19" cx="681" cy="361.2" rx="26.7" ry="26.9"/>
					</g>
				</g>
			</g>
			<circle class="st10" cx="415.6" cy="258.2" r="6.2"/>
			<circle class="st10" cx="649.9" cy="278.5" r="6"/>
			<circle class="st10" cx="878.7" cy="345.5" r="5.3"/>
			<circle class="st11" cx="566.9" cy="335.5" r="4.8"/>
			<circle class="st11" cx="329.2" cy="161" r="3.9"/>
		</g>
	</g>
</g>
</svg>
