<?xml version="1.0" encoding="utf-8"?>
<!-- Generator: Adobe Illustrator 25.4.0, SVG Export Plug-In . SVG Version: 6.00 Build 0)  -->
<svg version="1.1" id="Layer_1" xmlns="http://www.w3.org/2000/svg" xmlns:xlink="http://www.w3.org/1999/xlink" x="0px" y="0px"
	 viewBox="0 0 322.5 132.7" style="enable-background:new 0 0 322.5 132.7;" xml:space="preserve">
<style type="text/css">
	.st0{fill:#FFB000;}
	.st1{fill:#CB0001;}
	.st2{fill:#FE7D00;}
	.st3{fill:#740000;}
	.st4{fill:#FFF3D4;}
	.st5{fill:#474757;}
	.st6{opacity:0.13;}
	.st7{fill:#32323F;}
	.st8{fill:#FFFFFF;}
	.st9{fill:#DDDDDD;}
	.st10{fill:#BAC0D8;}
	.st11{fill:#ACAFBC;}
	.st12{clip-path:url(#SVGID_00000181768570362785581880000008613607754768163998_);}
	.st13{fill:#AAFFF9;}
	.st14{clip-path:url(#SVGID_00000148647697479969429640000005441040821305654429_);}
	.st15{fill:#ABFEF9;}
</style>
<g id="Layer_2_00000104677501208473528040000017177914661483840695_">
	<g id="SkullCar_Free">
		<g id="Basic_DarkRed">
			<g>
				<g id="Layer_2-2">
					<g id="Premium">
						<g id="premium-water">
							<path class="st0" d="M232.2,37.7h34.9c27.3,0.1,49.3,15.7,49.2,45.4v19.4c3.5,0,6.3,3.1,6.3,6.9s-2.8,6.9-6.3,6.9l-225-0.8
								L19,102.8c-3.4-0.2-6.1-3.1-6-6.5c0-3.7,2.7-6.6,6-6.6V46.9c0-8.6,6.5-15.5,14.3-15.5h2.2c32.9,0.2,56.1-8.1,84.9-23.8
								l6.2-3.4c3.5-1.8,7.4-3,11.3-3.5c6.4-0.6,50.7,1.6,50.7,1.6s14-2,21.5,11.1s22.7,25,22.7,25"/>
							<g>
								<polygon class="st1" points="106.8,41.6 113.5,53.8 125.7,60.4 113.5,67.1 106.8,79.4 100.1,67.1 87.9,60.4 100.1,53.8 
																	"/>
								<path class="st2" d="M79.4,58.1h-14l12.9-5.3l-1.8-4.3l-13.1,5.4l9.9-10l-3.3-3.3l-9.9,9.8l5.4-12.8l-4.3-1.8l-5.5,13.1
									V34.7h-4.7v14L46,35.7l-4.3,1.8L47,50.6l-9.9-9.9l-3.3,3.3l9.9,9.9l-12.8-5.4L29,52.6l13,5.5H27.9v4.7h14l-12.9,5.3l1.8,4.3
									L43.8,67l-10,9.9l3.3,3.3l9.8-9.9l-5.3,12.8l4.3,1.9l5.4-13.1v14.1h4.7v-14l5.3,12.9l4.3-1.8l-5.4-13.1l10,10l3.3-3.3
									l-9.8-9.8l12.8,5.3l1.8-4.3l-13.1-5.4h14.2V58.1z M53.6,68.7c-4.5,0-8.3-3.6-8.3-8.2c0-4.5,3.6-8.3,8.2-8.3
									c4.5,0,8.3,3.6,8.3,8.2c0,0,0,0,0,0.1C61.8,65,58.2,68.6,53.6,68.7z"/>
								<circle class="st3" cx="87.3" cy="92.7" r="3.6"/>
							</g>
							<g>
								<polygon class="st4" points="135.7,96.7 131.3,88.8 123.4,84.4 131.3,80.1 135.7,72.2 140,80.1 147.9,84.4 140,88.8 
																	"/>
								<path class="st1" d="M157.1,86.7h14l-12.9,5.3l1.8,4.3l13.1-5.4l-9.9,10l3.3,3.3l9.9-9.8l-5.4,12.8l4.3,1.8l5.5-13.1v14.2
									h4.7v-14l5.3,12.9l4.3-1.8l-5.3-13.1l9.9,9.9l3.3-3.3l-9.9-9.9l12.8,5.4l1.8-4.3l-13-5.5h14.1V82h-14l12.9-5.3l-1.8-4.3
									l-13.1,5.3l10-9.9l-3.3-3.3l-9.8,9.9l5.3-12.8l-4.3-1.9l-5.4,13.1V58.7h-4.7v14l-5.3-12.9l-4.3,1.8l5.4,13.1l-10-10
									l-3.3,3.3l9.8,9.8L160,72.3l-1.8,4.3l13.1,5.4h-14.2V86.7z M182.9,76.2c4.5,0,8.3,3.6,8.3,8.2c0,4.5-3.6,8.3-8.2,8.3
									c-4.5,0-8.3-3.6-8.3-8.2c0,0,0,0,0-0.1C174.7,79.9,178.4,76.2,182.9,76.2z"/>
								<circle class="st3" cx="159.3" cy="52.1" r="3.6"/>
							</g>
							<g>
								<polygon class="st2" points="239.2,81.2 233.7,71.1 223.5,65.5 233.7,60 239.2,49.8 244.8,60 254.9,65.5 244.8,71.1 
																	"/>
								<polygon class="st2" points="140,34.7 134.5,24.6 124.3,19 134.5,13.5 140,3.3 145.6,13.5 155.7,19 145.6,24.6 								"/>
								<path class="st4" d="M261.5,79.7h14l-12.9,5.3l1.8,4.3l13.1-5.4l-9.9,10l3.3,3.3l9.9-9.8l-5.4,12.8l4.3,1.8L285,89v14.2h4.7
									v-14l5.3,12.9l4.3-1.8l-5.3-13.1l9.9,9.9l3.3-3.3l-9.9-9.9l12.8,5.4l1.8-4.3l-13-5.5H313v-4.7h-14l12.9-5.3l-1.8-4.3
									l-13.1,5.3l10-9.9l-3.3-3.3l-9.8,9.9l5.3-12.8l-4.3-1.9l-5.4,13.1V51.7H285v14l-5.3-12.9l-4.3,1.8l5.4,13.1l-10-10l-3.3,3.3
									l9.8,9.8l-12.8-5.3l-1.8,4.3l13.1,5.4h-14.2V79.7z M287.3,69.2c4.5,0,8.3,3.6,8.3,8.2c0,4.5-3.6,8.3-8.2,8.3
									s-8.3-3.6-8.3-8.2c0,0,0,0,0-0.1C279.1,72.9,282.7,69.2,287.3,69.2z"/>
								<circle class="st3" cx="253.6" cy="45.2" r="3.6"/>
							</g>
							<path class="st5" d="M316.2,102.6c3.5,0,6.3,3.1,6.3,6.9s-2.8,6.9-6.3,6.9l-225-0.8L19,102.8c-3.4-0.2-6.1-3.1-6-6.5
								c0-3.7,2.7-6.6,6-6.6l-0.2-31.1l13.3,13.9l-0.7,17.3v4.1l58,9.9L316.2,102.6z"/>
							<g class="st6">
								<path d="M316.3,86.7c0,0-18.2-45.3-84.8-25.5L18.9,46.9c0-8.6,6.5-15.5,14.3-15.5l43.2,0.2c8.9,0.1,141.8,18.5,141.8,18.5
									l14-12.4h34.9C267.1,37.7,316.3,36.1,316.3,86.7z"/>
							</g>
							
								<ellipse transform="matrix(0.9954 -9.583629e-02 9.583629e-02 0.9954 -8.2455 26.3091)" class="st7" cx="269.8" cy="99" rx="33.7" ry="33.5"/>
							
								<ellipse transform="matrix(0.9954 -9.585521e-02 9.585521e-02 0.9954 -8.2469 26.3143)" class="st5" cx="269.8" cy="99" rx="32.8" ry="32.6"/>
							
								<ellipse transform="matrix(0.9954 -9.583630e-02 9.583630e-02 0.9954 -8.2455 26.3091)" cx="269.8" cy="99" rx="24.7" ry="24.5"/>
							
								<ellipse transform="matrix(0.9954 -9.584575e-02 9.584575e-02 0.9954 -8.2462 26.3117)" class="st8" cx="269.8" cy="99" rx="23.5" ry="23.3"/>
							
								<ellipse transform="matrix(0.9954 -9.585520e-02 9.585520e-02 0.9954 -8.2469 26.3143)" class="st9" cx="269.8" cy="99" rx="22.3" ry="22.1"/>
							
								<ellipse transform="matrix(6.483664e-02 -0.9979 0.9979 6.483664e-02 153.4901 361.7739)" class="st10" cx="269.8" cy="99" rx="13.8" ry="13.8"/>
							
								<ellipse transform="matrix(0.995 -9.950357e-02 9.950357e-02 0.995 -8.4423 27.4935)" class="st11" cx="271.4" cy="98.4" rx="12.7" ry="12.7"/>
							<g>
								<defs>
									<path id="SVGID_1_" d="M204.9,48.7c-18.2-36.7-27.7-35.4-27.7-35.4s-24.1-0.8-31.7-0.1s-10.2,5.5-10.2,5.5l-7.6,11.7
										c0,0-5.1,6.9,7.5,8.3C145.4,39.9,204.9,48.7,204.9,48.7z"/>
								</defs>
								<clipPath id="SVGID_00000147182134298376795820000000936966026107646376_">
									<use xlink:href="#SVGID_1_"  style="overflow:visible;"/>
								</clipPath>
								<g style="clip-path:url(#SVGID_00000147182134298376795820000000936966026107646376_);">
									<path class="st13" d="M203.8,12h-81.2v36.7h82.3V12H203.8z"/>
								</g>
							</g>
							<g>
								<defs>
									<path id="SVGID_00000067234200484365015720000016114452663409516210_" d="M210.1,13.4l22.7,24.3l-12.7,11.7l-20.8-29.1
										c0,0-3.8-4.2,0-6.2L210.1,13.4z"/>
								</defs>
								<clipPath id="SVGID_00000089545121723801718370000002834480751181414309_">
									<use xlink:href="#SVGID_00000067234200484365015720000016114452663409516210_"  style="overflow:visible;"/>
								</clipPath>
								<g style="clip-path:url(#SVGID_00000089545121723801718370000002834480751181414309_);">
									<path class="st15" d="M232,13.4h-36.5v36h37.3v-36L232,13.4z"/>
								</g>
							</g>
						</g>
					</g>
				</g>
			</g>
			
				<ellipse transform="matrix(0.9954 -9.584812e-02 9.584812e-02 0.9954 -9.1442 8.0138)" class="st7" cx="78.8" cy="99.2" rx="33.7" ry="33.5"/>
			
				<ellipse transform="matrix(0.9954 -9.584338e-02 9.584338e-02 0.9954 -9.1438 8.0134)" class="st5" cx="78.8" cy="99.2" rx="32.8" ry="32.6"/>
			
				<ellipse transform="matrix(0.9954 -9.584811e-02 9.584811e-02 0.9954 -9.1442 8.0138)" cx="78.8" cy="99.2" rx="24.7" ry="24.5"/>
			
				<ellipse transform="matrix(0.9954 -9.584575e-02 9.584575e-02 0.9954 -9.144 8.0136)" class="st8" cx="78.8" cy="99.2" rx="23.5" ry="23.3"/>
			
				<ellipse transform="matrix(0.9954 -9.584339e-02 9.584339e-02 0.9954 -9.1438 8.0134)" class="st9" cx="78.8" cy="99.2" rx="22.3" ry="22.1"/>
			<ellipse class="st10" cx="79.6" cy="99.3" rx="13.9" ry="13.9"/>
			<ellipse class="st11" cx="78.8" cy="99.2" rx="12.6" ry="12.6"/>
		</g>
	</g>
</g>
</svg>
