<?xml version="1.0" encoding="utf-8"?>
<!-- Generator: Adobe Illustrator 25.4.0, SVG Export Plug-In . SVG Version: 6.00 Build 0)  -->
<svg version="1.1" id="Layer_1" xmlns="http://www.w3.org/2000/svg" xmlns:xlink="http://www.w3.org/1999/xlink" x="0px" y="0px"
	 viewBox="0 0 322.5 132.7" style="enable-background:new 0 0 322.5 132.7;" xml:space="preserve">
<style type="text/css">
	.st0{fill:#B50F0F;}
	.st1{clip-path:url(#SVGID_00000033334104761893792690000009756441626792789687_);}
	.st2{fill:#FE7D00;}
	.st3{fill:#843C00;}
	.st4{fill:#FFE0C7;}
	.st5{fill:#212121;}
	.st6{fill:#474757;}
	.st7{opacity:0.13;}
	.st8{fill:#32323F;}
	.st9{fill:#FFFFFF;}
	.st10{fill:#DDDDDD;}
	.st11{fill:#BAC0D8;}
	.st12{fill:#ACAFBC;}
	.st13{clip-path:url(#SVGID_00000143596423008405514430000002503867853791470232_);}
	.st14{fill:#AAFFF9;}
	.st15{clip-path:url(#SVGID_00000162331132014560858650000017895506660391776173_);}
	.st16{fill:#ABFEF9;}
</style>
<g id="Layer_2_00000104677501208473528040000017177914661483840695_">
	<g id="SkullCar_Free">
		<g id="Basic_DarkRed">
			<g>
				<g id="Layer_2-2">
					<g id="Premium">
						<g id="premium-water">
							<path class="st0" d="M232.2,37.7h34.9c27.3,0.1,49.3,15.7,49.2,45.4v19.4c3.5,0,6.3,3.1,6.3,6.9s-2.8,6.9-6.3,6.9l-225-0.8
								L19,102.8c-3.4-0.2-6.1-3.1-6-6.5c0-3.7,2.7-6.6,6-6.6V46.9c0-8.6,6.5-15.5,14.3-15.5h2.2c32.9,0.2,56.1-8.1,84.9-23.8
								l6.2-3.4c3.5-1.8,7.4-3,11.3-3.5c6.4-0.6,50.7,1.6,50.7,1.6s14-2,21.5,11.1s22.7,25,22.7,25"/>
							<g id="Layer_4">
								<g>
									<g>
										<defs>
											<path id="SVGID_1_" d="M19.1,54.9l6.1,0.6l7.9-1.3l7.4-2.6L53,47.7l8.5-3.3l9-1.1l10.9,4.4l11.1,2.2l15.5,1.5l15.1,0.9
												l19.9,2l16.6-1.1l9.8-1.3l7.9-0.2l12.9-1.3l7.6,1.3l12.3,4.8l4.4,3.7l3.1,2.8l1.5,4.8l3.1,3.3l1.7,3l-2.4,4.6l-2.2,1.5
												l-0.5,2.6l-3.9,1.5l-3.7-2.4l-2.6-2l-4.6-0.2l-0.7,1.7l3.1,2.8l6.4,2.4l4.4,3.5l4.4,2.8l4.6,1.5h8.5l3.1-2.2l2.4,0.4
												l1.1,2.8l-2.4,3.5l-4.2,3.1c0,0-5.9,2.6-6.6,2.6c-0.7,0-5.9-1.5-5.9-1.5l-5.5-1.7L206.5,98l-7-2.8l-9.9-3.9l2,5.7
												l3.3,6.8l2.4,7l-13.8,2.4l-6.1-7.2l-5.9-7.2l-4-3.9l-5.2-2.8l-4.2-1.5l-7.1,1.3l-6.6-0.2l-5-1.5l-7.6,0.7L123,91
												l-8.1-2.6l-7.2-2.9l-8.5-1.3L89.5,84l-5.7,1.7l-5.5,2.6l-8.1,3l-10.7,3.3l-8.1,3.1l-3.7,3.3l-3.3,4.2L34,104.8l3.5-3.1
												l3.7-5.9l3.1-5l3.3-2.4l4.4-2.4l1.7-2.2l-6.6-0.9l-3.9,0.9l-7,4.6l-5,2.8l-3.5-0.5l-1.3-2.4l3.3-2.6l3.5-2.8l3.5-3.1
												l3.1-2.6l4.2-2.2l5-2.2l4.8,1.3l4-1.3l2.8-2l1.3-4l2.6-3.3l3.3-3.3l1.7-1.5l1.7-3.5V53l-4.8-0.4L54.9,53l-10.5,4.4
												l-10.7,3.3l-9,0.4l-5.7-1V54.9z"/>
										</defs>
										<clipPath id="SVGID_00000011023431298972907620000003146633577421641640_">
											<use xlink:href="#SVGID_1_"  style="overflow:visible;"/>
										</clipPath>
										<g style="clip-path:url(#SVGID_00000011023431298972907620000003146633577421641640_);">
											<path class="st2" d="M183.5,113.1l-6.1-7.2l-5.9-7.2l-4-3.9l-5.2-2.8l-4.2-1.5l-7.1,1.3l-6.6-0.2l-5-1.5l-7.6,0.7L123,91
												l-8.1-2.6l-7.2-2.9l-8.5-1.3L89.5,84l-5.7,1.7l-5.5,2.6l-8.1,3l-10.7,3.3l-8.1,3.1l-3.7,3.3l-3.3,4.2l-4.4,5.9l-3.5,3.3
												l-2.8,2.8l-3.7-2.8v-7.2l3.9-2.4l3.5-3.1l3.7-5.9l3.1-5l3.3-2.4l4.4-2.4l1.7-2.2l-6.6-0.9l-3.9,0.9l-7,4.6l-5,2.8
												l-3.5-0.5l-1.3-2.4l3.3-2.6l3.5-2.8l3.5-3.1l3.1-2.6l4.2-2.2l5-2.2l4.8,1.3l4-1.3l2.8-2l1.3-4l2.6-3.3l3.3-3.3l1.7-1.5
												l1.7-3.5V53l-4.8-0.4L54.9,53l-10.5,4.4l-10.7,3.3l-9,0.4l-7.2-1.3L13,56l-0.9-4.4l1.7-8.3l2,2.4v5.7l3.3,3.5l6.1,0.6
												l7.9-1.3l7.4-2.6L53,47.7l8.5-3.3l9-1.1l10.9,4.4l11.1,2.2l15.5,1.5l15.1,0.9l19.9,2l16.6-1.1l9.8-1.3l7.9-0.2l12.9-1.3
												l7.6,1.3l12.3,4.8l4.4,3.7l3.1,2.8l1.5,4.8l3.1,3.3l1.7,3l-2.4,4.6l-2.2,1.5l-0.5,2.6l-3.9,1.5l-3.7-2.4l-2.6-2l-4.6-0.2
												l-0.7,1.7l3.1,2.8l6.4,2.4l4.4,3.5l4.4,2.8l4.6,1.5h8.5l3.1-2.2l2.4,0.4l1.1,2.8l-2.4,3.5l-4.2,3.1c0,0-5.9,2.6-6.6,2.6
												c-0.7,0-5.9-1.5-5.9-1.5l-5.5-1.7L206.5,98l-7-2.8l-9.9-3.9l2,5.7l3.3,6.8l2.4,7L183.5,113.1z"/>
											<g>
												<polygon class="st3" points="44.7,111.2 46,108.3 34.8,99 												"/>
												<polygon class="st3" points="46,86.8 56.9,99 50.4,86.8 												"/>
												<polygon class="st3" points="42.7,86.8 36.4,74.8 40.4,88.8 												"/>
												<polygon class="st3" points="63.5,54.4 65.5,45.8 53.3,57 												"/>
												<polygon class="st3" points="42.7,60.1 39.5,45.8 40.4,61.6 												"/>
												<polygon class="st3" points="27.5,59.1 28.8,50.6 26.2,50.6 												"/>
												<polygon class="st3" points="15,54.8 20.6,52.7 18.6,50.6 												"/>
												<polygon class="st3" points="88.3,36.3 77.1,76.8 95.6,45.8 												"/>
												<polygon class="st3" points="68.4,99 78.4,88.4 68.4,69.3 												"/>
												<polygon class="st3" points="89.9,88.8 95.6,86.8 101.2,63.9 99.2,61.6 												"/>
												<path class="st3" d="M125.3,45.8c0,0,3.6,14.6,0,18.1c0,0-7.2,6.2-5.6,12.9c0,0,5.3-8.3,10.6-9.5c0,0,5-13.8,0-21.4
													H125.3z"/>
												<path class="st3" d="M140.8,75.2l-3.3,19.9l5.6,1.3l2.6-16.9c2.3-0.9,2.9-12.4,3-15C148.3,68.2,140.8,75.2,140.8,75.2z"
													/>
												<path class="st3" d="M148.7,63.9v0.6C148.7,64.3,148.7,64.1,148.7,63.9z"/>
												<polygon class="st3" points="162.9,49.2 160.9,70.5 168.5,49.2 												"/>
												<path class="st3" d="M164.7,97.7l5.8,4.3c5-7.6,2.3-25.2,2.3-25.2C172.8,83.3,164.7,97.7,164.7,97.7z"/>
												<polygon class="st3" points="194.3,96.4 198.9,99 194.3,81.8 												"/>
												<polygon class="st3" points="204.5,92.9 210.4,84.2 208.5,81.8 												"/>
												<polygon class="st3" points="222.1,89.4 218.7,107.9 224,90.4 												"/>
												<polygon class="st3" points="174.8,111.2 180.4,115.2 202,105.1 												"/>
												<path class="st3" d="M194.3,45.8H187l-1.3,28.3c0,0,6.6-10.8,6.6-15.1L194.3,45.8z"/>
											</g>
											<path class="st4" d="M166.6,94.2c0,0-3.6-7.9-8.7-9.9c0,0-21.2-5.9-33.2-5c0,0-25.7,0-35.2,4.7l32.4,8.9L166.6,94.2z"/>
											<path class="st4" d="M208.7,80.1c0,0-5.9-6-12.6-5.9c0,0-16.6,0.1-20.1,2.6c0,0-0.8,4.1,6.2,6.7c0,0,5.8,3,7.4,7.8
												C189.6,91.2,196.7,82.1,208.7,80.1z"/>
										</g>
									</g>
									<path class="st4" d="M206.4,61.6l-0.6-0.1l-2.8-1c-0.4-0.1-0.7-0.4-0.8-0.7c-0.2-0.3-0.2-0.7-0.1-1.1l2.3-6.9
										c0.3-0.8,1-1.3,1.8-1.2c0.1,0,0.3,0,0.4,0.1c2.9,1,4.4,4.1,3.4,6.9c0,0,0,0,0,0l-0.7,2.2C209,61,207.7,61.8,206.4,61.6z"/>
									<path class="st3" d="M206.3,51.9l1.7,0.6c1.7,0.6,2.7,2.5,2.1,4.2l-1.4,4.1c-0.3,0.8-1.1,1.2-1.9,0.9l-3.6-1.2
										c-0.3-0.1-0.4-0.4-0.3-0.7l2.5-7.5C205.5,52,205.9,51.8,206.3,51.9L206.3,51.9L206.3,51.9z"/>
									<path class="st4" d="M215.8,68.4l-1.1-4.5c-0.1-0.4-0.3-0.7-0.7-0.9l-1.8-0.9c-0.6-0.3-1.4-0.1-1.7,0.5l-1,1.7
										c-0.3,0.5-0.2,1.1,0.1,1.5l3.2,3.8c0.3,0.4,0.8,0.5,1.2,0.5l0.8-0.1c0.7-0.1,1.2-0.8,1.1-1.5
										C215.9,68.5,215.8,68.5,215.8,68.4z"/>
									<path class="st3" d="M212.5,64.1c1,1,3.5,3.6,3.9,5.2c0.1,0.2,0,0.5-0.2,0.6c-0.5,0.3-1.6,0.8-2.6,0.6
										c-0.1,0-0.2-0.1-0.3-0.2c-0.5-0.6-2.1-2.9-2.1-3.8c0,0,0-1.5,0.5-2.3C211.9,63.9,212.2,63.8,212.5,64.1
										C212.5,64,212.5,64,212.5,64.1z"/>
									<path class="st3" d="M224,74.1l-3.3-1.3c-0.2-0.1-0.4,0-0.5,0.2c0,0.1,0,0.3,0,0.4l2.4,3.3L224,74.1z"/>
									<ellipse transform="matrix(0.866 -0.5 0.5 0.866 -5.6663 116.9434)" class="st5" cx="215.4" cy="69" rx="1" ry="1.2"/>
								</g>
							</g>
							<path class="st6" d="M316.2,102.6c3.5,0,6.3,3.1,6.3,6.9s-2.8,6.9-6.3,6.9l-225-0.8L19,102.8c-3.4-0.2-6.1-3.1-6-6.5
								c0-3.7,2.7-6.6,6-6.6l-0.2-31.1l13.3,13.9l-0.7,17.3v4.1l58,9.9L316.2,102.6z"/>
							<g class="st7">
								<path d="M316.3,86.7c0,0-18.2-45.3-84.8-25.5L18.9,46.9c0-8.6,6.5-15.5,14.3-15.5l43.2,0.2c8.9,0.1,141.8,18.5,141.8,18.5
									l14-12.4h34.9C267.1,37.7,316.3,36.1,316.3,86.7z"/>
							</g>
							
								<ellipse transform="matrix(0.9954 -9.583629e-02 9.583629e-02 0.9954 -8.2455 26.3091)" class="st8" cx="269.8" cy="99" rx="33.7" ry="33.5"/>
							
								<ellipse transform="matrix(0.9954 -9.585521e-02 9.585521e-02 0.9954 -8.2469 26.3143)" class="st6" cx="269.8" cy="99" rx="32.8" ry="32.6"/>
							
								<ellipse transform="matrix(0.9954 -9.583630e-02 9.583630e-02 0.9954 -8.2455 26.3091)" cx="269.8" cy="99" rx="24.7" ry="24.5"/>
							
								<ellipse transform="matrix(0.9954 -9.584575e-02 9.584575e-02 0.9954 -8.2462 26.3117)" class="st9" cx="269.8" cy="99" rx="23.5" ry="23.3"/>
							
								<ellipse transform="matrix(0.9954 -9.585520e-02 9.585520e-02 0.9954 -8.2469 26.3143)" class="st10" cx="269.8" cy="99" rx="22.3" ry="22.1"/>
							
								<ellipse transform="matrix(6.483664e-02 -0.9979 0.9979 6.483664e-02 153.4901 361.7739)" class="st11" cx="269.8" cy="99" rx="13.8" ry="13.8"/>
							
								<ellipse transform="matrix(0.995 -9.950357e-02 9.950357e-02 0.995 -8.4423 27.4935)" class="st12" cx="271.4" cy="98.4" rx="12.7" ry="12.7"/>
							<g>
								<defs>
									<path id="SVGID_00000182495263897449147140000011611689055201568142_" d="M204.9,48.7c-18.2-36.7-27.7-35.4-27.7-35.4
										s-24.1-0.8-31.7-0.1s-10.2,5.5-10.2,5.5l-7.6,11.7c0,0-5.1,6.9,7.5,8.3C145.4,39.9,204.9,48.7,204.9,48.7z"/>
								</defs>
								<clipPath id="SVGID_00000089531812328468733520000012398236699475709569_">
									<use xlink:href="#SVGID_00000182495263897449147140000011611689055201568142_"  style="overflow:visible;"/>
								</clipPath>
								<g style="clip-path:url(#SVGID_00000089531812328468733520000012398236699475709569_);">
									<path class="st14" d="M203.8,12h-81.2v36.7h82.3V12H203.8z"/>
								</g>
							</g>
							<g>
								<defs>
									<path id="SVGID_00000144305945508836885180000004250078435622781061_" d="M210.1,13.4l22.7,24.3l-12.7,11.7l-20.8-29.1
										c0,0-3.8-4.2,0-6.2L210.1,13.4z"/>
								</defs>
								<clipPath id="SVGID_00000109025216212340111320000007189376606511184015_">
									<use xlink:href="#SVGID_00000144305945508836885180000004250078435622781061_"  style="overflow:visible;"/>
								</clipPath>
								<g style="clip-path:url(#SVGID_00000109025216212340111320000007189376606511184015_);">
									<path class="st16" d="M232,13.4h-36.5v36h37.3v-36L232,13.4z"/>
								</g>
							</g>
						</g>
					</g>
				</g>
			</g>
			
				<ellipse transform="matrix(0.9954 -9.584812e-02 9.584812e-02 0.9954 -9.1442 8.0138)" class="st8" cx="78.8" cy="99.2" rx="33.7" ry="33.5"/>
			
				<ellipse transform="matrix(0.9954 -9.584338e-02 9.584338e-02 0.9954 -9.1438 8.0134)" class="st6" cx="78.8" cy="99.2" rx="32.8" ry="32.6"/>
			
				<ellipse transform="matrix(0.9954 -9.584811e-02 9.584811e-02 0.9954 -9.1442 8.0138)" cx="78.8" cy="99.2" rx="24.7" ry="24.5"/>
			
				<ellipse transform="matrix(0.9954 -9.584575e-02 9.584575e-02 0.9954 -9.144 8.0136)" class="st9" cx="78.8" cy="99.2" rx="23.5" ry="23.3"/>
			
				<ellipse transform="matrix(0.9954 -9.584339e-02 9.584339e-02 0.9954 -9.1438 8.0134)" class="st10" cx="78.8" cy="99.2" rx="22.3" ry="22.1"/>
			<ellipse class="st11" cx="79.6" cy="99.3" rx="13.9" ry="13.9"/>
			<ellipse class="st12" cx="78.8" cy="99.2" rx="12.6" ry="12.6"/>
		</g>
	</g>
</g>
</svg>
