<?xml version="1.0" encoding="utf-8"?>
<!-- Generator: Adobe Illustrator 25.4.0, SVG Export Plug-In . SVG Version: 6.00 Build 0)  -->
<svg version="1.1" id="Layer_1" xmlns="http://www.w3.org/2000/svg" xmlns:xlink="http://www.w3.org/1999/xlink" x="0px" y="0px"
	 viewBox="0 0 322.5 132.7" style="enable-background:new 0 0 322.5 132.7;" xml:space="preserve">
<style type="text/css">
	.st0{fill:#FF7900;}
	.st1{clip-path:url(#SVGID_00000057845091820711830950000006579080431459905968_);}
	.st2{fill:#FFD983;}
	.st3{fill:#FECA4C;}
	.st4{fill:#F08F20;}
	.st5{fill:#65471B;}
	.st6{fill:#66481B;}
	.st7{fill:#474757;}
	.st8{opacity:0.13;}
	.st9{fill:#32323F;}
	.st10{fill:#FFFFFF;}
	.st11{fill:#DDDDDD;}
	.st12{fill:#BAC0D8;}
	.st13{fill:#ACAFBC;}
	.st14{clip-path:url(#SVGID_00000101783583371504582640000008631729341469553564_);}
	.st15{fill:#AAFFF9;}
	.st16{clip-path:url(#SVGID_00000023283308089325433090000009180646683175969447_);}
	.st17{fill:#ABFEF9;}
</style>
<g id="Basic_DarkRed">
	<g id="premium-water">
		<path class="st0" d="M232.2,37.7h34.9c27.3,0.1,49.3,15.7,49.2,45.4v19.4c3.5,0,6.3,3.1,6.3,6.9s-2.8,6.9-6.3,6.9l-225-0.8
			L19,102.8c-3.4-0.2-6.1-3.1-6-6.5c0-3.7,2.7-6.6,6-6.6V46.9c0-8.6,6.5-15.5,14.3-15.5h2.2c32.9,0.2,56.1-8.1,84.9-23.8l6.2-3.4
			c3.5-1.8,7.4-3,11.3-3.5c6.4-0.6,50.7,1.6,50.7,1.6s14-2,21.5,11.1s22.7,25,22.7,25"/>
		<g>
			<defs>
				<path id="SVGID_1_" d="M232.2,37.7h34.9c27.3,0.1,49.3,15.7,49.2,45.4v19.4c3.5,0,6.3,3.1,6.3,6.9s-2.8,6.9-6.3,6.9l-225-0.8
					L19,102.8c-3.4-0.2-6.1-3.1-6-6.5c0-3.7,2.7-6.6,6-6.6V46.9c0-8.6,6.5-15.5,14.3-15.5h2.2c32.9,0.2,56.1-8.1,84.9-23.8l6.2-3.4
					c3.5-1.8,7.4-3,11.3-3.5c6.4-0.6,50.7,1.6,50.7,1.6s14-2,21.5,11.1s22.7,25,22.7,25"/>
			</defs>
			<clipPath id="SVGID_00000002368315585514388430000005147032611242042269_">
				<use xlink:href="#SVGID_1_"  style="overflow:visible;"/>
			</clipPath>
			<g style="clip-path:url(#SVGID_00000002368315585514388430000005147032611242042269_);">
				<polygon class="st2" points="161.2,-10.8 133.7,-9.2 129.8,53.5 132.1,54.5 				"/>
				<path class="st2" d="M99.1,0.6L78.8,16.1l42.5,38.4L124,54C121.6,54.5,99.1,0.6,99.1,0.6z"/>
				<polygon class="st2" points="108,60.7 54.1,17.3 33.2,31.4 106,63.6 				"/>
				<polygon class="st2" points="108,66.6 11.1,72.8 15.9,94.5 107,70.4 				"/>
				<polygon class="st2" points="112.5,69.6 92.2,118.3 118,121.1 115.2,69.6 				"/>
				<polygon class="st2" points="124,69.6 145.5,125.9 171.5,121.3 130.3,71.1 				"/>
				<polygon class="st2" points="134.3,65.5 219.1,125.5 245.6,120.6 138.3,63.5 				"/>
				<polygon class="st2" points="138.8,57.3 308.4,41.4 300.7,23.6 138.5,53.6 				"/>
				<polygon class="st2" points="140.3,58.6 138.6,61.9 330,102.5 333.6,84.2 				"/>
				<polygon class="st2" points="141.4,52.3 239,-2 197.6,-16.8 140.8,49.4 				"/>
			</g>
			<g style="clip-path:url(#SVGID_00000002368315585514388430000005147032611242042269_);">
				<g>
					<path class="st3" d="M100.1,95c-10.6-9.7-11.9-27.8-2.9-40.1c8.2-11.3,23-15.7,36-10.8c13.3,4.9,21.4,17.9,20.2,32.4
						c-1.1,13.3-11.6,24.8-25,27.5c-0.6,0.1-1.2,0.1-1.9,0.2c-0.5,0.2-1.1,0.1-1.7,0.1c-2,0-2.9-1.3-2-3.2c0.6-1.1,0.8-2.2,0.4-3.4
						c-0.2-0.7-0.1-1.4,0.2-2c0.4-0.9,0.5-1.7,0.1-2.6c-0.6-1.7,0.2-2.5,1.7-3c2-0.6,4.1-0.9,6.1-1.5c1.3-0.4,3.2-0.4,2.7-2.4
						c-0.5-1.9-2.2-1-3.4-0.8c-5,1.1-9.9,2.2-14.9,3.4c-0.5,0.1-1.1,0.2-1.6,0.3c-2.1,0.2-2.9-0.9-1.9-2.8c1.5-2.7,1.1-5.2,0-7.8
						c-0.2-0.6-0.5-1.2-1-1.6c-0.7-0.6-1.5-1.3-2.4-0.8c-0.9,0.5-0.5,1.3-0.4,2.1c0.5,3.7-0.1,7-3.4,9.5c-1.8,1.4-3.2,3.3-3.8,5.7
						C101.1,94.1,100.8,94.7,100.1,95z"/>
					<path class="st4" d="M100.1,95c0.3-3.5,2.1-6.3,4.8-8.3c2.9-2.2,3.2-5,2.7-8.2c-0.2-1.2-0.8-2.6,0.6-3.4
						c1.5-0.8,2.7,0.2,3.7,1.1c1.9,1.8,3.5,7.4,1.1,10.5c-0.3,0.4-0.9,0.9-0.5,1.4c0.4,0.5,1,0.2,1.6,0.1c5.8-1.3,11.6-2.7,17.3-4
						c2.2-0.5,3.5,0.1,3.8,1.7c0.4,2-0.9,2.8-2.5,3.2c-2.4,0.6-4.7,1.2-7.1,1.7c-1.3,0.3-1.5,0.4-1.2,2.1c0.5,2.5-0.1,5.3-0.5,8
						c-0.1,0.7-0.1,0.8,0.4,1.9c0.6,1.1,0.2,0.4,1.3,1.2c0.2,0.2,0.6,0.1,0.8,0.1c-3.7,1.1-5.6,2.5-8.8,3.3
						C107.3,110.2,100.4,103.8,100.1,95z"/>
					<path class="st5" d="M135.9,60.1c2,2.1,2.5,4.2,1.6,6.6c-0.6,1.6-1.7,2.7-3.6,2.7c-1.9,0-2.9-1.3-3.4-2.9c-0.7-2-0.2-4,0.9-5.7
						c-0.5-0.4-0.9-0.1-1.3,0c-1.1,0.2-2-0.1-2.2-1.3c-0.2-1.2,0.7-1.6,1.6-1.9c4.4-1.3,8.7-1.1,12.8,0.8c1,0.5,2,1.1,1.4,2.4
						c-0.6,1.3-1.6,0.9-2.7,0.4C139.6,60.6,138,60,135.9,60.1z"/>
					<path class="st6" d="M117.3,62.5c0,2.6-1.7,4.9-3.8,4.9c-2.1,0-3.9-2.2-4-4.8c0-2.6,1.7-4.8,3.8-4.9
						C115.5,57.7,117.2,59.8,117.3,62.5z"/>
					<path class="st6" d="M120.8,77.5c3.3,0,6.3,0.9,9.1,2.7c1,0.6,1.8,1.4,1,2.6c-0.7,1.1-1.7,0.6-2.6,0.1
						c-3.2-1.9-6.6-2.6-10.3-1.9c-1.2,0.2-2.4,0.2-2.6-1.3c-0.2-1.6,1.1-1.7,2.2-1.9C118.7,77.6,119.7,77.6,120.8,77.5z"/>
					<path class="st6" d="M113.5,49.5c2.3,0,4.4,0.4,6.5,1.2c1,0.4,1.8,1,1.4,2.2c-0.4,1.3-1.5,1.1-2.4,0.7c-3.5-1.4-7.1-1.3-10.6,0
						c-1.1,0.4-2.3,0.6-2.8-0.8c-0.4-1.4,0.7-1.8,1.7-2.2C109.4,49.9,111.4,49.4,113.5,49.5z"/>
				</g>
			</g>
		</g>
		<path class="st7" d="M316.2,102.6c3.5,0,6.3,3.1,6.3,6.9s-2.8,6.9-6.3,6.9l-225-0.8L19,102.8c-3.4-0.2-6.1-3.1-6-6.5
			c0-3.7,2.7-6.6,6-6.6l-0.2-31.1l13.3,13.9l-0.7,17.3v4.1l58,9.9L316.2,102.6z"/>
		<g class="st8">
			<path d="M316.3,86.7c0,0-18.2-45.3-84.8-25.5L18.9,46.9c0-8.6,6.5-15.5,14.3-15.5l43.2,0.2c8.9,0.1,141.8,18.5,141.8,18.5
				l14-12.4h34.9C267.1,37.7,316.3,36.1,316.3,86.7z"/>
		</g>
		
			<ellipse transform="matrix(0.9954 -9.579787e-02 9.579787e-02 0.9954 -8.2431 26.3016)" class="st9" cx="269.8" cy="99" rx="33.7" ry="33.5"/>
		
			<ellipse transform="matrix(0.9954 -9.589078e-02 9.589078e-02 0.9954 -8.25 26.3277)" class="st7" cx="269.8" cy="99" rx="32.8" ry="32.6"/>
		<ellipse transform="matrix(0.9954 -9.579792e-02 9.579792e-02 0.9954 -8.2431 26.3016)" cx="269.8" cy="99" rx="24.7" ry="24.5"/>
		
			<ellipse transform="matrix(0.9954 -9.584432e-02 9.584432e-02 0.9954 -8.2466 26.3147)" class="st10" cx="269.8" cy="99" rx="23.5" ry="23.3"/>
		
			<ellipse transform="matrix(0.9954 -9.589070e-02 9.589070e-02 0.9954 -8.25 26.3277)" class="st11" cx="269.8" cy="99" rx="22.3" ry="22.1"/>
		
			<ellipse transform="matrix(0.6505 -0.7595 0.7595 0.6505 19.1855 239.4203)" class="st12" cx="269.8" cy="98.9" rx="13.8" ry="13.8"/>
		
			<ellipse transform="matrix(0.995 -9.951798e-02 9.951798e-02 0.995 -8.5125 27.3405)" class="st13" cx="269.8" cy="99" rx="12.7" ry="12.7"/>
		<g>
			<g>
				<g>
					<g>
						<g>
							<defs>
								<path id="SVGID_00000075128493737082034270000000367535871873502134_" d="M204.9,48.7c-18.2-36.7-27.7-35.4-27.7-35.4
									s-24.1-0.8-31.7-0.1s-10.2,5.5-10.2,5.5l-7.6,11.7c0,0-5.1,6.9,7.5,8.3C145.4,39.9,204.9,48.7,204.9,48.7z"/>
							</defs>
							<clipPath id="SVGID_00000005976465355403084200000000906746316087772089_">
								<use xlink:href="#SVGID_00000075128493737082034270000000367535871873502134_"  style="overflow:visible;"/>
							</clipPath>
							<g style="clip-path:url(#SVGID_00000005976465355403084200000000906746316087772089_);">
								<path class="st15" d="M203.8,12h-81.2v36.7h82.3V12H203.8z"/>
							</g>
						</g>
					</g>
				</g>
			</g>
		</g>
		<g>
			<g>
				<g>
					<g>
						<g>
							<defs>
								<path id="SVGID_00000151531875663644711520000012606325700919053186_" d="M210.1,13.4l22.7,24.3l-12.7,11.7l-20.8-29.1
									c0,0-3.8-4.2,0-6.2L210.1,13.4z"/>
							</defs>
							<clipPath id="SVGID_00000073687181382390125680000017843202204898741429_">
								<use xlink:href="#SVGID_00000151531875663644711520000012606325700919053186_"  style="overflow:visible;"/>
							</clipPath>
							<g style="clip-path:url(#SVGID_00000073687181382390125680000017843202204898741429_);">
								<path class="st17" d="M232,13.4h-36.5v36h37.3v-36L232,13.4z"/>
							</g>
						</g>
					</g>
				</g>
			</g>
		</g>
	</g>
	
		<ellipse transform="matrix(0.9954 -9.585594e-02 9.585594e-02 0.9954 -9.1461 8.0103)" class="st9" cx="78.8" cy="99.2" rx="33.7" ry="33.5"/>
	
		<ellipse transform="matrix(0.9954 -9.583271e-02 9.583271e-02 0.9954 -9.1439 8.0082)" class="st7" cx="78.8" cy="99.2" rx="32.8" ry="32.6"/>
	<ellipse transform="matrix(0.9954 -9.585591e-02 9.585591e-02 0.9954 -9.1461 8.0103)" cx="78.8" cy="99.2" rx="24.7" ry="24.5"/>
	
		<ellipse transform="matrix(0.9954 -9.584432e-02 9.584432e-02 0.9954 -9.145 8.0092)" class="st10" cx="78.8" cy="99.2" rx="23.5" ry="23.3"/>
	
		<ellipse transform="matrix(0.9954 -9.583273e-02 9.583273e-02 0.9954 -9.1439 8.0082)" class="st11" cx="78.8" cy="99.2" rx="22.3" ry="22.1"/>
	<ellipse class="st12" cx="79.6" cy="99.3" rx="13.9" ry="13.9"/>
	<ellipse class="st13" cx="79.6" cy="99.3" rx="12.6" ry="12.6"/>
</g>
</svg>
