<?xml version="1.0" encoding="utf-8"?>
<!-- Generator: Adobe Illustrator 27.0.1, SVG Export Plug-In . SVG Version: 6.00 Build 0)  -->
<svg version="1.1" id="Layer_1" xmlns="http://www.w3.org/2000/svg" xmlns:xlink="http://www.w3.org/1999/xlink" x="0px" y="0px"
	 viewBox="0 0 318.7 135.7" style="enable-background:new 0 0 318.7 135.7;" xml:space="preserve">
<style type="text/css">
	.st0{fill:#413451;}
	.st1{display:none;clip-path:url(#SVGID_00000101800726787398950290000016834778725981070527_);}
	.st2{display:inline;fill:#2C2924;}
	.st3{display:inline;}
	.st4{clip-path:url(#SVGID_00000180360661174110646070000001779433987447319979_);fill:#7C6B51;}
	.st5{display:inline;fill:#151515;}
	.st6{display:inline;opacity:0.64;fill:#151515;enable-background:new    ;}
	.st7{display:inline;fill:#7C6B51;}
	.st8{display:inline;fill:#121210;}
	.st9{display:inline;fill:#FFFFFF;}
	.st10{display:inline;fill:#384CA0;}
	.st11{clip-path:url(#SVGID_00000101800726787398950290000016834778725981070527_);}
	.st12{fill:#2A2A29;}
	.st13{fill:#F4F4F4;}
	.st14{fill:#20201F;}
	.st15{fill:#FCCB19;}
	.st16{fill:#FCCB1A;}
	.st17{fill:#6A6766;}
	.st18{fill:#68604C;}
	.st19{fill:#F2F2F3;}
	.st20{fill:#C6C4C4;}
	.st21{fill:#C4C2C1;}
	.st22{fill:#817F7E;}
	.st23{fill:#ACAAA9;}
	.st24{fill:#646261;}
	.st25{fill:#AAA7A7;}
	.st26{fill:#E1E0E0;}
	.st27{fill:#B5B3B3;}
	.st28{fill:#9C9998;}
	.st29{fill:#2CB34A;}
	.st30{fill:#474757;}
	.st31{opacity:0.13;}
	.st32{fill:#32323F;}
	.st33{fill:#FFFFFF;}
	.st34{fill:#DDDDDD;}
	.st35{fill:#BAC0D7;}
	.st36{fill:#ADB0BC;}
	.st37{clip-path:url(#SVGID_00000119087434512834853880000002984790846788042399_);}
	.st38{fill:#B6E2E7;}
	.st39{clip-path:url(#SVGID_00000070841077559717349430000009494376583875104912_);}
	.st40{fill:#B7E2E8;}
</style>
<g id="Layer_2_00000100359504156409024890000012030712121540968348_">
	<g id="PumpkinCar_Free">
		<g id="Basic_DarkRed">
			<g id="Layer_2-2">
				<g id="Premium">
					<g id="premium-water">
						<path class="st0" d="M224.1,40.7H259c27.3,0.1,49.3,15.7,49.2,45.4v19.5c3.5,0,6.3,3.1,6.3,6.9s-2.8,6.9-6.3,6.9l-225-0.8
							l-72.3-12.8c-3.3,0-6-2.9-6-6.6c-0.1-3.4,2.6-6.3,6-6.5V49.9c0.1-8.6,6.5-15.5,14.3-15.5h2.2c32.9,0.1,56.1-8.1,84.9-23.9
							l6.2-3.4c3.6-1.8,7.4-2.9,11.3-3.4c6.4-0.6,50.7,1.6,50.7,1.6s14-2,21.5,11.1s22.7,25,22.7,25"/>
						<g>
							<defs>
								<path id="SVGID_1_" d="M224.1,40.7H259c27.3,0.1,49.3,15.7,49.2,45.4v19.5c3.5,0,6.3,3.1,6.3,6.9s-2.8,6.9-6.3,6.9l-225-0.8
									l-72.3-12.8c-3.3,0-6-2.9-6-6.6c-0.1-3.4,2.6-6.3,6-6.5V49.9c0.1-8.6,6.5-15.5,14.3-15.5h2.2c32.9,0.1,56.1-8.1,84.9-23.9
									l6.2-3.4c3.6-1.8,7.4-2.9,11.3-3.4c6.4-0.6,50.7,1.6,50.7,1.6s14-2,21.5,11.1s22.7,25,22.7,25"/>
							</defs>
							<clipPath id="SVGID_00000067948415430550165490000016837107598278478012_">
								<use xlink:href="#SVGID_1_"  style="overflow:visible;"/>
							</clipPath>
							<g id="Layer_5" style="display:none;clip-path:url(#SVGID_00000067948415430550165490000016837107598278478012_);">
								<path class="st2" d="M195.6,67.2c-4.2-0.5-8.6-5.2-8.6-5.2c-0.9-2.5-6.8-6.7-6.8-6.7c-19.7-12.1-37,3.5-37,3.5l-6.4,5.7
									c-2.3,1.4-4.6,2.5-4.6,2.5c-0.9,0-2.7,0.9-2.7,0.9c-3.1-0.2-5.2,1.1-5.2,1.1c-2.9-0.5-9.2,2-9.2,2
									c-1.3,0.4-11.3-0.7-11.3-0.7c-4,0.4-17.5-4.1-17.5-4.1c-29-5.3-43.1,0-43.1,0c-12.4,2.3-28.7,10.9-28.7,10.9
									c-0.8,0.6-13.4,6-13.4,6c-8.4,1.5-27.5,9.7-27.5,9.7c-1,0.7-9,2.6-9,2.6c-3.8,0.5-12.7,3.2-12.7,3.2
									c-1,0.3-11.5,1.2-11.5,1.2c-3.7-0.1-2.2,2.4-2.2,2.4c-1.2,0.6-0.6,1.3-0.6,1.3c-1.8,2.2,1.2,3.5,1.2,3.5
									c-2,1.6-1.3,3.4-1.3,3.4c-2.3,1.3-1.5,2.8-1.5,2.8c-1.1,0.9-0.9,1.8-0.9,1.8c-2.6,0.7-2.9,2.4-2.9,2.4l-1.9,0.9
									c-2,2.5,1.4,3.9,1.4,3.9c7.4-0.3,33.1-16.3,33.1-16.3c0.5-0.9,11.5-4.1,11.5-4.1c-0.1,0.8,11.6,1.9,11.6,1.9
									c3.2-0.1,18.4,6.5,18.4,6.5c28.4,14.5,71.4,5.5,71.4,5.5c2.6,0.1,24.3-2.4,24.3-2.4c3.3-0.9,6.4,0.1,6.4,0.1
									c0.1,1.4-3.2,4.7-3.2,4.7c-0.6,0.3-6.3,7.3-6.3,7.3c-1.8,2.8,1.6,3.1,1.6,3.1c-0.4,2.6,2.8,2.2,2.8,2.2
									c-0.5,2.4,2.9,3.3,2.9,3.3c0.9,1.8,4.8,0.8,4.8,0.8c1,1.6,5.1,0.4,5.1,0.4c6.4-3.5,6.8-18.4,6.8-18.4
									c0.2-1.9,4.2-3.9,4.2-3.9c3.4,0,9.5-3.7,9.5-3.7c1.9,0.1,2.8-1.7,2.8-1.7c4-0.8,23.8-17.9,30.5-23.8
									c3.3-1.1,6.1-1.8,6.1-1.8c10.7-0.1,22-6,22-6C203.4,70.3,195.6,67.2,195.6,67.2z"/>
								<g class="st3">
									<g>
										<defs>
											<path id="SVGID_00000161623034020637171970000002683780198287043478_" d="M195.6,67.2c-4.2-0.5-8.6-5.2-8.6-5.2
												c-0.9-2.5-6.8-6.7-6.8-6.7c-19.7-12.1-37,3.5-37,3.5l-6.4,5.7c-2.3,1.4-4.6,2.5-4.6,2.5c-0.9,0-2.7,0.9-2.7,0.9
												c-3.1-0.2-5.2,1.1-5.2,1.1c-2.9-0.5-9.2,2-9.2,2c-1.3,0.4-11.3-0.7-11.3-0.7c-4,0.4-17.5-4.1-17.5-4.1
												c-29-5.3-43.1,0-43.1,0c-12.4,2.3-28.7,10.9-28.7,10.9c-0.8,0.6-13.4,6-13.4,6c-8.4,1.5-27.5,9.7-27.5,9.7
												c-1,0.7-9,2.6-9,2.6c-3.8,0.5-12.7,3.2-12.7,3.2c-1,0.3-11.5,1.2-11.5,1.2c-3.7-0.1-2.2,2.4-2.2,2.4
												c-1.2,0.6-0.6,1.3-0.6,1.3c-1.8,2.2,1.2,3.5,1.2,3.5c-2,1.6-1.3,3.4-1.3,3.4c-2.3,1.3-1.5,2.8-1.5,2.8
												c-1.1,0.9-0.9,1.8-0.9,1.8c-2.6,0.7-2.9,2.4-2.9,2.4l-1.9,0.9c-2,2.5,1.4,3.9,1.4,3.9c7.4-0.3,33.1-16.3,33.1-16.3
												c0.5-0.9,11.5-4.1,11.5-4.1c-0.1,0.8,11.6,1.9,11.6,1.9c3.2-0.1,18.4,6.5,18.4,6.5c28.4,14.5,71.4,5.5,71.4,5.5
												c2.6,0.1,24.3-2.4,24.3-2.4c3.3-0.9,6.4,0.1,6.4,0.1c0.1,1.4-3.2,4.7-3.2,4.7c-0.6,0.3-6.3,7.3-6.3,7.3
												c-1.8,2.8,1.6,3.1,1.6,3.1c-0.4,2.6,2.8,2.2,2.8,2.2c-0.5,2.4,2.9,3.3,2.9,3.3c0.9,1.8,4.8,0.8,4.8,0.8
												c1,1.6,5.1,0.4,5.1,0.4c6.4-3.5,6.8-18.4,6.8-18.4c0.2-1.9,4.2-3.9,4.2-3.9c3.4,0,9.5-3.7,9.5-3.7
												c1.9,0.1,2.8-1.7,2.8-1.7c4-0.8,23.8-17.9,30.5-23.8c3.3-1.1,6.1-1.8,6.1-1.8c10.7-0.1,22-6,22-6
												C203.4,70.3,195.6,67.2,195.6,67.2z"/>
										</defs>
										<clipPath id="SVGID_00000096758195473525062430000009708020108054050192_">
											<use xlink:href="#SVGID_00000161623034020637171970000002683780198287043478_"  style="overflow:visible;"/>
										</clipPath>
										<path style="clip-path:url(#SVGID_00000096758195473525062430000009708020108054050192_);fill:#7C6B51;" d="M-28.3,106.4
											L3.8,93.3c0,0,30.3,1,44.6-4.3c0,0,27.6-4.2,47.3,2.7c0,0,23.1-1.1,30-7.6c0,0,28.5-6.4,31.1-11.7c0,0,7.9-11.1,14-12.3
											c0,0,9.4-1.9,16.6-1.2l25.1,10.4c0,0-13.7,23-14.8,24c-1.1,1-34.5,23-38.3,24.5s-33.8-2.3-33.8-2.3l-2.9,1.4
											c0,0-5.6-8.1-14.4-3.4s-18,4.6-18,4.6s-54.3,11-61.1,11s-41-10.3-42.9-11C-15.4,117.4-28.3,106.4-28.3,106.4z"/>
									</g>
								</g>
								<path class="st5" d="M180.2,64.5c0,0,1.6-3.9,3.7-3.7c0,0,2.5,0.8,2.1,3.7c0,0-0.2,3.4-2.9,2.9
									C183.1,67.4,180.2,66.9,180.2,64.5z"/>
								<path class="st5" d="M196.2,68.2c0,0,3.2,1.6,3.3,2.7c0,0-0.1-2.5-1-3.4C198.5,67.5,196.7,67.6,196.2,68.2z"/>
								<ellipse class="st6" cx="196.2" cy="73.3" rx="0.4" ry="0.3"/>
								<ellipse class="st6" cx="196.9" cy="72.3" rx="0.4" ry="0.3"/>
								<ellipse class="st6" cx="195.8" cy="71.2" rx="0.4" ry="0.3"/>
								<ellipse class="st6" cx="195.4" cy="72.5" rx="0.4" ry="0.3"/>
								<ellipse class="st6" cx="198.1" cy="72" rx="0.4" ry="0.3"/>
								<ellipse class="st6" cx="197.5" cy="71" rx="0.4" ry="0.3"/>
								<ellipse class="st6" cx="197.7" cy="73.3" rx="0.4" ry="0.3"/>
								<path class="st7" d="M98.3,83.3c0,0,6.4-1.7,10.6-1.7C109,81.6,104,84.4,98.3,83.3z"/>
								<path class="st7" d="M93,88.1c0,0,6.4-1.7,10.6-1.7C103.7,86.4,98.7,89.2,93,88.1z"/>
								<path class="st7" d="M109,84.9c0,0,6.4-2.7,10.6-2.7C119.6,82.2,114.7,86.5,109,84.9z"/>
								<path class="st7" d="M80.6,84.3c0,0,6.4-2.7,10.6-2.7C91.2,81.6,86.3,85.9,80.6,84.3z"/>
								<path class="st7" d="M35,84.9c0,0,6.4-1.7,10.6-1.7C45.6,83.1,40.7,85.9,35,84.9z"/>
								<path class="st7" d="M57.3,84.5c0,0,6.4-1.7,10.6-1.7C68,82.7,63,85.5,57.3,84.5z"/>
								<path class="st7" d="M35,88.6c0,0,6.4-2.7,10.6-2.7C45.6,85.8,40.7,90.2,35,88.6z"/>
								<polygon class="st8" points="100.4,128.6 107.2,120 101,130.3 								"/>
								<polygon class="st8" points="106.1,134.1 110.7,125.9 107.2,135 								"/>
								<polygon class="st8" points="110.9,134.9 115.8,125.2 112.1,135.7 								"/>
								<path class="st9" d="M183.9,61.6c0,0,1.5,1.1,1.3,3.3C185.1,64.9,186.3,62.9,183.9,61.6z"/>
								<path class="st5" d="M196.7,76.6c0,0-9.2,7.4-15.8-2.9c0,0,3.8,4.9,8.5,4.6c0.4,0,0.9,0,1.3,0c1.4,0.1,4.5-0.9,7.9-3.1
									L196.7,76.6z"/>
								<path class="st10" d="M133.4,66.4c0,0,3.8-5.2,8-6c0,0,4.6,22.3,22.8,28.2c0,0-0.2,5.8-6.8,5.8
									C157.4,94.4,137.2,85.3,133.4,66.4z"/>
								<path class="st10" d="M142,81.6c0,0-10.9,10.7-21,11.1c0,0-13.8,1.9-17.1,9.1c0,0,2.2,8,5.6,7.6c0,0,10-9.1,15.2-9
									c0,0,18.8-3.6,22.4-12.4C147,88.1,147.1,82.6,142,81.6z"/>
							</g>
							<g id="Layer_4" style="clip-path:url(#SVGID_00000067948415430550165490000016837107598278478012_);">
								<g>
									<path class="st12" d="M10.9,82.9c0,0-12.8,7-20.1,3.5c0,0,2.1,3.7,3.9,3.7c0,0-3.2-0.3-3.8-0.6c0,0,2.8,2.1,4.4,2.4
										c0,0-1.1,1.3-2.5,0.9c0,0,1.5,1.6,5.3,1.4c0,0,10-1.8,15.5-8.9L10.9,82.9z"/>
									<path class="st12" d="M13.9,83.9c0,0-10.2,10.4-18.3,9.2c0,0,3.1,2.9,4.8,2.4c0,0-3.2,0.7-3.9,0.5c0,0,3.3,1.2,4.8,1.1
										c0,0-0.6,1.6-2.1,1.6c0,0,1.8,1.1,5.5-0.2c0,0,9-4.6,12.3-13L13.9,83.9z"/>
									<g>
										<path class="st13" d="M23.8,93.1c1,0.3,1.7,1,2.4,1.5c2.9,2,5.8,4.1,8.8,6c2.6,1.6,5.3,3.1,8.1,4.5
											c3.1,1.6,6.2,2.9,9.4,4.1c2.6,1,5.3,1.8,8,2.5c2,0.5,4.1,0.9,6.2,1.3c1.3,0.3,2.7,0.4,4,0.5c1.5,0.2,2.9,0.4,4.4,0.6
											c0.6,0.1,1.2,0.1,1.8,0.2c1.8,0.2,3.6,0.4,5.4,0.5c1.3,0.1,2.6,0.3,3.9,0.4c1.5,0.1,2.9,0.3,4.4,0.4
											c1.8,0.1,3.7,0.2,5.4,0.4c1.5,0.1,2.9,0,4.4,0.2c5.2,0.4,10.4,0.1,15.6,0.2c1.5-0.4,3,0,4.5-0.4c0.2,0,0.3,0,0.4,0
											c1.3,0,2.7-0.2,4-0.3c0.7-0.1,1.4-0.1,2.1-0.2c1.9-0.2,3.9-0.5,5.9-0.8c2.5-0.4,4.9-0.9,7.4-1.5c2.4-0.6,4.7-1.1,7.1-1.8
											c1.7-0.5,3.4-0.9,5.1-1.4c1.3-0.4,2.6-0.8,3.9-1.2c1.8-0.6,3.7-1.3,5.5-2c2.2-0.9,4.1-2,6-3.3c1.1-0.7,2-1.4,3.1-2.2
											c1-0.7,1.9-1.4,2.8-2c0.3-2.8-0.5-5.3-2.2-7.5c-0.7-1.1-1.5-2-1.8-3.2c-0.5-1.5-0.4-3,0.4-4.4c0.8-1.5,1.8-2.8,2.5-4.3
											c0.2-0.4,0.6-1,0.2-1.5c-1.1-0.5-2.3-0.6-3.5-0.7c-3.8-0.4-7.5,0.1-11.2,0.7c-3.2,0.6-6.2,1.6-9.3,2.7
											c-3.9,1.4-7.7,1.6-11.7,0.8c-7.6-1.5-15.3-2.7-23-3.5c-3.8-0.4-7.6-0.7-11.4-0.8c-2.5-0.1-4.8-0.2-7.3-0.1
											c-5.4,0.1-10.9,0.6-16.2,1.3c-4.2,0.6-8.4,1.3-12.7,1.6c-2.3,0.2-4.6,0.3-6.9-0.2c-4.1-0.7-8.3-1.2-12.5-1.4
											c-4.6-0.3-9.1-0.2-13.5,0.8c-3.2,0.7-6.2,1.6-9.3,2.4c-5.2,1.2-10.4,2.3-15.7,3c-0.4,0.1-1.1,0-1.2,0.4
											c-0.1,0.5,0.6,0.5,1.1,0.6c3.6,1.2,7.1,2.6,10.4,4.4c1.6,0.9,3.1,1.8,4.6,2.8C23.5,92.9,23.7,92.9,23.8,93.1z"/>
										<path class="st12" d="M7.4,85.1c-0.1,0-0.1-0.1-0.2-0.1c0.6-0.3,1.2-0.3,1.8-0.4c6.1-0.9,12.2-2.2,18.1-3.7
											c2.2-0.5,4.4-1.1,6.7-1.7c2.4-0.5,4.8-0.7,7.3-0.8c3.9-0.1,7.7,0.2,11.6,0.6c2.5,0.3,4.9,0.7,7.4,1.1
											c2.2,0.3,4.4,0.3,6.7,0.1c4.3-0.4,8.5-1.1,12.7-1.7c7.7-1.1,15.4-1.6,23.2-1.2c7.5,0.4,15,1.1,22.4,2.3
											c4.2,0.6,8.4,1.3,12.5,2.2c3.8,0.7,7.4,0.5,10.9-0.8c2.5-0.9,5-1.8,7.6-2.4c3.5-0.8,7-1.3,10.5-1.3c2.1,0,4.2,0.2,6.3,0.9
											c0.3,0.4,0.7,0.4,1.1,0.5c3.2,1.1,6,3,8.1,5.4c0.4,0.4,0.7,0.7,1,1c0.1,0.1,0.3,0.3,0.4,0.2c0.3-0.1,0.3-0.3,0.3-0.4
											c0-0.4-0.1-0.9-0.1-1.3c-0.3-3.9-0.4-7.6,0.4-11.5c0.5-2.6,1.3-5.2,2.9-7.4c0.6-0.9,1.3-1.8,2.2-2.5
											c0.4-0.4,0.8-0.4,1.1,0.1c2.4,2.8,2.4,7.1,0.1,9.5c-0.5,0.5-1.1,1.1-1.8,1.4c-2.8,1.9-3.4,4.5-3.1,7.5
											c0.2,1.7,0.7,3.2,1.3,4.8c0.3,0.6,0.2,1.3,0.6,1.9c0.1,0,0.2-0.1,0.3-0.1c1.9-1.1,4-1.7,6.3-2c5.6-0.7,10.7-2.6,15.1-6
											c1.6-1.2,3.3-2.3,5.3-3c1.1-0.4,2.2-0.5,3.2-0.7c0.1-0.2,0.1-0.3,0-0.4c-0.6-0.4-1.3-0.4-1.9-0.5c-3.3-0.6-6.7-0.5-10-0.4
											c-0.3,0-0.5,0.1-0.8-0.1c0-0.3,0.3-0.3,0.4-0.3c6.1-1.3,12.3-1.5,18.4,0.4c1,0.4,1.9,0.9,3,1.1c2.8,0.3,5.5,0.4,8.3,0.8
											c0.1-0.4-0.3-0.7-0.4-1.1c-0.6-0.9-1.5-1.5-2.5-2c-1.8-1-3.8-1.5-5.8-1.8c-1.9-0.4-3.9-0.4-5.9-0.8
											c-3.2-0.5-6.1-1.5-8.8-3.2c-1.8-1-3.4-2-5.2-3.1c-3.4-1.9-7.2-3-11.2-3.5c-5.3-0.6-10.5-0.7-15.9-0.5
											c-4.3,0.1-8.5,0.4-12.7,0.6c-0.4,0-0.7,0-1-0.2c-3.9-2.5-8.2-4.1-12.6-5.5c-5.3-1.7-10.6-2.8-16-3.6
											c-7.8-1.1-15.6-1.4-23.5-1.2c-0.4,0-0.9,0.1-1.3-0.2c-3.3,0.2-6.6,0.2-9.9,0.4c-1.7,0.1-3.3,0.3-5,0.3
											c-0.6,0-1.1-0.2-1.8-0.4c-7.1-3.1-14.3-5.5-22.1-6.7c-2.5-0.4-5.2-0.6-7.8-0.6c-3.5,0.1-7-0.2-10.5,0.2
											c-0.8,0.1-1.5,0.1-2.3,0.1c0.2,0.4-0.2,0.4-0.4,0.4c-1.1,0.1-2,0.3-3.1,0.5c-1.3,0.4-2.6,0.6-3.7,1.4
											c-0.1,0.3,0.2,0.3,0.4,0.4c1.4-0.1,2.8-0.4,4.2-0.5c1.3-0.1,2.7-0.3,4-0.3c3.5,0,7.1-0.1,10.6,0.2
											c8.1,0.5,15.9,1.9,23.3,5.1c6,2.5,11.4,6,16.3,10.1c2.6,2.2,4.9,4.6,7.4,7.1c2,2,4.1,4,6.7,5.5c1.1,0.6,2.1,1.3,2.8,2.4
											c0.2,0.2,0.4,0.4,0.4,0.8c-0.7,0.1-1.4-0.1-2.1-0.2c-3.9-0.4-7.9-0.9-11.7-1.8c-3.1-0.7-5.9-1.8-8.3-3.7
											c-3.1-2.3-6.7-3.5-10.2-4.8c-2.3-0.8-4.6-1.5-6.7-2.5c-1.4-0.6-2.7-1.3-3.9-2.3c-2.4-1.9-5.3-3.2-8.1-4.4
											c-1.8-0.8-3.6-1.5-5.5-2.1c-0.4-0.2-0.9-0.4-1.3-0.1c-1.5,0.3-3.1,0.5-4.6,0.8c-9.4,1.7-18.7,3.9-27.5,7.2
											c-2.9,1.1-5.7,2.3-8.2,3.9c-2.2,1.4-4.6,2-7.2,2.3c-9.5,1-18.9,1.2-28.5,1.1c-0.1,0-0.2,0-0.3,0c0,0.2,0.1,0.2,0.2,0.3
											c2.3,1.5,4.6,3,7.1,4c0.6,0.3,1.4,0.3,1.8,0.7c0.4,0.4,0.4,1.1,0.6,1.8c0.8,2.2,2.4,3.9,4.3,5.4c0.2,0.2,0.4,0.3,0.5,0.4
											c0,0,0,0.1,0.1,0.1C1.5,82.9,0.7,82.9,0,83C-0.2,82.8,3.6,87.4,7.4,85.1z"/>
										<path class="st13" d="M63.9,54.5c0.3,0,0.5,0,0.9,0.2c3.5,1.2,6.9,2.5,10.2,4.2c1.3,0.7,2.6,1.5,3.8,2.5
											c1.3,1.1,2.9,1.8,4.6,2.5c2.6,1.1,5.3,1.9,8.1,2.9c3.2,1.1,6.3,2.6,9.1,4.6c2.3,1.7,5,2.5,7.8,3.2
											c3.3,0.8,6.7,1.3,10.2,1.6c1.3,0.2,2.6,0.4,3.9,0.4c0-0.4-0.2-0.5-0.4-0.7c-0.6-1-1.4-1.8-2.4-2.3c-3.5-2-6.3-4.7-8.9-7.6
											c-3.9-4.2-8.4-8-13.5-11.1c-6.7-4.2-13.9-6.9-21.8-8.3c-3.8-0.7-7.5-1.1-11.4-1.3c-3.2-0.2-6.4-0.3-9.6-0.2
											c-2.5,0.1-5.1,0.4-7.6,0.8c-0.2,0-0.4,0-0.5,0.1c-0.3,0.1-0.4,0.1-0.7,0c-0.3,0.1-0.2,0.4-0.4,0.5c-0.5,0.7-0.4,1.3,0.3,2
											c0.9,1,2.1,1.5,3.3,1.9c1.8,0.6,3.6,0.9,5.3,1.2c2.3,0.5,4.6,1.1,6.7,1.8C61.9,53.7,63,53.9,63.9,54.5z"/>
										<path class="st14" d="M53.1,43.4c0.4,0.4,0.8,0.4,1.2,0.3c0.4-0.1,0.9-0.1,1.3-0.1c3.7-0.4,7.4-0.1,11.1-0.2
											c1.4,0,2.9,0.2,4.3,0.3c1.3,0.2,2.6,0.3,3.9,0.5c2.8,0.4,5.5,1.1,8.2,1.9c3.4,1,6.7,2.2,10.1,3.5c1,0.4,1.9,0.8,2.9,1.2
											c0.4,0.2,0.7,0.3,1.1,0.3c1.8,0.1,3.4-0.2,5.2-0.2c1.1,0,2.3,0,3.3-0.2c1.7-0.2,3.2-0.1,4.9-0.2c0.5,0,1.2,0,1.8-0.4
											c-1.9-1.1-4-2.1-6.1-3.1c-5.9-2.7-12-5-18.3-6.6c-5.6-1.4-11.3-1.9-17.1-1.8c-3.3,0-6.7,0.1-10.1,0.5
											c-1.8,0.2-3.5,0.5-5.2,1.1c-0.8,0.3-1.5,0.6-2.1,1.1C52.9,42,52.6,42.6,53.1,43.4z"/>
										<path class="st15" d="M187.4,87.3c0-0.9-0.3-1.8-0.6-2.5c-0.8-1.9-1.1-3.9-1.1-5.9c0-2.2,0.8-3.9,2.6-5.3
											c0.4-0.3,0.6-0.5,1-0.8c3.1-2.1,3.3-5.7,2.5-8.2c-0.4-1.1-1.1-2.2-2-3.2c-0.4,0.3-0.9,0.6-1.2,1c-1.8,1.7-2.9,3.7-3.7,5.9
											c-1,2.6-1.4,5.4-1.6,8.2c-0.1,1.5-0.1,2.9,0,4.4c0,1.4,0.2,2.9,0.4,4.3c-0.4,0-0.4-0.2-0.5-0.4c-1.4-1.5-2.8-2.9-4.5-4
											c-1.8-1.2-3.6-2.2-5.8-2.6c-0.3,1-0.8,1.8-1.3,2.7s-1.1,1.7-1.6,2.5c-1.1,2-1.1,4,0.1,6c0.4,0.7,0.9,1.4,1.4,2.1
											c1.5,2,2.3,4.3,2.2,6.7c0,0.3-0.1,0.5,0.2,0.6c3.6-2.9,6.7-6,10.2-9C185.1,88.9,186.3,88.1,187.4,87.3z"/>
										<path class="st16" d="M226.7,75.4c-1.8-1.1-3.8-1.6-5.8-2c-3.2-0.7-6.5-0.8-9.7-0.5c-2,0.2-4,0.5-6,0.9
											c-0.7,0.2-1,0.4-0.8,0.6c0.2,0.4,0.6,0.4,1,0.3c1.8-0.2,3.7-0.2,5.5-0.2c2.3,0.1,4.6,0.4,6.8,0.9c0.2,0.1,0.4,0.2,0.5,0.2
											c1.9-0.1,3.9-0.3,5.9-0.2C224.9,75.4,225.8,75.5,226.7,75.4z"/>
										<path class="st17" d="M45.5,45.9c0.3,0.4,0.4,0.1,0.7,0c-0.1-0.1-0.3,0-0.4-0.2C45.8,45.8,45.6,45.8,45.5,45.9z"/>
										<path class="st18" d="M218.2,75.5c-0.2-0.1-0.4-0.2-0.5-0.2c0,0.1,0,0.2,0,0.3C217.8,75.6,218,75.6,218.2,75.5z"/>
										<path class="st19" d="M125.1,67.5c-2.6-2.1-5.3-4-8.1-5.9c-4.3-2.9-8.8-5.5-13.5-7.8c-0.9-0.4-1.8-0.8-2.6-1.1
											c-0.2-0.1-0.3,0-0.2,0.2c8.2,4.2,15.9,9.3,23.6,14.3c0.3,0.2,0.4,0.3,0.7,0.4C125,67.7,125.1,67.7,125.1,67.5z"/>
										<path class="st20" d="M125.1,67.5c-0.1,0.1-0.2,0.1-0.2,0.2c0.3,0.4,0.7,0.5,1.1,0.7c0.1,0,0.1,0,0.2-0.1v-0.1
											C125.8,68,125.4,67.7,125.1,67.5z"/>
										<path class="st21" d="M100.5,52.9c0.1-0.1,0.1-0.1,0.2-0.2c-0.4-0.3-0.8-0.4-1.2-0.5c-0.1,0-0.1,0.1-0.1,0.1
											s0,0.1,0.1,0.1C99.8,52.6,100.2,52.9,100.5,52.9z"/>
										<path class="st22" d="M99.1,52.1c-0.2-0.2-0.4-0.2-0.6-0.3c0.1,0.4,0.4,0.4,0.6,0.4C99.2,52.2,99.2,52.2,99.1,52.1z"/>
										<path class="st23" d="M126,68.5c0.1,0.2,0.3,0.3,0.5,0.3h0.1c-0.1-0.3-0.4-0.4-0.5-0.4H126C126,68.4,126,68.4,126,68.5z"
											/>
										<path class="st24" d="M126.9,69.1c0.1,0.2,0.2,0.3,0.4,0.3c-0.1-0.3-0.3-0.4-0.4-0.4C126.9,69,126.8,69.1,126.9,69.1
											C126.9,69.1,126.9,69.1,126.9,69.1z"/>
										<path class="st25" d="M99.1,52.1c0,0.1,0,0.1,0,0.2c0.1,0.1,0.3,0.1,0.4,0.2c0-0.1,0-0.1,0-0.2
											C99.4,52.2,99.3,52.2,99.1,52.1z"/>
										<path class="st26" d="M126,68.5c0-0.1-0.1-0.1-0.1-0.2l-0.1,0.1C125.9,68.4,126,68.4,126,68.5z"/>
										<path class="st27" d="M126.6,68.8c0,0.1,0.1,0.2,0.2,0.2l0,0C126.7,68.8,126.7,68.8,126.6,68.8L126.6,68.8z"/>
										<path class="st28" d="M126.9,69.1c0-0.1,0-0.1,0-0.2c-0.1,0-0.1,0-0.2,0l0,0C126.7,69.1,126.8,69.1,126.9,69.1z"/>
									</g>
									<path d="M198.8,68.8c0,0,0.4-1.1,2.3-1c0,0,1.6,0.8,1,1c0,0-0.9,1-1.6,1C200.6,69.8,199.3,69.7,198.8,68.8z"/>
									<path class="st29" d="M165.7,60.8c0,0,5.5-3.3,11.9-0.6c0,0,7.8,25,13.8,25.5c0,0-5.6,5.9-9.3,5.8
										C178.5,91.4,166,71.9,165.7,60.8z"/>
									<path class="st29" d="M166.3,65.2c0,0-12,5.6-20.4,3.1c0,0-11.8-2.4-16.6,2.6c0,0-0.4,7.2,2.4,7.8c0,0,10.8-4.6,15-3.1
										c0,0,16.5,2.5,21.9-3.7C168.5,71.9,170.3,67.5,166.3,65.2z"/>
								</g>
							</g>
						</g>
						<path class="st30" d="M308.1,105.6c3.5,0,6.3,3.1,6.3,6.9s-2.8,6.9-6.3,6.9l-225-0.8l-72.2-12.8c-3.3,0-6-2.9-6-6.6
							c-0.1-3.4,2.6-6.3,6-6.5l-0.2-31.1L24,75.5l-0.7,17.3v4.1l58,9.9L308.1,105.6z"/>
						<g class="st31">
							<path d="M308.2,89.7c0,0-18.2-45.3-84.8-25.5L10.8,49.9c0.1-8.6,6.5-15.5,14.3-15.5l43.2,0.2c8.9,0,141.8,18.5,141.8,18.5
								l14-12.4H259C259,40.7,308.2,39.1,308.2,89.7z"/>
						</g>
						
							<ellipse transform="matrix(0.9954 -9.581690e-02 9.581690e-02 0.9954 -8.5692 25.5445)" class="st32" cx="261.7" cy="102" rx="33.7" ry="33.5"/>
						
							<ellipse transform="matrix(0.9954 -9.587316e-02 9.587316e-02 0.9954 -8.5736 25.5598)" class="st30" cx="261.7" cy="102" rx="32.8" ry="32.6"/>
						
							<ellipse transform="matrix(0.9954 -9.581693e-02 9.581693e-02 0.9954 -8.5692 25.5445)" cx="261.7" cy="102" rx="24.7" ry="24.5"/>
						
							<ellipse transform="matrix(0.9954 -9.584503e-02 9.584503e-02 0.9954 -8.5714 25.5521)" class="st33" cx="261.7" cy="102" rx="23.5" ry="23.3"/>
						
							<ellipse transform="matrix(0.9954 -9.587312e-02 9.587312e-02 0.9954 -8.5735 25.5598)" class="st34" cx="261.7" cy="102" rx="22.3" ry="22.1"/>
						
							<ellipse transform="matrix(0.377 -0.9262 0.9262 0.377 68.4359 305.8437)" class="st35" cx="261.6" cy="102" rx="13.8" ry="13.8"/>
						
							<ellipse transform="matrix(0.2203 -0.9754 0.9754 0.2203 106.2756 335.7694)" class="st36" cx="263.2" cy="101.4" rx="12.7" ry="12.7"/>
						<g>
							<g>
								<g>
									<defs>
										<path id="SVGID_00000178200245437928996850000009904415343684732849_" d="M196.8,51.6c-18.2-36.6-27.7-35.3-27.7-35.3
											s-24.1-0.8-31.7-0.1c-7.6,0.7-10.2,5.5-10.2,5.5l-7.6,11.7c0,0-5.1,6.9,7.6,8.3C137.3,42.9,196.8,51.6,196.8,51.6z"/>
									</defs>
									<clipPath id="SVGID_00000146469418962100069460000005652104212146889902_">
										<use xlink:href="#SVGID_00000178200245437928996850000009904415343684732849_"  style="overflow:visible;"/>
									</clipPath>
									<g style="clip-path:url(#SVGID_00000146469418962100069460000005652104212146889902_);">
										<path class="st38" d="M195.7,15h-81.2v36.6h82.3V15H195.7z"/>
									</g>
								</g>
							</g>
						</g>
						<g>
							<g>
								<g>
									<defs>
										<path id="SVGID_00000022521252874105021540000012351600304868953249_" d="M202,16.4l22.7,24.3L212,52.4l-20.8-29.1
											c0,0-3.8-4.2,0-6.2L202,16.4z"/>
									</defs>
									<clipPath id="SVGID_00000084514899175110322440000014998746271282082190_">
										<use xlink:href="#SVGID_00000022521252874105021540000012351600304868953249_"  style="overflow:visible;"/>
									</clipPath>
									<g style="clip-path:url(#SVGID_00000084514899175110322440000014998746271282082190_);">
										<path class="st40" d="M223.9,16.4h-36.5v36h37.3v-36L223.9,16.4z"/>
									</g>
								</g>
							</g>
						</g>
					</g>
				</g>
			</g>
			
				<ellipse transform="matrix(0.9954 -9.585206e-02 9.585206e-02 0.9954 -9.461 7.2466)" class="st32" cx="70.7" cy="102.1" rx="33.7" ry="33.5"/>
			
				<ellipse transform="matrix(0.9954 -9.583800e-02 9.583800e-02 0.9954 -9.4596 7.2455)" class="st30" cx="70.7" cy="102.1" rx="32.8" ry="32.6"/>
			
				<ellipse transform="matrix(0.9954 -9.585205e-02 9.585205e-02 0.9954 -9.461 7.2466)" cx="70.7" cy="102.1" rx="24.7" ry="24.5"/>
			
				<ellipse transform="matrix(0.9954 -9.584503e-02 9.584503e-02 0.9954 -9.4603 7.2461)" class="st33" cx="70.7" cy="102.1" rx="23.5" ry="23.3"/>
			
				<ellipse transform="matrix(0.9954 -9.583801e-02 9.583801e-02 0.9954 -9.4596 7.2455)" class="st34" cx="70.7" cy="102.1" rx="22.3" ry="22.1"/>
			<ellipse class="st35" cx="70.7" cy="102.1" rx="13.8" ry="13.8"/>
			<ellipse class="st36" cx="70.7" cy="102.1" rx="12.6" ry="12.6"/>
		</g>
	</g>
</g>
<g id="Layer_2_00000026861185787000920290000012381877002391348654_">
</g>
</svg>
