<svg xmlns="http://www.w3.org/2000/svg" xmlns:xlink="http://www.w3.org/1999/xlink" viewBox="0 0 843.81 369.37"><defs><style>.cls-1{fill:none;}.cls-2{isolation:isolate;}.cls-3{fill:url(#radial-gradient);}.cls-4{fill:#875922;}.cls-5{fill:#cc863b;}.cls-6{opacity:0.52;}.cls-7{clip-path:url(#clip-path);}.cls-8{fill:#563e2e;}.cls-9{fill:#edb388;}.cls-10{fill:#355656;}.cls-11{opacity:0.13;mix-blend-mode:multiply;}.cls-12{fill:#32323f;}.cls-13{fill:#474757;}.cls-14{fill:#fff;}.cls-15{fill:#ddd;}.cls-16{fill:#bac0d8;}.cls-17{fill:#acafbc;}.cls-18{fill:url(#linear-gradient);}.cls-19{fill:url(#linear-gradient-2);}</style><radialGradient id="radial-gradient" cx="120.91" cy="138.8" r="30.31" gradientTransform="matrix(1.03, 0.1, -0.11, 1.13, 38.37, -103.3)" gradientUnits="userSpaceOnUse"><stop offset="0" stop-color="#dcdcdc"/><stop offset="0.69" stop-color="#a3a3a3"/><stop offset="1" stop-color="#878787"/></radialGradient><clipPath id="clip-path"><path class="cls-1" d="M589.26,135.13l76,7.55c59.51,5.91,102.53,63.32,96.08,128.22l-4.19,42.18c7.63.76,13.14,8.12,12.31,16.44s-7.68,14.45-15.31,13.69l-490.4-48.72L88.9,249.73C81.66,249,76.42,242,77.2,234.12s7.3-13.73,14.55-13L102.21,108.8c1.86-18.72,17.28-32.51,34.45-30.81l114,11.32L365.74,39.89a75.37,75.37,0,0,1,25.62-5.06c14-.13,110.21,14,110.21,14s30.84-1.51,44.58,28.77,44.34,59.17,44.34,59.17"/></clipPath><linearGradient id="linear-gradient" x1="311.05" y1="105.11" x2="482.61" y2="105.11" gradientTransform="matrix(1, 0.1, -0.1, 1, 61.46, -37.73)" gradientUnits="userSpaceOnUse"><stop offset="0" stop-color="#c9e7f9"/><stop offset="1" stop-color="#aafff9"/></linearGradient><linearGradient id="linear-gradient-2" x1="466.41" y1="106.21" x2="543.69" y2="106.21" xlink:href="#linear-gradient"/></defs><title>premium-earth</title><g class="cls-2"><g id="Layer_2" data-name="Layer 2"><g id="Premium"><g id="premium-earth"><polygon class="cls-3" points="153.96 93.4 113.76 34.64 159.35 39.17 181.59 96.15 153.96 93.4"/><polygon class="cls-4" points="191.18 38.49 46.72 10.96 38.63 0 173.23 24.99 191.18 38.49"/><polygon class="cls-5" points="189.63 46.94 56.91 21.56 48.82 10.6 171.64 34.3 189.63 46.94"/><polygon class="cls-4" points="188.08 55.39 70.28 32.75 62.19 21.79 170.13 41.89 188.08 55.39"/><polygon class="cls-5" points="186.53 63.84 83.01 43.82 74.93 32.86 168.58 50.34 186.53 63.84"/><path class="cls-4" d="M589.26,135.13l76,7.55c59.51,5.91,102.53,63.32,96.08,128.22l-4.19,42.18c7.63.76,13.14,8.12,12.31,16.44s-7.68,14.45-15.31,13.69l-490.4-48.72L88.9,249.73C81.66,249,76.42,242,77.2,234.12s7.3-13.73,14.55-13L102.21,108.8c1.86-18.72,17.28-32.51,34.45-30.81l114,11.32L365.74,39.89a75.37,75.37,0,0,1,25.62-5.06c14-.13,110.21,14,110.21,14s30.84-1.51,44.58,28.77,44.34,59.17,44.34,59.17"/><g class="cls-6"><g class="cls-7"><rect class="cls-5" x="55.64" y="147.06" width="797.11" height="5.65" transform="translate(43.5 -95.25) rotate(12.57)"/><rect class="cls-5" x="50.32" y="163.7" width="797.11" height="5.65" transform="translate(47 -93.69) rotate(12.57)"/><rect class="cls-5" x="27.06" y="184.9" width="797.11" height="5.65" transform="translate(51.05 -88.12) rotate(12.57)"/><rect class="cls-5" x="-1.87" y="204.55" width="797.11" height="5.65" transform="translate(54.64 -81.36) rotate(12.57)"/><rect class="cls-5" x="-8.94" y="224.38" width="797.11" height="5.65" transform="translate(58.78 -79.34) rotate(12.57)"/></g></g><g id="_6Xu51e.tif" data-name="6Xu51e.tif"><path class="cls-8" d="M510.58,216l-.16,1.08c-3.6,5.89-6.49,12.16-9.71,18.26-1.86,3.53-2.64,3.52,1.23,6.39,1.34,1,1.64,1.91.43,3.33q-9.86,11.64-19.6,23.37c-.89,1.07-1.83,1.91-3.19.87-1.82-1.4-3-.62-4.37.82-4.68,4.95-9.56,9.71-14.19,14.7-1.77,1.89-3.2,2.44-5.11.38-1-1.11-2.12-1.47-3.5-.22-4.7,4.27-9.5,8.45-14.26,12.66l-1.07-.16c-5-3.27-10.05-6.52-15.06-9.8a66.91,66.91,0,0,0-11.44-6.22c-16.16-6.51-32.24-13.2-48.37-19.77-1.72-.7-3-1.59-3.42-3.49s-1.62-2.39-3.33-2.64q-11.46-1.63-22.89-3.43c-2.68-.42-5.42-.53-8-1.44l1.06-7c2.51,1.8,5.45,1.94,8.37,2.44,7.42,1.28,14.8,2.81,22.17,4.35,1.94.41,2.6-.27,2.86-2.09.78-5.29,1.64-10.58,2.54-15.86.78-4.64,1.3-9.37,4.95-13,1.39-1.36.62-2.13-1-2.58-9.17-2.55-18.34-5.15-27.51-7.71-.88-.24-2.05-1-2.53.45s.77,1.89,1.81,2.23c1.8.6,3.66,1,5.46,1.66,3.56,1.2,7.31,1.86,10.9,3.55a2.74,2.74,0,0,1-2.51.78c-4.71-.16-9.43-.23-14.13-.52-2.09-.12-3,.64-3.23,2.66-.31,2.62-.8,5.21-1.16,7.81-.26,1.95-.46,4.16-3.17,3.65s-1.21-2.7-1-4c3.23-19.49,6.57-39,9.87-58.44.61-3.61.62-3.73,4.34-2.91q20.32,4.5,40.62,9.15a5.8,5.8,0,0,0,3.94-.31l51-23.43,1.08.17c1.13.9,2.22,1.86,3.39,2.71q19.54,14.28,39.09,28.54c5.3,3.9,5,2.5,2.37,8.52-.43,1-.84,2-1.31,3a2.16,2.16,0,0,0,.89,3Q497.17,206.74,510.58,216Zm-121.5,3a3,3,0,0,1,2.9-.74c8.6,1.42,17.21,2.78,25.78,4.35,2.43.44,4.29.22,6.21-1.53,5.77-5.26,11.68-10.37,17.58-15.48a4.34,4.34,0,0,0,1.77-4c-.26-2.89-.28-5.8-.34-8.71,0-.39.2-1,.49-1.15.65-.29,1,.33,1.16.82.44,1.19.85,2.4,1.2,3.62.41,1.44,1,2.31,2.22.66.59-.77,1.2-1.53,2.22-.95s.52,1.61.34,2.46a19.76,19.76,0,0,1-.62,2.08c-2.2,6.63-4.36,13.28-6.64,19.88a3.68,3.68,0,0,0,1.09,4.35c2.86,2.78,5.58,5.71,8.37,8.57,3.2,3.28,3.27,3.3,4.93-.85,5.8-14.51,11.92-28.86,20.86-41.79,1.29-1.86.69-2.79-.94-3.92q-18.9-13.14-37.69-26.42a4.06,4.06,0,0,0-4.48-.51q-22.38,9.69-44.82,19.2a6.08,6.08,0,0,0-3.26,3.07c-2.41,4.88-4.9,9.73-7.38,14.58-.42.82-.65,1.84-1.78,2.34a4.88,4.88,0,0,1,.08-2.77c.79-4.47,1.56-8.94,2.47-13.39.35-1.74.09-2.72-1.86-3.1-11.4-2.24-22.78-4.58-34.18-6.82-3.64-.72-3.73-.59-4.3,3.18q-1.87,12.26-3.71,24.51c-.87,5.74-.85,5.64,4.92,6.76,11.49,2.22,23,4.55,34.44,6.85.59.12,1.41,0,1.63.74s-.52,1.09-1,1.49c-2.92,2.44-5.84,4.9-8.81,7.28a5.7,5.7,0,0,0-2.25,4.15q-1.33,13-2.78,26c-.23,2.07.38,3.34,2.52,4.13,9.45,3.5,18.83,7.16,28.24,10.76l11.76,4.49a31.47,31.47,0,0,0-5.94-6.08c-1.92-1.53-1.78-2.72-.15-4.39,3.74-3.84,7.33-7.82,11-11.76.66-.71,1.83-1.58,1.11-2.53-2-2.64,0-4.15,1.38-5.87,2.47-3.15,2.48-3.14-1-4.78-.09,0-.06-.32-.12-.62,1.64-.84,3.51-.59,5.23-1,.93-.22,1.91-.74,1.86-1.72-.05-1.14-1.24-.75-2-.84-3.69-.5-7.39-.93-11.08-1.44-.88-.12-2,0-2.58-1.52l10.7-1.45,0-.52Zm28.17,26.58c0,1.12.69,1.58,1.3,2.1q18.63,15.74,37.25,31.46c1.33,1.13,2.24,1.07,3.41-.23,3.78-4.17,7.61-8.3,11.52-12.35,1.49-1.54,1.18-2.45-.4-3.66q-19.86-15.06-39.61-30.26c-1.52-1.17-2.45-1-3.58.47-2.92,3.71-5.94,7.34-8.91,11C417.84,244.63,417.53,245.18,417.25,245.6Zm21.63-32.17c-2.61,3.81-4.64,7-6.94,10.06-1.61,2.1-1.21,3.3.82,4.82q23.12,17.3,46.08,34.8c1.61,1.23,2.47,1.19,3.67-.49q6-8.4,12.35-16.61c1.33-1.73,1.13-2.69-.68-3.86q-12.48-8-24.81-16.31c-1.92-1.29-2.78-.79-3.7,1.08-2.22,4.47-4.63,8.85-6.87,13.31-.92,1.84-1.79,2.16-3.44.71q-8.17-7.22-16.52-14.22a4.05,4.05,0,0,1-1.47-4.31C437.86,219.67,438.8,217,438.88,213.43Zm-34.16,51.05c-.27,1.08.37,1.53.92,2q14.49,12,29,23.93c1.16,1,2,.88,3-.21,3-3.2,5.95-6.38,9-9.49,1.27-1.29,1.15-2.18-.22-3.32Q431.51,265,416.7,252.59c-1.47-1.23-2.43-1.11-3.54.42-2.5,3.46-5.1,6.84-7.65,10.26C405.19,263.71,404.92,264.18,404.72,264.48Zm65.18-46.77c-.55,1.78,0,2.59,1,3.25q11.16,7.26,22.28,14.57c1.22.81,1.94.59,2.54-.69q3.67-7.72,7.41-15.43a1.73,1.73,0,0,0-.67-2.54q-11.14-7-22.26-14.09c-.85-.54-1.75-.78-2.38.22C474.8,207.89,470.89,212.33,469.9,217.71Z"/></g><g id="_6Xu51e.tif-2" data-name="6Xu51e.tif"><path class="cls-9" d="M511.58,212l-.16,1.08c-3.6,5.89-6.49,12.16-9.71,18.26-1.86,3.53-2.64,3.52,1.23,6.39,1.34,1,1.64,1.91.43,3.33q-9.86,11.64-19.6,23.37c-.89,1.07-1.83,1.91-3.19.87-1.82-1.4-3-.62-4.37.82-4.68,4.95-9.56,9.71-14.19,14.7-1.77,1.89-3.2,2.44-5.11.38-1-1.11-2.12-1.47-3.5-.22-4.7,4.27-9.5,8.45-14.26,12.66l-1.07-.16c-5-3.27-10.05-6.52-15.06-9.8a66.91,66.91,0,0,0-11.44-6.22c-16.16-6.51-32.24-13.2-48.37-19.77-1.72-.7-3-1.59-3.42-3.49s-1.62-2.39-3.33-2.64q-11.46-1.63-22.89-3.43c-2.68-.42-5.42-.53-8-1.44l1.06-7c2.51,1.8,5.45,1.94,8.37,2.44,7.42,1.28,14.8,2.81,22.17,4.35,1.94.41,2.6-.27,2.86-2.09.78-5.29,1.64-10.58,2.54-15.86.78-4.64,1.3-9.37,4.95-13,1.39-1.36.62-2.13-1-2.58-9.17-2.55-18.34-5.15-27.51-7.71-.88-.24-2.05-1-2.53.45s.77,1.89,1.81,2.23c1.8.6,3.66,1,5.46,1.66,3.56,1.2,7.31,1.86,10.9,3.55a2.74,2.74,0,0,1-2.51.78c-4.71-.16-9.43-.23-14.13-.52-2.09-.12-3,.64-3.23,2.66-.31,2.62-.8,5.21-1.16,7.81-.26,1.95-.46,4.16-3.17,3.65s-1.21-2.7-1-4c3.23-19.49,6.57-39,9.87-58.44.61-3.61.62-3.73,4.34-2.91q20.32,4.5,40.62,9.15a5.8,5.8,0,0,0,3.94-.31l51-23.43,1.08.17c1.13.9,2.22,1.86,3.39,2.71q19.54,14.28,39.09,28.54c5.3,3.9,5,2.5,2.37,8.52-.43,1-.84,2-1.31,3a2.16,2.16,0,0,0,.89,3Q498.17,202.74,511.58,212Zm-121.5,3a3,3,0,0,1,2.9-.74c8.6,1.42,17.21,2.78,25.78,4.35,2.43.44,4.29.22,6.21-1.53,5.77-5.26,11.68-10.37,17.58-15.48a4.34,4.34,0,0,0,1.77-4c-.26-2.89-.28-5.8-.34-8.71,0-.39.2-1,.49-1.15.65-.29,1,.33,1.16.82.44,1.19.85,2.4,1.2,3.62.41,1.44,1,2.31,2.22.66.59-.77,1.2-1.53,2.22-.95s.52,1.61.34,2.46a19.76,19.76,0,0,1-.62,2.08c-2.2,6.63-4.36,13.28-6.64,19.88a3.68,3.68,0,0,0,1.09,4.35c2.86,2.78,5.58,5.71,8.37,8.57,3.2,3.28,3.27,3.3,4.93-.85,5.8-14.51,11.92-28.86,20.86-41.79,1.29-1.86.69-2.79-.94-3.92q-18.9-13.14-37.69-26.42a4.06,4.06,0,0,0-4.48-.51q-22.38,9.69-44.82,19.2a6.08,6.08,0,0,0-3.26,3.07c-2.41,4.88-4.9,9.73-7.38,14.58-.42.82-.65,1.84-1.78,2.34a4.88,4.88,0,0,1,.08-2.77c.79-4.47,1.56-8.94,2.47-13.39.35-1.74.09-2.72-1.86-3.1-11.4-2.24-22.78-4.58-34.18-6.82-3.64-.72-3.73-.59-4.3,3.18q-1.87,12.26-3.71,24.51c-.87,5.74-.85,5.64,4.92,6.76,11.49,2.22,23,4.55,34.44,6.85.59.12,1.41,0,1.63.74s-.52,1.09-1,1.49c-2.92,2.44-5.84,4.9-8.81,7.28a5.7,5.7,0,0,0-2.25,4.15q-1.33,13-2.78,26c-.23,2.07.38,3.34,2.52,4.13,9.45,3.5,18.83,7.16,28.24,10.76l11.76,4.49a31.47,31.47,0,0,0-5.94-6.08c-1.92-1.53-1.78-2.72-.15-4.39,3.74-3.84,7.33-7.82,11-11.76.66-.71,1.83-1.58,1.11-2.53-2-2.64,0-4.15,1.38-5.87,2.47-3.15,2.48-3.14-1-4.78-.09,0-.06-.32-.12-.62,1.64-.84,3.51-.59,5.23-1,.93-.22,1.91-.74,1.86-1.72-.05-1.14-1.24-.75-2-.84-3.69-.5-7.39-.93-11.08-1.44-.88-.12-2,0-2.58-1.52l10.7-1.45,0-.52Zm28.17,26.58c0,1.12.69,1.58,1.3,2.1q18.63,15.74,37.25,31.46c1.33,1.13,2.24,1.07,3.41-.23,3.78-4.17,7.61-8.3,11.52-12.35,1.49-1.54,1.18-2.45-.4-3.66q-19.86-15.06-39.61-30.26c-1.52-1.17-2.45-1-3.58.47-2.92,3.71-5.94,7.34-8.91,11C418.84,240.63,418.53,241.18,418.25,241.6Zm21.63-32.17c-2.61,3.81-4.64,7-6.94,10.06-1.61,2.1-1.21,3.3.82,4.82q23.12,17.3,46.08,34.8c1.61,1.23,2.47,1.19,3.67-.49q6-8.4,12.35-16.61c1.33-1.73,1.13-2.69-.68-3.86q-12.48-8-24.81-16.31c-1.92-1.29-2.78-.79-3.7,1.08-2.22,4.47-4.63,8.85-6.87,13.31-.92,1.84-1.79,2.16-3.44.71q-8.17-7.22-16.52-14.22a4.05,4.05,0,0,1-1.47-4.31C438.86,215.67,439.8,213,439.88,209.43Zm-34.16,51.05c-.27,1.08.37,1.53.92,2q14.49,12,29,23.93c1.16,1,2,.88,3-.21,3-3.2,5.95-6.38,9-9.49,1.27-1.29,1.15-2.18-.22-3.32Q432.51,261,417.7,248.59c-1.47-1.23-2.43-1.11-3.54.42-2.5,3.46-5.1,6.84-7.65,10.26C406.19,259.71,405.92,260.18,405.72,260.48Zm65.18-46.77c-.55,1.78,0,2.59,1,3.25q11.16,7.26,22.28,14.57c1.22.81,1.94.59,2.54-.69q3.67-7.72,7.41-15.43a1.73,1.73,0,0,0-.67-2.54q-11.14-7-22.26-14.09c-.85-.54-1.75-.78-2.38.22C475.8,203.89,471.89,208.33,470.9,213.71Z"/></g><g id="_6Xu51e.tif-3" data-name="6Xu51e.tif"><path class="cls-8" d="M623.36,198.88l-.09.59c-1.95,3.19-3.52,6.59-5.26,9.9-1,1.91-1.43,1.9.67,3.46.72.54.88,1,.23,1.81q-5.34,6.3-10.62,12.66c-.49.58-1,1-1.73.47-1-.76-1.63-.34-2.37.45-2.54,2.68-5.18,5.26-7.69,8-1,1-1.74,1.33-2.77.21a1.18,1.18,0,0,0-1.9-.12c-2.55,2.31-5.14,4.58-7.72,6.86l-.59-.09-8.16-5.31a36.07,36.07,0,0,0-6.2-3.37c-8.76-3.52-17.47-7.15-26.21-10.71a2.61,2.61,0,0,1-1.86-1.9c-.2-1-.88-1.29-1.8-1.42-4.14-.59-8.28-1.22-12.41-1.86a23.93,23.93,0,0,1-4.35-.79l.58-3.79c1.36,1,2.95,1.05,4.54,1.32,4,.69,8,1.52,12,2.36,1.05.22,1.41-.15,1.55-1.13.42-2.88.89-5.74,1.38-8.6.42-2.52.7-5.08,2.68-7,.76-.74.34-1.16-.53-1.4-5-1.38-9.94-2.79-14.91-4.18-.48-.13-1.11-.55-1.37.25s.42,1,1,1.2c1,.33,2,.57,3,.9a52.68,52.68,0,0,1,5.9,1.93,1.45,1.45,0,0,1-1.35.42c-2.56-.09-5.11-.13-7.66-.28-1.14-.07-1.63.35-1.76,1.44-.16,1.42-.43,2.82-.62,4.24-.15,1-.25,2.25-1.72,2s-.66-1.46-.54-2.18c1.75-10.57,3.56-21.12,5.35-31.68.34-1.95.34-2,2.35-1.57q11,2.43,22,5a3.15,3.15,0,0,0,2.14-.17L584.13,164l.59.09c.61.49,1.2,1,1.83,1.47q10.59,7.74,21.19,15.47c2.87,2.11,2.7,1.36,1.28,4.61-.23.54-.45,1.09-.71,1.62a1.17,1.17,0,0,0,.49,1.64Q616.09,193.86,623.36,198.88Zm-65.85,1.64a1.64,1.64,0,0,1,1.57-.4c4.66.77,9.33,1.51,14,2.36a3.51,3.51,0,0,0,3.37-.83c3.12-2.85,6.33-5.62,9.53-8.39a2.35,2.35,0,0,0,.95-2.16c-.13-1.57-.14-3.14-.18-4.72,0-.21.11-.55.27-.62.35-.16.52.18.62.44.24.65.46,1.3.65,2s.52,1.25,1.21.36c.32-.42.65-.83,1.2-.51s.29.87.19,1.33-.22.75-.34,1.13c-1.19,3.59-2.36,7.19-3.6,10.77a2,2,0,0,0,.59,2.36c1.55,1.5,3,3.1,4.54,4.64,1.73,1.78,1.77,1.8,2.67-.46,3.14-7.86,6.46-15.64,11.31-22.65.69-1,.37-1.51-.51-2.12q-10.24-7.12-20.43-14.32a2.2,2.2,0,0,0-2.43-.27q-12.12,5.24-24.29,10.4a3.34,3.34,0,0,0-1.77,1.66c-1.3,2.65-2.65,5.28-4,7.9-.22.45-.35,1-1,1.28a2.74,2.74,0,0,1,0-1.51c.43-2.42.85-4.84,1.34-7.25.19-1,.05-1.48-1-1.69-6.18-1.21-12.34-2.47-18.52-3.69-2-.39-2-.32-2.33,1.72q-1,6.64-2,13.29c-.47,3.11-.46,3.05,2.67,3.66,6.23,1.2,12.45,2.47,18.67,3.71.32.07.76,0,.88.4s-.28.6-.53.81c-1.59,1.33-3.17,2.66-4.78,3.95a3.11,3.11,0,0,0-1.22,2.25q-.72,7-1.51,14.08a1.85,1.85,0,0,0,1.37,2.24c5.12,1.9,10.21,3.88,15.31,5.83l6.37,2.44a17.11,17.11,0,0,0-3.22-3.3c-1-.83-1-1.47-.08-2.38,2-2.08,4-4.23,5.94-6.37.35-.39,1-.86.6-1.37-1.08-1.44,0-2.25.74-3.18,1.34-1.71,1.35-1.71-.52-2.6,0,0,0-.17-.06-.33a11.9,11.9,0,0,1,2.83-.54c.51-.12,1-.4,1-.93s-.67-.4-1.07-.46c-2-.27-4-.5-6-.78-.48-.06-1.08,0-1.4-.82l5.8-.79v-.28Zm15.27,14.41c0,.6.37.85.7,1.14q10.1,8.52,20.19,17.05a1.11,1.11,0,0,0,1.85-.13c2.05-2.26,4.12-4.5,6.24-6.69.81-.84.64-1.33-.22-2q-10.75-8.17-21.46-16.41c-.83-.63-1.33-.52-2,.26-1.57,2-3.21,4-4.82,6A9.1,9.1,0,0,0,572.78,214.93Zm11.72-17.44c-1.41,2.06-2.51,3.82-3.76,5.45-.87,1.14-.66,1.79.44,2.61q12.52,9.38,25,18.87c.88.66,1.34.64,2-.27,2.18-3,4.41-6,6.69-9,.72-.94.61-1.46-.37-2.09q-6.76-4.37-13.44-8.84c-1-.7-1.51-.43-2,.58-1.2,2.43-2.51,4.8-3.72,7.22-.5,1-1,1.17-1.87.38q-4.42-3.9-8.95-7.7a2.21,2.21,0,0,1-.8-2.34A26.92,26.92,0,0,0,584.5,197.49ZM566,225.16c-.15.58.2.83.49,1.07q7.86,6.5,15.71,13a1,1,0,0,0,1.62-.11c1.6-1.74,3.22-3.46,4.88-5.14.68-.7.62-1.19-.12-1.8q-8.07-6.69-16.09-13.43c-.8-.67-1.32-.61-1.92.22-1.35,1.88-2.76,3.71-4.15,5.57C566.24,224.74,566.09,225,566,225.16Zm35.32-25.35a1.32,1.32,0,0,0,.57,1.76c4,2.63,8.06,5.25,12.07,7.9.66.44,1,.32,1.38-.37,1.33-2.8,2.67-5.58,4-8.37a.92.92,0,0,0-.36-1.37c-4-2.54-8-5.1-12.07-7.64-.45-.29-.94-.43-1.28.12C604,194.49,601.85,196.89,601.31,199.81Z"/></g><g id="_6Xu51e.tif-4" data-name="6Xu51e.tif"><path class="cls-9" d="M624.23,196.28l-.09.58c-1.95,3.2-3.52,6.6-5.26,9.9-1,1.91-1.43,1.91.67,3.46.72.54.88,1,.23,1.81-3.56,4.2-7.09,8.44-10.62,12.67-.49.58-1,1-1.73.47-1-.76-1.63-.34-2.37.44-2.54,2.68-5.18,5.26-7.7,8-1,1-1.73,1.32-2.76.2a1.18,1.18,0,0,0-1.9-.12c-2.55,2.32-5.15,4.58-7.73,6.87l-.58-.09-8.16-5.31a36.07,36.07,0,0,0-6.2-3.37c-8.76-3.53-17.47-7.16-26.22-10.72a2.6,2.6,0,0,1-1.85-1.89c-.2-1-.88-1.3-1.8-1.43q-6.21-.89-12.41-1.86a24.81,24.81,0,0,1-4.35-.78l.58-3.8c1.36,1,2.95,1.05,4.53,1.33,4,.69,8,1.52,12,2.35,1.05.22,1.41-.15,1.55-1.13.42-2.87.89-5.74,1.37-8.6.43-2.51.71-5.08,2.69-7,.75-.73.33-1.15-.53-1.39-5-1.39-9.94-2.8-14.91-4.18-.48-.13-1.12-.55-1.37.24s.42,1,1,1.21c1,.33,2,.57,3,.9a50.71,50.71,0,0,1,5.9,1.93,1.51,1.51,0,0,1-1.35.42c-2.56-.09-5.12-.13-7.67-.28-1.13-.07-1.62.34-1.75,1.44-.16,1.41-.43,2.82-.62,4.23-.15,1.06-.25,2.25-1.72,2s-.66-1.46-.54-2.18c1.75-10.56,3.56-21.12,5.35-31.67.33-2,.34-2,2.35-1.58q11,2.44,22,5a3.09,3.09,0,0,0,2.14-.17q13.8-6.36,27.62-12.69l.59.09c.61.49,1.2,1,1.83,1.47q10.59,7.73,21.19,15.46c2.87,2.11,2.7,1.36,1.28,4.62-.23.54-.45,1.09-.71,1.62a1.17,1.17,0,0,0,.49,1.64Zm-65.85,1.63a1.66,1.66,0,0,1,1.57-.4c4.66.77,9.32,1.51,14,2.36a3.51,3.51,0,0,0,3.37-.83c3.12-2.85,6.33-5.62,9.53-8.39a2.36,2.36,0,0,0,.95-2.16c-.13-1.56-.15-3.14-.18-4.71,0-.22.11-.56.26-.63.36-.16.53.18.63.45.24.64.46,1.3.65,2s.52,1.25,1.21.36c.32-.42.65-.83,1.2-.52s.28.87.18,1.33a10.51,10.51,0,0,1-.33,1.13c-1.19,3.6-2.36,7.2-3.6,10.78a2,2,0,0,0,.59,2.35c1.55,1.51,3,3.1,4.54,4.65,1.73,1.78,1.77,1.79,2.67-.46,3.14-7.87,6.46-15.64,11.31-22.65.69-1,.37-1.51-.51-2.13q-10.25-7.11-20.43-14.31a2.19,2.19,0,0,0-2.43-.28q-12.13,5.25-24.29,10.4a3.32,3.32,0,0,0-1.77,1.67c-1.3,2.64-2.65,5.27-4,7.9-.23.45-.35,1-1,1.27a2.7,2.7,0,0,1,0-1.5c.43-2.42.85-4.85,1.34-7.26.19-.94.05-1.47-1-1.68-6.18-1.21-12.35-2.48-18.52-3.7-2-.38-2-.31-2.34,1.73l-2,13.28c-.47,3.11-.46,3.06,2.67,3.66,6.23,1.21,12.45,2.47,18.67,3.72.32.06.76,0,.88.4s-.28.59-.53.8c-1.59,1.33-3.17,2.66-4.78,3.95a3.1,3.1,0,0,0-1.22,2.25q-.72,7.05-1.51,14.09a1.85,1.85,0,0,0,1.37,2.24c5.12,1.89,10.21,3.88,15.3,5.83l6.38,2.43A17.4,17.4,0,0,0,564,224c-1-.82-1-1.47-.08-2.37,2-2.08,4-4.24,5.93-6.38.36-.38,1-.85.61-1.37-1.08-1.43,0-2.25.74-3.18,1.34-1.71,1.35-1.7-.52-2.59-.05,0,0-.17-.06-.34a11.32,11.32,0,0,1,2.83-.53c.5-.12,1-.41,1-.94s-.67-.4-1.07-.45c-2-.27-4-.5-6-.78-.48-.07-1.08,0-1.4-.83l5.8-.78v-.28Zm15.27,14.41c0,.61.37.86.7,1.14q10.1,8.52,20.19,17a1.12,1.12,0,0,0,1.85-.12c2.05-2.26,4.12-4.5,6.24-6.7.81-.83.64-1.33-.22-2q-10.75-8.16-21.47-16.4c-.82-.64-1.32-.53-1.94.25-1.58,2-3.22,4-4.82,6C574,211.8,573.8,212.1,573.65,212.32Zm11.72-17.44c-1.41,2.07-2.52,3.82-3.77,5.46-.86,1.13-.65,1.78.45,2.61q12.53,9.38,25,18.86c.88.67,1.34.65,2-.26q3.27-4.56,6.69-9c.72-.94.61-1.45-.37-2.09q-6.76-4.37-13.45-8.84c-1-.7-1.5-.43-2,.59-1.21,2.42-2.51,4.79-3.72,7.21-.5,1-1,1.17-1.87.38q-4.42-3.9-8.95-7.7a2.2,2.2,0,0,1-.8-2.34A27.66,27.66,0,0,0,585.37,194.88Zm-18.51,27.67c-.15.59.2.83.49,1.08q7.86,6.48,15.71,13a1,1,0,0,0,1.62-.12c1.6-1.73,3.22-3.45,4.88-5.14.68-.7.62-1.18-.12-1.8q-8.07-6.69-16.09-13.43c-.8-.67-1.32-.6-1.92.23-1.36,1.87-2.77,3.71-4.15,5.56C567.11,222.13,567,222.39,566.86,222.55Zm35.32-25.34a1.33,1.33,0,0,0,.56,1.76q6,3.93,12.08,7.9c.66.43,1,.31,1.38-.38,1.32-2.79,2.67-5.58,4-8.36a.94.94,0,0,0-.36-1.38q-6-3.81-12.07-7.64c-.46-.29-.95-.42-1.29.12C604.84,191.88,602.72,194.29,602.18,197.21Z"/></g><g id="_6Xu51e.tif-5" data-name="6Xu51e.tif"><path class="cls-8" d="M339.7,134.42l-.1.63c-2.11,3.46-3.8,7.13-5.69,10.7-1.09,2.07-1.54,2.06.72,3.74.79.59,1,1.12.26,2q-5.77,6.81-11.49,13.69c-.52.62-1.07,1.11-1.87.5-1.06-.82-1.76-.36-2.56.48-2.74,2.9-5.59,5.69-8.31,8.61-1,1.11-1.87,1.43-3,.23a1.27,1.27,0,0,0-2.05-.13c-2.76,2.5-5.56,4.95-8.35,7.41l-.63-.09-8.82-5.74a39.07,39.07,0,0,0-6.7-3.64c-9.47-3.81-18.88-7.74-28.33-11.58a2.85,2.85,0,0,1-2-2.05c-.22-1-.95-1.4-1.95-1.54q-6.71-1-13.41-2a25.79,25.79,0,0,1-4.69-.85l.62-4.1c1.47,1.05,3.19,1.14,4.9,1.43,4.35.75,8.67,1.64,13,2.55,1.13.23,1.52-.17,1.67-1.23q.69-4.65,1.49-9.29c.46-2.72.76-5.49,2.9-7.58.82-.8.36-1.25-.58-1.52-5.37-1.49-10.74-3-16.11-4.51-.51-.14-1.2-.6-1.48.26s.45,1.11,1.06,1.31c1.05.35,2.14.61,3.2,1a55.74,55.74,0,0,1,6.38,2.08,1.62,1.62,0,0,1-1.47.46c-2.76-.1-5.52-.14-8.28-.31-1.22-.07-1.75.38-1.89,1.56-.18,1.53-.47,3.05-.68,4.58-.15,1.14-.26,2.43-1.86,2.13s-.7-1.58-.58-2.36q2.85-17.11,5.79-34.23c.36-2.11.36-2.18,2.54-1.7q11.91,2.63,23.79,5.36a3.39,3.39,0,0,0,2.31-.18q14.93-6.89,29.86-13.73l.63.1c.66.53,1.3,1.09,2,1.59q11.44,8.36,22.89,16.71c3.11,2.29,2.92,1.47,1.39,5-.25.59-.49,1.18-.77,1.75a1.25,1.25,0,0,0,.53,1.77Zm-71.17,1.77a1.76,1.76,0,0,1,1.69-.43c5,.83,10.08,1.63,15.1,2.55a3.78,3.78,0,0,0,3.64-.9c3.38-3.08,6.84-6.07,10.3-9.07a2.53,2.53,0,0,0,1-2.33c-.14-1.69-.16-3.4-.19-5.1,0-.23.11-.6.28-.67.38-.18.57.19.68.48.26.7.5,1.4.7,2.12s.57,1.35,1.31.38c.34-.45.7-.89,1.3-.55s.3.94.2,1.44-.24.81-.37,1.22c-1.29,3.88-2.55,7.77-3.88,11.64a2.15,2.15,0,0,0,.63,2.55c1.68,1.63,3.27,3.35,4.9,5,1.88,1.92,1.92,1.93,2.89-.5,3.4-8.5,7-16.9,12.22-24.48.75-1.08.4-1.63-.55-2.29q-11.07-7.69-22.07-15.48a2.41,2.41,0,0,0-2.63-.3q-13.11,5.69-26.25,11.25a3.51,3.51,0,0,0-1.91,1.8c-1.41,2.86-2.87,5.7-4.32,8.53-.25.49-.39,1.09-1.05,1.38a2.85,2.85,0,0,1,.05-1.62c.46-2.62.91-5.24,1.44-7.85.21-1,.06-1.59-1.09-1.81-6.67-1.31-13.34-2.68-20-4-2.14-.42-2.19-.34-2.53,1.87q-1.08,7.17-2.17,14.35c-.51,3.36-.5,3.31,2.88,4,6.74,1.3,13.46,2.67,20.18,4,.35.07.82,0,.95.43s-.3.65-.57.88c-1.72,1.43-3.43,2.87-5.17,4.27a3.36,3.36,0,0,0-1.32,2.42q-.78,7.62-1.63,15.23a2,2,0,0,0,1.48,2.42c5.54,2.05,11,4.19,16.54,6.3l6.89,2.63a18.67,18.67,0,0,0-3.48-3.56c-1.12-.9-1-1.59-.08-2.57,2.19-2.25,4.29-4.58,6.41-6.89.38-.42,1.07-.93.65-1.48-1.16-1.55,0-2.43.81-3.44,1.44-1.85,1.45-1.84-.56-2.8-.06,0,0-.19-.08-.36a12.83,12.83,0,0,1,3.07-.59c.54-.12,1.12-.43,1.09-1s-.73-.44-1.16-.5c-2.16-.29-4.33-.54-6.49-.84-.51-.07-1.16,0-1.51-.89l6.27-.85,0-.3ZM285,151.76c0,.66.4.93.76,1.23l21.82,18.43a1.21,1.21,0,0,0,2-.13q3.31-3.67,6.74-7.24c.88-.9.69-1.44-.24-2.14q-11.62-8.83-23.2-17.73c-.89-.68-1.43-.57-2.09.28-1.71,2.17-3.48,4.3-5.22,6.45A9.72,9.72,0,0,0,285,151.76Zm12.67-18.84c-1.53,2.23-2.72,4.12-4.07,5.89-.94,1.23-.71,1.93.48,2.82q13.54,10.14,27,20.39c.94.72,1.45.69,2.15-.29q3.54-4.92,7.24-9.73c.78-1,.66-1.57-.41-2.26q-7.31-4.71-14.52-9.55c-1.13-.76-1.63-.46-2.17.63-1.3,2.62-2.71,5.18-4,7.8-.54,1.07-1.05,1.26-2,.41q-4.78-4.22-9.68-8.33a2.38,2.38,0,0,1-.86-2.52A29.9,29.9,0,0,0,297.7,132.92Zm-20,29.9c-.16.63.21.9.53,1.16q8.49,7,17,14a1.08,1.08,0,0,0,1.75-.13c1.73-1.87,3.48-3.73,5.27-5.55.74-.76.68-1.28-.12-1.95q-8.73-7.23-17.4-14.51c-.86-.73-1.42-.65-2.07.24-1.46,2-3,4-4.48,6C278,162.37,277.8,162.64,277.69,162.82Zm38.18-27.39a1.42,1.42,0,0,0,.6,1.9c4.36,2.84,8.72,5.67,13.06,8.54.71.47,1.13.34,1.48-.41q2.16-4.53,4.34-9a1,1,0,0,0-.39-1.49q-6.52-4.11-13-8.25c-.49-.32-1-.46-1.39.13C318.74,129.67,316.45,132.27,315.87,135.43Z"/></g><g id="_6Xu51e.tif-6" data-name="6Xu51e.tif"><path class="cls-9" d="M340.7,130.42l-.1.63c-2.11,3.46-3.8,7.13-5.69,10.7-1.09,2.07-1.54,2.06.72,3.74.79.59,1,1.12.26,2q-5.77,6.81-11.49,13.69c-.52.62-1.07,1.11-1.87.5-1.06-.82-1.76-.36-2.56.48-2.74,2.9-5.59,5.69-8.31,8.61-1,1.11-1.87,1.43-3,.23a1.27,1.27,0,0,0-2.05-.13c-2.76,2.5-5.56,4.95-8.35,7.41l-.63-.09-8.82-5.74a39.07,39.07,0,0,0-6.7-3.64c-9.47-3.81-18.88-7.74-28.33-11.58a2.85,2.85,0,0,1-2-2.05c-.22-1-.95-1.4-1.95-1.54q-6.71-1-13.41-2a25.79,25.79,0,0,1-4.69-.85l.62-4.1c1.47,1.05,3.19,1.14,4.9,1.43,4.35.75,8.67,1.64,13,2.55,1.13.23,1.52-.17,1.67-1.23q.69-4.65,1.49-9.29c.46-2.72.76-5.49,2.9-7.58.82-.8.36-1.25-.58-1.52-5.37-1.49-10.74-3-16.11-4.51-.51-.14-1.2-.6-1.48.26s.45,1.11,1.06,1.31c1.05.35,2.14.61,3.2,1a55.74,55.74,0,0,1,6.38,2.08,1.62,1.62,0,0,1-1.47.46c-2.76-.1-5.52-.14-8.28-.31-1.22-.07-1.75.38-1.89,1.56-.18,1.53-.47,3.05-.68,4.58-.15,1.14-.26,2.43-1.86,2.13s-.7-1.58-.58-2.36q2.85-17.11,5.79-34.23c.36-2.11.36-2.18,2.54-1.7q11.91,2.63,23.79,5.36a3.39,3.39,0,0,0,2.31-.18q14.93-6.89,29.86-13.73l.63.1c.66.53,1.3,1.09,2,1.59q11.44,8.36,22.89,16.71c3.11,2.29,2.92,1.47,1.39,5-.25.59-.49,1.18-.77,1.75a1.25,1.25,0,0,0,.53,1.77Zm-71.17,1.77a1.76,1.76,0,0,1,1.69-.43c5,.83,10.08,1.63,15.1,2.55a3.78,3.78,0,0,0,3.64-.9c3.38-3.08,6.84-6.07,10.3-9.07a2.53,2.53,0,0,0,1-2.33c-.14-1.69-.16-3.4-.19-5.1,0-.23.11-.6.28-.67.38-.18.57.19.68.48.26.7.5,1.4.7,2.12s.57,1.35,1.31.38c.34-.45.7-.89,1.3-.55s.3.94.2,1.44-.24.81-.37,1.22c-1.29,3.88-2.55,7.77-3.88,11.64a2.15,2.15,0,0,0,.63,2.55c1.68,1.63,3.27,3.35,4.9,5,1.88,1.92,1.92,1.93,2.89-.5,3.4-8.5,7-16.9,12.22-24.48.75-1.08.4-1.63-.55-2.29q-11.07-7.69-22.07-15.48a2.41,2.41,0,0,0-2.63-.3q-13.11,5.69-26.25,11.25a3.51,3.51,0,0,0-1.91,1.8c-1.41,2.86-2.87,5.7-4.32,8.53-.25.49-.39,1.09-1.05,1.38a2.85,2.85,0,0,1,.05-1.62c.46-2.62.91-5.24,1.44-7.85.21-1,.06-1.59-1.09-1.81-6.67-1.31-13.34-2.68-20-4-2.14-.42-2.19-.34-2.53,1.87q-1.08,7.17-2.17,14.35c-.51,3.36-.5,3.31,2.88,4,6.74,1.3,13.46,2.67,20.18,4,.35.07.82,0,.95.43s-.3.65-.57.88c-1.72,1.43-3.43,2.87-5.17,4.27a3.36,3.36,0,0,0-1.32,2.42q-.78,7.62-1.63,15.23a2,2,0,0,0,1.48,2.42c5.54,2.05,11,4.19,16.54,6.3l6.89,2.63a18.67,18.67,0,0,0-3.48-3.56c-1.12-.9-1-1.59-.08-2.57,2.19-2.25,4.29-4.58,6.41-6.89.38-.42,1.07-.93.65-1.48-1.16-1.55,0-2.43.81-3.44,1.44-1.85,1.45-1.84-.56-2.8-.06,0,0-.19-.08-.36a12.83,12.83,0,0,1,3.07-.59c.54-.12,1.12-.43,1.09-1s-.73-.44-1.16-.5c-2.16-.29-4.33-.54-6.49-.84-.51-.07-1.16,0-1.51-.89l6.27-.85,0-.3ZM286,147.76c0,.66.4.93.76,1.23l21.82,18.43a1.21,1.21,0,0,0,2-.13q3.31-3.67,6.74-7.24c.88-.9.69-1.44-.24-2.14q-11.62-8.83-23.2-17.73c-.89-.68-1.43-.57-2.09.28-1.71,2.17-3.48,4.3-5.22,6.45A9.72,9.72,0,0,0,286,147.76Zm12.67-18.84c-1.53,2.23-2.72,4.12-4.07,5.89-.94,1.23-.71,1.93.48,2.82q13.54,10.14,27,20.39c.94.72,1.45.69,2.15-.29q3.54-4.92,7.24-9.73c.78-1,.66-1.57-.41-2.26q-7.31-4.71-14.52-9.55c-1.13-.76-1.63-.46-2.17.63-1.3,2.62-2.71,5.18-4,7.8-.54,1.07-1.05,1.26-2,.41q-4.78-4.22-9.68-8.33a2.38,2.38,0,0,1-.86-2.52A29.9,29.9,0,0,0,298.7,128.92Zm-20,29.9c-.16.63.21.9.53,1.16q8.49,7,17,14a1.08,1.08,0,0,0,1.75-.13c1.73-1.87,3.48-3.73,5.27-5.55.74-.76.68-1.28-.12-1.95q-8.73-7.23-17.4-14.51c-.86-.73-1.42-.65-2.07.24-1.46,2-3,4-4.48,6C279,158.37,278.8,158.64,278.69,158.82Zm38.18-27.39a1.42,1.42,0,0,0,.6,1.9c4.36,2.84,8.72,5.67,13.06,8.54.71.47,1.13.34,1.48-.41q2.16-4.53,4.34-9a1,1,0,0,0-.39-1.49q-6.52-4.11-13-8.25c-.49-.32-1-.46-1.39.13C319.74,125.67,317.45,128.27,316.87,131.43Z"/></g><path class="cls-10" d="M757.12,313.08c7.63.76,13.14,8.12,12.31,16.44s-7.68,14.45-15.31,13.69l-490.4-48.72L88.9,249.73C81.66,249,76.42,242,77.2,234.12s7.3-13.73,14.55-13l6-67.87,26,33-5.12,37.53-.9,9,144.33,35.65Z"/><path class="cls-11" d="M760.56,278.43s-28.39-121.49-177.78-92.21L102.21,108.8c1.86-18.72,17.28-32.51,34.45-30.81l114,11.32c19.34,1.93,305.54,69.92,305.54,69.92l33.09-24.1,76,7.55S773.28,150.37,760.56,278.43Z"/><ellipse class="cls-12" cx="211.68" cy="258.95" rx="97.59" ry="96.98"/><ellipse class="cls-13" cx="211.68" cy="258.95" rx="94.98" ry="94.38"/><ellipse cx="211.68" cy="258.95" rx="71.45" ry="71"/><ellipse class="cls-14" cx="211.68" cy="258.95" rx="67.96" ry="67.54"/><ellipse class="cls-15" cx="211.68" cy="258.95" rx="64.48" ry="64.08"/><ellipse class="cls-16" cx="211.68" cy="258.95" rx="40.08" ry="39.83"/><ellipse class="cls-17" cx="211.68" cy="258.95" rx="36.6" ry="36.37"/><ellipse class="cls-12" cx="656.45" cy="295.95" rx="73.88" ry="73.41"/><ellipse class="cls-13" cx="656.45" cy="295.95" rx="71.9" ry="71.45"/><ellipse cx="656.45" cy="295.95" rx="54.09" ry="53.75"/><ellipse class="cls-14" cx="656.45" cy="295.95" rx="51.45" ry="51.13"/><ellipse class="cls-15" cx="656.45" cy="295.95" rx="48.81" ry="48.51"/><ellipse class="cls-16" cx="656.45" cy="295.95" rx="30.34" ry="30.15"/><ellipse class="cls-17" cx="656.45" cy="295.95" rx="27.7" ry="27.53"/><path class="cls-18" d="M527.46,153.33c-32.13-83.82-53.15-82.87-53.15-82.87S422,63.74,405.24,63.6s-23.3,9.85-23.3,9.85l-19.12,24s-12.55,14,14.78,19.72C399.4,121.74,527.46,153.33,527.46,153.33Z"/><path class="cls-19" d="M546.15,77.6l44.49,57.67-30.18,22.86-39.3-67.8s-7.39-9.86,1.35-13.56Z"/></g></g></g></g></svg>