<svg xmlns="http://www.w3.org/2000/svg" xmlns:xlink="http://www.w3.org/1999/xlink" viewBox="0 0 911.7 455.33"><defs><style>.cls-1{fill:none;}.cls-2{fill:url(#linear-gradient);}.cls-3{fill:#8e2525;}.cls-4{clip-path:url(#clip-path);}.cls-5{fill:#ff0303;}.cls-6{fill:#9b9b9b;}.cls-7{fill:#191919;}.cls-8{fill:#d6d6d6;}.cls-9{clip-path:url(#clip-path-2);}.cls-10{fill:#5e5e5e;}.cls-11{fill:#777;}.cls-12{fill:#32323f;}.cls-13{fill:#474757;}.cls-14{fill:#fff;}.cls-15{fill:#ddd;}.cls-16{fill:#bac0d8;}.cls-17{fill:#acafbc;}</style><linearGradient id="linear-gradient" x1="419.73" y1="220.66" x2="479.51" y2="220.66" gradientUnits="userSpaceOnUse"><stop offset="0" stop-color="#c9e7f9"/><stop offset="1" stop-color="#aafff9"/></linearGradient><clipPath id="clip-path"><path class="cls-1" d="M475.51,209.52a1.11,1.11,0,0,0-.22-.3c0-.05,0-.09,0-.14-2.69-6.46-9.87-18.23-26.76-19.51-23.43-1.78-28.76,16.61-28.76,22.54v15.13a7.13,7.13,0,0,0,2,4.63h-.49v12l38.86,6.72v-1.89l9.81,4.13a5.53,5.53,0,0,0,6.62-1.94,30.75,30.75,0,0,0,4.19-11.47.41.41,0,0,0,0-.11,1.3,1.3,0,0,0,.16-.55C482,223.86,475.78,210.1,475.51,209.52Zm-43.92,10.6a4,4,0,1,1-4,4A4,4,0,0,1,431.59,220.12Zm44.85,15.5c-3.4,0-8.55-.87-14.61-5.13-7-4.94-10.53-12.2-12.14-16.78-.81-2.31.2-6.17,2.65-6.06,1.59.07,3.72.82,6.53,3,4.49,3.45,9.79,3.79,13.43,3.46a3.45,3.45,0,0,0,1.63-.56,64.78,64.78,0,0,1,4.1,22.29A6.3,6.3,0,0,0,476.44,235.62Z"/></clipPath><clipPath id="clip-path-2"><path class="cls-1" d="M843.59,401.66,120.82,347.17a63.51,63.51,0,0,1-58.56-68.11h0a63.51,63.51,0,0,1,68.11-58.56l519.51,39.77c35,2.63,224.92,50.81,261.82,82.83h0A63.52,63.52,0,0,1,843.59,401.66Z"/></clipPath></defs><title>premium-drag-red</title><g id="Layer_2" data-name="Layer 2"><g id="Premium"><g id="premium-drag-red"><polygon class="cls-2" points="479.51 237.1 419.73 241.58 435.42 199.74 475.02 211.69 479.51 237.1"/><path class="cls-3" d="M475.51,209.52a1.11,1.11,0,0,0-.22-.3c0-.05,0-.09,0-.14-2.69-6.46-9.87-18.23-26.76-19.51-23.43-1.78-28.76,16.61-28.76,22.54v15.13a7.13,7.13,0,0,0,2,4.63h-.49v12l38.86,6.72v-1.89l9.81,4.13a5.53,5.53,0,0,0,6.62-1.94,30.75,30.75,0,0,0,4.19-11.47.41.41,0,0,0,0-.11,1.3,1.3,0,0,0,.16-.55C482,223.86,475.78,210.1,475.51,209.52Zm-43.92,10.6a4,4,0,1,1-4,4A4,4,0,0,1,431.59,220.12Zm44.85,15.5c-3.4,0-8.55-.87-14.61-5.13-7-4.94-10.53-12.2-12.14-16.78-.81-2.31.2-6.17,2.65-6.06,1.59.07,3.72.82,6.53,3,4.49,3.45,9.79,3.79,13.43,3.46a3.45,3.45,0,0,0,1.63-.56,64.78,64.78,0,0,1,4.1,22.29A6.3,6.3,0,0,0,476.44,235.62Z"/><g class="cls-4"><polygon class="cls-5" points="364.03 154.98 359.27 161.69 438.41 217.76 438.41 315.56 446.63 315.56 446.63 213.94 364.03 154.98"/></g><rect class="cls-6" x="726.84" y="262.51" width="101.62" height="44.09"/><polygon class="cls-6" points="807.54 268.49 747.77 268.49 747.77 237.85 822.49 235.61 807.54 268.49"/><path class="cls-7" d="M822.49,235.61l-12.23,26.9S806.05,248.31,822.49,235.61Z"/><path class="cls-8" d="M726.84,262.51l62.43.15s-25.81,6.57-62.43,5.82Z"/><rect class="cls-7" x="801.57" y="269.98" width="20.92" height="2.24" transform="translate(65.96 -148.74) rotate(10.91)"/><rect class="cls-7" x="799.33" y="274.46" width="20.92" height="2.24" transform="translate(66.77 -148.23) rotate(10.91)"/><path class="cls-5" d="M843.59,401.66,120.82,347.17a63.51,63.51,0,0,1-58.56-68.11h0a63.51,63.51,0,0,1,68.11-58.56l519.51,39.77c35,2.63,224.92,50.81,261.82,82.83h0A63.52,63.52,0,0,1,843.59,401.66Z"/><g class="cls-9"><rect class="cls-3" x="445.88" y="252.05" width="365.4" height="23.16" transform="translate(575.68 -415.94) rotate(62.8)"/><rect class="cls-3" x="404.78" y="263.25" width="365.4" height="23.16" transform="translate(563.34 -373.31) rotate(62.8)"/><rect class="cls-3" x="361.44" y="275.96" width="365.4" height="23.16" transform="translate(551.11 -327.86) rotate(62.8)"/></g><rect class="cls-3" x="88.69" y="348.06" width="823.35" height="37.36" rx="18.68" transform="translate(22.19 -28.5) rotate(3.34)"/><polygon class="cls-5" points="448.12 166.86 211.99 127.26 211.99 259.52 444.39 274.46 407.77 188.53 448.12 166.86"/><rect class="cls-10" x="290.59" y="253.97" width="26.9" height="7.6" transform="translate(-71.2 123.31) rotate(-20.58)"/><rect class="cls-10" x="297.88" y="273.37" width="26.9" height="7.6" transform="translate(-77.56 127.11) rotate(-20.58)"/><rect class="cls-11" x="278.58" y="61.01" width="20.92" height="177.53" transform="translate(-34.2 111.15) rotate(-20.58)"/><ellipse class="cls-10" cx="258.81" cy="69.26" rx="10.46" ry="9.67" transform="translate(-7.83 95.39) rotate(-20.58)"/><ellipse class="cls-6" cx="257.84" cy="66.68" rx="10.46" ry="9.67" transform="matrix(0.94, -0.35, 0.35, 0.94, -6.98, 94.88)"/><ellipse class="cls-7" cx="257.84" cy="66.68" rx="8.97" ry="8.29" transform="translate(-6.98 94.88) rotate(-20.58)"/><rect class="cls-6" x="316.51" y="195.07" width="35.87" height="151.28" transform="translate(-73.81 134.82) rotate(-20.58)"/><rect class="cls-11" x="233.81" y="77.82" width="20.92" height="177.53" transform="translate(-42.97 96.48) rotate(-20.58)"/><ellipse class="cls-10" cx="214.04" cy="86.07" rx="10.46" ry="9.67" transform="translate(-16.6 80.72) rotate(-20.58)"/><ellipse class="cls-6" cx="213.07" cy="83.49" rx="10.46" ry="9.67" transform="translate(-15.75 80.22) rotate(-20.58)"/><ellipse class="cls-7" cx="213.07" cy="83.49" rx="8.97" ry="8.29" transform="translate(-15.75 80.22) rotate(-20.58)"/><rect class="cls-6" x="271.74" y="211.88" width="35.87" height="151.28" transform="translate(-82.57 120.16) rotate(-20.58)"/><rect class="cls-10" x="92.52" y="209.5" width="26.9" height="8.1" transform="translate(-68.3 50.87) rotate(-20.58)"/><rect class="cls-10" x="100.29" y="230.19" width="26.9" height="8.1" transform="translate(-75.07 54.92) rotate(-20.58)"/><rect class="cls-11" x="78.03" y="4.29" width="20.92" height="189.31" transform="translate(-29.13 37.41) rotate(-20.58)"/><ellipse class="cls-10" cx="56.25" cy="13.09" rx="10.46" ry="10.31" transform="translate(-1.01 20.61) rotate(-20.58)"/><ellipse class="cls-6" cx="55.22" cy="10.33" rx="10.46" ry="10.31" transform="matrix(0.94, -0.35, 0.35, 0.94, -0.11, 20.07)"/><ellipse class="cls-7" cx="55.22" cy="10.33" rx="8.97" ry="8.84" transform="translate(-0.11 20.07) rotate(-20.58)"/><rect class="cls-6" x="118.97" y="147.24" width="35.87" height="161.31" transform="translate(-71.37 62.66) rotate(-20.58)"/><rect class="cls-11" x="33.25" y="21.1" width="20.92" height="189.31" transform="translate(-37.9 22.75) rotate(-20.58)"/><ellipse class="cls-10" cx="11.48" cy="29.9" rx="10.46" ry="10.31" transform="translate(-9.78 5.94) rotate(-20.58)"/><ellipse class="cls-6" cx="10.45" cy="27.14" rx="10.46" ry="10.31" transform="translate(-8.87 5.4) rotate(-20.58)"/><ellipse class="cls-7" cx="10.45" cy="27.14" rx="8.97" ry="8.84" transform="translate(-8.87 5.4) rotate(-20.58)"/><rect class="cls-6" x="74.19" y="164.05" width="35.87" height="161.31" transform="translate(-80.13 48) rotate(-20.58)"/><rect class="cls-10" x="192.97" y="238.95" width="26.9" height="8.2" transform="matrix(0.94, -0.35, 0.35, 0.94, -72.25, 88.06)"/><rect class="cls-10" x="200.83" y="259.87" width="26.9" height="8.2" transform="translate(-79.11 92.16) rotate(-20.58)"/><rect class="cls-11" x="178.01" y="31.46" width="20.92" height="191.51" transform="translate(-32.69 74.36) rotate(-20.58)"/><ellipse class="cls-10" cx="155.86" cy="40.35" rx="10.46" ry="10.43" transform="translate(-4.24 57.36) rotate(-20.58)"/><ellipse class="cls-6" cx="154.82" cy="37.56" rx="10.46" ry="10.43" transform="matrix(0.94, -0.35, 0.35, 0.94, -3.33, 56.81)"/><ellipse class="cls-7" cx="154.82" cy="37.56" rx="8.97" ry="8.94" transform="translate(-3.33 56.81) rotate(-20.58)"/><rect class="cls-6" x="219.52" y="176.07" width="35.87" height="163.19" transform="translate(-75.41 99.9) rotate(-20.58)"/><rect class="cls-11" x="133.24" y="48.26" width="20.92" height="191.51" transform="translate(-41.45 59.7) rotate(-20.58)"/><ellipse class="cls-10" cx="111.09" cy="57.16" rx="10.46" ry="10.43" transform="translate(-13 42.69) rotate(-20.58)"/><ellipse class="cls-6" cx="110.04" cy="54.37" rx="10.46" ry="10.43" transform="translate(-12.09 42.15) rotate(-20.58)"/><ellipse class="cls-7" cx="110.04" cy="54.37" rx="8.97" ry="8.94" transform="translate(-12.09 42.15) rotate(-20.58)"/><rect class="cls-6" x="174.74" y="192.88" width="35.87" height="163.19" transform="matrix(0.94, -0.35, 0.35, 0.94, -84.18, 85.23)"/><ellipse class="cls-12" cx="161.69" cy="310.99" rx="124.02" ry="124.8" transform="translate(-155.82 459.46) rotate(-87.59)"/><ellipse class="cls-13" cx="161.69" cy="310.99" rx="120.7" ry="121.46" transform="translate(-155.82 459.46) rotate(-87.59)"/><ellipse cx="161.69" cy="310.99" rx="90.8" ry="91.37" transform="translate(-155.82 459.46) rotate(-87.59)"/><ellipse class="cls-14" cx="161.69" cy="310.99" rx="86.37" ry="86.92" transform="translate(-155.82 459.46) rotate(-87.59)"/><ellipse class="cls-15" cx="161.69" cy="310.99" rx="81.94" ry="82.46" transform="translate(-155.82 459.46) rotate(-87.59)"/><ellipse class="cls-16" cx="161.69" cy="310.99" rx="50.94" ry="51.26" transform="translate(-155.82 459.46) rotate(-87.59)"/><ellipse class="cls-17" cx="161.69" cy="310.99" rx="46.51" ry="46.8" transform="translate(-155.82 459.46) rotate(-87.59)"/><ellipse class="cls-12" cx="681.06" cy="361.46" rx="71.27" ry="71.72" transform="translate(291.29 1026.73) rotate(-87.59)"/><ellipse class="cls-13" cx="681.06" cy="361.46" rx="69.36" ry="69.8" transform="translate(291.29 1026.73) rotate(-87.59)"/><ellipse cx="681.06" cy="361.46" rx="52.18" ry="52.51" transform="translate(291.29 1026.73) rotate(-87.59)"/><ellipse class="cls-14" cx="681.06" cy="361.46" rx="49.63" ry="49.95" transform="translate(291.29 1026.73) rotate(-87.59)"/><ellipse class="cls-15" cx="681.06" cy="361.46" rx="47.09" ry="47.39" transform="translate(291.29 1026.73) rotate(-87.59)"/><ellipse class="cls-16" cx="681.06" cy="361.46" rx="29.27" ry="29.46" transform="matrix(0.04, -1, 1, 0.04, 291.29, 1026.73)"/><ellipse class="cls-17" cx="681.06" cy="361.46" rx="26.73" ry="26.89" transform="translate(291.29 1026.73) rotate(-87.59)"/></g></g></g></svg>