<svg xmlns="http://www.w3.org/2000/svg" xmlns:xlink="http://www.w3.org/1999/xlink" viewBox="0 0 804.94 385.82"><defs><style>.cls-1{isolation:isolate;}.cls-2{fill:url(#radial-gradient);}.cls-3{fill:#ff0303;}.cls-4{fill:#fa0;}.cls-5{fill:#b71616;}.cls-6{fill:#4f2121;}.cls-7{opacity:0.13;mix-blend-mode:multiply;}.cls-8{fill:#32323f;}.cls-9{fill:#474757;}.cls-10{fill:#fff;}.cls-11{fill:#ddd;}.cls-12{fill:#bac0d8;}.cls-13{fill:#acafbc;}.cls-14{fill:url(#linear-gradient);}.cls-15{fill:url(#linear-gradient-2);}</style><radialGradient id="radial-gradient" cx="197.41" cy="103.28" r="30.31" gradientTransform="matrix(1.03, 0.1, -0.11, 1.13, -9.16, -54.69)" gradientUnits="userSpaceOnUse"><stop offset="0" stop-color="#dcdcdc"/><stop offset="0.69" stop-color="#a3a3a3"/><stop offset="1" stop-color="#878787"/></radialGradient><linearGradient id="linear-gradient" x1="389.1" y1="119.45" x2="560.65" y2="119.45" gradientTransform="matrix(1, 0.1, -0.1, 1, 20.64, -43.27)" gradientUnits="userSpaceOnUse"><stop offset="0" stop-color="#c9e7f9"/><stop offset="1" stop-color="#aafff9"/></linearGradient><linearGradient id="linear-gradient-2" x1="544.46" y1="120.55" x2="621.73" y2="120.55" xlink:href="#linear-gradient"/></defs><title>premium-fire</title><g class="cls-1"><g id="Layer_2" data-name="Layer 2"><g id="Premium"><g id="premium-fire"><polygon class="cls-2" points="189.39 109.86 149.19 51.09 194.78 55.62 217.02 112.6 189.39 109.86"/><path class="cls-3" d="M624.68,151.58l76,7.55c59.51,5.92,102.53,63.32,96.08,128.22l-4.19,42.19c7.62.75,13.14,8.11,12.31,16.43s-7.68,14.45-15.31,13.7l-490.4-48.73L124.33,266.19c-7.25-.72-12.48-7.71-11.7-15.62s7.3-13.73,14.55-13l10.46-112.31c1.86-18.72,17.28-32.51,34.45-30.81l114,11.33L401.17,56.35a75.09,75.09,0,0,1,25.62-5.06c14-.14,110.21,14,110.21,14s30.84-1.5,44.57,28.77,44.35,59.18,44.35,59.18"/><path class="cls-4" d="M560.21,331.78s-92.78-1.3-101.36-51.35c0,0,15.62,1.33,25-5,0,0-58-5.54-109-29,0,0,40.81,8,46.64,1.76,0,0-73.89-17.07-91.48-39.41,0,0,43.82,4.93,93.26,5.83,51.12.94-76.66-20.77-69.89-20.67,68.09,1,167.16-34.89,196,52.66,0,0,10.47-17.17-4.53-35.17,0,0,46,12,46.54,53.07,0,0,13.46-13.07,4.46-29.07,0,0,66,19,54.36,77.25C650.21,312.68,629.73,340.4,560.21,331.78Z"/><path class="cls-5" d="M629.85,302.43s6-30-20-47c0,0-8,29-20,29,0,0-11-30-24-39,0,0-4,16-15,19,0,0-32-55-69-49,0,0,13,7,19,20,0,0-9,4-28-3,0,0,18,22,34,20,0,0-5,8-29,6,0,0,34,20,37,19s-19,12-28,11c0,0,23.43,41.06,139.22,39Z"/><path class="cls-4" d="M155.93,79.85S93.7,78,87.31,50.63c0,0,10.49.93,16.7-2.4,0,0-39-3.74-73.46-17.15,0,0,27.47,4.9,31.3,1.55,0,0-49.77-10.22-61.85-22.59,0,0,29.45,3.23,62.61,4.35C96.91,15.56,10.94,2.12,15.48,2.26,61.16,3.68,127.13-14.58,147.59,33.39c0,0,6.8-9.2-3.49-19.18,0,0,31,7.11,31.89,29.45,0,0,8.85-6.94,2.62-15.75,0,0,44.5,11.17,37.43,42.7C216,70.61,202.66,85.42,155.93,79.85Z"/><path class="cls-5" d="M212.85,68.43s-9-18-24-25c0,0-7,11-19,9,0,0-7-12-13-18,0,0,1,12-11,12,0,0-15-16-23-16,0,0,10,10,6,21,0,0-10,7-17,6C111.85,57.43,147.85,87.43,212.85,68.43Z"/><path class="cls-6" d="M792.55,329.54c7.62.75,13.14,8.11,12.31,16.43s-7.68,14.45-15.31,13.7l-490.4-48.73L124.33,266.19c-7.25-.72-12.48-7.71-11.7-15.62s7.3-13.73,14.55-13l6-67.86,26,33-5.13,37.53-.89,9,144.33,35.64Z"/><path class="cls-7" d="M796,294.88S767.6,173.39,618.21,202.67L137.64,125.25c1.86-18.72,17.28-32.51,34.45-30.81l114,11.33c19.34,1.92,305.55,69.91,305.55,69.91l33.08-24.1,76,7.55S808.71,166.83,796,294.88Z"/><ellipse class="cls-8" cx="247.11" cy="275.41" rx="97.59" ry="96.98"/><ellipse class="cls-9" cx="247.11" cy="275.41" rx="94.98" ry="94.38"/><ellipse cx="247.11" cy="275.41" rx="71.45" ry="71"/><ellipse class="cls-10" cx="247.11" cy="275.41" rx="67.96" ry="67.54"/><ellipse class="cls-11" cx="247.11" cy="275.41" rx="64.48" ry="64.08"/><ellipse class="cls-12" cx="247.11" cy="275.41" rx="40.08" ry="39.83"/><ellipse class="cls-13" cx="247.11" cy="275.41" rx="36.6" ry="36.37"/><ellipse class="cls-8" cx="691.88" cy="312.41" rx="73.88" ry="73.41"/><ellipse class="cls-9" cx="691.88" cy="312.41" rx="71.9" ry="71.45"/><ellipse cx="691.88" cy="312.41" rx="54.09" ry="53.75"/><ellipse class="cls-10" cx="691.88" cy="312.41" rx="51.45" ry="51.13"/><ellipse class="cls-11" cx="691.88" cy="312.41" rx="48.81" ry="48.51"/><ellipse class="cls-12" cx="691.88" cy="312.41" rx="30.34" ry="30.15"/><ellipse class="cls-13" cx="691.88" cy="312.41" rx="27.7" ry="27.53"/><path class="cls-14" d="M562.89,169.79C530.76,86,509.74,86.91,509.74,86.91s-52.34-6.72-69.07-6.86-23.3,9.86-23.3,9.86l-19.12,24s-12.55,14,14.78,19.73C434.83,138.19,562.89,169.79,562.89,169.79Z"/><path class="cls-15" d="M581.57,94.05l44.5,57.67-30.18,22.87-39.3-67.81s-7.39-9.86,1.35-13.56Z"/></g></g></g></g></svg>