<svg xmlns="http://www.w3.org/2000/svg" xmlns:xlink="http://www.w3.org/1999/xlink" viewBox="0 0 911.7 435.02"><defs><style>.cls-1{fill:none;}.cls-2{fill:url(#linear-gradient);}.cls-3{fill:#257ad6;}.cls-4{clip-path:url(#clip-path);}.cls-5{fill:#35ccef;}.cls-6{fill:#9b9b9b;}.cls-7{fill:#191919;}.cls-8{fill:#d6d6d6;}.cls-9{fill:#1813e5;}.cls-10{fill:#fff;}.cls-11{fill:#98dbe1;}.cls-12{fill:#5e5e5e;}.cls-13{fill:#777;}.cls-14{fill:#32323f;}.cls-15{fill:#474757;}.cls-16{fill:#ddd;}.cls-17{fill:#bac0d8;}.cls-18{fill:#acafbc;}</style><linearGradient id="linear-gradient" x1="419.73" y1="220.66" x2="479.51" y2="220.66" gradientUnits="userSpaceOnUse"><stop offset="0" stop-color="#c9e7f9"/><stop offset="1" stop-color="#aafff9"/></linearGradient><clipPath id="clip-path"><path class="cls-1" d="M475.51,209.52a1.11,1.11,0,0,0-.22-.3c0-.05,0-.09,0-.14-2.69-6.46-9.87-18.23-26.76-19.51-23.43-1.78-28.76,16.61-28.76,22.54v15.13a7.13,7.13,0,0,0,2,4.63h-.49v12l38.86,6.72v-1.89l9.81,4.13a5.53,5.53,0,0,0,6.62-1.94,30.75,30.75,0,0,0,4.19-11.47.41.41,0,0,0,0-.11,1.3,1.3,0,0,0,.16-.55C482,223.86,475.78,210.1,475.51,209.52Zm-43.92,10.6a4,4,0,1,1-4,4A4,4,0,0,1,431.59,220.12Zm44.85,15.5c-3.4,0-8.55-.87-14.61-5.13-7-4.94-10.53-12.2-12.14-16.78-.81-2.31.2-6.17,2.65-6.06,1.59.07,3.72.82,6.53,3,4.49,3.45,9.79,3.79,13.43,3.46a3.45,3.45,0,0,0,1.63-.56,64.78,64.78,0,0,1,4.1,22.29A6.3,6.3,0,0,0,476.44,235.62Z"/></clipPath></defs><title>premium-drag-water</title><g id="Layer_2" data-name="Layer 2"><g id="Premium"><g id="premium-drag-water"><polygon class="cls-2" points="479.51 237.1 419.73 241.58 435.42 199.74 475.02 211.69 479.51 237.1"/><path class="cls-3" d="M475.51,209.52a1.11,1.11,0,0,0-.22-.3c0-.05,0-.09,0-.14-2.69-6.46-9.87-18.23-26.76-19.51-23.43-1.78-28.76,16.61-28.76,22.54v15.13a7.13,7.13,0,0,0,2,4.63h-.49v12l38.86,6.72v-1.89l9.81,4.13a5.53,5.53,0,0,0,6.62-1.94,30.75,30.75,0,0,0,4.19-11.47.41.41,0,0,0,0-.11,1.3,1.3,0,0,0,.16-.55C482,223.86,475.78,210.1,475.51,209.52Zm-43.92,10.6a4,4,0,1,1-4,4A4,4,0,0,1,431.59,220.12Zm44.85,15.5c-3.4,0-8.55-.87-14.61-5.13-7-4.94-10.53-12.2-12.14-16.78-.81-2.31.2-6.17,2.65-6.06,1.59.07,3.72.82,6.53,3,4.49,3.45,9.79,3.79,13.43,3.46a3.45,3.45,0,0,0,1.63-.56,64.78,64.78,0,0,1,4.1,22.29A6.3,6.3,0,0,0,476.44,235.62Z"/><g class="cls-4"><polygon class="cls-5" points="364.03 154.98 359.27 161.69 438.41 217.76 438.41 315.56 446.63 315.56 446.63 213.94 364.03 154.98"/></g><rect class="cls-6" x="726.84" y="262.51" width="101.62" height="44.09"/><polygon class="cls-6" points="807.54 268.49 747.77 268.49 747.77 237.85 822.49 235.61 807.54 268.49"/><path class="cls-7" d="M822.49,235.61l-12.23,26.9S806.05,248.31,822.49,235.61Z"/><path class="cls-8" d="M726.84,262.51l62.43.15s-25.81,6.57-62.43,5.82Z"/><rect class="cls-7" x="801.57" y="269.98" width="20.92" height="2.24" transform="translate(65.96 -148.74) rotate(10.91)"/><rect class="cls-7" x="799.33" y="274.46" width="20.92" height="2.24" transform="translate(66.77 -148.23) rotate(10.91)"/><path class="cls-9" d="M843.59,401.66,120.82,347.17a63.51,63.51,0,0,1-58.56-68.11h0a63.51,63.51,0,0,1,68.11-58.56l519.51,39.77c35,2.63,224.92,50.81,261.82,82.83h0A63.52,63.52,0,0,1,843.59,401.66Z"/><path class="cls-5" d="M843.59,401.66,120.82,347.17a63.51,63.51,0,0,1-58.56-68.11h0a63.51,63.51,0,0,1,68.11-58.56l519.51,39.77c35,2.63,224.92,50.81,261.82,82.83h0A63.52,63.52,0,0,1,843.59,401.66Z"/><polygon class="cls-5" points="448.12 166.86 211.99 127.26 211.99 259.52 444.39 274.46 407.77 188.53 448.12 166.86"/><g id="nsLf0E.tif"><path class="cls-10" d="M629.26,376.21a186.66,186.66,0,0,1-41.52,8.44c-10,.82-20,1.74-30.11,1.18a148.15,148.15,0,0,1-30.23-4.5,104.2,104.2,0,0,1-24.49-9.91A56.64,56.64,0,0,1,490.15,361c-12.56-13-28.43-21.65-44.57-30.21-11.62-6.17-23.95-10.88-36-16.11-1.68-.73-3.91-2.17-5.29-.51-1.06,1.28.81,3,1.71,4.38,6.87,10.62,15.87,19.2,28.85,24.34-5.08,1.54-12.63-1.4-19.59-3.39a66.47,66.47,0,0,1-28.29-16.22c-8.49-8.31-13.13-18.6-12.12-30.22.83-9.5.91-19.05-2.92-27.79-4.37-9.94-10-19.62-22.9-22.79-2.79-.69-5.31-.56-7.16,1.52-2.25,2.53-1.58,5.33-.17,8,1.22,2.33,2.47,4.6,6,4.32,2.22-.17,4.47,0,7.65,0a25.67,25.67,0,0,1-13,5.44,8.91,8.91,0,0,1-9.07-5.1c-2.41-4.9-4.06-10.15-3.44-15.64.46-4.09,2.48-7.13,7-8.84,19-7.14,29.63-5.07,45.43,8,13.26,11,24.34,23.58,34.34,37.12,3.47,4.7,6.2,10,10.13,14.17,12.6,13.43,27.07,25,48.23,22.83,12.51-1.3,23.7-8.81,22.51-22-.49-5.41-8.42-11.86-14.29-11.3-3.5.34-5.75,2.25-5.26,5.77.4,2.86-.74,3-3.3,2.14-7.3-2.38-8-8.84-3.49-15.7a17.93,17.93,0,0,1,12.43-8.07,78.45,78.45,0,0,0,7.84-2.08c-.94-1.75-2.2-1.34-3.27-1.48-1.3-.16-3.3,1-3.64-1.05-.3-1.82,1.54-2.4,3.12-2.91,10.06-3.23,23.24.68,29.11,8.84A55.59,55.59,0,0,1,524.08,281c6.55,18.88,18.16,34.41,37.11,45,15.22,8.49,32.2,11.88,49.31,14.88a27.23,27.23,0,0,0,12.08-1c4.61-1.36,7.15-5.18,6.36-9.44-.81-4.41-4.52-5.44-8.68-5.7q-3.42-.21-6.86-.24c-2.85,0-5.47-.12-6,3.61-.32,2.17-2.86,2.67-5.15,2.3-2.66-.43-4.45-1.61-4.59-4.41-.23-4.37,4.63-9.76,10.81-12.14,7.7-3,15.41-2,23-.06,9.79,2.53,18.72,6.45,26.32,13A91.94,91.94,0,0,0,679.9,340.6c10.78,4.95,22,7.4,34,5.88.8-.1,1.6-.18,2.41-.24.11,0,.25.16.92.65-47.18,23.08-97.85,23.85-148.88,21.9,2.09,2.41,18.42,5.6,29.53,5.93C608.37,375,618.81,375.7,629.26,376.21Z"/></g><g id="nsLf0E.tif-2" data-name="nsLf0E.tif"><path class="cls-11" d="M632.66,377.51a155.18,155.18,0,0,1-35.2,7.32c-8.51.71-17,1.51-25.52,1A122.66,122.66,0,0,1,546.3,382a87.27,87.27,0,0,1-20.76-8.59,48.4,48.4,0,0,1-10.81-9c-10.65-11.25-24.11-18.77-37.79-26.19-9.85-5.35-20.3-9.43-30.55-14-1.43-.63-3.32-1.89-4.49-.44-.9,1.1.68,2.57,1.45,3.79,5.82,9.21,13.45,16.64,24.46,21.1-4.31,1.33-10.71-1.22-16.61-2.94a56,56,0,0,1-24-14.06c-7.2-7.2-11.14-16.12-10.28-26.2.7-8.23.78-16.5-2.48-24.08-3.69-8.62-8.46-17-19.41-19.76-2.36-.59-4.5-.48-6.06,1.32-1.91,2.2-1.35,4.62-.15,6.95,1,2,2.09,4,5.12,3.75,1.88-.15,3.79,0,6.49,0a21.41,21.41,0,0,1-11,4.71,7.51,7.51,0,0,1-7.7-4.41c-2-4.25-3.43-8.8-2.91-13.56a8.58,8.58,0,0,1,6-7.66c16.12-6.19,25.12-4.4,38.51,6.92,11.24,9.5,20.64,20.44,29.11,32.17,3,4.07,5.26,8.65,8.59,12.29,10.68,11.64,22.95,21.68,40.89,19.78,10.61-1.13,20.1-7.63,19.09-19.05-.42-4.69-7.14-10.28-12.12-9.79-3,.29-4.87,1.94-4.46,5,.34,2.47-.63,2.57-2.8,1.85-6.19-2.06-6.75-7.66-3-13.6a15.18,15.18,0,0,1,10.54-7,68.56,68.56,0,0,0,6.65-1.8c-.8-1.52-1.87-1.17-2.77-1.28-1.1-.15-2.8.85-3.09-.92-.26-1.58,1.3-2.08,2.65-2.52,8.53-2.8,19.69.59,24.67,7.66A48.84,48.84,0,0,1,543.49,295c5.56,16.36,15.4,29.83,31.46,39,12.91,7.36,27.3,10.3,41.8,12.9A22.61,22.61,0,0,0,627,346c3.9-1.18,6-4.49,5.39-8.17s-3.83-4.72-7.36-4.94q-2.91-.19-5.82-.22c-2.41,0-4.63-.1-5.1,3.14-.27,1.87-2.43,2.31-4.37,2-2.26-.37-3.77-1.39-3.89-3.82-.19-3.78,3.92-8.45,9.16-10.52,6.53-2.57,13.07-1.75,19.5,0,8.3,2.19,15.88,5.59,22.32,11.31a78.06,78.06,0,0,0,18.75,12c9.15,4.29,18.63,6.41,28.86,5.09.68-.08,1.36-.15,2-.2.1,0,.21.14.78.56-40,20-82.95,20.67-126.21,19,1.76,2.09,15.61,4.86,25,5.14C615,376.49,623.8,377.07,632.66,377.51Z"/></g><rect class="cls-3" x="88.69" y="348.06" width="823.35" height="37.36" rx="18.68" transform="translate(22.19 -28.5) rotate(3.34)"/><rect class="cls-12" x="290.59" y="253.97" width="26.9" height="7.6" transform="translate(-71.2 123.31) rotate(-20.58)"/><rect class="cls-12" x="297.88" y="273.37" width="26.9" height="7.6" transform="translate(-77.56 127.11) rotate(-20.58)"/><rect class="cls-13" x="278.58" y="61.01" width="20.92" height="177.53" transform="translate(-34.2 111.15) rotate(-20.58)"/><ellipse class="cls-12" cx="258.81" cy="69.26" rx="10.46" ry="9.67" transform="translate(-7.83 95.39) rotate(-20.58)"/><ellipse class="cls-6" cx="257.84" cy="66.68" rx="10.46" ry="9.67" transform="translate(-6.98 94.88) rotate(-20.58)"/><ellipse class="cls-7" cx="257.84" cy="66.68" rx="8.97" ry="8.29" transform="translate(-6.98 94.88) rotate(-20.58)"/><rect class="cls-6" x="316.51" y="195.07" width="35.87" height="151.28" transform="translate(-73.81 134.82) rotate(-20.58)"/><rect class="cls-13" x="233.81" y="77.82" width="20.92" height="177.53" transform="translate(-42.97 96.48) rotate(-20.58)"/><ellipse class="cls-12" cx="214.04" cy="86.07" rx="10.46" ry="9.67" transform="translate(-16.6 80.72) rotate(-20.58)"/><ellipse class="cls-6" cx="213.07" cy="83.49" rx="10.46" ry="9.67" transform="translate(-15.75 80.22) rotate(-20.58)"/><ellipse class="cls-7" cx="213.07" cy="83.49" rx="8.97" ry="8.29" transform="translate(-15.75 80.22) rotate(-20.58)"/><rect class="cls-6" x="271.74" y="211.88" width="35.87" height="151.28" transform="translate(-82.57 120.16) rotate(-20.58)"/><rect class="cls-12" x="92.52" y="209.5" width="26.9" height="8.1" transform="translate(-68.3 50.87) rotate(-20.58)"/><rect class="cls-12" x="100.29" y="230.19" width="26.9" height="8.1" transform="translate(-75.07 54.92) rotate(-20.58)"/><rect class="cls-13" x="78.03" y="4.29" width="20.92" height="189.31" transform="translate(-29.13 37.41) rotate(-20.58)"/><ellipse class="cls-12" cx="56.25" cy="13.09" rx="10.46" ry="10.31" transform="translate(-1.01 20.61) rotate(-20.58)"/><ellipse class="cls-6" cx="55.22" cy="10.33" rx="10.46" ry="10.31" transform="translate(-0.11 20.07) rotate(-20.58)"/><ellipse class="cls-7" cx="55.22" cy="10.33" rx="8.97" ry="8.84" transform="translate(-0.11 20.07) rotate(-20.58)"/><rect class="cls-6" x="118.97" y="147.24" width="35.87" height="161.31" transform="translate(-71.37 62.66) rotate(-20.58)"/><rect class="cls-13" x="33.25" y="21.1" width="20.92" height="189.31" transform="translate(-37.9 22.75) rotate(-20.58)"/><ellipse class="cls-12" cx="11.48" cy="29.9" rx="10.46" ry="10.31" transform="translate(-9.78 5.94) rotate(-20.58)"/><ellipse class="cls-6" cx="10.45" cy="27.14" rx="10.46" ry="10.31" transform="translate(-8.87 5.4) rotate(-20.58)"/><ellipse class="cls-7" cx="10.45" cy="27.14" rx="8.97" ry="8.84" transform="translate(-8.87 5.4) rotate(-20.58)"/><rect class="cls-6" x="74.19" y="164.05" width="35.87" height="161.31" transform="translate(-80.13 48) rotate(-20.58)"/><rect class="cls-12" x="192.97" y="238.95" width="26.9" height="8.2" transform="matrix(0.94, -0.35, 0.35, 0.94, -72.25, 88.06)"/><rect class="cls-12" x="200.83" y="259.87" width="26.9" height="8.2" transform="translate(-79.11 92.16) rotate(-20.58)"/><rect class="cls-13" x="178.01" y="31.46" width="20.92" height="191.51" transform="translate(-32.69 74.36) rotate(-20.58)"/><ellipse class="cls-12" cx="155.86" cy="40.35" rx="10.46" ry="10.43" transform="translate(-4.24 57.36) rotate(-20.58)"/><ellipse class="cls-6" cx="154.82" cy="37.56" rx="10.46" ry="10.43" transform="matrix(0.94, -0.35, 0.35, 0.94, -3.33, 56.81)"/><ellipse class="cls-7" cx="154.82" cy="37.56" rx="8.97" ry="8.94" transform="translate(-3.33 56.81) rotate(-20.58)"/><rect class="cls-6" x="219.52" y="176.07" width="35.87" height="163.19" transform="translate(-75.41 99.9) rotate(-20.58)"/><rect class="cls-13" x="133.24" y="48.26" width="20.92" height="191.51" transform="translate(-41.45 59.7) rotate(-20.58)"/><ellipse class="cls-12" cx="111.09" cy="57.16" rx="10.46" ry="10.43" transform="translate(-13 42.69) rotate(-20.58)"/><ellipse class="cls-6" cx="110.04" cy="54.37" rx="10.46" ry="10.43" transform="translate(-12.09 42.15) rotate(-20.58)"/><ellipse class="cls-7" cx="110.04" cy="54.37" rx="8.97" ry="8.94" transform="matrix(0.94, -0.35, 0.35, 0.94, -12.09, 42.15)"/><rect class="cls-6" x="174.74" y="192.88" width="35.87" height="163.19" transform="translate(-84.18 85.23) rotate(-20.58)"/><ellipse class="cls-14" cx="161.69" cy="310.99" rx="124.02" ry="124.8" transform="translate(-155.82 459.46) rotate(-87.59)"/><ellipse class="cls-15" cx="161.69" cy="310.99" rx="120.7" ry="121.46" transform="translate(-155.82 459.46) rotate(-87.59)"/><ellipse cx="161.69" cy="310.99" rx="90.8" ry="91.37" transform="translate(-155.82 459.46) rotate(-87.59)"/><ellipse class="cls-10" cx="161.69" cy="310.99" rx="86.37" ry="86.92" transform="translate(-155.82 459.46) rotate(-87.59)"/><ellipse class="cls-16" cx="161.69" cy="310.99" rx="81.94" ry="82.46" transform="translate(-155.82 459.46) rotate(-87.59)"/><ellipse class="cls-17" cx="161.69" cy="310.99" rx="50.94" ry="51.26" transform="translate(-155.82 459.46) rotate(-87.59)"/><ellipse class="cls-18" cx="161.69" cy="310.99" rx="46.51" ry="46.8" transform="translate(-155.82 459.46) rotate(-87.59)"/><ellipse class="cls-14" cx="681.06" cy="361.46" rx="71.27" ry="71.72" transform="translate(291.29 1026.73) rotate(-87.59)"/><ellipse class="cls-15" cx="681.06" cy="361.46" rx="69.36" ry="69.8" transform="translate(291.29 1026.73) rotate(-87.59)"/><ellipse cx="681.06" cy="361.46" rx="52.18" ry="52.51" transform="matrix(0.04, -1, 1, 0.04, 291.29, 1026.73)"/><ellipse class="cls-10" cx="681.06" cy="361.46" rx="49.63" ry="49.95" transform="translate(291.29 1026.73) rotate(-87.59)"/><ellipse class="cls-16" cx="681.06" cy="361.46" rx="47.09" ry="47.39" transform="translate(291.29 1026.73) rotate(-87.59)"/><ellipse class="cls-17" cx="681.06" cy="361.46" rx="29.27" ry="29.46" transform="translate(291.29 1026.73) rotate(-87.59)"/><ellipse class="cls-18" cx="681.06" cy="361.46" rx="26.73" ry="26.89" transform="translate(291.29 1026.73) rotate(-87.59)"/></g></g></g></svg>