<?xml version="1.0" encoding="utf-8"?>
<!-- Generator: Adobe Illustrator 25.4.0, SVG Export Plug-In . SVG Version: 6.00 Build 0)  -->
<svg version="1.1" id="Layer_1" xmlns="http://www.w3.org/2000/svg" xmlns:xlink="http://www.w3.org/1999/xlink" x="0px" y="0px"
	 viewBox="0 0 322.5 132.7" style="enable-background:new 0 0 322.5 132.7;" xml:space="preserve">
<style type="text/css">
	.st0{fill:#45DD45;}
	.st1{clip-path:url(#SVGID_00000176745494330904165270000016718302367268638647_);}
	.st2{fill:#FFFFFA;}
	.st3{fill:#F2F2F2;}
	.st4{fill:#FFCE00;}
	.st5{clip-path:url(#SVGID_00000048482976417787774670000012054772886164720005_);}
	.st6{clip-path:url(#SVGID_00000093171714401872240980000004616613241007392144_);}
	.st7{clip-path:url(#SVGID_00000026161020907784502790000001336077561071107476_);}
	.st8{clip-path:url(#SVGID_00000080182900837808832390000014516669331300150955_);}
	.st9{fill:#474757;}
	.st10{opacity:0.13;}
	.st11{fill:#32323F;}
	.st12{fill:#FFFFFF;}
	.st13{fill:#DDDDDD;}
	.st14{fill:#BAC0D8;}
	.st15{fill:#ACAFBC;}
	.st16{clip-path:url(#SVGID_00000137819266560101478430000010084076323703528638_);}
	.st17{fill:#AAFFF9;}
	.st18{clip-path:url(#SVGID_00000037668302430450186110000007304342443685016221_);}
	.st19{fill:#ABFEF9;}
</style>
<g id="Layer_2_00000104677501208473528040000017177914661483840695_">
	<g id="SkullCar_Free">
		<g id="Basic_DarkRed">
			<g id="premium-water">
				<path class="st0" d="M232.2,37.7h34.9c27.3,0.1,49.3,15.7,49.2,45.4v19.4c3.5,0,6.3,3.1,6.3,6.9s-2.8,6.9-6.3,6.9l-225-0.8
					L19,102.8c-3.4-0.2-6.1-3.1-6-6.5c0-3.7,2.7-6.6,6-6.6V46.9c0-8.6,6.5-15.5,14.3-15.5h2.2c32.9,0.2,56.1-8.1,84.9-23.8l6.2-3.4
					c3.5-1.8,7.4-3,11.3-3.5c6.4-0.6,50.7,1.6,50.7,1.6s14-2,21.5,11.1s22.7,25,22.7,25"/>
				<g>
					<g>
						<defs>
							<path id="SVGID_1_" d="M232.2,37.7h34.9c27.3,0.1,49.3,15.7,49.2,45.4v19.4c3.5,0,6.3,3.1,6.3,6.9s-2.8,6.9-6.3,6.9l-225-0.8
								L19,102.8c-3.4-0.2-6.1-3.1-6-6.5c0-3.7,2.7-6.6,6-6.6V46.9c0-8.6,6.5-15.5,14.3-15.5h2.2c32.9,0.2,56.1-8.1,84.9-23.8
								l6.2-3.4c3.5-1.8,7.4-3,11.3-3.5c6.4-0.6,50.7,1.6,50.7,1.6s14-2,21.5,11.1s22.7,25,22.7,25"/>
						</defs>
						<clipPath id="SVGID_00000157267766581679362270000012991439120803314312_">
							<use xlink:href="#SVGID_1_"  style="overflow:visible;"/>
						</clipPath>
						<g style="clip-path:url(#SVGID_00000157267766581679362270000012991439120803314312_);">
							<path class="st2" d="M147.1,74.1c4.1-1.1,6.6-2.5,6.5-3.7s-2.9-2-7.1-2.2c3.7-1.9,5.9-3.8,5.6-4.9c-0.4-1.1-3.2-1.3-7.4-0.7
								c3.3-2.7,5-4.9,4.4-6c-0.6-1-3.5-0.6-7.4,0.9c2.6-3.3,3.9-5.9,3.1-6.8c-0.8-0.9-3.5,0.1-7,2.4c1.9-3.8,2.6-6.6,1.6-7.3
								s-3.4,0.8-6.4,3.8c1.1-4.1,1.2-6.9,0.1-7.4c-1.1-0.5-3.2,1.5-5.5,5c0.2-4.2-0.3-7-1.5-7.3s-2.8,2.1-4.3,6.1
								c-0.7-4.1-1.8-6.8-3-6.8s-2.3,2.7-3,6.8c-1.5-3.9-3.1-6.3-4.3-6.1s-1.7,3.1-1.5,7.3c-2.3-3.5-4.4-5.5-5.5-5s-1,3.4,0.1,7.4
								c-3-3-5.4-4.5-6.4-3.8s-0.3,3.5,1.6,7.3c-3.5-2.3-6.2-3.3-7-2.4c-0.8,0.9,0.5,3.5,3.1,6.8c-3.9-1.5-6.8-1.9-7.4-0.9
								s1.2,3.3,4.4,6c-4.2-0.6-7-0.4-7.4,0.7c-0.4,1.1,1.8,3,5.6,4.9c-4.2,0.2-7,1-7.1,2.2s2.4,2.5,6.5,3.7
								c-4.1,1.1-6.6,2.5-6.5,3.7s2.9,2,7.1,2.2c-3.7,1.9-5.9,3.8-5.6,4.9c0.4,1.1,3.2,1.3,7.4,0.7c-3.3,2.7-5,4.9-4.4,6
								c0.6,1,3.5,0.6,7.4-0.9c-2.6,3.3-3.9,5.9-3.1,6.8s3.5-0.1,7-2.4c-1.9,3.8-2.6,6.6-1.6,7.3s3.4-0.8,6.4-3.8
								c-1.1,4.1-1.2,6.9-0.1,7.4s3.2-1.5,5.5-5c-0.2,4.2,0.3,7,1.5,7.3s2.8-2.1,4.3-6.1c0.7,4.1,1.8,6.8,3,6.8s2.3-2.7,3-6.8
								c1.5,3.9,3.1,6.3,4.3,6.1s1.7-3.1,1.5-7.3c2.3,3.5,4.4,5.5,5.5,5s1-3.4-0.1-7.4c3,3,5.4,4.5,6.4,3.8s0.3-3.5-1.6-7.3
								c3.5,2.3,6.2,3.3,7,2.4s-0.5-3.5-3.1-6.8c3.9,1.5,6.8,1.9,7.4,0.9c0.6-1-1.2-3.3-4.4-6c4.2,0.6,7,0.4,7.4-0.7s-1.8-3-5.6-4.9
								c4.2-0.2,7-1,7.1-2.2S151.1,75.2,147.1,74.1z"/>
							<path class="st3" d="M138.1,74.1c2.8-0.8,4.5-1.7,4.4-2.5s-2-1.4-4.8-1.5c2.5-1.3,4.1-2.6,3.8-3.4s-2.2-0.9-5-0.5
								c2.2-1.8,3.4-3.4,3-4.1c-0.4-0.7-2.4-0.4-5,0.6c1.8-2.2,2.7-4,2.1-4.6c-0.5-0.6-2.4,0.1-4.8,1.6c1.3-2.6,1.8-4.5,1.1-4.9
								c-0.7-0.5-2.3,0.6-4.4,2.6c0.7-2.8,0.8-4.7,0.1-5.1c-0.7-0.3-2.2,1-3.7,3.4c0.1-2.9-0.2-4.8-1-5s-1.9,1.5-2.9,4.1
								c-0.5-2.8-1.2-4.7-2-4.7s-1.5,1.8-2,4.7c-1-2.7-2.1-4.3-2.9-4.1s-1.1,2.1-1,5c-1.6-2.4-3-3.8-3.7-3.4
								c-0.7,0.3-0.7,2.3,0.1,5.1c-2-2-3.7-3.1-4.4-2.6s-0.2,2.4,1.1,4.9c-2.4-1.5-4.3-2.2-4.8-1.6c-0.5,0.6,0.3,2.4,2.1,4.6
								c-2.7-1-4.6-1.3-5-0.6s0.8,2.3,3,4.1c-2.8-0.4-4.8-0.3-5,0.5c-0.3,0.8,1.3,2,3.8,3.4c-2.9,0.2-4.7,0.7-4.8,1.5
								c-0.1,0.8,1.7,1.7,4.4,2.5c-2.8,0.8-4.5,1.7-4.4,2.5s2,1.4,4.8,1.5c-2.5,1.3-4.1,2.6-3.8,3.4c0.3,0.8,2.2,0.9,5,0.5
								c-2.2,1.8-3.4,3.4-3,4.1s2.4,0.4,5-0.6c-1.8,2.2-2.7,4-2.1,4.6c0.5,0.6,2.4-0.1,4.8-1.6c-1.3,2.6-1.8,4.5-1.1,4.9
								s2.3-0.6,4.4-2.6c-0.7,2.8-0.8,4.7-0.1,5.1c0.7,0.3,2.2-1,3.7-3.4c-0.1,2.9,0.2,4.8,1,5s1.9-1.5,2.9-4.1
								c0.5,2.8,1.2,4.7,2,4.7s1.5-1.8,2-4.7c1,2.7,2.1,4.3,2.9,4.1c0.8-0.2,1.1-2.1,1-5c1.6,2.4,3,3.8,3.7,3.4
								c0.7-0.3,0.7-2.3-0.1-5.1c2,2,3.7,3.1,4.4,2.6s0.2-2.4-1.1-4.9c2.4,1.5,4.3,2.2,4.8,1.6s-0.3-2.4-2.1-4.6
								c2.7,1,4.6,1.3,5,0.6c0.4-0.7-0.8-2.3-3-4.1c2.8,0.4,4.8,0.3,5-0.5c0.3-0.8-1.3-2-3.8-3.4c2.9-0.2,4.7-0.7,4.8-1.5
								C142.6,75.8,140.8,74.9,138.1,74.1z"/>
							<circle class="st4" cx="118.8" cy="74.1" r="9"/>
						</g>
					</g>
					<g>
						<defs>
							<path id="SVGID_00000032647195408191530320000011838542790890786212_" d="M232.2,37.7h34.9c27.3,0.1,49.3,15.7,49.2,45.4
								v19.4c3.5,0,6.3,3.1,6.3,6.9s-2.8,6.9-6.3,6.9l-225-0.8L19,102.8c-3.4-0.2-6.1-3.1-6-6.5c0-3.7,2.7-6.6,6-6.6V46.9
								c0-8.6,6.5-15.5,14.3-15.5h2.2c32.9,0.2,56.1-8.1,84.9-23.8l6.2-3.4c3.5-1.8,7.4-3,11.3-3.5c6.4-0.6,50.7,1.6,50.7,1.6
								s14-2,21.5,11.1s22.7,25,22.7,25"/>
						</defs>
						<clipPath id="SVGID_00000156584421252254652760000002913455559751752113_">
							<use xlink:href="#SVGID_00000032647195408191530320000011838542790890786212_"  style="overflow:visible;"/>
						</clipPath>
						<g style="clip-path:url(#SVGID_00000156584421252254652760000002913455559751752113_);">
							<path class="st2" d="M65.7,45.3c3.4-0.9,5.5-2.1,5.4-3.1s-2.4-1.7-5.9-1.8c3.1-1.6,4.9-3.2,4.7-4.1c-0.3-0.9-2.7-1.1-6.2-0.6
								c2.8-2.3,4.2-4.1,3.7-5c-0.5-0.8-2.9-0.5-6.2,0.8c2.2-2.8,3.3-4.9,2.6-5.7c-0.7-0.8-2.9,0.1-5.8,2c1.6-3.2,2.2-5.5,1.3-6.1
								s-2.8,0.7-5.3,3.2c0.9-3.4,1-5.8,0.1-6.2c-0.9-0.4-2.7,1.3-4.6,4.2c0.2-3.5-0.3-5.8-1.3-6.1c-1-0.3-2.3,1.8-3.6,5.1
								c-0.6-3.4-1.5-5.7-2.5-5.7s-1.9,2.3-2.5,5.7c-1.3-3.3-2.6-5.3-3.6-5.1s-1.4,2.6-1.3,6.1c-1.9-2.9-3.7-4.6-4.6-4.2
								s-0.8,2.8,0.1,6.2c-2.5-2.5-4.5-3.8-5.3-3.2s-0.3,2.9,1.3,6.1c-2.9-1.9-5.2-2.8-5.8-2c-0.7,0.8,0.4,2.9,2.6,5.7
								c-3.3-1.3-5.7-1.6-6.2-0.8s1,2.8,3.7,5c-3.5-0.5-5.8-0.3-6.2,0.6c-0.3,0.9,1.5,2.5,4.7,4.1c-3.5,0.2-5.8,0.8-5.9,1.8
								c-0.1,1,2,2.1,5.4,3.1c-3.4,0.9-5.5,2.1-5.4,3.1s2.4,1.7,5.9,1.8c-3.1,1.6-4.9,3.2-4.7,4.1c0.3,0.9,2.7,1.1,6.2,0.6
								c-2.8,2.3-4.2,4.1-3.7,5c0.5,0.8,2.9,0.5,6.2-0.8c-2.2,2.8-3.3,4.9-2.6,5.7c0.7,0.8,2.9-0.1,5.8-2c-1.6,3.2-2.2,5.5-1.3,6.1
								c0.8,0.6,2.8-0.7,5.3-3.2c-0.9,3.4-1,5.8-0.1,6.2c0.9,0.4,2.7-1.3,4.6-4.2c-0.2,3.5,0.3,5.8,1.3,6.1s2.3-1.8,3.6-5.1
								c0.6,3.4,1.5,5.7,2.5,5.7s1.9-2.3,2.5-5.7c1.3,3.3,2.6,5.3,3.6,5.1c1-0.2,1.4-2.6,1.3-6.1c1.9,2.9,3.7,4.6,4.6,4.2
								c0.9-0.4,0.8-2.8-0.1-6.2c2.5,2.5,4.5,3.8,5.3,3.2c0.8-0.6,0.3-2.9-1.3-6.1c2.9,1.9,5.2,2.8,5.8,2c0.7-0.8-0.4-2.9-2.6-5.7
								c3.3,1.3,5.7,1.6,6.2,0.8s-1-2.8-3.7-5c3.5,0.5,5.8,0.3,6.2-0.6c0.3-0.9-1.5-2.5-4.7-4.1c3.5-0.2,5.8-0.8,5.9-1.8
								C71.2,47.4,69,46.3,65.7,45.3z"/>
							<path class="st3" d="M58.2,45.3c2.3-0.7,3.8-1.4,3.7-2.1s-1.7-1.2-4-1.3c2.1-1.1,3.4-2.2,3.2-2.8s-1.8-0.8-4.2-0.4
								c1.8-1.5,2.8-2.8,2.5-3.4s-2-0.3-4.2,0.5c1.5-1.8,2.3-3.3,1.8-3.8c-0.4-0.5-2,0.1-4,1.3c1.1-2.2,1.5-3.8,0.9-4.1
								c-0.6-0.4-1.9,0.5-3.7,2.2c0.6-2.3,0.7-3.9,0.1-4.3c-0.6-0.3-1.8,0.8-3.1,2.8c0.1-2.4-0.2-4-0.8-4.2S44.8,27,44,29.1
								c-0.4-2.3-1-3.9-1.7-3.9s-1.3,1.5-1.7,3.9c-0.8-2.3-1.8-3.6-2.4-3.4c-0.7,0.2-0.9,1.8-0.8,4.2c-1.3-2-2.5-3.2-3.1-2.8
								c-0.6,0.3-0.6,1.9,0.1,4.3c-1.7-1.7-3.1-2.6-3.7-2.2s-0.2,2,0.9,4.1c-2-1.3-3.6-1.8-4-1.3s0.3,2,1.8,3.8
								c-2.3-0.8-3.8-1.1-4.2-0.5s0.7,1.9,2.5,3.4c-2.3-0.3-4-0.3-4.2,0.4c-0.3,0.7,1.1,1.7,3.2,2.8c-2.4,0.2-3.9,0.6-4,1.3
								s1.4,1.4,3.7,2.1c-2.3,0.7-3.8,1.4-3.7,2.1c0.1,0.7,1.7,1.2,4,1.3c-2.1,1.1-3.4,2.2-3.2,2.8c0.3,0.7,1.8,0.8,4.2,0.4
								c-1.8,1.5-2.8,2.8-2.5,3.4c0.3,0.6,2,0.3,4.2-0.5c-1.5,1.8-2.3,3.3-1.8,3.8c0.4,0.5,2-0.1,4-1.3c-1.1,2.2-1.5,3.8-0.9,4.1
								s1.9-0.5,3.7-2.2c-0.6,2.3-0.7,3.9-0.1,4.3c0.6,0.3,1.8-0.8,3.1-2.8c-0.1,2.4,0.2,4,0.8,4.2c0.7,0.2,1.6-1.3,2.4-3.4
								c0.4,2.3,1,3.9,1.7,3.9s1.3-1.5,1.7-3.9c0.8,2.3,1.8,3.6,2.4,3.4c0.7-0.2,0.9-1.8,0.8-4.2c1.3,2,2.5,3.2,3.1,2.8
								c0.6-0.3,0.6-1.9-0.1-4.3c1.7,1.7,3.1,2.6,3.7,2.2s0.2-2-0.9-4.1c2,1.3,3.6,1.8,4,1.3s-0.3-2-1.8-3.8
								c2.3,0.8,3.8,1.1,4.2,0.5s-0.7-1.9-2.5-3.4c2.3,0.3,4,0.3,4.2-0.4c0.3-0.7-1.1-1.7-3.2-2.8c2.4-0.2,3.9-0.6,4-1.3
								C61.9,46.8,60.4,46,58.2,45.3z"/>
							<circle class="st4" cx="42.1" cy="45.3" r="7.5"/>
						</g>
					</g>
					<g>
						<defs>
							<path id="SVGID_00000122717823862581997950000015721969136622502563_" d="M232.2,37.7h34.9c27.3,0.1,49.3,15.7,49.2,45.4
								v19.4c3.5,0,6.3,3.1,6.3,6.9s-2.8,6.9-6.3,6.9l-225-0.8L19,102.8c-3.4-0.2-6.1-3.1-6-6.5c0-3.7,2.7-6.6,6-6.6V46.9
								c0-8.6,6.5-15.5,14.3-15.5h2.2c32.9,0.2,56.1-8.1,84.9-23.8l6.2-3.4c3.5-1.8,7.4-3,11.3-3.5c6.4-0.6,50.7,1.6,50.7,1.6
								s14-2,21.5,11.1s22.7,25,22.7,25"/>
						</defs>
						<clipPath id="SVGID_00000089561616841510082640000002716487400017765760_">
							<use xlink:href="#SVGID_00000122717823862581997950000015721969136622502563_"  style="overflow:visible;"/>
						</clipPath>
						<g style="clip-path:url(#SVGID_00000089561616841510082640000002716487400017765760_);">
							<path class="st2" d="M88.3,90.1c3.1-0.8,5-1.9,4.9-2.8s-2.2-1.5-5.3-1.7c2.8-1.4,4.4-2.9,4.2-3.7c-0.3-0.8-2.4-1-5.6-0.5
								c2.5-2,3.8-3.7,3.3-4.5s-2.6-0.5-5.6,0.7c2-2.5,2.9-4.4,2.3-5.1s-2.6,0.1-5.3,1.8c1.4-2.9,2-5,1.2-5.5s-2.6,0.6-4.8,2.9
								c0.8-3.1,0.9-5.2,0.1-5.6s-2.4,1.1-4.1,3.8c0.2-3.2-0.2-5.3-1.1-5.5S70.4,66,69.3,69c-0.5-3.1-1.4-5.1-2.3-5.1
								s-1.7,2-2.3,5.1c-1.1-2.9-2.3-4.7-3.2-4.6s-1.3,2.3-1.1,5.5c-1.7-2.6-3.3-4.1-4.1-3.8c-0.8,0.4-0.8,2.6,0.1,5.6
								c-2.3-2.3-4.1-3.4-4.8-2.9c-0.8,0.5-0.2,2.6,1.2,5.5c-2.6-1.7-4.7-2.5-5.3-1.8s0.4,2.6,2.3,5.1c-2.9-1.1-5.1-1.4-5.6-0.7
								c-0.5,0.8,0.9,2.5,3.3,4.5C44.4,81,42.3,81.2,42,82s1.4,2.3,4.2,3.7c-3.2,0.2-5.3,0.8-5.3,1.7c-0.1,0.9,1.8,1.9,4.9,2.8
								c-3.1,0.8-5,1.9-4.9,2.8s2.2,1.5,5.3,1.7c-2.8,1.4-4.4,2.9-4.2,3.7c0.3,0.8,2.4,1,5.6,0.5c-2.5,2-3.8,3.7-3.3,4.5
								s2.6,0.5,5.6-0.7c-2,2.5-2.9,4.4-2.3,5.1c0.6,0.7,2.6-0.1,5.3-1.8c-1.4,2.9-2,5-1.2,5.5s2.6-0.6,4.8-2.9
								c-0.8,3.1-0.9,5.2-0.1,5.6c0.8,0.4,2.4-1.1,4.1-3.8c-0.2,3.2,0.2,5.3,1.1,5.5c0.9,0.2,2.1-1.6,3.2-4.6
								c0.5,3.1,1.4,5.1,2.3,5.1s1.7-2,2.3-5.1c1.1,2.9,2.3,4.7,3.2,4.6c0.9-0.2,1.3-2.3,1.1-5.5c1.7,2.6,3.3,4.1,4.1,3.8
								c0.8-0.4,0.8-2.6-0.1-5.6c2.3,2.3,4.1,3.4,4.8,2.9c0.8-0.5,0.2-2.6-1.2-5.5c2.6,1.7,4.7,2.5,5.3,1.8s-0.4-2.6-2.3-5.1
								c2.9,1.1,5.1,1.4,5.6,0.7c0.5-0.8-0.9-2.5-3.3-4.5c3.2,0.5,5.3,0.3,5.6-0.5c0.3-0.8-1.4-2.3-4.2-3.7c3.2-0.2,5.3-0.8,5.3-1.7
								C93.2,92,91.3,91,88.3,90.1z"/>
							<path class="st3" d="M81.5,90.1c2.1-0.6,3.4-1.3,3.3-1.9s-1.5-1.1-3.6-1.1c1.9-1,3.1-2,2.9-2.6s-1.7-0.7-3.8-0.4
								c1.7-1.4,2.6-2.6,2.3-3.1c-0.3-0.5-1.8-0.3-3.8,0.5c1.4-1.7,2-3,1.6-3.5s-1.8,0.1-3.6,1.2c1-2,1.4-3.4,0.8-3.7
								c-0.5-0.4-1.7,0.5-3.3,2c0.5-2.1,0.6-3.5,0.1-3.8c-0.5-0.2-1.7,0.8-2.8,2.6c0.1-2.2-0.2-3.6-0.8-3.8s-1.4,1.1-2.2,3.1
								c-0.4-2.1-0.9-3.5-1.5-3.5s-1.1,1.4-1.5,3.5c-0.8-2-1.6-3.2-2.2-3.1s-0.8,1.6-0.8,3.8c-1.2-1.8-2.3-2.9-2.8-2.6
								c-0.5,0.2-0.5,1.7,0.1,3.8c-1.5-1.5-2.8-2.3-3.3-2c-0.5,0.4-0.2,1.8,0.8,3.7c-1.8-1.1-3.2-1.7-3.6-1.2s0.2,1.8,1.6,3.5
								c-2-0.8-3.5-1-3.8-0.5s0.6,1.7,2.3,3.1c-2.1-0.3-3.6-0.2-3.8,0.4s1,1.5,2.9,2.6c-2.2,0.2-3.5,0.5-3.6,1.1s1.3,1.3,3.3,1.9
								c-2.1,0.6-3.4,1.3-3.3,1.9c0.1,0.6,1.5,1.1,3.6,1.1c-1.9,1-3.1,2-2.9,2.6c0.2,0.6,1.7,0.7,3.8,0.4c-1.7,1.4-2.6,2.6-2.3,3.1
								s1.8,0.3,3.8-0.5c-1.4,1.7-2,3-1.6,3.5s1.8-0.1,3.6-1.2c-1,2-1.4,3.4-0.8,3.7c0.5,0.3,1.7-0.5,3.3-2
								c-0.5,2.1-0.6,3.5-0.1,3.8c0.5,0.2,1.7-0.8,2.8-2.6c-0.1,2.2,0.2,3.6,0.8,3.8s1.4-1.1,2.2-3.1c0.4,2.1,0.9,3.5,1.5,3.5
								s1.1-1.4,1.5-3.5c0.8,2,1.6,3.2,2.2,3.1c0.6-0.2,0.8-1.6,0.8-3.8c1.2,1.8,2.3,2.9,2.8,2.6c0.5-0.2,0.5-1.7-0.1-3.8
								c1.5,1.5,2.8,2.3,3.3,2c0.5-0.4,0.2-1.8-0.8-3.7c1.8,1.1,3.2,1.7,3.6,1.2s-0.2-1.8-1.6-3.5c2,0.8,3.5,1,3.8,0.5
								s-0.6-1.7-2.3-3.1c2.1,0.3,3.6,0.2,3.8-0.4c0.2-0.6-1-1.5-2.9-2.6c2.2-0.2,3.5-0.5,3.6-1.1S83.5,90.7,81.5,90.1z"/>
							<circle class="st4" cx="67" cy="90.1" r="6.8"/>
						</g>
					</g>
					<g>
						<defs>
							<path id="SVGID_00000047759456067316853950000008074763449201989527_" d="M232.2,37.7h34.9c27.3,0.1,49.3,15.7,49.2,45.4
								v19.4c3.5,0,6.3,3.1,6.3,6.9s-2.8,6.9-6.3,6.9l-225-0.8L19,102.8c-3.4-0.2-6.1-3.1-6-6.5c0-3.7,2.7-6.6,6-6.6V46.9
								c0-8.6,6.5-15.5,14.3-15.5h2.2c32.9,0.2,56.1-8.1,84.9-23.8l6.2-3.4c3.5-1.8,7.4-3,11.3-3.5c6.4-0.6,50.7,1.6,50.7,1.6
								s14-2,21.5,11.1s22.7,25,22.7,25"/>
						</defs>
						<clipPath id="SVGID_00000172417762748090195780000016501988266307206325_">
							<use xlink:href="#SVGID_00000047759456067316853950000008074763449201989527_"  style="overflow:visible;"/>
						</clipPath>
						<g style="clip-path:url(#SVGID_00000172417762748090195780000016501988266307206325_);">
							<path class="st2" d="M107.6,31.4c2.6-0.7,4.2-1.6,4.2-2.4s-1.9-1.3-4.6-1.4c2.4-1.2,3.8-2.4,3.6-3.2
								c-0.3-0.7-2.1-0.8-4.8-0.5c2.1-1.7,3.2-3.2,2.8-3.9c-0.4-0.6-2.3-0.4-4.8,0.6c1.7-2.1,2.5-3.8,2-4.4s-2.3,0.1-4.5,1.5
								c1.2-2.4,1.7-4.2,1-4.7c-0.6-0.5-2.2,0.5-4.1,2.4c0.7-2.6,0.8-4.4,0.1-4.8c-0.7-0.3-2.1,1-3.5,3.2c0.1-2.7-0.2-4.5-1-4.7
								s-1.8,1.4-2.8,3.9c-0.3-2.3-1.1-4-1.8-4c-0.8,0-1.5,1.7-1.9,4.4c-1-2.5-2-4.1-2.8-3.9s-1.1,2-1,4.7c-1.5-2.3-2.8-3.5-3.5-3.2
								s-0.6,2.2,0.1,4.8c-1.9-1.9-3.5-2.9-4.1-2.4s-0.2,2.3,1,4.7c-2.3-1.5-4-2.1-4.5-1.5s0.3,2.3,2,4.4c-2.5-1-4.4-1.2-4.8-0.6
								s0.8,2.1,2.8,3.9c-2.7-0.4-4.5-0.3-4.8,0.5c-0.3,0.7,1.2,1.9,3.6,3.2c-2.7,0.1-4.5,0.6-4.6,1.4s1.5,1.6,4.2,2.4
								c-2.6,0.7-4.2,1.6-4.2,2.4c0.1,0.8,1.9,1.3,4.6,1.4c-2.4,1.2-3.8,2.4-3.6,3.2c0.3,0.7,2.1,0.8,4.8,0.5
								c-2.1,1.7-3.2,3.2-2.8,3.9c0.4,0.6,2.3,0.4,4.8-0.6c-1.7,2.1-2.5,3.8-2,4.4c0.5,0.6,2.3-0.1,4.5-1.5c-1.2,2.4-1.7,4.2-1,4.7
								c0.6,0.5,2.2-0.5,4.1-2.4c-0.7,2.6-0.8,4.4-0.1,4.8s2.1-1,3.5-3.2c-0.1,2.7,0.2,4.5,1,4.7s1.8-1.4,2.8-3.9
								c0.5,2.6,1.2,4.4,1.9,4.4c0.8,0,1.5-1.7,1.9-4.4c1,2.5,2,4.1,2.8,3.9c0.8-0.1,1.1-2,1-4.7c1.5,2.3,2.8,3.5,3.5,3.2
								s0.6-2.2-0.1-4.8c1.9,1.9,3.5,2.9,4.1,2.4s0.2-2.3-1-4.7c2.3,1.5,4,2.1,4.5,1.5s-0.3-2.3-2-4.4c2.5,1,4.4,1.2,4.8,0.6
								c0.4-0.6-0.8-2.1-2.8-3.9c2.7,0.4,4.5,0.3,4.8-0.5c0.3-0.7-1.2-1.9-3.6-3.2c2.7-0.1,4.5-0.6,4.6-1.4S110.1,32.1,107.6,31.4z"
								/>
							<path class="st3" d="M101.8,31.4c1.8-0.5,2.9-1.1,2.8-1.6s-1.3-0.9-3.1-1c1.6-0.8,2.6-1.7,2.4-2.2s-1.4-0.6-3.2-0.3
								c1.4-1.2,2.2-2.2,1.9-2.6c-0.3-0.5-1.5-0.3-3.2,0.4c1.2-1.4,1.7-2.6,1.4-3c-0.3-0.4-1.5,0.1-3.1,1c0.8-1.7,1.2-2.9,0.7-3.2
								c-0.5-0.3-1.5,0.4-2.8,1.7c0.5-1.8,0.5-3,0.1-3.3c-0.5-0.2-1.4,0.6-2.4,2.2c0.1-1.9-0.1-3.1-0.6-3.2s-1.2,1-1.9,2.6
								c-0.3-1.8-0.8-3-1.3-3s-1,1.2-1.3,3c-0.6-1.7-1.4-2.8-1.9-2.6c-0.5,0.1-0.7,1.4-0.6,3.2c-1-1.5-1.9-2.4-2.4-2.2
								c-0.5,0.2-0.5,1.5,0.1,3.3c-1.3-1.3-2.4-2-2.8-1.7c-0.5,0.3-0.1,1.5,0.7,3.2c-1.5-1-2.8-1.4-3.1-1c-0.3,0.4,0.2,1.5,1.4,3
								c-1.7-0.6-3-0.8-3.2-0.4c-0.3,0.5,0.5,1.5,1.9,2.6c-1.8-0.3-3.1-0.2-3.2,0.3c-0.2,0.5,0.8,1.3,2.4,2.2c-1.9,0.1-3,0.5-3.1,1
								s1.1,1.1,2.8,1.6c-1.8,0.5-2.9,1.1-2.8,1.6s1.3,0.9,3.1,1c-1.6,0.8-2.6,1.7-2.4,2.2s1.4,0.6,3.2,0.3
								c-1.4,1.2-2.2,2.2-1.9,2.6s1.5,0.3,3.2-0.4c-1.2,1.4-1.7,2.6-1.4,3c0.3,0.4,1.5-0.1,3.1-1c-0.8,1.7-1.2,2.9-0.7,3.2
								s1.5-0.4,2.8-1.7c-0.5,1.8-0.5,3-0.1,3.3c0.5,0.2,1.4-0.6,2.4-2.2c-0.1,1.9,0.1,3.1,0.6,3.2c0.5,0.1,1.2-1,1.9-2.6
								c0.3,1.8,0.8,3,1.3,3s1-1.2,1.3-3c0.6,1.7,1.4,2.8,1.9,2.6c0.5-0.1,0.7-1.4,0.6-3.2c1,1.5,1.9,2.4,2.4,2.2s0.5-1.5-0.1-3.3
								c1.3,1.3,2.4,2,2.8,1.7s0.1-1.5-0.7-3.2c1.5,1,2.8,1.4,3.1,1c0.3-0.4-0.2-1.5-1.4-3c1.7,0.6,3,0.8,3.2,0.4
								c0.3-0.5-0.5-1.5-1.9-2.6c1.8,0.3,3.1,0.2,3.2-0.3c0.2-0.5-0.8-1.3-2.4-2.2c1.9-0.1,3-0.5,3.1-1
								C104.7,32.5,103.5,31.9,101.8,31.4z"/>
							<circle class="st4" cx="89.4" cy="31.4" r="5.8"/>
						</g>
					</g>
					<g>
						<defs>
							<path id="SVGID_00000080201978922573333240000006227228684884869567_" d="M232.2,37.7h34.9c27.3,0.1,49.3,15.7,49.2,45.4
								v19.4c3.5,0,6.3,3.1,6.3,6.9s-2.8,6.9-6.3,6.9l-225-0.8L19,102.8c-3.4-0.2-6.1-3.1-6-6.5c0-3.7,2.7-6.6,6-6.6V46.9
								c0-8.6,6.5-15.5,14.3-15.5h2.2c32.9,0.2,56.1-8.1,84.9-23.8l6.2-3.4c3.5-1.8,7.4-3,11.3-3.5c6.4-0.6,50.7,1.6,50.7,1.6
								s14-2,21.5,11.1s22.7,25,22.7,25"/>
						</defs>
						<clipPath id="SVGID_00000097484195212935211020000018237936153652732567_">
							<use xlink:href="#SVGID_00000080201978922573333240000006227228684884869567_"  style="overflow:visible;"/>
						</clipPath>
						<g style="clip-path:url(#SVGID_00000097484195212935211020000018237936153652732567_);">
							<path class="st2" d="M190.8,90.5c3.3-0.2,5.5-0.9,5.6-1.9s-1.9-2-5.2-2.8c3.1-0.9,5.1-2.1,5.1-2.9c-0.1-0.9-2.3-1.5-5.6-1.6
								c3-1.6,4.6-3,4.3-4c-0.3-0.9-2.6-1-5.9-0.4c2.5-2.2,3.9-4,3.4-4.8s-2.7-0.4-5.8,0.8c2-2.7,3-4.7,2.3-5.4
								c-0.7-0.7-2.7,0.1-5.5,2c1.5-3,2-5.2,1.2-5.7c-0.8-0.6-2.7,0.7-5,3c0.8-3.2,0.8-5.5-0.1-5.9c-0.9-0.4-2.5,1.2-4.2,4.1
								c0.1-3.3-0.4-5.5-1.3-5.7c-0.9-0.2-2.2,1.7-3.3,4.8c-0.6-3.2-1.5-5.3-2.4-5.4c-1,0-1.8,2.1-2.2,5.4c-1.3-3-2.6-4.9-3.5-4.7
								s-1.3,2.5-1,5.7c-1.9-2.8-3.5-4.3-4.4-3.9c-0.9,0.4-0.8,2.7,0.1,5.9c-2.4-2.3-4.3-3.5-5-2.9c-0.8,0.6-0.1,2.8,1.4,5.7
								c-2.8-1.7-5-2.5-5.6-1.8s0.4,2.7,2.5,5.3c-3.2-1.1-5.3-1.4-5.8-0.6s0.9,2.6,3.6,4.6c-3.3-0.5-5.6-0.3-5.8,0.6
								c-0.3,0.9,1.5,2.3,4.5,3.8c-3.3,0.2-5.5,0.9-5.6,1.9c-0.1,0.9,1.9,2,5.2,2.8c-3.1,0.9-5.1,2.1-5.1,2.9
								c0.1,0.9,2.3,1.5,5.6,1.6c-3,1.6-4.6,3-4.3,4c0.3,0.9,2.6,1,5.9,0.4c-2.5,2.2-3.9,4-3.4,4.8s2.7,0.4,5.8-0.8
								c-2,2.7-3,4.7-2.3,5.4c0.7,0.7,2.7-0.1,5.5-2c-1.5,3-2,5.2-1.2,5.7c0.8,0.6,2.7-0.7,5-3c-0.8,3.2-0.8,5.5,0.1,5.9
								c0.9,0.4,2.5-1.2,4.2-4.1c-0.1,3.3,0.4,5.5,1.3,5.7c0.9,0.2,2.2-1.7,3.3-4.8c0.6,3.2,1.5,5.3,2.4,5.4c1,0,1.8-2.1,2.2-5.4
								c1.3,3,2.6,4.9,3.5,4.7s1.3-2.5,1-5.7c1.9,2.8,3.5,4.3,4.4,3.9s0.8-2.7-0.1-5.9c2.4,2.3,4.3,3.5,5,2.9s0.1-2.8-1.4-5.7
								c2.8,1.7,5,2.5,5.6,1.8s-0.4-2.7-2.5-5.3c3.2,1.1,5.3,1.4,5.8,0.6s-0.9-2.6-3.6-4.6c3.3,0.5,5.6,0.3,5.8-0.6
								C195.5,93.4,193.7,92,190.8,90.5z"/>
							<path class="st3" d="M183.8,89.2c2.3-0.2,3.7-0.6,3.8-1.3c0-0.6-1.3-1.4-3.5-1.9c2.1-0.6,3.6-1.4,3.4-2.1
								c-0.1-0.7-1.6-1-3.8-1.1c2-1.1,3.1-2.1,2.9-2.7c-0.2-0.6-1.8-0.7-4-0.3c1.7-1.4,2.7-2.7,2.3-3.2c-0.3-0.5-1.9-0.3-3.9,0.5
								c1.4-1.8,2.1-3.2,1.6-3.6c-0.5-0.5-1.9,0.1-3.8,1.4c1-2.1,1.3-3.5,0.8-3.9c-0.5-0.3-1.8,0.4-3.4,2.1c0.5-2.2,0.6-3.7,0-4
								s-1.7,0.9-2.9,2.7c0-2.2-0.2-3.8-0.8-3.9s-1.4,1.2-2.2,3.3c-0.4-2.2-1-3.6-1.6-3.6s-1.2,1.5-1.5,3.7
								c-0.9-2.1-1.8-3.4-2.4-3.2c-0.6,0.1-0.9,1.7-0.7,4c-1.2-1.8-2.4-2.9-3-2.7s-0.5,1.8,0.1,3.9c-1.6-1.5-3-2.3-3.5-2
								c-0.5,0.4-0.1,1.9,0.9,3.9c-1.9-1.2-3.4-1.7-3.8-1.2c-0.4,0.5,0.3,1.9,1.7,3.6c-2.1-0.7-3.7-0.9-3.9-0.4
								c-0.4,0.6,0.7,1.7,2.4,3.2c-2.3-0.3-3.7-0.2-3.9,0.4s1.1,1.6,3,2.6c-2.3,0.2-3.7,0.6-3.8,1.3c0,0.6,1.3,1.4,3.5,1.9
								c-2.1,0.6-3.6,1.4-3.4,2.1s1.6,1,3.8,1.1c-2,1.1-3.1,2.1-2.9,2.7s1.8,0.7,4,0.3c-1.7,1.4-2.7,2.7-2.3,3.2
								c0.3,0.5,1.9,0.3,3.9-0.5c-1.4,1.8-2.1,3.2-1.6,3.6s1.9-0.1,3.8-1.4c-1,2.1-1.3,3.5-0.8,3.9c0.5,0.3,1.8-0.4,3.4-2.1
								c-0.5,2.2-0.6,3.7,0,4s1.7-0.9,2.9-2.7c0,2.2,0.2,3.8,0.8,3.9s1.4-1.2,2.2-3.3c0.4,2.2,1,3.6,1.6,3.6s1.2-1.5,1.5-3.7
								c0.9,2.1,1.8,3.4,2.4,3.2c0.6-0.1,0.9-1.7,0.7-4c1.2,1.8,2.4,2.9,3,2.7c0.6-0.3,0.5-1.8-0.1-3.9c1.6,1.5,3,2.3,3.5,2
								c0.5-0.4,0.1-1.9-0.9-3.9c1.9,1.2,3.4,1.7,3.8,1.2c0.4-0.5-0.3-1.9-1.7-3.6c2.1,0.7,3.7,0.9,3.9,0.4c0.4-0.6-0.7-1.7-2.4-3.2
								c2.3,0.3,3.7,0.2,3.9-0.4S185.8,90.2,183.8,89.2z"/>
							<circle class="st4" cx="168.9" cy="86.3" r="7.1"/>
						</g>
					</g>
				</g>
				<g>
					<path class="st2" d="M228.9,95.5c2.5-0.7,3.9-1.5,3.9-2.2c-0.1-0.7-1.7-1.2-4.2-1.3c2.2-1.1,3.5-2.3,3.3-2.9
						c-0.2-0.7-1.9-0.8-4.4-0.4c2-1.6,3-2.9,2.6-3.6c-0.4-0.6-2.1-0.4-4.4,0.5c1.6-2,2.3-3.5,1.9-4.1s-2.1,0.1-4.2,1.4
						c1.1-2.3,1.6-3.9,1-4.4c-0.6-0.4-2,0.5-3.8,2.3c0.7-2.5,0.7-4.1,0.1-4.4s-1.9,0.9-3.3,3c0.1-2.5-0.2-4.2-0.9-4.4
						c-0.7-0.2-1.7,1.3-2.6,3.6c-0.4-2.5-1.1-4.1-1.8-4.1s-1.4,1.6-1.8,4.1c-0.9-2.3-1.9-3.8-2.6-3.6c-0.7,0.1-1,1.9-0.9,4.4
						c-1.4-2.1-2.6-3.3-3.3-3s-0.6,2,0.1,4.4c-1.8-1.8-3.2-2.7-3.8-2.3c-0.6,0.4-0.2,2.1,1,4.4c-2.1-1.4-3.7-2-4.2-1.4
						c-0.5,0.5,0.3,2.1,1.9,4.1c-2.3-0.9-4.1-1.1-4.4-0.5c-0.4,0.6,0.7,2,2.6,3.6c-2.5-0.4-4.2-0.2-4.4,0.4
						c-0.2,0.7,1.1,1.8,3.3,2.9c-2.5,0.1-4.2,0.6-4.2,1.3c-0.1,0.7,1.4,1.5,3.9,2.2c-2.5,0.7-3.9,1.5-3.9,2.2
						c0.1,0.7,1.7,1.2,4.2,1.3c-2.2,1.1-3.5,2.3-3.3,2.9c0.2,0.7,1.9,0.8,4.4,0.4c-2,1.6-3,2.9-2.6,3.6c0.4,0.6,2.1,0.4,4.4-0.5
						c-1.6,2-2.3,3.5-1.9,4.1c0.5,0.5,2.1-0.1,4.2-1.4c-1.1,2.3-1.6,3.9-1,4.4c0.6,0.4,2-0.5,3.8-2.3c-0.7,2.5-0.7,4.1-0.1,4.4
						c0.7,0.3,1.9-0.9,3.3-3c-0.1,2.5,0.2,4.2,0.9,4.4c0.7,0.2,1.7-1.3,2.6-3.6c0.4,2.5,1.1,4.1,1.8,4.1s1.4-1.6,1.8-4.1
						c0.9,2.3,1.9,3.8,2.6,3.6c0.7-0.1,1-1.9,0.9-4.4c1.4,2.1,2.6,3.3,3.3,3s0.6-2-0.1-4.4c1.8,1.8,3.2,2.7,3.8,2.3
						c0.6-0.4,0.2-2.1-1-4.4c2.1,1.4,3.7,2,4.2,1.4c0.5-0.5-0.3-2.1-1.9-4.1c2.3,0.9,4.1,1.1,4.4,0.5c0.4-0.6-0.7-2-2.6-3.6
						c2.5,0.4,4.2,0.2,4.4-0.4c0.2-0.7-1.1-1.8-3.3-2.9c2.5-0.1,4.2-0.6,4.2-1.3C232.9,97,231.3,96.2,228.9,95.5z"/>
					<path class="st3" d="M223.5,95.5c1.7-0.5,2.7-1,2.6-1.5c-0.1-0.5-1.2-0.8-2.9-0.9c1.5-0.8,2.5-1.6,2.3-2
						c-0.2-0.5-1.3-0.5-3-0.3c1.3-1.1,2-2,1.8-2.5c-0.2-0.4-1.4-0.2-3,0.4c1.1-1.3,1.6-2.4,1.3-2.8s-1.4,0.1-2.9,1
						c0.8-1.6,1.1-2.7,0.7-2.9c-0.4-0.3-1.4,0.4-2.6,1.6c0.4-1.7,0.5-2.8,0.1-3.1c-0.4-0.2-1.3,0.6-2.2,2c0.1-1.7-0.1-2.9-0.6-3
						s-1.1,0.9-1.7,2.5c-0.3-1.7-0.7-2.8-1.2-2.8s-0.9,1.1-1.2,2.8c-0.6-1.6-1.3-2.6-1.7-2.5c-0.5,0.1-0.7,1.3-0.6,3
						c-1-1.4-1.8-2.3-2.2-2c-0.4,0.2-0.4,1.4,0.1,3.1c-1.2-1.2-2.2-1.9-2.6-1.6c-0.4,0.3-0.1,1.4,0.7,2.9c-1.4-0.9-2.6-1.3-2.9-1
						c-0.3,0.4,0.2,1.4,1.3,2.8c-1.6-0.6-2.8-0.8-3-0.4s0.5,1.4,1.8,2.5c-1.7-0.2-2.9-0.2-3,0.3c-0.2,0.5,0.8,1.2,2.3,2
						c-1.7,0.1-2.8,0.4-2.9,0.9c-0.1,0.5,1,1,2.6,1.5c-1.7,0.5-2.7,1-2.6,1.5c0.1,0.5,1.2,0.8,2.9,0.9c-1.5,0.8-2.5,1.6-2.3,2
						s1.3,0.5,3,0.3c-1.3,1.1-2,2-1.8,2.5c0.2,0.4,1.4,0.2,3-0.4c-1.1,1.3-1.6,2.4-1.3,2.8s1.4-0.1,2.9-1c-0.8,1.6-1.1,2.7-0.7,2.9
						c0.4,0.2,1.4-0.4,2.6-1.6c-0.4,1.7-0.5,2.8-0.1,3.1c0.4,0.2,1.3-0.6,2.2-2c-0.1,1.7,0.1,2.9,0.6,3s1.1-0.9,1.7-2.5
						c0.3,1.7,0.7,2.8,1.2,2.8s0.9-1.1,1.2-2.8c0.6,1.6,1.3,2.6,1.7,2.5c0.5-0.1,0.7-1.3,0.6-3c1,1.4,1.8,2.3,2.2,2
						c0.4-0.2,0.4-1.4-0.1-3.1c1.2,1.2,2.2,1.9,2.6,1.6c0.4-0.3,0.1-1.4-0.7-2.9c1.4,0.9,2.6,1.3,2.9,1c0.3-0.4-0.2-1.4-1.3-2.8
						c1.6,0.6,2.8,0.8,3,0.4s-0.5-1.4-1.8-2.5c1.7,0.2,2.9,0.2,3-0.3c0.2-0.5-0.8-1.2-2.3-2c1.7-0.1,2.8-0.4,2.9-0.9
						S225.1,96,223.5,95.5z"/>
					<circle class="st4" cx="212" cy="95.5" r="5.4"/>
				</g>
				<path class="st9" d="M316.2,102.6c3.5,0,6.3,3.1,6.3,6.9s-2.8,6.9-6.3,6.9l-225-0.8L19,102.8c-3.4-0.2-6.1-3.1-6-6.5
					c0-3.7,2.7-6.6,6-6.6l-0.2-31.1l13.3,13.9l-0.7,17.3v4.1l58,9.9L316.2,102.6z"/>
				<g class="st10">
					<path d="M316.3,86.7c0,0-18.2-45.3-84.8-25.5L18.9,46.9c0-8.6,6.5-15.5,14.3-15.5l43.2,0.2c8.9,0.1,141.8,18.5,141.8,18.5
						l14-12.4h34.9C267.1,37.7,316.3,36.1,316.3,86.7z"/>
				</g>
				
					<ellipse transform="matrix(0.9954 -9.580734e-02 9.580734e-02 0.9954 -8.2438 26.3043)" class="st11" cx="269.8" cy="99" rx="33.7" ry="33.5"/>
				
					<ellipse transform="matrix(0.9954 -9.588201e-02 9.588201e-02 0.9954 -8.2493 26.3253)" class="st9" cx="269.8" cy="99" rx="32.8" ry="32.6"/>
				
					<ellipse transform="matrix(0.9954 -9.580738e-02 9.580738e-02 0.9954 -8.2438 26.3043)" cx="269.8" cy="99" rx="24.7" ry="24.5"/>
				
					<ellipse transform="matrix(0.9954 -9.584467e-02 9.584467e-02 0.9954 -8.2466 26.3148)" class="st12" cx="269.8" cy="99" rx="23.5" ry="23.3"/>
				
					<ellipse transform="matrix(0.9954 -9.588195e-02 9.588195e-02 0.9954 -8.2493 26.3252)" class="st13" cx="269.8" cy="99" rx="22.3" ry="22.1"/>
				
					<ellipse transform="matrix(0.5205 -0.8539 0.8539 0.5205 44.8728 277.7673)" class="st14" cx="269.8" cy="98.9" rx="13.8" ry="13.8"/>
				
					<ellipse transform="matrix(0.995 -9.951444e-02 9.951444e-02 0.995 -8.5123 27.3395)" class="st15" cx="269.8" cy="99" rx="12.7" ry="12.7"/>
				<g>
					<g>
						<g>
							<g>
								<defs>
									<path id="SVGID_00000009589369504630719350000002338545440013215392_" d="M204.9,48.7c-18.2-36.7-27.7-35.4-27.7-35.4
										s-24.1-0.8-31.7-0.1s-10.2,5.5-10.2,5.5l-7.6,11.7c0,0-5.1,6.9,7.5,8.3C145.4,39.9,204.9,48.7,204.9,48.7z"/>
								</defs>
								<clipPath id="SVGID_00000044858052086809082750000006665982356019959682_">
									<use xlink:href="#SVGID_00000009589369504630719350000002338545440013215392_"  style="overflow:visible;"/>
								</clipPath>
								<g style="clip-path:url(#SVGID_00000044858052086809082750000006665982356019959682_);">
									<path class="st17" d="M203.8,12h-81.2v36.7h82.3V12H203.8z"/>
								</g>
							</g>
						</g>
					</g>
				</g>
				<g>
					<g>
						<g>
							<g>
								<defs>
									<path id="SVGID_00000157269647623426169750000016311316363386583456_" d="M210.1,13.4l22.7,24.3l-12.7,11.7l-20.8-29.1
										c0,0-3.8-4.2,0-6.2L210.1,13.4z"/>
								</defs>
								<clipPath id="SVGID_00000132080239299033534710000010363635718259792281_">
									<use xlink:href="#SVGID_00000157269647623426169750000016311316363386583456_"  style="overflow:visible;"/>
								</clipPath>
								<g style="clip-path:url(#SVGID_00000132080239299033534710000010363635718259792281_);">
									<path class="st19" d="M232,13.4h-36.5v36h37.3v-36L232,13.4z"/>
								</g>
							</g>
						</g>
					</g>
				</g>
			</g>
			
				<ellipse transform="matrix(0.9954 -9.585401e-02 9.585401e-02 0.9954 -9.1459 8.0101)" class="st11" cx="78.8" cy="99.2" rx="33.7" ry="33.5"/>
			
				<ellipse transform="matrix(0.9954 -9.583534e-02 9.583534e-02 0.9954 -9.1442 8.0084)" class="st9" cx="78.8" cy="99.2" rx="32.8" ry="32.6"/>
			
				<ellipse transform="matrix(0.9954 -9.585399e-02 9.585399e-02 0.9954 -9.1459 8.0101)" cx="78.8" cy="99.2" rx="24.7" ry="24.5"/>
			
				<ellipse transform="matrix(0.9954 -9.584467e-02 9.584467e-02 0.9954 -9.1451 8.0093)" class="st12" cx="78.8" cy="99.2" rx="23.5" ry="23.3"/>
			
				<ellipse transform="matrix(0.9954 -9.583536e-02 9.583536e-02 0.9954 -9.1442 8.0084)" class="st13" cx="78.8" cy="99.2" rx="22.3" ry="22.1"/>
			<ellipse class="st14" cx="79.6" cy="99.3" rx="13.9" ry="13.9"/>
			<ellipse class="st15" cx="79.6" cy="99.3" rx="12.6" ry="12.6"/>
		</g>
	</g>
</g>
</svg>
